0
SECTION
2
HEADER
9
$INSUNITS
70
4
9
$ACADVER
1
AC1014
9
$HANDSEED
5
FFFF
0
ENDSEC
0
SECTION
2
TABLES
0
TABLE
2
VPORT
5
8
100
AcDbSymbolTable
0
ENDTAB
0
TABLE
2
LTYPE
5
5
100
AcDbSymbolTable
0
LTYPE
5
14
100
AcDbSymbolTableRecord
100
AcDbLinetypeTableRecord
2
BYBLOCK
70
0
0
LTYPE
5
15
100
AcDbSymbolTableRecord
100
AcDbLinetypeTableRecord
2
BYLAYER
70
0
0
LTYPE
5
16
100
AcDbSymbolTableRecord
100
AcDbLinetypeTableRecord
2
DASHED
70
0
3
Dashed __ __ __ __ __ __ __ __ __ __ __ __ __ _
72
65
73
2
40
0.75
49
0.5
74
0
49
-0.25
74
0
0
ENDTAB
0
TABLE
2
LAYER
5
2
100
AcDbSymbolTable
70
2
0
LAYER
5
50
100
AcDbSymbolTableRecord
100
AcDbLayerTableRecord
2
0
70
0
62
7
6
CONTINUOUS
0
ENDTAB
0
TABLE
2
STYLE
5
3
100
AcDbSymbolTable
70
1
0
STYLE
5
11
100
AcDbSymbolTableRecord
100
AcDbTextStyleTableRecord
2
STANDARD
70
0
0
ENDTAB
0
TABLE
2
VIEW
5
6
100
AcDbSymbolTable
70
0
0
ENDTAB
0
TABLE
2
UCS
5
7
100
AcDbSymbolTable
70
0
0
ENDTAB
0
TABLE
2
APPID
5
9
100
AcDbSymbolTable
70
2
0
APPID
5
12
100
AcDbSymbolTableRecord
100
AcDbRegAppTableRecord
2
ACAD
70
0
0
ENDTAB
0
TABLE
2
DIMSTYLE
5
A
100
AcDbSymbolTable
70
1
0
ENDTAB
0
TABLE
2
BLOCK_RECORD
5
1
100
AcDbSymbolTable
70
1
0
BLOCK_RECORD
5
1F
100
AcDbSymbolTableRecord
100
AcDbBlockTableRecord
2
*MODEL_SPACE
0
BLOCK_RECORD
5
1B
100
AcDbSymbolTableRecord
100
AcDbBlockTableRecord
2
*PAPER_SPACE
0
ENDTAB
0
ENDSEC
0
SECTION
2
BLOCKS
0
BLOCK
5
20
100
AcDbEntity
100
AcDbBlockBegin
2
*MODEL_SPACE
0
ENDBLK
5
21
100
AcDbEntity
100
AcDbBlockEnd
0
BLOCK
5
1C
100
AcDbEntity
100
AcDbBlockBegin
2
*PAPER_SPACE
0
ENDBLK
5
1D
100
AcDbEntity
100
AcDbBlockEnd
0
ENDSEC
0
SECTION
2
ENTITIES
0
POINT
5
100
100
AcDbEntity
8
0
100
AcDbPoint
10
0
20
0
30
0
0
POINT
5
101
100
AcDbEntity
8
0
100
AcDbPoint
10
28.353000000000002
20
0
30
0
0
POINT
5
102
100
AcDbEntity
8
0
100
AcDbPoint
10
-28.353000000000002
20
0
30
0
0
POINT
5
103
100
AcDbEntity
8
0
100
AcDbPoint
10
0
20
-28.353000000000002
30
0
0
POINT
5
104
100
AcDbEntity
8
0
100
AcDbPoint
10
-28.353000000000002
20
-28.353000000000002
30
0
0
POINT
5
105
100
AcDbEntity
8
0
100
AcDbPoint
10
28.353000000000002
20
-28.353000000000002
30
0
0
POINT
5
106
100
AcDbEntity
8
0
100
AcDbPoint
10
0
20
0
30
0
0
POINT
5
107
100
AcDbEntity
8
0
100
AcDbPoint
10
0
20
28.353000000000002
30
0
0
POINT
5
108
100
AcDbEntity
8
0
100
AcDbPoint
10
0
20
28.353000000000002
30
0
0
POINT
5
109
100
AcDbEntity
8
0
100
AcDbPoint
10
-28.353000000000002
20
28.353000000000002
30
0
0
POINT
5
110
100
AcDbEntity
8
0
100
AcDbPoint
10
-13.926513809274748
20
13.92648619072526
30
0
0
POINT
5
111
100
AcDbEntity
8
0
100
AcDbPoint
10
28.353000000000002
20
28.353000000000002
30
0
0
POINT
5
112
100
AcDbEntity
8
0
100
AcDbPoint
10
-13.926513809274748
20
13.92648619072526
30
0
0
LWPOLYLINE
5
113
100
AcDbEntity
8
0
100
AcDbPolyline
90
4
70
1
43
0.0
10
40
20
40
10
-40
20
40
10
-40
20
-40
10
40
20
-40
0
LWPOLYLINE
5
114
100
AcDbEntity
8
0
100
AcDbPolyline
90
8
70
1
43
0.0
10
32.560314622871786
20
32.865549926372346
10
28.388405200440374
20
37.052526286704939
42
0.41526983913192383
10
28.317567181010126
20
37.052526286704939
10
24.14564422882599
20
32.865536347756617
42
0.41421546904049406
10
24.145771915577903
20
32.794825554769133
10
28.317708447297072
20
28.637955960951178
42
0.41315616870927085
10
28.388291323792917
20
28.637956190689408
10
32.560187166689303
20
32.794839363123096
42
0.41421356237922052
0
LWPOLYLINE
5
115
100
AcDbEntity
8
0
100
AcDbPolyline
90
8
70
1
43
0.0
10
28.317567181010123
20
19.653473713295067
10
24.145644228825994
20
23.840463652243379
42
-0.41421546904045725
10
24.145771915577914
20
23.911174445230866
10
28.317708447297072
20
28.068044039048839
42
-0.41315616870928923
10
28.38829132379292
20
28.068043809310605
10
32.56018716668931
20
23.911160636876918
42
-0.41421356237925738
10
32.5603146228718
20
23.840450073627654
10
28.388405200440374
20
19.653473713295071
42
-0.41526983913196985
0
LWPOLYLINE
5
116
100
AcDbEntity
8
0
100
AcDbPolyline
90
8
70
1
43
0.0
10
37.614015370229723
20
18.702904116120063
10
33.367655517758521
20
14.441208446466614
42
-0.19938086482396808
10
33.332236508043401
20
14.426500000000003
10
29.127595123885982
20
14.426500000000008
42
-0.66751890005567338
10
29.09217532118938
20
14.511790757670159
10
33.33834434787736
20
18.773486427323618
42
-0.19938670556191218
10
33.373764150573948
20
18.788195669653451
10
37.578596360514595
20
18.788195669653447
42
-0.6675270205295587
0
LWPOLYLINE
5
117
100
AcDbEntity
8
0
100
AcDbPolyline
90
8
70
1
43
0.0
10
42.19420924232984
20
27.613824678810623
10
37.932513572676406
20
23.36765565212264
42
0.19938670556198435
10
37.91780433034657
20
23.332235849426045
10
37.917804330346556
20
19.127403639485408
42
0.6675270205295446
10
38.003095883879951
20
19.091984629770288
10
42.264791553533385
20
23.338344482241482
42
0.19938086482392067
10
42.279500000000006
20
23.373763491956588
10
42.279499999999999
20
27.578404876114021
42
0.66751890005557502
0
LWPOLYLINE
5
118
100
AcDbEntity
8
0
100
AcDbPolyline
90
8
70
1
43
0.0
10
19.127403639485397
20
18.788195669653454
10
23.332235849426052
20
18.788195669653447
42
-0.19938670556197752
10
23.367655652122647
20
18.773486427323608
10
27.613824678810623
20
14.511790757670171
42
-0.66751890005562975
10
27.578404876114018
20
14.426500000000003
10
23.373763491956598
20
14.426500000000006
42
-0.19938086482396819
10
23.338344482241482
20
14.441208446466618
10
19.091984629770266
20
18.70290411612006
42
-0.66752702052948765
0
LWPOLYLINE
5
119
100
AcDbEntity
8
0
100
AcDbPolyline
90
6
70
1
43
0.0
10
22.576217873853142
20
14.511841529784586
10
14.511841529784579
20
22.576217873853142
42
0.66817863791929888
10
14.42648619072525
20
22.54086253479381
10
14.426486190725253
20
14.476486190725261
42
0.41421356237312101
10
14.47648619072525
20
14.426486190725258
10
22.540862534793806
20
14.426486190725257
42
0.66817863791931964
0
LWPOLYLINE
5
120
100
AcDbEntity
8
0
100
AcDbPolyline
90
8
70
1
43
0.0
10
37.417804330346549
20
33.514695669653449
10
37.417804330346549
20
37.367804330346551
42
0.41421356237309503
10
37.367804330346551
20
37.417804330346549
10
33.514695669653449
20
37.417804330346549
42
0.41421356237312101
10
33.464695669653452
20
37.367804330346544
10
33.464695669653452
20
33.514695669653449
42
0.41421356237309503
10
33.514695669653449
20
33.464695669653452
10
37.367804330346544
20
33.464695669653452
42
0.41421356237312101
0
LWPOLYLINE
5
121
100
AcDbEntity
8
0
100
AcDbPolyline
90
8
70
1
43
0.0
10
33.367655517758557
20
42.264791553533392
10
37.614015370229723
20
38.003095883879958
42
-0.66752702052949653
10
37.578596360514609
20
37.917804330346577
10
33.373764150573948
20
37.91780433034657
42
-0.19938670556198435
10
33.338344347877353
20
37.932513572676406
10
29.092175321189377
20
42.194209242329833
42
-0.66751890005559777
10
29.127595123885982
20
42.279500000000006
10
33.33223650804343
20
42.279500000000006
42
-0.19938086482395317
0
LWPOLYLINE
5
122
100
AcDbEntity
8
0
100
AcDbPolyline
90
8
70
1
43
0.0
10
28.068043809310591
20
28.388291323792913
10
23.911160636876915
20
32.560187166689303
42
0.41421356237933088
10
23.84045007362765
20
32.560314622871786
10
19.653473713295053
20
28.388405200440388
42
0.41526983913194232
10
19.65347371329505
20
28.317567181010148
10
23.840463652243379
20
24.145644228825994
42
0.41421546904047557
10
23.91117444523087
20
24.145771915577914
10
28.068044039048829
20
28.317708447297079
42
0.41315616870917887
0
LWPOLYLINE
5
123
100
AcDbEntity
8
0
100
AcDbPolyline
90
8
70
1
43
0.0
10
32.794825554769147
20
24.145771915577914
10
28.637955960951174
20
28.317708447297072
42
-0.41315616870927085
10
28.637956190689408
20
28.388291323792917
10
32.794839363123096
20
32.560187166689303
42
-0.41421356237931245
10
32.865549926372353
20
32.560314622871779
10
37.052526286704946
20
28.388405200440388
42
-0.4152698391319421
10
37.052526286704946
20
28.317567181010141
10
32.865536347756638
20
24.145644228826004
42
-0.41421546904051243
0
LWPOLYLINE
5
124
100
AcDbEntity
8
0
100
AcDbPolyline
90
8
70
1
43
0.0
10
37.417804330346549
20
23.191304330346551
10
37.417804330346556
20
19.338195669653444
42
-0.41421356237309503
10
37.367804330346551
20
19.288195669653444
10
33.514695669653449
20
19.288195669653454
42
-0.41421356237312101
10
33.464695669653459
20
19.338195669653452
10
33.464695669653452
20
23.191304330346554
42
-0.41421356237309503
10
33.514695669653449
20
23.241304330346555
10
37.367804330346559
20
23.241304330346551
42
-0.414213562373069
0
LWPOLYLINE
5
125
100
AcDbEntity
8
0
100
AcDbPolyline
90
8
70
1
43
0.0
10
23.756013572676391
20
37.54415565212264
10
28.017709242329843
20
41.790324678810634
42
-0.66751890005579428
10
28.103000000000012
20
41.754904876114026
10
28.103000000000016
20
37.550263491956613
42
-0.19938086482404829
10
28.088291553533395
20
37.514844482241479
10
23.826595883879939
20
33.268484629770285
42
-0.66752702052946034
10
23.741304330346548
20
33.303903639485412
10
23.741304330346548
20
37.508735849426046
42
-0.19938670556197752
0
LWPOLYLINE
5
126
100
AcDbEntity
8
0
100
AcDbPolyline
90
8
70
1
43
0.0
10
32.879404116120071
20
23.437515370229733
10
28.617708446466597
20
19.191155517758517
42
0.19938086482392395
10
28.602999999999994
20
19.1557365080434
10
28.602999999999994
20
14.951095123885988
42
0.66751890005556636
10
28.688290757670146
20
14.915675321189386
10
32.949986427323608
20
19.161844347877356
42
0.19938670556205915
10
32.964695669653452
20
19.197264150573965
10
32.964695669653459
20
23.402096360514605
42
0.66752702052940582
0
LWPOLYLINE
5
127
100
AcDbEntity
8
0
100
AcDbPolyline
90
8
70
1
43
0.0
10
33.268484629770285
20
23.826595883879943
10
37.514844482241493
20
28.088291553533388
42
-0.19938086482396289
10
37.550263491956606
20
28.103000000000002
10
41.754904876114026
20
28.103000000000016
42
-0.66751890005557535
10
41.790324678810634
20
28.017709242329843
10
37.544155652122633
20
23.756013572676391
42
-0.19938670556193794
10
37.508735849426046
20
23.741304330346551
10
33.303903639485412
20
23.741304330346551
42
-0.66752702052942836
0
LWPOLYLINE
5
128
100
AcDbEntity
8
0
100
AcDbPolyline
90
8
70
1
43
0.0
10
33.268484629770285
20
32.879404116120071
10
37.514844482241479
20
28.617708446466622
42
0.19938086482400633
10
37.550263491956592
20
28.602999999999994
10
41.754904876114011
20
28.603000000000005
42
0.66751890005554881
10
41.790324678810642
20
28.688290757670174
10
37.544155652122654
20
32.949986427323608
42
0.19938670556200058
10
37.508735849426053
20
32.964695669653452
10
33.303903639485405
20
32.964695669653445
42
0.66752702052948309
0
LWPOLYLINE
5
129
100
AcDbEntity
8
0
100
AcDbPolyline
90
8
70
1
43
0.0
10
37.917804330346563
20
37.578596360514624
10
37.917804330346563
20
33.373764150573948
42
0.19938670556194496
10
37.932513572676399
20
33.338344347877353
10
42.194209242329855
20
29.092175321189373
42
0.6675189000556071
10
42.279499999999999
20
29.127595123885968
10
42.279500000000006
20
33.332236508043394
42
0.19938086482399245
10
42.264791553533399
20
33.367655517758536
10
38.003095883879951
20
37.614015370229751
42
0.66752702052954738
0
LWPOLYLINE
5
130
100
AcDbEntity
8
0
100
AcDbPolyline
90
8
70
1
43
0.0
10
28.617708446466608
20
37.514844482241479
10
32.879404116120078
20
33.268484629770271
42
0.66752702052958324
10
32.964695669653466
20
33.303903639485391
10
32.964695669653466
20
37.508735849426024
42
0.19938670556199092
10
32.94998642732363
20
37.544155652122633
10
28.68829075767016
20
41.790324678810634
42
0.66751890005557146
10
28.602999999999994
20
41.754904876114011
10
28.602999999999994
20
37.550263491956606
42
0.19938086482397621
0
LWPOLYLINE
5
131
100
AcDbEntity
8
0
100
AcDbPolyline
90
6
70
1
43
0.0
10
42.279486190725272
20
22.540861474465729
10
42.279486190725272
20
14.476486190725264
42
-0.41421356237304302
10
42.229486190725282
20
14.426486190725267
10
34.165136404881643
20
14.426486190725271
42
-0.66817806624142273
10
34.129781009929118
20
14.511841473891302
10
42.194130795772757
20
22.576216757631769
42
-0.66817920959744292
0
LWPOLYLINE
5
132
100
AcDbEntity
8
0
100
AcDbPolyline
90
8
70
1
43
0.0
10
28.088291553533399
20
19.191155517758524
10
23.826595883879939
20
23.437515370229729
42
0.6675270205294096
10
23.741304330346551
20
23.402096360514619
10
23.741304330346551
20
19.197264150573965
42
0.19938670556201557
10
23.756013572676395
20
19.161844347877363
10
28.017709242329857
20
14.915675321189388
42
0.66751890005552772
10
28.103000000000009
20
14.951095123885988
10
28.102999999999998
20
19.155736508043397
42
0.19938086482395653
0
LWPOLYLINE
5
133
100
AcDbEntity
8
0
100
AcDbPolyline
90
8
70
1
43
0.0
10
23.191304330346551
20
23.241304330346555
10
19.338195669653455
20
23.241304330346551
42
0.41421356237309503
10
19.288195669653454
20
23.191304330346551
10
19.288195669653454
20
19.338195669653444
42
0.41421356237309503
10
19.338195669653455
20
19.288195669653447
10
23.191304330346551
20
19.288195669653447
42
0.41421356237309503
10
23.241304330346551
20
19.338195669653444
10
23.241304330346551
20
23.191304330346551
42
0.41421356237312101
0
LWPOLYLINE
5
134
100
AcDbEntity
8
0
100
AcDbPolyline
90
8
70
1
43
0.0
10
23.191304330346551
20
33.464695669653452
10
19.338195669653444
20
33.464695669653459
42
-0.41421356237312101
10
19.288195669653451
20
33.514695669653456
10
19.288195669653447
20
37.367804330346566
42
-0.41421356237309503
10
19.338195669653444
20
37.417804330346563
10
23.191304330346554
20
37.417804330346563
42
-0.414213562373069
10
23.241304330346551
20
37.367804330346566
10
23.241304330346551
20
33.514695669653456
42
-0.41421356237312101
0
LWPOLYLINE
5
135
100
AcDbEntity
8
0
100
AcDbPolyline
90
6
70
1
43
0.0
10
42.229486190725268
20
42.279486190725272
10
34.165137465206207
20
42.279486190725272
42
0.66817863791928955
10
34.1297821261469
20
42.194130851665946
10
42.194130851665946
20
34.129782126146935
42
0.66817863791933507
10
42.279486190725265
20
34.165137465206236
10
42.279486190725272
20
42.229486190725261
42
0.41421356237314705
0
LWPOLYLINE
5
136
100
AcDbEntity
8
0
100
AcDbPolyline
90
6
70
1
43
0.0
10
14.426486190725253
20
42.229486190725261
10
14.426486190725253
20
34.16513640488165
42
0.66817806624141141
10
14.511841473891295
20
34.129781009929125
10
22.576216757631755
20
42.194130795772722
42
0.66817920959761123
10
22.540861474465714
20
42.279486190725265
10
14.476486190725256
20
42.279486190725265
42
0.41421356237310802
0
LWPOLYLINE
5
137
100
AcDbEntity
8
0
100
AcDbPolyline
90
8
70
1
43
0.0
10
18.773486427323615
20
33.338344347877367
10
14.511790757670145
20
29.092175321189391
42
-0.66751890005560532
10
14.426499999999997
20
29.127595123885996
10
14.426499999999997
20
33.332236508043408
42
-0.19938086482394232
10
14.441208446466602
20
33.367655517758529
10
18.70290411612007
20
37.614015370229744
42
-0.66752702052949264
10
18.788195669653447
20
37.578596360514609
10
18.788195669653444
20
33.373764150573948
42
-0.1993867055619204
0
LWPOLYLINE
5
138
100
AcDbEntity
8
0
100
AcDbPolyline
90
8
70
1
43
0.0
10
18.788195669653454
20
19.127403639485397
10
18.788195669653454
20
23.332235849426052
42
0.19938670556197757
10
18.773486427323608
20
23.367655652122647
10
14.511790757670154
20
27.613824678810602
42
0.66751890005562797
10
14.426499999999995
20
27.578404876114
10
14.426500000000001
20
23.373763491956613
42
0.19938086482403877
10
14.441208446466609
20
23.338344482241475
10
18.702904116120067
20
19.091984629770277
42
0.66752702052953783
0
LWPOLYLINE
5
139
100
AcDbEntity
8
0
100
AcDbPolyline
90
8
70
1
43
0.0
10
23.402096360514605
20
32.964695669653466
10
19.197264150573954
20
32.964695669653452
42
0.19938670556203469
10
19.161844347877352
20
32.949986427323608
10
14.915675321189381
20
28.688290757670167
42
0.66751890005551373
10
14.951095123885983
20
28.603000000000005
10
19.1557365080434
20
28.603000000000005
42
0.19938086482393552
10
19.191155517758517
20
28.617708446466608
10
23.437515370229725
20
32.879404116120064
42
0.66752702052962876
0
LWPOLYLINE
5
140
100
AcDbEntity
8
0
100
AcDbPolyline
90
8
70
1
43
0.0
10
23.36765565212265
20
37.932513572676406
10
27.613824678810634
20
42.194209242329848
42
0.66751890005549785
10
27.578404876114032
20
42.279500000000013
10
23.373763491956598
20
42.279500000000006
42
0.19938086482398598
10
23.338344482241482
20
42.264791553533385
10
19.09198462977028
20
38.003095883879958
42
0.66752702052956536
10
19.127403639485404
20
37.917804330346577
10
23.332235849426045
20
37.91780433034657
42
0.19938670556200727
0
LWPOLYLINE
5
141
100
AcDbEntity
8
0
100
AcDbPolyline
90
8
70
1
43
0.0
10
19.191155517758524
20
28.088291553533402
10
23.437515370229718
20
23.826595883879932
42
-0.66752702052946433
10
23.402096360514612
20
23.741304330346551
10
19.197264150573965
20
23.741304330346551
42
-0.19938670556203525
10
19.161844347877356
20
23.756013572676391
10
14.915675321189388
20
28.017709242329857
42
-0.66751890005548642
10
14.951095123885985
20
28.103000000000002
10
19.155736508043397
20
28.103000000000012
42
-0.19938086482392708
0
LWPOLYLINE
5
142
100
AcDbEntity
8
0
100
AcDbPolyline
90
8
70
1
43
0.0
10
5.1116956696534599
20
19.338195669653452
10
5.111695669653451
20
23.191304330346554
42
-0.41421356237309503
10
5.1616956696534499
20
23.241304330346555
10
9.0148043303465553
20
23.241304330346551
42
-0.414213562373069
10
9.0648043303465506
20
23.191304330346551
10
9.0648043303465524
20
19.338195669653444
42
-0.41421356237309503
10
9.0148043303465499
20
19.288195669653444
10
5.1616956696534499
20
19.288195669653454
42
-0.41421356237312101
0
LWPOLYLINE
5
143
100
AcDbEntity
8
0
100
AcDbPolyline
90
8
70
1
43
0.0
10
4.9154846297702859
20
23.826595883879943
10
9.1618444822414897
20
28.088291553533388
42
-0.19938086482396289
10
9.1972634919566012
20
28.103000000000002
10
13.401904876114026
20
28.103000000000016
42
-0.66751890005557535
10
13.437324678810629
20
28.017709242329843
10
9.1911556521226352
20
23.756013572676391
42
-0.19938670556193794
10
9.1557358494260441
20
23.741304330346551
10
4.9509036394854089
20
23.741304330346551
42
-0.66752702052942836
0
LWPOLYLINE
5
144
100
AcDbEntity
8
0
100
AcDbPolyline
90
8
70
1
43
0.0
10
4.5969864273236061
20
19.161844347877356
42
0.19938670556205915
10
4.6116956696534483
20
19.197264150573965
10
4.6116956696534572
20
23.402096360514605
42
0.66752702052940582
10
4.5264041161200685
20
23.437515370229733
10
0.26470844646659497
20
19.191155517758517
42
0.19938086482392395
10
0.24999999999999467
20
19.1557365080434
10
0.24999999999999467
20
14.951095123885988
42
0.66751890005556636
10
0.33529075767014582
20
14.915675321189386
0
LWPOLYLINE
5
145
100
AcDbEntity
8
0
100
AcDbPolyline
90
8
70
1
43
0.0
10
9.1618444822414737
20
28.617708446466622
42
0.19938086482400633
10
9.1972634919565941
20
28.602999999999994
10
13.401904876114008
20
28.603000000000005
42
0.66751890005554881
10
13.437324678810638
20
28.688290757670174
10
9.1911556521226512
20
32.949986427323608
42
0.19938670556200058
10
9.1557358494260512
20
32.964695669653452
10
4.9509036394854045
20
32.964695669653445
42
0.66752702052948309
10
4.9154846297702859
20
32.879404116120071
0
LWPOLYLINE
5
146
100
AcDbEntity
8
0
100
AcDbPolyline
90
8
70
1
43
0.0
10
8.6995262867049448
20
28.317567181010141
10
4.5125363477566358
20
24.145644228826004
42
-0.41421546904051243
10
4.4418255547691432
20
24.145771915577914
10
0.28495596095117603
20
28.317708447297072
42
-0.41315616870927085
10
0.28495619068940492
20
28.388291323792917
10
4.4418393631230932
20
32.560187166689303
42
-0.41421356237931245
10
4.5125499263723512
20
32.560314622871779
10
8.6995262867049412
20
28.388405200440388
42
-0.4152698391319421
0
LWPOLYLINE
5
147
100
AcDbEntity
8
0
100
AcDbPolyline
90
8
70
1
43
0.0
10
4.2073146228717961
20
23.840450073627654
42
0.41421356237925738
10
4.2071871666893035
20
23.911160636876915
10
0.035291323792918668
20
28.068043809310605
42
0.41315616870928923
10
-0.035291552702929607
20
28.068044039048836
10
-4.2072280844220877
20
23.911174445230866
42
0.41421546904045725
10
-4.2073557711740062
20
23.840463652243379
10
-0.035432818989877823
20
19.653473713295067
42
0.41526983913196985
10
0.035405200440372653
20
19.653473713295071
0
LWPOLYLINE
5
148
100
AcDbEntity
8
0
100
AcDbPolyline
90
6
70
1
43
0.0
10
13.92648619072526
20
34.165137465206236
10
13.926486190725269
20
42.229486190725261
42
0.41421356237314705
10
13.87648619072527
20
42.279486190725272
10
5.8121374652062086
20
42.279486190725272
42
0.66817863791928955
10
5.7767821261468955
20
42.194130851665946
10
13.841130851665948
20
34.129782126146935
42
0.66817863791933507
0
LWPOLYLINE
5
149
100
AcDbEntity
8
0
100
AcDbPolyline
90
8
70
1
43
0.0
10
13.926499999999997
20
27.578404876114021
42
0.66751890005557502
10
13.841209242329837
20
27.613824678810623
10
9.5795135726764045
20
23.36765565212264
42
0.19938670556198435
10
9.5648043303465649
20
23.332235849426045
10
9.5648043303465524
20
19.127403639485408
42
0.6675270205295446
10
9.6500958838799455
20
19.091984629770288
10
13.911791553533384
20
23.338344482241482
42
0.19938086482392067
10
13.926500000000006
20
23.373763491956588
0
LWPOLYLINE
5
150
100
AcDbEntity
8
0
100
AcDbPolyline
90
8
70
1
43
0.0
10
9.5648043303465613
20
33.373764150573948
42
0.19938670556194496
10
9.5795135726763991
20
33.338344347877353
10
13.841209242329855
20
29.092175321189373
42
0.6675189000556071
10
13.926499999999997
20
29.127595123885968
10
13.926500000000006
20
33.332236508043394
42
0.19938086482399245
10
13.911791553533401
20
33.367655517758536
10
9.6500958838799491
20
37.614015370229751
42
0.66752702052954738
10
9.5648043303465613
20
37.578596360514624
0
LWPOLYLINE
5
151
100
AcDbEntity
8
0
100
AcDbPolyline
90
8
70
1
43
0.0
10
-0.24999999999999023
20
41.754904876114026
42
0.66751890005579428
10
-0.3352907576701547
20
41.790324678810634
10
-4.5969864273236105
20
37.54415565212264
42
0.19938670556197749
10
-4.6116956696534439
20
37.508735849426046
10
-4.6116956696534528
20
33.303903639485412
42
0.66752702052946034
10
-4.5264041161200685
20
33.268484629770285
10
-0.26470844646660829
20
37.514844482241479
42
0.19938086482404827
10
-0.24999999999998579
20
37.550263491956613
0
LWPOLYLINE
5
152
100
AcDbEntity
8
0
100
AcDbPolyline
90
8
70
1
43
0.0
10
0.73917532118938034
20
14.511790757670159
42
0.66751890005567338
10
0.7745951238859794
20
14.426500000000006
10
4.9792365080433987
20
14.426500000000003
42
0.19938086482396808
10
5.0146555177585261
20
14.441208446466611
10
9.2610153702297247
20
18.702904116120063
42
0.6675270205295587
10
9.2255963605145919
20
18.788195669653447
10
5.0207641505739486
20
18.788195669653451
42
0.19938670556191221
10
4.9853443478773629
20
18.773486427323615
0
LWPOLYLINE
5
153
100
AcDbEntity
8
0
100
AcDbPolyline
90
8
70
1
43
0.0
10
-0.77459512388598384
20
14.426500000000003
42
0.66751890005562975
10
-0.73917532118938922
20
14.511790757670163
10
-4.985344347877354
20
18.773486427323608
42
0.19938670556197757
10
-5.0207641505739486
20
18.788195669653454
10
-9.2255963605146025
20
18.788195669653454
42
0.66752702052948765
10
-9.2610153702297264
20
18.702904116120067
10
-5.0146555177585217
20
14.441208446466618
42
0.19938086482396819
10
-4.9792365080434031
20
14.426500000000006
0
LWPOLYLINE
5
154
100
AcDbEntity
8
0
100
AcDbPolyline
90
8
70
1
43
0.0
10
-4.2072280844220966
20
32.794825554769133
10
-0.035291552702929614
20
28.637955960951178
42
0.41315616870927085
10
0.03529132379291422
20
28.637956190689408
10
4.2071871666893035
20
32.794839363123096
42
0.41421356237922052
10
4.2073146228717873
20
32.865549926372346
10
0.035405200440372646
20
37.052526286704939
42
0.41526983913192383
10
-0.035432818989873383
20
37.052526286704939
10
-4.2073557711740106
20
32.865536347756617
42
0.41421546904049406
0
LWPOLYLINE
5
155
100
AcDbEntity
8
0
100
AcDbPolyline
90
6
70
1
43
0.0
10
13.876486190725279
20
14.426486190725267
42
0.41421356237304302
10
13.926486190725269
20
14.476486190725264
10
13.926486190725269
20
22.540861474465729
42
0.66817920959744292
10
13.841130795772756
20
22.576216757631762
10
5.7767810099291195
20
14.511841473891302
42
0.66817806624142273
10
5.8121364048816426
20
14.426486190725267
0
LWPOLYLINE
5
156
100
AcDbEntity
8
0
100
AcDbPolyline
90
8
70
1
43
0.0
10
-4.5969864273236061
20
19.161844347877363
10
-0.33529075767014582
20
14.915675321189388
42
0.66751890005552772
10
-0.24999999999999467
20
14.951095123885988
10
-0.25000000000000355
20
19.155736508043397
42
0.19938086482395653
10
-0.26470844646660385
20
19.191155517758524
10
-4.5264041161200641
20
23.437515370229729
42
0.6675270205294096
10
-4.6116956696534483
20
23.402096360514619
10
-4.6116956696534483
20
19.197264150573965
42
0.19938670556201557
0
LWPOLYLINE
5
157
100
AcDbEntity
8
0
100
AcDbPolyline
90
8
70
1
43
0.0
10
4.9853443478773496
20
37.932513572676406
10
0.73917532118937723
20
42.194209242329833
42
-0.66751890005559777
10
0.7745951238859794
20
42.279500000000006
10
4.9792365080434289
20
42.279500000000006
42
-0.19938086482395317
10
5.0146555177585572
20
42.264791553533392
10
9.2610153702297211
20
38.003095883879958
42
-0.66752702052949653
10
9.2255963605146096
20
37.917804330346577
10
5.0207641505739442
20
37.91780433034657
42
-0.19938670556198435
0
LWPOLYLINE
5
158
100
AcDbEntity
8
0
100
AcDbPolyline
90
6
70
1
43
0.0
10
-5.8121374652061952
20
14.426486190725257
42
0.66817863791931964
10
-5.7767821261468599
20
14.511841529784586
10
-13.841158470215422
20
22.576217873853142
42
0.66817863791929888
10
-13.926513809274752
20
22.54086253479381
10
-13.926513809274748
20
14.476486190725261
42
0.41421356237312101
10
-13.876513809274751
20
14.426486190725258
0
LWPOLYLINE
5
159
100
AcDbEntity
8
0
100
AcDbPolyline
90
8
70
1
43
0.0
10
0.26470844646660829
20
37.514844482241479
10
4.5264041161200774
20
33.268484629770271
42
0.66752702052958324
10
4.6116956696534617
20
33.303903639485391
10
4.6116956696534617
20
37.508735849426024
42
0.19938670556199092
10
4.5969864273236283
20
37.544155652122633
10
0.33529075767015915
20
41.790324678810634
42
0.66751890005557146
10
0.24999999999999467
20
41.754904876114011
10
0.24999999999999467
20
37.550263491956606
42
0.19938086482397621
0
LWPOLYLINE
5
160
100
AcDbEntity
8
0
100
AcDbPolyline
90
8
70
1
43
0.0
10
-5.0207641505739575
20
37.91780433034657
42
0.19938670556200727
10
-4.9853443478773496
20
37.932513572676406
10
-0.73917532118936702
20
42.194209242329848
42
0.66751890005549785
10
-0.77459512388597052
20
42.279500000000013
10
-4.9792365080434031
20
42.279500000000006
42
0.19938086482398598
10
-5.0146555177585217
20
42.264791553533385
10
-9.2610153702297193
20
38.003095883879958
42
0.66752702052956536
10
-9.2255963605145972
20
37.917804330346577
0
LWPOLYLINE
5
161
100
AcDbEntity
8
0
100
AcDbPolyline
90
8
70
1
43
0.0
10
9.0148043303465499
20
37.417804330346549
10
5.1616956696534499
20
37.417804330346549
42
0.41421356237312101
10
5.111695669653451
20
37.367804330346544
10
5.111695669653451
20
33.514695669653449
42
0.41421356237309503
10
5.1616956696534499
20
33.464695669653452
10
9.0148043303465464
20
33.464695669653452
42
0.41421356237312101
10
9.0648043303465506
20
33.514695669653449
10
9.0648043303465506
20
37.367804330346551
42
0.41421356237309503
0
LWPOLYLINE
5
162
100
AcDbEntity
8
0
100
AcDbPolyline
90
8
70
1
43
0.0
10
-4.4418393631230879
20
32.560187166689303
42
0.41421356237933088
10
-4.5125499263723512
20
32.560314622871786
10
-8.6995262867049483
20
28.388405200440388
42
0.41526983913194232
10
-8.6995262867049519
20
28.317567181010148
10
-4.5125363477566216
20
24.145644228825994
42
0.41421546904047557
10
-4.4418255547691299
20
24.145771915577914
10
-0.28495596095117204
20
28.317708447297079
42
0.41315616870917887
10
-0.28495619068940936
20
28.388291323792913
0
LWPOLYLINE
5
163
100
AcDbEntity
8
0
100
AcDbPolyline
90
8
70
1
43
0.0
10
-5.1616956696534499
20
19.288195669653447
42
0.41421356237309503
10
-5.111695669653451
20
19.338195669653444
10
-5.111695669653451
20
23.191304330346551
42
0.41421356237312101
10
-5.1616956696534499
20
23.241304330346555
10
-9.0148043303465464
20
23.241304330346551
42
0.41421356237309503
10
-9.0648043303465453
20
23.191304330346551
10
-9.0648043303465453
20
19.338195669653444
42
0.41421356237309503
10
-9.0148043303465464
20
19.288195669653447
0
LWPOLYLINE
5
164
100
AcDbEntity
8
0
100
AcDbPolyline
90
8
70
1
43
0.0
10
-4.915484629770277
20
32.879404116120064
42
0.66752702052962876
10
-4.9509036394853956
20
32.964695669653466
10
-9.1557358494260477
20
32.964695669653452
42
0.19938670556203469
10
-9.1911556521226494
20
32.949986427323608
10
-13.43732467881062
20
28.688290757670167
42
0.66751890005551373
10
-13.401904876114019
20
28.603000000000005
10
-9.1972634919565994
20
28.603000000000005
42
0.19938086482393552
10
-9.1618444822414844
20
28.617708446466608
0
LWPOLYLINE
5
165
100
AcDbEntity
8
0
100
AcDbPolyline
90
8
70
1
43
0.0
10
-4.9509036394853911
20
23.741304330346551
42
0.66752702052946433
10
-4.9154846297702814
20
23.826595883879939
10
-9.1618444822414773
20
28.088291553533402
42
0.19938086482392714
10
-9.1972634919566048
20
28.103000000000002
10
-13.401904876114017
20
28.103000000000002
42
0.66751890005548642
10
-13.437324678810619
20
28.01770924232985
10
-9.1911556521226441
20
23.756013572676391
42
0.19938670556203525
10
-9.1557358494260388
20
23.741304330346551
0
LWPOLYLINE
5
166
100
AcDbEntity
8
0
100
AcDbPolyline
90
8
70
1
43
0.0
10
-5.111695669653451
20
37.367804330346566
10
-5.111695669653451
20
33.514695669653456
42
-0.41421356237312101
10
-5.1616956696534499
20
33.464695669653452
10
-9.0148043303465553
20
33.464695669653459
42
-0.41421356237312101
10
-9.0648043303465524
20
33.514695669653456
10
-9.0648043303465542
20
37.367804330346566
42
-0.41421356237309503
10
-9.0148043303465553
20
37.417804330346563
10
-5.1616956696534455
20
37.417804330346563
42
-0.414213562373069
0
LWPOLYLINE
5
167
100
AcDbEntity
8
0
100
AcDbPolyline
90
6
70
1
43
0.0
10
-5.7767832423682464
20
42.194130795772722
42
0.66817920959761123
10
-5.8121385255342872
20
42.279486190725265
10
-13.876513809274746
20
42.279486190725265
42
0.41421356237310802
10
-13.926513809274748
20
42.229486190725261
10
-13.926513809274748
20
34.16513640488165
42
0.66817806624141141
10
-13.841158526108707
20
34.129781009929125
0
LWPOLYLINE
5
168
100
AcDbEntity
8
0
100
AcDbPolyline
90
8
70
1
43
0.0
10
-13.911791553533392
20
23.338344482241475
10
-9.6500958838799349
20
19.091984629770277
42
0.66752702052953783
10
-9.5648043303465471
20
19.127403639485397
10
-9.5648043303465471
20
23.332235849426052
42
0.19938670556197757
10
-9.5795135726763938
20
23.367655652122647
10
-13.841209242329848
20
27.613824678810602
42
0.66751890005562797
10
-13.926500000000006
20
27.578404876114
10
-13.926500000000001
20
23.373763491956613
42
0.19938086482403877
0
LWPOLYLINE
5
169
100
AcDbEntity
8
0
100
AcDbPolyline
90
8
70
1
43
0.0
10
-13.9117915535334
20
33.367655517758529
42
0.19938086482394227
10
-13.926500000000008
20
33.332236508043408
10
-13.926500000000004
20
29.127595123885996
42
0.66751890005560532
10
-13.84120924232985
20
29.09217532118938
10
-9.5795135726763885
20
33.338344347877367
42
0.19938670556192042
10
-9.5648043303465524
20
33.373764150573948
10
-9.5648043303465524
20
37.578596360514609
42
0.66752702052949264
10
-9.6500958838799349
20
37.614015370229744
0
LWPOLYLINE
5
170
100
AcDbEntity
8
0
100
AcDbPolyline
90
8
70
1
43
0.0
10
-33.303903639485391
20
23.741304330346551
42
0.66752702052946433
10
-33.268484629770285
20
23.826595883879939
10
-37.514844482241479
20
28.088291553533402
42
0.19938086482392714
10
-37.550263491956606
20
28.103000000000002
10
-41.754904876114018
20
28.103000000000002
42
0.66751890005552972
10
-41.79032467881062
20
28.01770924232985
10
-37.54415565212264
20
23.756013572676391
42
0.19938670556203053
10
-37.508735849426039
20
23.741304330346551
0
LWPOLYLINE
5
171
100
AcDbEntity
8
0
100
AcDbPolyline
90
8
70
1
43
0.0
10
-18.78819566965344
20
33.373764150573948
42
0.19938670556194496
10
-18.773486427323604
20
33.338344347877353
10
-14.511790757670147
20
29.092175321189373
42
0.6675189000556071
10
-14.426500000000004
20
29.127595123885968
10
-14.426499999999995
20
33.332236508043394
42
0.19938086482399245
10
-14.4412084464666
20
33.367655517758536
10
-18.702904116120052
20
37.614015370229751
42
0.66752702052954738
10
-18.78819566965344
20
37.578596360514624
0
LWPOLYLINE
5
172
100
AcDbEntity
8
0
100
AcDbPolyline
90
8
70
1
43
0.0
10
-33.464695669653452
20
37.367804330346566
42
0.414213562373069
10
-33.514695669653449
20
37.417804330346563
10
-37.367804330346559
20
37.417804330346563
42
0.41421356237309503
10
-37.417804330346556
20
37.367804330346566
10
-37.417804330346556
20
33.514695669653456
42
0.41421356237312101
10
-37.367804330346559
20
33.464695669653452
10
-33.514695669653449
20
33.464695669653452
42
0.41421356237312101
10
-33.464695669653452
20
33.514695669653456
0
LWPOLYLINE
5
173
100
AcDbEntity
8
0
100
AcDbPolyline
90
8
70
1
43
0.0
10
-14.915675321189372
20
28.017709242329843
10
-19.161844347877366
20
23.756013572676391
42
-0.19938670556193794
10
-19.197264150573957
20
23.741304330346551
10
-23.402096360514591
20
23.741304330346551
42
-0.66752702052942836
10
-23.437515370229715
20
23.826595883879943
10
-19.191155517758514
20
28.088291553533388
42
-0.19938086482396289
10
-19.1557365080434
20
28.103000000000002
10
-14.951095123885976
20
28.103000000000016
42
-0.66751890005557535
0
LWPOLYLINE
5
174
100
AcDbEntity
8
0
100
AcDbPolyline
90
8
70
1
43
0.0
10
-14.511790757670164
20
27.613824678810623
10
-18.773486427323597
20
23.36765565212264
42
0.19938670556198435
10
-18.788195669653437
20
23.332235849426045
10
-18.788195669653447
20
19.127403639485408
42
0.6675270205295446
10
-18.702904116120056
20
19.091984629770288
10
-14.441208446466618
20
23.338344482241482
42
0.19938086482392067
10
-14.426499999999995
20
23.373763491956588
10
-14.426500000000004
20
27.578404876114021
42
0.66751890005557502
0
LWPOLYLINE
5
175
100
AcDbEntity
8
0
100
AcDbPolyline
90
8
70
1
43
0.0
10
-33.373764150573962
20
37.91780433034657
42
0.19938670556200727
10
-33.338344347877353
20
37.932513572676406
10
-29.092175321189369
20
42.194209242329848
42
0.66751890005549785
10
-29.127595123885971
20
42.279500000000013
10
-33.332236508043408
20
42.279500000000006
42
0.19938086482398598
10
-33.367655517758521
20
42.264791553533385
10
-37.614015370229723
20
38.003095883879958
42
0.66752702052953783
10
-37.578596360514595
20
37.917804330346577
0
LWPOLYLINE
5
176
100
AcDbEntity
8
0
100
AcDbPolyline
90
8
70
1
43
0.0
10
-33.338344347877353
20
18.773486427323608
10
-29.09217532118938
20
14.511790757670171
42
-0.66751890005562975
10
-29.127595123885985
20
14.426500000000003
10
-33.332236508043408
20
14.426500000000006
42
-0.19938086482396819
10
-33.367655517758521
20
14.441208446466618
10
-37.614015370229737
20
18.70290411612006
42
-0.66752702052949242
10
-37.578596360514602
20
18.788195669653454
10
-33.373764150573948
20
18.788195669653447
42
-0.19938670556197752
0
LWPOLYLINE
5
177
100
AcDbEntity
8
0
100
AcDbPolyline
90
8
70
1
43
0.0
10
-37.052526286704953
20
28.317567181010148
10
-32.865536347756624
20
24.145644228825994
42
0.41421546904047557
10
-32.794825554769133
20
24.145771915577914
10
-28.637955960951174
20
28.317708447297079
42
0.41315616870917887
10
-28.637956190689412
20
28.388291323792913
10
-32.794839363123089
20
32.560187166689303
42
0.41421356237933088
10
-32.865549926372353
20
32.560314622871786
10
-37.052526286704946
20
28.388405200440388
42
0.41526983913192389
0
LWPOLYLINE
5
178
100
AcDbEntity
8
0
100
AcDbPolyline
90
8
70
1
43
0.0
10
-28.602999999999994
20
14.951095123885988
10
-28.603000000000005
20
19.155736508043397
42
0.19938086482395653
10
-28.617708446466604
20
19.191155517758524
10
-32.879404116120064
20
23.437515370229729
42
0.6675270205294096
10
-32.964695669653452
20
23.402096360514619
10
-32.964695669653452
20
19.197264150573965
42
0.19938670556201557
10
-32.949986427323608
20
19.161844347877363
10
-28.688290757670146
20
14.915675321189388
42
0.66751890005552772
0
LWPOLYLINE
5
179
100
AcDbEntity
8
0
100
AcDbPolyline
90
6
70
1
43
0.0
10
-42.279513809274754
20
42.229486190725261
10
-42.279513809274754
20
34.16513640488165
42
0.66817806624141141
10
-42.194158526108708
20
34.129781009929125
10
-34.129783242368248
20
42.194130795772722
42
0.66817920959761123
10
-34.165138525534289
20
42.279486190725265
10
-42.229513809274749
20
42.279486190725265
42
0.41421356237309503
0
LWPOLYLINE
5
180
100
AcDbEntity
8
0
100
AcDbPolyline
90
8
70
1
43
0.0
10
-28.103000000000009
20
19.1557365080434
10
-28.103000000000009
20
14.951095123885988
42
0.66751890005556636
10
-28.017709242329857
20
14.915675321189386
10
-23.756013572676395
20
19.161844347877356
42
0.19938670556205915
10
-23.741304330346551
20
19.197264150573965
10
-23.741304330346544
20
23.402096360514605
42
0.66752702052940582
10
-23.826595883879932
20
23.437515370229733
10
-28.088291553533406
20
19.191155517758517
42
0.19938086482392395
0
LWPOLYLINE
5
181
100
AcDbEntity
8
0
100
AcDbPolyline
90
8
70
1
43
0.0
10
-42.279500000000006
20
29.127595123885996
10
-42.279499999999999
20
33.332236508043408
42
-0.19938086482393402
10
-42.264791553533399
20
33.367655517758529
10
-38.003095883879936
20
37.614015370229744
42
-0.66752702052949264
10
-37.917804330346556
20
37.578596360514609
10
-37.917804330346563
20
33.373764150573948
42
-0.19938670556192858
10
-37.932513572676392
20
33.338344347877367
10
-42.194209242329855
20
29.092175321189387
42
-0.66751890005561676
0
LWPOLYLINE
5
182
100
AcDbEntity
8
0
100
AcDbPolyline
90
6
70
1
43
0.0
10
-14.476513809274723
20
14.426486190725267
10
-22.54086359511836
20
14.426486190725271
42
-0.66817806624142273
10
-22.576218990070881
20
14.511841473891302
10
-14.511869204227249
20
22.576216757631769
42
-0.66817920959744292
10
-14.426513809274732
20
22.540861474465729
10
-14.426513809274734
20
14.476486190725264
42
-0.41421356237304302
0
LWPOLYLINE
5
183
100
AcDbEntity
8
0
100
AcDbPolyline
90
8
70
1
43
0.0
10
-32.949986427323608
20
37.54415565212264
10
-28.68829075767016
20
41.790324678810634
42
-0.66751890005579428
10
-28.602999999999991
20
41.754904876114026
10
-28.602999999999987
20
37.550263491956613
42
-0.19938086482404829
10
-28.617708446466608
20
37.514844482241479
10
-32.879404116120064
20
33.268484629770285
42
-0.66752702052946034
10
-32.964695669653452
20
33.303903639485412
10
-32.964695669653452
20
37.508735849426046
42
-0.19938670556197752
0
LWPOLYLINE
5
184
100
AcDbEntity
8
0
100
AcDbPolyline
90
8
70
1
43
0.0
10
-23.373763491956602
20
14.426500000000003
42
0.19938086482396808
10
-23.338344482241475
20
14.441208446466611
10
-19.091984629770277
20
18.702904116120063
42
0.6675270205295587
10
-19.127403639485408
20
18.788195669653447
10
-23.332235849426052
20
18.788195669653451
42
0.19938670556191221
10
-23.36765565212264
20
18.773486427323615
10
-27.613824678810623
20
14.511790757670159
42
0.66751890005567338
10
-27.578404876114021
20
14.426500000000006
0
LWPOLYLINE
5
185
100
AcDbEntity
8
0
100
AcDbPolyline
90
6
70
1
43
0.0
10
-34.1651374652062
20
14.426486190725257
42
0.66817863791931964
10
-34.129782126146864
20
14.511841529784586
10
-42.194158470215427
20
22.576217873853142
42
0.66817863791929888
10
-42.279513809274754
20
22.54086253479381
10
-42.279513809274754
20
14.476486190725261
42
0.41421356237312101
10
-42.229513809274756
20
14.426486190725258
0
LWPOLYLINE
5
186
100
AcDbEntity
8
0
100
AcDbPolyline
90
8
70
1
43
0.0
10
-28.38843281898988
20
19.653473713295067
10
-32.560355771174009
20
23.840463652243379
42
-0.41421546904045725
10
-32.560228084422093
20
23.911174445230866
10
-28.388291552702931
20
28.068044039048839
42
-0.41315616870928923
10
-28.317708676207083
20
28.068043809310605
10
-24.145812833310693
20
23.911160636876918
42
-0.41421356237925738
10
-24.145685377128206
20
23.840450073627654
10
-28.317594799559629
20
19.653473713295071
42
-0.41526983913196985
0
LWPOLYLINE
5
187
100
AcDbEntity
8
0
100
AcDbPolyline
90
8
70
1
43
0.0
10
-33.464695669653452
20
19.338195669653444
10
-33.464695669653452
20
23.191304330346551
42
0.41421356237312101
10
-33.514695669653449
20
23.241304330346555
10
-37.367804330346544
20
23.241304330346551
42
0.41421356237309503
10
-37.417804330346549
20
23.191304330346551
10
-37.417804330346549
20
19.338195669653444
42
0.41421356237309503
10
-37.367804330346544
20
19.288195669653447
10
-33.514695669653449
20
19.288195669653447
42
0.41421356237309503
0
LWPOLYLINE
5
188
100
AcDbEntity
8
0
100
AcDbPolyline
90
8
70
1
43
0.0
10
-23.911174445230859
20
24.145771915577914
10
-28.068044039048829
20
28.317708447297072
42
-0.41315616870927085
10
-28.068043809310595
20
28.388291323792917
10
-23.911160636876907
20
32.560187166689303
42
-0.41421356237931245
10
-23.84045007362765
20
32.560314622871779
10
-19.65347371329506
20
28.388405200440388
42
-0.4152698391319421
10
-19.653473713295057
20
28.317567181010141
10
-23.840463652243361
20
24.145644228826004
42
-0.41421546904051243
0
LWPOLYLINE
5
189
100
AcDbEntity
8
0
100
AcDbPolyline
90
8
70
1
43
0.0
10
-19.338195669653452
20
37.417804330346549
10
-23.191304330346551
20
37.417804330346549
42
0.41421356237312101
10
-23.241304330346551
20
37.367804330346544
10
-23.241304330346551
20
33.514695669653449
42
0.41421356237309503
10
-23.191304330346551
20
33.464695669653452
10
-19.338195669653455
20
33.464695669653452
42
0.41421356237312101
10
-19.288195669653451
20
33.514695669653449
10
-19.288195669653451
20
37.367804330346551
42
0.41421356237309503
0
LWPOLYLINE
5
190
100
AcDbEntity
8
0
100
AcDbPolyline
90
8
70
1
43
0.0
10
-19.127403639485394
20
37.917804330346577
10
-23.332235849426056
20
37.91780433034657
42
-0.19938670556198435
10
-23.36765565212265
20
37.932513572676406
10
-27.613824678810627
20
42.194209242329833
42
-0.66751890005559777
10
-27.578404876114021
20
42.279500000000006
10
-23.373763491956574
20
42.279500000000006
42
-0.19938086482395317
10
-23.338344482241446
20
42.264791553533392
10
-19.09198462977028
20
38.003095883879958
42
-0.66752702052949653
0
LWPOLYLINE
5
191
100
AcDbEntity
8
0
100
AcDbPolyline
90
6
70
1
43
0.0
10
-22.576217873853107
20
42.194130851665946
10
-14.511869148334053
20
34.129782126146935
42
0.66817863791933507
10
-14.426513809274741
20
34.165137465206236
10
-14.426513809274732
20
42.229486190725261
42
0.41421356237314705
10
-14.476513809274731
20
42.279486190725272
10
-22.540862534793792
20
42.279486190725272
42
0.66817863791928955
0
LWPOLYLINE
5
192
100
AcDbEntity
8
0
100
AcDbPolyline
90
8
70
1
43
0.0
10
-37.917804330346549
20
19.127403639485397
10
-37.917804330346549
20
23.332235849426052
42
0.19938670556197757
10
-37.932513572676399
20
23.367655652122647
10
-42.194209242329848
20
27.613824678810602
42
0.66751890005566195
10
-42.279500000000006
20
27.578404876114
10
-42.279499999999999
20
23.373763491956613
42
0.19938086482403874
10
-42.264791553533392
20
23.338344482241475
10
-38.003095883879936
20
19.091984629770277
42
0.66752702052954926
0
LWPOLYLINE
5
193
100
AcDbEntity
8
0
100
AcDbPolyline
90
8
70
1
43
0.0
10
-33.303903639485398
20
32.964695669653466
10
-37.508735849426046
20
32.964695669653452
42
0.19938670556204283
10
-37.544155652122654
20
32.949986427323608
10
-41.79032467881062
20
28.688290757670167
42
0.66751890005552972
10
-41.754904876114018
20
28.603000000000005
10
-37.550263491956599
20
28.603000000000005
42
0.19938086482392733
10
-37.514844482241486
20
28.617708446466608
10
-33.268484629770278
20
32.879404116120064
42
0.66752702052962876
0
LWPOLYLINE
5
194
100
AcDbEntity
8
0
100
AcDbPolyline
90
8
70
1
43
0.0
10
-23.191304330346551
20
23.241304330346555
10
-19.338195669653444
20
23.241304330346551
42
-0.414213562373069
10
-19.288195669653451
20
23.191304330346551
10
-19.288195669653451
20
19.338195669653444
42
-0.41421356237309503
10
-19.338195669653452
20
19.288195669653444
10
-23.191304330346551
20
19.288195669653454
42
-0.41421356237312101
10
-23.241304330346541
20
19.338195669653452
10
-23.241304330346551
20
23.191304330346554
42
-0.41421356237309503
0
LWPOLYLINE
5
195
100
AcDbEntity
8
0
100
AcDbPolyline
90
8
70
1
43
0.0
10
-19.19726415057395
20
32.964695669653452
10
-23.402096360514598
20
32.964695669653445
42
0.66752702052948309
10
-23.437515370229715
20
32.879404116120071
10
-19.191155517758528
20
28.617708446466622
42
0.19938086482400633
10
-19.155736508043407
20
28.602999999999994
10
-14.951095123885993
20
28.603000000000005
42
0.66751890005554881
10
-14.915675321189363
20
28.688290757670174
10
-19.161844347877349
20
32.949986427323608
42
0.19938670556200058
0
LWPOLYLINE
5
196
100
AcDbEntity
8
0
100
AcDbPolyline
90
8
70
1
43
0.0
10
-28.388432818989877
20
37.052526286704939
10
-32.560355771174009
20
32.865536347756617
42
0.41421546904049406
10
-32.5602280844221
20
32.794825554769133
10
-28.388291552702931
20
28.637955960951178
42
0.41315616870927085
10
-28.317708676207086
20
28.637956190689408
10
-24.1458128333107
20
32.794839363123096
42
0.41421356237922052
10
-24.145685377128213
20
32.865549926372346
10
-28.317594799559629
20
37.052526286704939
42
0.41526983913192383
0
LWPOLYLINE
5
197
100
AcDbEntity
8
0
100
AcDbPolyline
90
8
70
1
43
0.0
10
-28.103000000000009
20
41.754904876114011
10
-28.103000000000009
20
37.550263491956606
42
0.19938086482397621
10
-28.088291553533395
20
37.514844482241479
10
-23.826595883879925
20
33.268484629770271
42
0.66752702052958324
10
-23.741304330346541
20
33.303903639485391
10
-23.741304330346541
20
37.508735849426024
42
0.19938670556199092
10
-23.756013572676373
20
37.544155652122633
10
-28.017709242329843
20
41.790324678810634
42
0.66751890005557146
0
LWPOLYLINE
5
198
100
AcDbEntity
8
0
100
AcDbPolyline
90
8
70
1
43
0.0
10
0.24999999999999467
20
9.1972634919566012
42
0.19938086482397621
10
0.26470844646660829
20
9.1618444822414737
10
4.5264041161200774
20
4.9154846297702681
42
0.66752702052958324
10
4.6116956696534617
20
4.9509036394853867
10
4.6116956696534617
20
9.1557358494260264
42
0.19938670556199092
10
4.5969864273236283
20
9.1911556521226334
10
0.33529075767015915
20
13.437324678810629
42
0.66751890005557146
10
0.24999999999999467
20
13.401904876114008
0
LWPOLYLINE
5
199
100
AcDbEntity
8
0
100
AcDbPolyline
90
8
70
1
43
0.0
10
0.7745951238859794
20
13.926500000000006
10
4.9792365080434289
20
13.926500000000008
42
-0.19938086482395317
10
5.0146555177585572
20
13.911791553533392
10
9.2610153702297211
20
9.6500958838799562
42
-0.66752702052949653
10
9.2255963605146096
20
9.5648043303465755
10
5.0207641505739442
20
9.5648043303465666
42
-0.19938670556198435
10
4.9853443478773496
20
9.5795135726764045
10
0.73917532118937723
20
13.84120924232983
42
-0.66751890005559777
0
LWPOLYLINE
5
200
100
AcDbEntity
8
0
100
AcDbPolyline
90
8
70
1
43
0.0
10
0.03529132379291422
20
0.28495619068940492
10
4.2071871666893035
20
4.4418393631230968
42
0.41421356237922052
10
4.2073146228717873
20
4.5125499263723468
10
0.035405200440372646
20
8.6995262867049394
42
0.41526983913192383
10
-0.035432818989873383
20
8.6995262867049394
10
-4.2073557711740106
20
4.5125363477566172
42
0.41421546904049406
10
-4.2072280844220966
20
4.4418255547691343
10
-0.035291552702929614
20
0.28495596095117648
42
0.41315616870927085
0
LWPOLYLINE
5
201
100
AcDbEntity
8
0
100
AcDbPolyline
90
8
70
1
43
0.0
10
-0.24999999999999023
20
13.401904876114026
42
0.66751890005579428
10
-0.3352907576701547
20
13.437324678810629
10
-4.5969864273236105
20
9.1911556521226423
42
0.19938670556197749
10
-4.6116956696534439
20
9.1557358494260441
10
-4.6116956696534528
20
4.9509036394854089
42
0.66752702052946034
10
-4.5264041161200685
20
4.9154846297702859
10
-0.26470844646660829
20
9.1618444822414737
42
0.19938086482404827
10
-0.24999999999998579
20
9.1972634919566154
0
LWPOLYLINE
5
202
100
AcDbEntity
8
0
100
AcDbPolyline
90
8
70
1
43
0.0
10
0.035291323792918668
20
-0.28495619068939604
42
0.41315616870928923
10
-0.035291552702929607
20
-0.2849559609511676
10
-4.2072280844220877
20
-4.4418255547691343
42
0.41421546904045725
10
-4.2073557711740062
20
-4.5125363477566216
10
-0.035432818989877823
20
-8.6995262867049323
42
0.41526983913196985
10
0.035405200440372653
20
-8.6995262867049306
10
4.2073146228717961
20
-4.5125499263723468
42
0.41421356237925738
10
4.2071871666893035
20
-4.4418393631230879
0
LWPOLYLINE
5
203
100
AcDbEntity
8
0
100
AcDbPolyline
90
8
70
1
43
0.0
10
4.9509036394854045
20
4.6116956696534439
42
0.66752702052948309
10
4.9154846297702859
20
4.526404116120073
10
9.1618444822414737
20
0.26470844646662162
42
0.19938086482400633
10
9.1972634919565941
20
0.24999999999999467
10
13.401904876114008
20
0.25000000000000355
42
0.66751890005554881
10
13.437324678810638
20
0.33529075767017247
10
9.1911556521226512
20
4.5969864273236105
42
0.19938670556200058
10
9.1557358494260512
20
4.6116956696534528
0
LWPOLYLINE
5
204
100
AcDbEntity
8
0
100
AcDbPolyline
90
8
70
1
43
0.0
10
-0.73917532118936702
20
13.841209242329846
42
0.66751890005549785
10
-0.77459512388597052
20
13.926500000000015
10
-4.9792365080434031
20
13.926500000000006
42
0.19938086482398598
10
-5.0146555177585217
20
13.911791553533384
10
-9.2610153702297193
20
9.6500958838799544
42
0.66752702052956536
10
-9.2255963605145972
20
9.5648043303465755
10
-5.0207641505739575
20
9.5648043303465649
42
0.19938670556200727
10
-4.9853443478773496
20
9.5795135726764045
0
LWPOLYLINE
5
205
100
AcDbEntity
8
0
100
AcDbPolyline
90
8
70
1
43
0.0
10
-4.5264041161200641
20
-4.9154846297702726
42
0.6675270205294096
10
-4.6116956696534483
20
-4.9509036394853823
10
-4.6116956696534483
20
-9.155735849426037
42
0.19938670556201557
10
-4.5969864273236061
20
-9.1911556521226387
10
-0.33529075767014582
20
-13.437324678810613
42
0.66751890005552772
10
-0.24999999999999467
20
-13.401904876114013
10
-0.25000000000000355
20
-9.1972634919566048
42
0.19938086482395653
10
-0.26470844646660385
20
-9.1618444822414773
0
LWPOLYLINE
5
206
100
AcDbEntity
8
0
100
AcDbPolyline
90
8
70
1
43
0.0
10
-4.5125363477566216
20
-4.2073557711740062
42
0.41421546904047557
10
-4.4418255547691299
20
-4.2072280844220877
10
-0.28495596095117204
20
-0.035291552702920725
42
0.41315616870917887
10
-0.28495619068940936
20
0.035291323792909779
10
-4.4418393631230879
20
4.207187166689299
42
0.41421356237933088
10
-4.5125499263723512
20
4.2073146228717873
10
-8.6995262867049483
20
0.035405200440385975
42
0.41526983913194232
10
-8.6995262867049519
20
-0.035432818989855619
0
LWPOLYLINE
5
207
100
AcDbEntity
8
0
100
AcDbPolyline
90
8
70
1
43
0.0
10
4.6116956696534483
20
-9.1557358494260388
10
4.6116956696534572
20
-4.9509036394853956
42
0.66752702052940582
10
4.5264041161200685
20
-4.9154846297702681
10
0.26470844646659497
20
-9.1618444822414844
42
0.19938086482392395
10
0.24999999999999467
20
-9.1972634919566012
10
0.24999999999999467
20
-13.401904876114013
42
0.66751890005556636
10
0.33529075767014582
20
-13.437324678810615
10
4.5969864273236061
20
-9.1911556521226458
42
0.19938670556205915
0
LWPOLYLINE
5
208
100
AcDbEntity
8
0
100
AcDbPolyline
90
8
70
1
43
0.0
10
4.9154846297702859
20
-4.5264041161200597
42
0.66752702052942836
10
4.9509036394854089
20
-4.6116956696534483
10
9.1557358494260441
20
-4.6116956696534483
42
0.19938670556193797
10
9.1911556521226387
20
-4.5969864273236105
10
13.437324678810629
20
-0.33529075767015915
42
0.66751890005557535
10
13.401904876114026
20
-0.24999999999999023
10
9.1972634919566012
20
-0.24999999999999911
42
0.19938086482396283
10
9.1618444822414844
20
-0.26470844646660829
0
LWPOLYLINE
5
209
100
AcDbEntity
8
0
100
AcDbPolyline
90
8
70
1
43
0.0
10
5.1116956696534599
20
-9.0148043303465499
42
0.41421356237312101
10
5.1616956696534499
20
-9.0648043303465542
10
9.0148043303465499
20
-9.064804330346556
42
0.41421356237309503
10
9.0648043303465506
20
-9.0148043303465553
10
9.0648043303465506
20
-5.1616956696534499
42
0.414213562373069
10
9.0148043303465553
20
-5.1116956696534466
10
5.1616956696534499
20
-5.1116956696534466
42
0.41421356237309503
10
5.111695669653451
20
-5.1616956696534455
0
LWPOLYLINE
5
210
100
AcDbEntity
8
0
100
AcDbPolyline
90
8
70
1
43
0.0
10
0.28495619068940492
20
0.035291323792914227
42
0.41315616870927085
10
0.28495596095117648
20
-0.035291552702929607
10
4.4418255547691432
20
-4.2072280844220877
42
0.41421546904051243
10
4.5125363477566394
20
-4.2073557711740017
10
8.6995262867049448
20
-0.035432818989860053
42
0.4152698391319421
10
8.6995262867049483
20
0.035405200440394857
10
4.5125499263723512
20
4.2073146228717784
42
0.41421356237931245
10
4.4418393631230924
20
4.207187166689299
0
LWPOLYLINE
5
211
100
AcDbEntity
8
0
100
AcDbPolyline
90
8
70
1
43
0.0
10
5.111695669653451
20
9.0148043303465464
10
5.111695669653451
20
5.1616956696534499
42
0.41421356237309503
10
5.1616956696534499
20
5.111695669653451
10
9.0148043303465464
20
5.111695669653451
42
0.41421356237312101
10
9.0648043303465506
20
5.1616956696534499
10
9.0648043303465506
20
9.0148043303465499
42
0.41421356237309503
10
9.0148043303465499
20
9.0648043303465506
10
5.1616956696534499
20
9.0648043303465506
42
0.41421356237312101
0
LWPOLYLINE
5
212
100
AcDbEntity
8
0
100
AcDbPolyline
90
8
70
1
43
0.0
10
5.0207641505739486
20
-9.5648043303465506
42
0.19938670556191221
10
4.9853443478773629
20
-9.5795135726763885
10
0.73917532118938034
20
-13.841209242329843
42
0.66751890005567338
10
0.7745951238859794
20
-13.926499999999995
10
4.9792365080433987
20
-13.926499999999999
42
0.19938086482396808
10
5.0146555177585261
20
-13.911791553533391
10
9.2610153702297247
20
-9.6500958838799384
42
0.6675270205295587
10
9.2255963605145919
20
-9.5648043303465524
0
LWPOLYLINE
5
213
100
AcDbEntity
8
0
100
AcDbPolyline
90
6
70
1
43
0.0
10
5.8121374652062086
20
13.926486190725269
42
0.66817863791928955
10
5.7767821261468955
20
13.841130851665948
10
13.841130851665948
20
5.776782126146931
42
0.66817863791933507
10
13.92648619072526
20
5.8121374652062352
10
13.926486190725269
20
13.876486190725261
42
0.41421356237314705
10
13.87648619072527
20
13.926486190725269
0
LWPOLYLINE
5
214
100
AcDbEntity
8
0
100
AcDbPolyline
90
8
70
1
43
0.0
10
-14.426499999999995
20
-4.979236508043412
10
-14.426500000000004
20
-0.7745951238859794
42
0.66751890005557502
10
-14.511790757670164
20
-0.73917532118938034
10
-18.773486427323597
20
-4.9853443478773629
42
0.19938670556198435
10
-18.788195669653437
20
-5.0207641505739575
10
-18.788195669653447
20
-9.2255963605145919
42
0.6675270205295446
10
-18.702904116120056
20
-9.2610153702297122
10
-14.441208446466618
20
-5.0146555177585217
42
0.19938086482392067
0
LWPOLYLINE
5
215
100
AcDbEntity
8
0
100
AcDbPolyline
90
8
70
1
43
0.0
10
-5.0146555177585217
20
-13.911791553533384
42
0.19938086482396819
10
-4.9792365080434031
20
-13.926499999999995
10
-0.77459512388598384
20
-13.926499999999999
42
0.66751890005562975
10
-0.73917532118938922
20
-13.841209242329839
10
-4.985344347877354
20
-9.5795135726763938
42
0.19938670556197757
10
-5.0207641505739486
20
-9.5648043303465471
10
-9.2255963605146025
20
-9.5648043303465471
42
0.66752702052948765
10
-9.2610153702297264
20
-9.6500958838799349
0
LWPOLYLINE
5
216
100
AcDbEntity
8
0
100
AcDbPolyline
90
8
70
1
43
0.0
10
-19.1557365080434
20
-0.24999999999999911
10
-14.951095123885976
20
-0.24999999999998693
42
-0.66751890005557535
10
-14.915675321189372
20
-0.33529075767015915
10
-19.161844347877366
20
-4.5969864273236087
42
-0.19938670556193794
10
-19.197264150573957
20
-4.6116956696534483
10
-23.402096360514591
20
-4.6116956696534457
42
-0.66752702052942836
10
-23.437515370229715
20
-4.5264041161200597
10
-19.191155517758514
20
-0.26470844646661379
42
-0.19938086482396289
0
LWPOLYLINE
5
217
100
AcDbEntity
8
0
100
AcDbPolyline
90
6
70
1
43
0.0
10
-34.129782126146864
20
-13.841158470215415
10
-42.194158470215427
20
-5.7767821261468599
42
0.66817863791929888
10
-42.279513809274754
20
-5.8121374652061908
10
-42.279513809274754
20
-13.876513809274741
42
0.41421356237312101
10
-42.229513809274756
20
-13.926513809274743
10
-34.1651374652062
20
-13.926513809274745
42
0.66817863791931964
0
LWPOLYLINE
5
218
100
AcDbEntity
8
0
100
AcDbPolyline
90
8
70
1
43
0.0
10
19.65347371329505
20
-0.035432818989855619
10
23.840463652243379
20
-4.2073557711740062
42
0.41421546904047557
10
23.91117444523087
20
-4.2072280844220877
10
28.068044039048829
20
-0.035291552702920725
42
0.41315616870917887
10
28.068043809310591
20
0.035291323792909779
10
23.911160636876915
20
4.207187166689299
42
0.41421356237933088
10
23.84045007362765
20
4.2073146228717873
10
19.653473713295053
20
0.035405200440385975
42
0.41526983913194232
0
LWPOLYLINE
5
219
100
AcDbEntity
8
0
100
AcDbPolyline
90
8
70
1
43
0.0
10
-28.017709242329857
20
-13.437324678810615
10
-23.756013572676395
20
-9.1911556521226458
42
0.19938670556205915
10
-23.741304330346551
20
-9.1557358494260388
10
-23.741304330346544
20
-4.9509036394853956
42
0.66752702052940582
10
-23.826595883879932
20
-4.9154846297702681
10
-28.088291553533406
20
-9.1618444822414844
42
0.19938086482392395
10
-28.103000000000009
20
-9.1972634919566012
10
-28.103000000000009
20
-13.401904876114013
42
0.66751890005556636
0
LWPOLYLINE
5
220
100
AcDbEntity
8
0
100
AcDbPolyline
90
8
70
1
43
0.0
10
23.191304330346551
20
-5.1116956696534466
10
19.338195669653455
20
-5.111695669653451
42
0.41421356237309503
10
19.288195669653454
20
-5.1616956696534499
10
19.288195669653454
20
-9.0148043303465553
42
0.41421356237309503
10
19.338195669653455
20
-9.0648043303465542
10
23.191304330346551
20
-9.0648043303465542
42
0.41421356237309503
10
23.241304330346551
20
-9.0148043303465553
10
23.241304330346551
20
-5.1616956696534499
42
0.41421356237312101
0
LWPOLYLINE
5
221
100
AcDbEntity
8
0
100
AcDbPolyline
90
8
70
1
43
0.0
10
-13.926500000000006
20
-0.7745951238860016
10
-13.926500000000001
20
-4.9792365080433898
42
0.19938086482403877
10
-13.911791553533392
20
-5.0146555177585261
10
-9.6500958838799349
20
-9.2610153702297247
42
0.66752702052953783
10
-9.5648043303465471
20
-9.2255963605146025
10
-9.5648043303465471
20
-5.0207641505739486
42
0.19938670556197757
10
-9.5795135726763938
20
-4.985344347877354
10
-13.841209242329848
20
-0.7391753211893981
42
0.66751890005562797
0
LWPOLYLINE
5
222
100
AcDbEntity
8
0
100
AcDbPolyline
90
6
70
1
43
0.0
10
22.576217873853142
20
-13.841158470215415
10
14.511841529784579
20
-5.7767821261468599
42
0.66817863791929888
10
14.42648619072525
20
-5.8121374652061908
10
14.426486190725253
20
-13.876513809274741
42
0.41421356237312101
10
14.47648619072525
20
-13.926513809274743
10
22.540862534793806
20
-13.926513809274745
42
0.66817863791931964
0
LWPOLYLINE
5
223
100
AcDbEntity
8
0
100
AcDbPolyline
90
6
70
1
43
0.0
10
-13.841158470215422
20
-5.7767821261468599
42
0.66817863791929888
10
-13.926513809274752
20
-5.8121374652061908
10
-13.926513809274748
20
-13.876513809274741
42
0.41421356237312101
10
-13.876513809274751
20
-13.926513809274743
10
-5.8121374652061952
20
-13.926513809274745
42
0.66817863791931964
10
-5.7767821261468599
20
-13.841158470215415
0
LWPOLYLINE
5
224
100
AcDbEntity
8
0
100
AcDbPolyline
90
8
70
1
43
0.0
10
-37.917804330346549
20
-9.2255963605146025
10
-37.917804330346549
20
-5.0207641505739486
42
0.19938670556197757
10
-37.932513572676399
20
-4.985344347877354
10
-42.194209242329848
20
-0.7391753211893981
42
0.66751890005566195
10
-42.279500000000006
20
-0.7745951238860016
10
-42.279499999999999
20
-4.9792365080433898
42
0.19938086482403874
10
-42.264791553533392
20
-5.0146555177585261
10
-38.003095883879936
20
-9.2610153702297247
42
0.66752702052954926
0
LWPOLYLINE
5
225
100
AcDbEntity
8
0
100
AcDbPolyline
90
6
70
1
43
0.0
10
5.7767810099291195
20
-13.8411585261087
42
0.66817806624142273
10
5.8121364048816426
20
-13.926513809274734
10
13.876486190725279
20
-13.926513809274734
42
0.41421356237304302
10
13.926486190725269
20
-13.876513809274737
10
13.926486190725269
20
-5.8121385255342739
42
0.66817920959744292
10
13.841130795772756
20
-5.7767832423682375
0
LWPOLYLINE
5
226
100
AcDbEntity
8
0
100
AcDbPolyline
90
8
70
1
43
0.0
10
-37.417804330346549
20
-5.1616956696534499
10
-37.417804330346549
20
-9.0148043303465553
42
0.41421356237309503
10
-37.367804330346544
20
-9.0648043303465542
10
-33.514695669653449
20
-9.0648043303465542
42
0.41421356237309503
10
-33.464695669653452
20
-9.0148043303465553
10
-33.464695669653452
20
-5.1616956696534499
42
0.41421356237312101
10
-33.514695669653449
20
-5.1116956696534466
10
-37.367804330346544
20
-5.111695669653451
42
0.41421356237309503
0
LWPOLYLINE
5
227
100
AcDbEntity
8
0
100
AcDbPolyline
90
8
70
1
43
0.0
10
-9.1618444822414773
20
-0.26470844646659941
10
-4.9154846297702832
20
-4.5264041161200668
42
-0.66752702052946433
10
-4.9509036394853911
20
-4.6116956696534483
10
-9.1557358494260388
20
-4.611695669653451
42
-0.19938670556203525
10
-9.1911556521226441
20
-4.5969864273236105
10
-13.437324678810613
20
-0.33529075767014499
42
-0.66751890005548642
10
-13.401904876114017
20
-0.24999999999999911
10
-9.1972634919566048
20
-0.24999999999998901
42
-0.19938086482392708
0
LWPOLYLINE
5
228
100
AcDbEntity
8
0
100
AcDbPolyline
90
8
70
1
43
0.0
10
19.191155517758524
20
-0.26470844646659941
10
23.437515370229718
20
-4.5264041161200668
42
-0.66752702052946433
10
23.402096360514612
20
-4.6116956696534483
10
19.197264150573965
20
-4.611695669653451
42
-0.19938670556203525
10
19.161844347877356
20
-4.5969864273236105
10
14.915675321189388
20
-0.33529075767014499
42
-0.66751890005548642
10
14.951095123885985
20
-0.24999999999999911
10
19.155736508043397
20
-0.24999999999998901
42
-0.19938086482392708
0
LWPOLYLINE
5
229
100
AcDbEntity
8
0
100
AcDbPolyline
90
8
70
1
43
0.0
10
-9.1557358494260477
20
4.6116956696534528
42
0.19938670556203469
10
-9.1911556521226494
20
4.5969864273236105
10
-13.43732467881062
20
0.33529075767016359
42
0.66751890005551373
10
-13.401904876114019
20
0.25000000000000355
10
-9.1972634919565994
20
0.25000000000000355
42
0.19938086482393552
10
-9.1618444822414844
20
0.26470844646660829
10
-4.915484629770277
20
4.5264041161200641
42
0.66752702052962876
10
-4.9509036394853956
20
4.6116956696534617
0
LWPOLYLINE
5
230
100
AcDbEntity
8
0
100
AcDbPolyline
90
6
70
1
43
0.0
10
-14.426513809274732
20
-5.8121385255342739
42
0.66817920959744292
10
-14.511869204227246
20
-5.7767832423682375
10
-22.576218990070881
20
-13.8411585261087
42
0.66817806624142273
10
-22.54086359511836
20
-13.926513809274734
10
-14.476513809274723
20
-13.926513809274734
42
0.41421356237304302
10
-14.426513809274732
20
-13.876513809274737
0
LWPOLYLINE
5
231
100
AcDbEntity
8
0
100
AcDbPolyline
90
8
70
1
43
0.0
10
23.338344482241482
20
-13.911791553533384
10
19.091984629770266
20
-9.6500958838799438
42
-0.66752702052948765
10
19.127403639485397
20
-9.5648043303465471
10
23.332235849426052
20
-9.5648043303465542
42
-0.19938670556197752
10
23.367655652122647
20
-9.5795135726763938
10
27.613824678810623
20
-13.84120924232983
42
-0.66751890005562975
10
27.578404876114018
20
-13.926499999999999
10
23.373763491956598
20
-13.926499999999995
42
-0.19938086482396819
0
LWPOLYLINE
5
232
100
AcDbEntity
8
0
100
AcDbPolyline
90
8
70
1
43
0.0
10
-27.613824678810623
20
-13.841209242329843
10
-23.367655652122643
20
-9.5795135726763831
42
-0.19938670556191218
10
-23.332235849426052
20
-9.5648043303465506
10
-19.127403639485408
20
-9.5648043303465524
42
-0.6675270205295587
10
-19.091984629770277
20
-9.6500958838799384
10
-23.338344482241482
20
-13.911791553533387
42
-0.19938086482396808
10
-23.373763491956602
20
-13.926499999999999
10
-27.578404876114021
20
-13.926499999999994
42
-0.66751890005567338
0
LWPOLYLINE
5
233
100
AcDbEntity
8
0
100
AcDbPolyline
90
8
70
1
43
0.0
10
-5.111695669653451
20
-5.1616956696534499
42
0.41421356237312101
10
-5.1616956696534499
20
-5.1116956696534466
10
-9.0148043303465464
20
-5.111695669653451
42
0.41421356237309503
10
-9.0648043303465453
20
-5.1616956696534499
10
-9.0648043303465453
20
-9.0148043303465553
42
0.41421356237309503
10
-9.0148043303465464
20
-9.0648043303465542
10
-5.1616956696534499
20
-9.0648043303465542
42
0.41421356237309503
10
-5.111695669653451
20
-9.0148043303465553
0
LWPOLYLINE
5
234
100
AcDbEntity
8
0
100
AcDbPolyline
90
8
70
1
43
0.0
10
-24.145685377128206
20
-4.5125499263723468
10
-28.317594799559629
20
-8.6995262867049288
42
-0.41526983913196985
10
-28.38843281898988
20
-8.6995262867049323
10
-32.560355771174009
20
-4.5125363477566207
42
-0.41421546904045725
10
-32.560228084422093
20
-4.4418255547691343
10
-28.388291552702931
20
-0.28495596095116493
42
-0.41315616870928923
10
-28.317708676207083
20
-0.28495619068939604
10
-24.145812833310693
20
-4.4418393631230826
42
-0.41421356237925738
0
LWPOLYLINE
5
235
100
AcDbEntity
8
0
100
AcDbPolyline
90
8
70
1
43
0.0
10
23.191304330346551
20
5.111695669653451
10
19.338195669653444
20
5.1116956696534537
42
-0.41421356237312101
10
19.288195669653451
20
5.1616956696534544
10
19.288195669653447
20
9.0148043303465641
42
-0.41421356237309503
10
19.338195669653444
20
9.0648043303465631
10
23.191304330346554
20
9.0648043303465631
42
-0.414213562373069
10
23.241304330346551
20
9.0148043303465641
10
23.241304330346551
20
5.1616956696534544
42
-0.41421356237312101
0
LWPOLYLINE
5
236
100
AcDbEntity
8
0
100
AcDbPolyline
90
8
70
1
43
0.0
10
-23.911174445230859
20
-4.2072280844220877
10
-28.068044039048829
20
-0.035291552702930037
42
-0.41315616870927085
10
-28.068043809310595
20
0.03529132379291422
10
-23.911160636876907
20
4.2071871666892982
42
-0.41421356237931245
10
-23.84045007362765
20
4.2073146228717784
10
-19.65347371329506
20
0.035405200440388189
42
-0.4152698391319421
10
-19.653473713295057
20
-0.03543281898986006
10
-23.840463652243361
20
-4.2073557711739982
42
-0.41421546904051243
0
LWPOLYLINE
5
237
100
AcDbEntity
8
0
100
AcDbPolyline
90
8
70
1
43
0.0
10
-28.317708676207086
20
0.28495619068940492
10
-24.1458128333107
20
4.4418393631230968
42
0.41421356237922052
10
-24.145685377128213
20
4.5125499263723468
10
-28.317594799559629
20
8.6995262867049394
42
0.41526983913192383
10
-28.388432818989877
20
8.6995262867049394
10
-32.560355771174009
20
4.5125363477566172
42
0.41421546904049406
10
-32.5602280844221
20
4.4418255547691343
10
-28.388291552702931
20
0.28495596095117648
42
0.41315616870927085
0
LWPOLYLINE
5
238
100
AcDbEntity
8
0
100
AcDbPolyline
90
8
70
1
43
0.0
10
-23.36765565212265
20
9.5795135726764045
10
-27.613824678810627
20
13.84120924232983
42
-0.66751890005559777
10
-27.578404876114021
20
13.926500000000006
10
-23.373763491956574
20
13.926500000000008
42
-0.19938086482395317
10
-23.338344482241446
20
13.911791553533392
10
-19.09198462977028
20
9.6500958838799562
42
-0.66752702052949653
10
-19.127403639485394
20
9.5648043303465755
10
-23.332235849426056
20
9.5648043303465666
42
-0.19938670556198435
0
LWPOLYLINE
5
239
100
AcDbEntity
8
0
100
AcDbPolyline
90
8
70
1
43
0.0
10
-32.865536347756624
20
-4.2073557711740062
42
0.41421546904047557
10
-32.794825554769133
20
-4.2072280844220877
10
-28.637955960951174
20
-0.035291552702920725
42
0.41315616870917887
10
-28.637956190689412
20
0.035291323792909779
10
-32.794839363123089
20
4.207187166689299
42
0.41421356237933088
10
-32.865549926372353
20
4.2073146228717873
10
-37.052526286704946
20
0.035405200440385982
42
0.41526983913192389
10
-37.052526286704953
20
-0.035432818989855619
0
LWPOLYLINE
5
240
100
AcDbEntity
8
0
100
AcDbPolyline
90
8
70
1
43
0.0
10
-28.103000000000009
20
13.401904876114008
10
-28.103000000000009
20
9.1972634919566012
42
0.19938086482397621
10
-28.088291553533395
20
9.1618444822414737
10
-23.826595883879925
20
4.9154846297702681
42
0.66752702052958324
10
-23.741304330346541
20
4.9509036394853867
10
-23.741304330346541
20
9.1557358494260264
42
0.19938670556199092
10
-23.756013572676373
20
9.1911556521226334
10
-28.017709242329843
20
13.437324678810629
42
0.66751890005557146
0
LWPOLYLINE
5
241
100
AcDbEntity
8
0
100
AcDbPolyline
90
8
70
1
43
0.0
10
-29.092175321189369
20
13.841209242329846
42
0.66751890005549785
10
-29.127595123885971
20
13.926500000000015
10
-33.332236508043408
20
13.926500000000006
42
0.19938086482398598
10
-33.367655517758521
20
13.911791553533384
10
-37.614015370229723
20
9.6500958838799544
42
0.66752702052953783
10
-37.578596360514595
20
9.5648043303465755
10
-33.373764150573962
20
9.5648043303465649
42
0.19938670556200727
10
-33.338344347877353
20
9.5795135726764045
0
LWPOLYLINE
5
242
100
AcDbEntity
8
0
100
AcDbPolyline
90
6
70
1
43
0.0
10
22.540861474465714
20
13.92648619072526
10
14.476486190725256
20
13.92648619072526
42
0.41421356237310802
10
14.426486190725253
20
13.876486190725261
10
14.426486190725253
20
5.8121364048816515
42
0.66817806624141141
10
14.511841473891295
20
5.7767810099291239
10
22.576216757631755
20
13.84113079577272
42
0.66817920959761123
0
LWPOLYLINE
5
243
100
AcDbEntity
8
0
100
AcDbPolyline
90
8
70
1
43
0.0
10
-18.78819566965344
20
5.0207641505739442
42
0.19938670556194496
10
-18.773486427323604
20
4.985344347877354
10
-14.511790757670147
20
0.73917532118937146
42
0.6675189000556071
10
-14.426500000000004
20
0.77459512388596607
10
-14.426499999999995
20
4.9792365080433942
42
0.19938086482399245
10
-14.4412084464666
20
5.0146555177585306
10
-18.702904116120052
20
9.2610153702297495
42
0.66752702052954738
10
-18.78819566965344
20
9.2255963605146221
0
LWPOLYLINE
5
244
100
AcDbEntity
8
0
100
AcDbPolyline
90
8
70
1
43
0.0
10
-32.949986427323608
20
9.1911556521226423
42
0.19938670556197749
10
-32.964695669653445
20
9.1557358494260441
10
-32.964695669653452
20
4.9509036394854089
42
0.66752702052946034
10
-32.879404116120071
20
4.9154846297702859
10
-28.617708446466608
20
9.1618444822414737
42
0.19938086482404827
10
-28.602999999999987
20
9.1972634919566154
10
-28.602999999999991
20
13.401904876114026
42
0.66751890005579428
10
-28.688290757670156
20
13.437324678810629
0
LWPOLYLINE
5
245
100
AcDbEntity
8
0
100
AcDbPolyline
90
8
70
1
43
0.0
10
-37.367804330346559
20
9.0648043303465631
10
-33.514695669653449
20
9.0648043303465631
42
-0.414213562373069
10
-33.464695669653452
20
9.0148043303465641
10
-33.464695669653452
20
5.1616956696534544
42
-0.41421356237312101
10
-33.514695669653449
20
5.111695669653451
10
-37.367804330346559
20
5.111695669653451
42
-0.41421356237312101
10
-37.417804330346556
20
5.1616956696534544
10
-37.417804330346556
20
9.0148043303465641
42
-0.41421356237309503
0
LWPOLYLINE
5
246
100
AcDbEntity
8
0
100
AcDbPolyline
90
8
70
1
43
0.0
10
-37.514844482241486
20
0.26470844646660829
10
-33.268484629770278
20
4.5264041161200641
42
0.66752702052962876
10
-33.303903639485398
20
4.6116956696534617
10
-37.508735849426046
20
4.6116956696534528
42
0.19938670556204283
10
-37.544155652122654
20
4.5969864273236105
10
-41.79032467881062
20
0.33529075767016359
42
0.66751890005552972
10
-41.754904876114018
20
0.25000000000000355
10
-37.550263491956599
20
0.25000000000000355
42
0.19938086482392733
0
LWPOLYLINE
5
247
100
AcDbEntity
8
0
100
AcDbPolyline
90
8
70
1
43
0.0
10
-41.754904876114018
20
-0.24999999999999911
42
0.66751890005552972
10
-41.79032467881062
20
-0.33529075767015026
10
-37.54415565212264
20
-4.5969864273236105
42
0.19938670556203053
10
-37.508735849426039
20
-4.6116956696534483
10
-33.303903639485391
20
-4.6116956696534483
42
0.66752702052946433
10
-33.268484629770285
20
-4.5264041161200641
10
-37.514844482241479
20
-0.26470844646659941
42
0.19938086482392714
10
-37.550263491956606
20
-0.24999999999999911
0
LWPOLYLINE
5
248
100
AcDbEntity
8
0
100
AcDbPolyline
90
8
70
1
43
0.0
10
-37.932513572676392
20
4.9853443478773629
10
-42.194209242329855
20
0.73917532118938367
42
-0.66751890005561676
10
-42.279500000000006
20
0.77459512388599272
10
-42.279499999999999
20
4.9792365080434084
42
-0.19938086482393402
10
-42.264791553533399
20
5.0146555177585261
10
-38.003095883879936
20
9.2610153702297406
42
-0.66752702052949264
10
-37.917804330346556
20
9.2255963605146096
10
-37.917804330346563
20
5.0207641505739486
42
-0.19938670556192858
0
LWPOLYLINE
5
249
100
AcDbEntity
8
0
100
AcDbPolyline
90
6
70
1
43
0.0
10
42.279486190725272
20
-5.8121385255342739
10
42.279486190725272
20
-13.876513809274737
42
-0.41421356237304302
10
42.229486190725282
20
-13.926513809274734
10
34.165136404881643
20
-13.926513809274731
42
-0.66817806624142273
10
34.129781009929118
20
-13.8411585261087
10
42.194130795772757
20
-5.776783242368233
42
-0.66817920959744292
0
LWPOLYLINE
5
250
100
AcDbEntity
8
0
100
AcDbPolyline
90
8
70
1
43
0.0
10
29.09217532118938
20
-13.841209242329843
10
33.33834434787736
20
-9.5795135726763831
42
-0.19938670556191218
10
33.373764150573948
20
-9.5648043303465506
10
37.578596360514595
20
-9.5648043303465524
42
-0.6675270205295587
10
37.614015370229723
20
-9.6500958838799384
10
33.367655517758521
20
-13.911791553533387
42
-0.19938086482396808
10
33.332236508043401
20
-13.926499999999999
10
29.127595123885982
20
-13.926499999999994
42
-0.66751890005567338
0
LWPOLYLINE
5
251
100
AcDbEntity
8
0
100
AcDbPolyline
90
8
70
1
43
0.0
10
13.926500000000006
20
-4.979236508043412
10
13.926499999999997
20
-0.7745951238859794
42
0.66751890005557502
10
13.841209242329837
20
-0.73917532118938034
10
9.5795135726764045
20
-4.9853443478773629
42
0.19938670556198435
10
9.5648043303465649
20
-5.0207641505739575
10
9.5648043303465524
20
-9.2255963605145919
42
0.6675270205295446
10
9.6500958838799455
20
-9.2610153702297122
10
13.911791553533384
20
-5.0146555177585217
42
0.19938086482392067
0
LWPOLYLINE
5
252
100
AcDbEntity
8
0
100
AcDbPolyline
90
8
70
1
43
0.0
10
18.773486427323608
20
-4.985344347877354
10
14.511790757670154
20
-0.7391753211893981
42
0.66751890005562797
10
14.426499999999995
20
-0.7745951238860016
10
14.426500000000001
20
-4.9792365080433898
42
0.19938086482403877
10
14.441208446466609
20
-5.0146555177585261
10
18.702904116120067
20
-9.2610153702297247
42
0.66752702052953783
10
18.788195669653454
20
-9.2255963605146025
10
18.788195669653454
20
-5.0207641505739486
42
0.19938670556197757
0
LWPOLYLINE
5
253
100
AcDbEntity
8
0
100
AcDbPolyline
90
6
70
1
43
0.0
10
-42.279513809274754
20
5.8121364048816515
42
0.66817806624141141
10
-42.194158526108708
20
5.7767810099291239
10
-34.129783242368248
20
13.84113079577272
42
0.66817920959761123
10
-34.165138525534289
20
13.92648619072526
10
-42.229513809274749
20
13.92648619072526
42
0.41421356237309503
10
-42.279513809274754
20
13.876486190725261
0
LWPOLYLINE
5
254
100
AcDbEntity
8
0
100
AcDbPolyline
90
6
70
1
43
0.0
10
-13.841158526108707
20
5.7767810099291239
10
-5.7767832423682464
20
13.84113079577272
42
0.66817920959761123
10
-5.8121385255342872
20
13.92648619072526
10
-13.876513809274746
20
13.92648619072526
42
0.41421356237310802
10
-13.926513809274748
20
13.876486190725261
10
-13.926513809274748
20
5.8121364048816515
42
0.66817806624141141
0
LWPOLYLINE
5
255
100
AcDbEntity
8
0
100
AcDbPolyline
90
8
70
1
43
0.0
10
42.194209242329855
20
0.73917532118937146
42
0.6675189000556071
10
42.279499999999999
20
0.77459512388596607
10
42.279500000000006
20
4.9792365080433942
42
0.19938086482399245
10
42.264791553533399
20
5.0146555177585306
10
38.003095883879951
20
9.2610153702297495
42
0.66752702052954738
10
37.917804330346563
20
9.2255963605146221
10
37.917804330346563
20
5.0207641505739442
42
0.19938670556194496
10
37.932513572676399
20
4.985344347877354
0
LWPOLYLINE
5
256
100
AcDbEntity
8
0
100
AcDbPolyline
90
8
70
1
43
0.0
10
37.550263491956606
20
-0.24999999999999911
42
0.19938086482396283
10
37.514844482241486
20
-0.26470844646660829
10
33.268484629770285
20
-4.5264041161200597
42
0.66752702052942836
10
33.303903639485412
20
-4.6116956696534483
10
37.508735849426046
20
-4.6116956696534483
42
0.19938670556193797
10
37.54415565212264
20
-4.5969864273236105
10
41.790324678810634
20
-0.33529075767015915
42
0.66751890005557535
10
41.754904876114026
20
-0.24999999999999023
0
LWPOLYLINE
5
257
100
AcDbEntity
8
0
100
AcDbPolyline
90
8
70
1
43
0.0
10
42.264791553533385
20
-5.0146555177585217
42
0.19938086482392067
10
42.279500000000006
20
-4.979236508043412
10
42.279499999999999
20
-0.7745951238859794
42
0.66751890005557502
10
42.19420924232984
20
-0.73917532118938034
10
37.932513572676406
20
-4.9853443478773629
42
0.19938670556198435
10
37.91780433034657
20
-5.0207641505739575
10
37.917804330346556
20
-9.2255963605145919
42
0.6675270205295446
10
38.003095883879951
20
-9.2610153702297122
0
LWPOLYLINE
5
258
100
AcDbEntity
8
0
100
AcDbPolyline
90
8
70
1
43
0.0
10
28.103000000000012
20
13.401904876114026
10
28.103000000000016
20
9.1972634919566154
42
-0.19938086482404829
10
28.088291553533395
20
9.1618444822414737
10
23.826595883879939
20
4.9154846297702797
42
-0.66752702052946034
10
23.741304330346548
20
4.9509036394854089
10
23.741304330346548
20
9.1557358494260441
42
-0.19938670556197752
10
23.756013572676391
20
9.1911556521226423
10
28.017709242329843
20
13.437324678810633
42
-0.66751890005579428
0
LWPOLYLINE
5
259
100
AcDbEntity
8
0
100
AcDbPolyline
90
8
70
1
43
0.0
10
32.949986427323608
20
-9.1911556521226458
42
0.19938670556205915
10
32.964695669653452
20
-9.1557358494260388
10
32.964695669653459
20
-4.9509036394853956
42
0.66752702052940582
10
32.879404116120071
20
-4.9154846297702681
10
28.617708446466597
20
-9.1618444822414844
42
0.19938086482392395
10
28.602999999999994
20
-9.1972634919566012
10
28.602999999999994
20
-13.401904876114013
42
0.66751890005556636
10
28.688290757670146
20
-13.437324678810615
0
LWPOLYLINE
5
260
100
AcDbEntity
8
0
100
AcDbPolyline
90
8
70
1
43
0.0
10
37.052526286704946
20
-0.035432818989860053
42
0.4152698391319421
10
37.052526286704946
20
0.035405200440394857
10
32.865549926372353
20
4.2073146228717784
42
0.41421356237931245
10
32.794839363123096
20
4.207187166689299
10
28.637956190689408
20
0.035291323792914227
42
0.41315616870927085
10
28.637955960951178
20
-0.035291552702929607
10
32.794825554769147
20
-4.2072280844220877
42
0.41421546904051243
10
32.865536347756638
20
-4.2073557711740017
0
LWPOLYLINE
5
261
100
AcDbEntity
8
0
100
AcDbPolyline
90
8
70
1
43
0.0
10
33.514695669653449
20
-5.1116956696534466
42
0.41421356237309503
10
33.464695669653452
20
-5.1616956696534455
10
33.464695669653459
20
-9.0148043303465499
42
0.41421356237312101
10
33.514695669653449
20
-9.0648043303465542
10
37.367804330346551
20
-9.064804330346556
42
0.41421356237309503
10
37.417804330346549
20
-9.0148043303465553
10
37.417804330346549
20
-5.1616956696534499
42
0.414213562373069
10
37.367804330346559
20
-5.1116956696534466
0
LWPOLYLINE
5
262
100
AcDbEntity
8
0
100
AcDbPolyline
90
8
70
1
43
0.0
10
27.578404876114032
20
13.926500000000015
10
23.373763491956598
20
13.926500000000006
42
0.19938086482398598
10
23.338344482241482
20
13.911791553533384
10
19.09198462977028
20
9.6500958838799544
42
0.66752702052956536
10
19.127403639485404
20
9.5648043303465755
10
23.332235849426045
20
9.5648043303465649
42
0.19938670556200727
10
23.36765565212265
20
9.5795135726764045
10
27.613824678810634
20
13.841209242329846
42
0.66751890005549785
0
LWPOLYLINE
5
263
100
AcDbEntity
8
0
100
AcDbPolyline
90
8
70
1
43
0.0
10
28.103000000000009
20
-13.401904876114013
10
28.102999999999998
20
-9.1972634919566048
42
0.19938086482395653
10
28.088291553533399
20
-9.1618444822414773
10
23.826595883879939
20
-4.9154846297702726
42
0.6675270205294096
10
23.741304330346551
20
-4.9509036394853823
10
23.741304330346551
20
-9.155735849426037
42
0.19938670556201557
10
23.756013572676395
20
-9.1911556521226387
10
28.017709242329857
20
-13.437324678810613
42
0.66751890005552772
0
LWPOLYLINE
5
264
100
AcDbEntity
8
0
100
AcDbPolyline
90
8
70
1
43
0.0
10
24.145771915577914
20
-4.4418255547691343
10
28.317708447297072
20
-0.28495596095116493
42
-0.41315616870928923
10
28.38829132379292
20
-0.28495619068939604
10
32.56018716668931
20
-4.4418393631230826
42
-0.41421356237925738
10
32.5603146228718
20
-4.5125499263723468
10
28.388405200440374
20
-8.6995262867049288
42
-0.41526983913196985
10
28.317567181010123
20
-8.6995262867049323
10
24.145644228825994
20
-4.5125363477566207
42
-0.41421546904045725
0
LWPOLYLINE
5
265
100
AcDbEntity
8
0
100
AcDbPolyline
90
8
70
1
43
0.0
10
41.754904876114011
20
0.25000000000000355
42
0.66751890005554881
10
41.790324678810642
20
0.33529075767017247
10
37.544155652122654
20
4.5969864273236105
42
0.19938670556200058
10
37.508735849426053
20
4.6116956696534528
10
33.303903639485405
20
4.6116956696534439
42
0.66752702052948309
10
33.268484629770285
20
4.526404116120073
10
37.514844482241479
20
0.26470844646662162
42
0.19938086482400633
10
37.550263491956592
20
0.24999999999999467
0
LWPOLYLINE
5
266
100
AcDbEntity
8
0
100
AcDbPolyline
90
6
70
1
43
0.0
10
42.279486190725265
20
5.8121374652062352
10
42.279486190725272
20
13.876486190725261
42
0.41421356237314705
10
42.229486190725268
20
13.926486190725269
10
34.165137465206207
20
13.926486190725269
42
0.66817863791928955
10
34.1297821261469
20
13.841130851665948
10
42.194130851665946
20
5.776782126146931
42
0.66817863791933507
0
LWPOLYLINE
5
267
100
AcDbEntity
8
0
100
AcDbPolyline
90
8
70
1
43
0.0
10
33.514695669653449
20
9.0648043303465506
42
0.41421356237312101
10
33.464695669653452
20
9.0148043303465464
10
33.464695669653452
20
5.1616956696534499
42
0.41421356237309503
10
33.514695669653449
20
5.111695669653451
10
37.367804330346544
20
5.111695669653451
42
0.41421356237312101
10
37.417804330346549
20
5.1616956696534499
10
37.417804330346549
20
9.0148043303465499
42
0.41421356237309503
10
37.367804330346551
20
9.0648043303465506
0
LWPOLYLINE
5
268
100
AcDbEntity
8
0
100
AcDbPolyline
90
8
70
1
43
0.0
10
37.578596360514609
20
9.5648043303465755
42
0.66752702052949653
10
37.614015370229723
20
9.6500958838799598
10
33.367655517758557
20
13.911791553533392
42
0.19938086482395312
10
33.33223650804343
20
13.926500000000006
10
29.127595123885982
20
13.926500000000006
42
0.66751890005559777
10
29.092175321189387
20
13.841209242329837
10
33.338344347877353
20
9.5795135726764045
42
0.19938670556198435
10
33.373764150573948
20
9.5648043303465649
0
LWPOLYLINE
5
269
100
AcDbEntity
8
0
100
AcDbPolyline
90
8
70
1
43
0.0
10
28.388405200440374
20
8.6995262867049394
42
0.41526983913192383
10
28.317567181010126
20
8.6995262867049394
10
24.14564422882599
20
4.5125363477566172
42
0.41421546904049406
10
24.145771915577903
20
4.4418255547691343
10
28.317708447297072
20
0.28495596095117648
42
0.41315616870927085
10
28.388291323792917
20
0.28495619068940492
10
32.560187166689303
20
4.4418393631230968
42
0.41421356237922052
10
32.560314622871786
20
4.5125499263723468
0
LWPOLYLINE
5
270
100
AcDbEntity
8
0
100
AcDbPolyline
90
8
70
1
43
0.0
10
32.964695669653466
20
9.1557358494260264
42
0.19938670556199092
10
32.94998642732363
20
9.1911556521226334
10
28.68829075767016
20
13.437324678810629
42
0.66751890005557146
10
28.602999999999994
20
13.401904876114008
10
28.602999999999994
20
9.1972634919566012
42
0.19938086482397621
10
28.617708446466608
20
9.1618444822414737
10
32.879404116120078
20
4.9154846297702681
42
0.66752702052958324
10
32.964695669653466
20
4.9509036394853867
0
LWPOLYLINE
5
271
100
AcDbEntity
8
0
100
AcDbPolyline
90
8
70
1
43
0.0
10
9.5648043303465613
20
9.2255963605146221
10
9.5648043303465613
20
5.0207641505739442
42
0.19938670556194496
10
9.5795135726763991
20
4.985344347877354
10
13.841209242329855
20
0.73917532118937146
42
0.6675189000556071
10
13.926499999999997
20
0.77459512388596607
10
13.926500000000006
20
4.9792365080433942
42
0.19938086482399245
10
13.911791553533401
20
5.0146555177585306
10
9.6500958838799491
20
9.2610153702297495
42
0.66752702052954738
0
LWPOLYLINE
5
272
100
AcDbEntity
8
0
100
AcDbPolyline
90
8
70
1
43
0.0
10
18.788195669653447
20
9.2255963605146096
10
18.788195669653444
20
5.0207641505739486
42
-0.1993867055619204
10
18.773486427323615
20
4.9853443478773629
10
14.511790757670145
20
0.73917532118938567
42
-0.66751890005560532
10
14.426499999999997
20
0.77459512388599272
10
14.426499999999997
20
4.9792365080434076
42
-0.19938086482394232
10
14.441208446466602
20
5.0146555177585261
10
18.70290411612007
20
9.2610153702297389
42
-0.66752702052949264
0
LWPOLYLINE
5
273
100
AcDbEntity
8
0
100
AcDbPolyline
90
8
70
1
43
0.0
10
19.1557365080434
20
0.25000000000000355
42
0.19938086482393552
10
19.191155517758517
20
0.26470844646660829
10
23.437515370229725
20
4.5264041161200641
42
0.66752702052962876
10
23.402096360514605
20
4.6116956696534617
10
19.197264150573954
20
4.6116956696534528
42
0.19938670556203469
10
19.161844347877352
20
4.5969864273236105
10
14.915675321189381
20
0.33529075767016359
42
0.66751890005551373
10
14.951095123885983
20
0.25000000000000355
0
LWPOLYLINE
5
274
100
AcDbEntity
8
0
100
AcDbPolyline
90
8
70
1
43
0.0
10
-13.9117915535334
20
5.0146555177585261
10
-9.6500958838799313
20
9.2610153702297389
42
-0.66752702052949264
10
-9.5648043303465524
20
9.2255963605146096
10
-9.564804330346556
20
5.0207641505739486
42
-0.1993867055619204
10
-9.5795135726763885
20
4.9853443478773629
10
-13.841209242329857
20
0.73917532118938567
42
-0.66751890005560532
10
-13.926500000000004
20
0.77459512388599272
10
-13.926500000000004
20
4.9792365080434076
42
-0.19938086482394232
0
LWPOLYLINE
5
275
100
AcDbEntity
8
0
100
AcDbPolyline
90
8
70
1
43
0.0
10
-33.338344347877353
20
-9.5795135726763938
42
0.19938670556197757
10
-33.373764150573948
20
-9.5648043303465471
10
-37.578596360514602
20
-9.5648043303465471
42
0.66752702052949242
10
-37.61401537022973
20
-9.6500958838799349
10
-33.367655517758521
20
-13.911791553533384
42
0.19938086482396819
10
-33.332236508043408
20
-13.926499999999995
10
-29.127595123885985
20
-13.926499999999999
42
0.66751890005562975
10
-29.092175321189391
20
-13.841209242329839
0
LWPOLYLINE
5
276
100
AcDbEntity
8
0
100
AcDbPolyline
90
8
70
1
43
0.0
10
-32.879404116120064
20
-4.9154846297702726
42
0.6675270205294096
10
-32.964695669653452
20
-4.9509036394853823
10
-32.964695669653452
20
-9.155735849426037
42
0.19938670556201557
10
-32.949986427323608
20
-9.1911556521226387
10
-28.688290757670146
20
-13.437324678810613
42
0.66751890005552772
10
-28.602999999999994
20
-13.401904876114013
10
-28.603000000000005
20
-9.1972634919566048
42
0.19938086482395653
10
-28.617708446466604
20
-9.1618444822414773
0
LWPOLYLINE
5
277
100
AcDbEntity
8
0
100
AcDbPolyline
90
8
70
1
43
0.0
10
-19.161844347877349
20
4.5969864273236105
42
0.19938670556200058
10
-19.19726415057395
20
4.6116956696534528
10
-23.402096360514598
20
4.6116956696534439
42
0.66752702052948309
10
-23.437515370229715
20
4.526404116120073
10
-19.191155517758528
20
0.26470844646662162
42
0.19938086482400633
10
-19.155736508043407
20
0.24999999999999467
10
-14.951095123885993
20
0.25000000000000355
42
0.66751890005554881
10
-14.915675321189363
20
0.33529075767017247
0
LWPOLYLINE
5
278
100
AcDbEntity
8
0
100
AcDbPolyline
90
8
70
1
43
0.0
10
-19.288195669653451
20
5.1616956696534499
10
-19.288195669653451
20
9.0148043303465499
42
0.41421356237309503
10
-19.338195669653452
20
9.0648043303465506
10
-23.191304330346551
20
9.0648043303465506
42
0.41421356237312101
10
-23.241304330346551
20
9.0148043303465464
10
-23.241304330346551
20
5.1616956696534499
42
0.41421356237309503
10
-23.191304330346551
20
5.111695669653451
10
-19.338195669653455
20
5.111695669653451
42
0.41421356237312101
0
LWPOLYLINE
5
279
100
AcDbEntity
8
0
100
AcDbPolyline
90
8
70
1
43
0.0
10
-19.338195669653452
20
-9.064804330346556
10
-23.191304330346551
20
-9.0648043303465453
42
-0.41421356237312101
10
-23.241304330346541
20
-9.0148043303465499
10
-23.241304330346551
20
-5.1616956696534455
42
-0.41421356237309503
10
-23.191304330346551
20
-5.1116956696534466
10
-19.338195669653444
20
-5.111695669653451
42
-0.414213562373069
10
-19.288195669653451
20
-5.1616956696534499
10
-19.288195669653451
20
-9.0148043303465553
42
-0.41421356237309503
0
LWPOLYLINE
5
280
100
AcDbEntity
8
0
100
AcDbPolyline
90
6
70
1
43
0.0
10
-14.426513809274741
20
5.8121374652062352
10
-14.426513809274732
20
13.876486190725261
42
0.41421356237314705
10
-14.476513809274731
20
13.926486190725269
10
-22.540862534793792
20
13.926486190725269
42
0.66817863791928955
10
-22.576217873853107
20
13.841130851665948
10
-14.511869148334053
20
5.776782126146931
42
0.66817863791933507
0
LWPOLYLINE
5
281
100
AcDbEntity
8
0
100
AcDbPolyline
90
8
70
1
43
0.0
10
-5.111695669653451
20
9.0148043303465641
10
-5.111695669653451
20
5.1616956696534544
42
-0.41421356237312101
10
-5.1616956696534499
20
5.111695669653451
10
-9.0148043303465553
20
5.1116956696534537
42
-0.41421356237312101
10
-9.0648043303465524
20
5.1616956696534544
10
-9.0648043303465542
20
9.0148043303465641
42
-0.41421356237309503
10
-9.0148043303465553
20
9.0648043303465631
10
-5.1616956696534455
20
9.0648043303465631
42
-0.414213562373069
0
LWPOLYLINE
5
282
100
AcDbEntity
8
0
100
AcDbPolyline
90
8
70
1
43
0.0
10
-28.617708446466604
20
-37.514844482241479
10
-32.879404116120064
20
-33.268484629770271
42
0.6675270205294096
10
-32.964695669653452
20
-33.303903639485384
10
-32.964695669653452
20
-37.508735849426039
42
0.19938670556200058
10
-32.949986427323608
20
-37.54415565212264
10
-28.688290757670146
20
-41.790324678810613
42
0.66751890005550685
10
-28.602999999999994
20
-41.754904876114018
10
-28.603000000000005
20
-37.550263491956606
42
0.19938086482395992
0
LWPOLYLINE
5
283
100
AcDbEntity
8
0
100
AcDbPolyline
90
8
70
1
43
0.0
10
37.91780433034657
20
-33.373764150573962
10
37.917804330346556
20
-37.578596360514595
42
0.66752702052952861
10
38.003095883879951
20
-37.614015370229708
10
42.264791553533385
20
-33.367655517758521
42
0.19938086482392067
10
42.279500000000006
20
-33.332236508043415
10
42.279499999999999
20
-29.127595123885982
42
0.66751890005557502
10
42.19420924232984
20
-29.09217532118938
10
37.932513572676406
20
-33.338344347877367
42
0.19938670556198435
0
LWPOLYLINE
5
284
100
AcDbEntity
8
0
100
AcDbPolyline
90
8
70
1
43
0.0
10
9.0648043303465506
20
-33.514695669653449
10
9.0648043303465506
20
-37.367804330346559
42
-0.41421356237309503
10
9.0148043303465499
20
-37.417804330346556
10
5.1616956696534499
20
-37.417804330346549
42
-0.41421356237312101
10
5.1116956696534599
20
-37.367804330346551
10
5.111695669653451
20
-33.514695669653449
42
-0.41421356237309503
10
5.1616956696534499
20
-33.464695669653452
10
9.0148043303465553
20
-33.464695669653452
42
-0.414213562373069
0
LWPOLYLINE
5
285
100
AcDbEntity
8
0
100
AcDbPolyline
90
8
70
1
43
0.0
10
-42.264791553533392
20
-33.367655517758529
10
-38.003095883879936
20
-37.614015370229723
42
0.66752702052959256
10
-37.917804330346549
20
-37.578596360514602
10
-37.917804330346549
20
-33.373764150573948
42
0.19938670556197757
10
-37.932513572676399
20
-33.338344347877353
10
-42.194209242329848
20
-29.092175321189401
42
0.66751890005566195
10
-42.279500000000006
20
-29.127595123886003
10
-42.279499999999999
20
-33.332236508043394
42
0.19938086482403874
0
LWPOLYLINE
5
286
100
AcDbEntity
8
0
100
AcDbPolyline
90
8
70
1
43
0.0
10
4.2073146228717961
20
-32.865549926372346
42
0.41421356237925738
10
4.2071871666893035
20
-32.794839363123089
10
0.035291323792918668
20
-28.637956190689398
42
0.41315616870928923
10
-0.035291552702929607
20
-28.637955960951167
10
-4.2072280844220877
20
-32.794825554769133
42
0.41421546904045725
10
-4.2073557711740062
20
-32.865536347756624
10
-0.03543281898987783
20
-37.052526286704932
42
0.41526983913197901
10
0.035405200440372653
20
-37.052526286704932
0
LWPOLYLINE
5
287
100
AcDbEntity
8
0
100
AcDbPolyline
90
8
70
1
43
0.0
10
4.4418255547691432
20
-32.560228084422093
10
0.28495596095117603
20
-28.388291552702931
42
-0.41315616870927085
10
0.28495619068940492
20
-28.317708676207086
10
4.4418393631230932
20
-24.145812833310703
42
-0.41421356237931245
10
4.5125499263723512
20
-24.145685377128224
10
8.6995262867049412
20
-28.317594799559615
42
-0.4152698391319421
10
8.6995262867049448
20
-28.388432818989862
10
4.5125363477566358
20
-32.560355771174002
42
-0.41421546904051243
0
LWPOLYLINE
5
288
100
AcDbEntity
8
0
100
AcDbPolyline
90
8
70
1
43
0.0
10
37.417804330346549
20
-33.514695669653449
10
37.417804330346549
20
-37.367804330346559
42
-0.41421356237309503
10
37.367804330346551
20
-37.417804330346556
10
33.514695669653449
20
-37.417804330346549
42
-0.41421356237312101
10
33.464695669653459
20
-37.367804330346551
10
33.464695669653452
20
-33.514695669653449
42
-0.41421356237309503
10
33.514695669653449
20
-33.464695669653452
10
37.367804330346559
20
-33.464695669653452
42
-0.414213562373069
0
LWPOLYLINE
5
289
100
AcDbEntity
8
0
100
AcDbPolyline
90
8
70
1
43
0.0
10
-13.911791553533392
20
-33.367655517758529
10
-9.6500958838799349
20
-37.614015370229723
42
0.66752702052958135
10
-9.5648043303465471
20
-37.578596360514602
10
-9.5648043303465471
20
-33.373764150573948
42
0.19938670556197757
10
-9.5795135726763938
20
-33.338344347877353
10
-13.841209242329848
20
-29.092175321189401
42
0.66751890005562797
10
-13.926500000000006
20
-29.127595123886003
10
-13.926500000000001
20
-33.332236508043394
42
0.19938086482403877
0
LWPOLYLINE
5
290
100
AcDbEntity
8
0
100
AcDbPolyline
90
8
70
1
43
0.0
10
-19.288195669653451
20
-33.514695669653449
10
-19.288195669653451
20
-37.367804330346559
42
-0.41421356237309503
10
-19.338195669653452
20
-37.417804330346556
10
-23.191304330346551
20
-37.417804330346549
42
-0.41421356237312101
10
-23.241304330346541
20
-37.367804330346551
10
-23.241304330346551
20
-33.514695669653449
42
-0.41421356237309503
10
-23.191304330346551
20
-33.464695669653452
10
-19.338195669653444
20
-33.464695669653452
42
-0.414213562373069
0
LWPOLYLINE
5
291
100
AcDbEntity
8
0
100
AcDbPolyline
90
8
70
1
43
0.0
10
18.788195669653454
20
-37.578596360514602
10
18.788195669653454
20
-33.373764150573948
42
0.19938670556197757
10
18.773486427323608
20
-33.338344347877353
10
14.511790757670154
20
-29.092175321189401
42
0.66751890005562797
10
14.426499999999995
20
-29.127595123886003
10
14.426500000000001
20
-33.332236508043394
42
0.19938086482403877
10
14.441208446466609
20
-33.367655517758529
10
18.702904116120067
20
-37.614015370229723
42
0.66752702052958135
0
LWPOLYLINE
5
292
100
AcDbEntity
8
0
100
AcDbPolyline
90
8
70
1
43
0.0
10
-23.741304330346551
20
-37.508735849426039
10
-23.741304330346544
20
-33.303903639485398
42
0.66752702052940582
10
-23.826595883879932
20
-33.268484629770271
10
-28.088291553533406
20
-37.514844482241486
42
0.19938086482392051
10
-28.103000000000009
20
-37.550263491956606
10
-28.103000000000009
20
-41.754904876114018
42
0.66751890005552961
10
-28.017709242329857
20
-41.790324678810613
10
-23.756013572676395
20
-37.544155652122647
42
0.19938670556205915
0
LWPOLYLINE
5
293
100
AcDbEntity
8
0
100
AcDbPolyline
90
8
70
1
43
0.0
10
-0.28495596095117204
20
-28.388291552702924
42
0.41315616870917887
10
-0.28495619068940936
20
-28.31770867620709
10
-4.4418393631230879
20
-24.145812833310703
42
0.41421356237933088
10
-4.5125499263723512
20
-24.145685377128213
10
-8.6995262867049483
20
-28.317594799559615
42
0.41526983913194232
10
-8.6995262867049519
20
-28.388432818989855
10
-4.5125363477566216
20
-32.560355771174009
42
0.41421546904047557
10
-4.4418255547691299
20
-32.560228084422093
0
LWPOLYLINE
5
294
100
AcDbEntity
8
0
100
AcDbPolyline
90
8
70
1
43
0.0
10
-4.6116956696534483
20
-33.303903639485384
10
-4.6116956696534483
20
-37.508735849426039
42
0.19938670556200058
10
-4.5969864273236061
20
-37.54415565212264
10
-0.33529075767014582
20
-41.790324678810613
42
0.66751890005550685
10
-0.24999999999999467
20
-41.754904876114018
10
-0.25000000000000355
20
-37.550263491956606
42
0.19938086482395992
10
-0.26470844646660385
20
-37.514844482241479
10
-4.5264041161200641
20
-33.268484629770271
42
0.6675270205294096
0
LWPOLYLINE
5
295
100
AcDbEntity
8
0
100
AcDbPolyline
90
8
70
1
43
0.0
10
4.2071871666893035
20
-23.911160636876904
42
0.41421356237922052
10
4.2073146228717873
20
-23.840450073627654
10
0.035405200440372646
20
-19.653473713295064
42
0.41526983913192383
10
-0.035432818989873383
20
-19.653473713295064
10
-4.2073557711740106
20
-23.840463652243386
42
0.41421546904049406
10
-4.2072280844220966
20
-23.911174445230866
10
-0.035291552702929614
20
-28.068044039048825
42
0.41315616870927085
10
0.03529132379291422
20
-28.068043809310595
0
LWPOLYLINE
5
296
100
AcDbEntity
8
0
100
AcDbPolyline
90
8
70
1
43
0.0
10
-28.38843281898988
20
-37.052526286704932
10
-32.560355771174009
20
-32.865536347756624
42
-0.41421546904045725
10
-32.560228084422093
20
-32.794825554769133
10
-28.388291552702931
20
-28.637955960951164
42
-0.41315616870928923
10
-28.317708676207083
20
-28.637956190689398
10
-24.145812833310693
20
-32.794839363123089
42
-0.41421356237925738
10
-24.145685377128206
20
-32.865549926372346
10
-28.317594799559632
20
-37.052526286704932
42
-0.41526983913197901
0
LWPOLYLINE
5
297
100
AcDbEntity
8
0
100
AcDbPolyline
90
8
70
1
43
0.0
10
-5.111695669653451
20
-37.367804330346559
10
-5.111695669653451
20
-33.514695669653449
42
0.41421356237312101
10
-5.1616956696534499
20
-33.464695669653452
10
-9.0148043303465464
20
-33.464695669653452
42
0.41421356237309503
10
-9.0648043303465453
20
-33.514695669653449
10
-9.0648043303465453
20
-37.367804330346559
42
0.41421356237309503
10
-9.0148043303465464
20
-37.417804330346556
10
-5.1616956696534499
20
-37.417804330346556
42
0.41421356237309503
0
LWPOLYLINE
5
298
100
AcDbEntity
8
0
100
AcDbPolyline
90
8
70
1
43
0.0
10
4.5264041161200685
20
-33.268484629770271
10
0.26470844646659497
20
-37.514844482241486
42
0.19938086482392051
10
0.24999999999999467
20
-37.550263491956606
10
0.24999999999999467
20
-41.754904876114018
42
0.66751890005552961
10
0.33529075767014582
20
-41.790324678810613
10
4.5969864273236061
20
-37.544155652122647
42
0.19938670556205915
10
4.6116956696534483
20
-37.508735849426039
10
4.6116956696534572
20
-33.303903639485398
42
0.66752702052940582
0
LWPOLYLINE
5
299
100
AcDbEntity
8
0
100
AcDbPolyline
90
8
70
1
43
0.0
10
-0.26470844646660829
20
-19.191155517758528
10
-4.5264041161200623
20
-23.437515370229718
42
-0.66752702052946034
10
-4.6116956696534528
20
-23.402096360514591
10
-4.6116956696534528
20
-19.197264150573957
42
-0.19938670556197752
10
-4.5969864273236105
20
-19.161844347877359
10
-0.33529075767015809
20
-14.915675321189369
42
-0.66751890005579428
10
-0.24999999999999023
20
-14.951095123885976
10
-0.24999999999998637
20
-19.155736508043386
42
-0.19938086482404829
0
LWPOLYLINE
5
300
100
AcDbEntity
8
0
100
AcDbPolyline
90
8
70
1
43
0.0
10
-5.0207641505739575
20
-18.788195669653437
42
0.19938670556200727
10
-4.9853443478773496
20
-18.773486427323597
10
-0.73917532118936702
20
-14.511790757670155
42
0.66751890005549785
10
-0.77459512388597052
20
-14.426499999999987
10
-4.9792365080434031
20
-14.426499999999995
42
0.19938086482398598
10
-5.0146555177585217
20
-14.441208446466618
10
-9.2610153702297193
20
-18.702904116120045
42
0.66752702052956536
10
-9.2255963605145972
20
-18.788195669653426
0
LWPOLYLINE
5
301
100
AcDbEntity
8
0
100
AcDbPolyline
90
8
70
1
43
0.0
10
-5.1616956696534499
20
-23.241304330346551
42
0.41421356237312101
10
-5.1116956696534466
20
-23.191304330346547
10
-5.111695669653451
20
-19.338195669653437
42
0.414213562373069
10
-5.1616956696534455
20
-19.28819566965344
10
-9.0148043303465553
20
-19.28819566965344
42
0.41421356237309503
10
-9.064804330346556
20
-19.338195669653437
10
-9.0648043303465524
20
-23.191304330346547
42
0.41421356237312101
10
-9.0148043303465553
20
-23.241304330346551
0
LWPOLYLINE
5
302
100
AcDbEntity
8
0
100
AcDbPolyline
90
8
70
1
43
0.0
10
0.24999999999999467
20
-14.951095123885993
10
0.24999999999999467
20
-19.1557365080434
42
0.19938086482397621
10
0.26470844646660829
20
-19.191155517758528
10
4.5264041161200774
20
-23.437515370229733
42
0.66752702052958324
10
4.6116956696534617
20
-23.402096360514616
10
4.6116956696534617
20
-19.197264150573975
42
0.19938670556199092
10
4.5969864273236283
20
-19.16184434787737
10
0.33529075767015915
20
-14.915675321189372
42
0.66751890005557146
0
LWPOLYLINE
5
303
100
AcDbEntity
8
0
100
AcDbPolyline
90
8
70
1
43
0.0
10
32.879404116120071
20
-33.268484629770271
10
28.617708446466597
20
-37.514844482241486
42
0.19938086482392051
10
28.602999999999994
20
-37.550263491956606
10
28.602999999999994
20
-41.754904876114018
42
0.66751890005552961
10
28.688290757670146
20
-41.790324678810613
10
32.949986427323608
20
-37.544155652122647
42
0.19938670556205915
10
32.964695669653452
20
-37.508735849426039
10
32.964695669653459
20
-33.303903639485398
42
0.66752702052940582
0
LWPOLYLINE
5
304
100
AcDbEntity
8
0
100
AcDbPolyline
90
8
70
1
43
0.0
10
-18.788195669653437
20
-33.373764150573962
10
-18.788195669653447
20
-37.578596360514595
42
0.66752702052952861
10
-18.702904116120056
20
-37.614015370229708
10
-14.441208446466618
20
-33.367655517758521
42
0.19938086482392067
10
-14.426499999999995
20
-33.332236508043415
10
-14.426500000000004
20
-29.127595123885982
42
0.66751890005557502
10
-14.511790757670164
20
-29.09217532118938
10
-18.773486427323597
20
-33.338344347877367
42
0.19938670556198435
0
LWPOLYLINE
5
305
100
AcDbEntity
8
0
100
AcDbPolyline
90
8
70
1
43
0.0
10
19.288195669653454
20
-33.514695669653449
10
19.288195669653454
20
-37.367804330346559
42
0.41421356237309503
10
19.338195669653455
20
-37.417804330346556
10
23.191304330346551
20
-37.417804330346556
42
0.41421356237309503
10
23.241304330346551
20
-37.367804330346559
10
23.241304330346551
20
-33.514695669653449
42
0.41421356237312101
10
23.191304330346551
20
-33.464695669653452
10
19.338195669653455
20
-33.464695669653452
42
0.41421356237309503
0
LWPOLYLINE
5
306
100
AcDbEntity
8
0
100
AcDbPolyline
90
8
70
1
43
0.0
10
28.317567181010123
20
-37.052526286704932
10
24.145644228825994
20
-32.865536347756624
42
-0.41421546904045725
10
24.145771915577914
20
-32.794825554769133
10
28.317708447297072
20
-28.637955960951164
42
-0.41315616870928923
10
28.38829132379292
20
-28.637956190689398
10
32.56018716668931
20
-32.794839363123089
42
-0.41421356237925738
10
32.5603146228718
20
-32.865549926372346
10
28.388405200440371
20
-37.052526286704932
42
-0.41526983913197901
0
LWPOLYLINE
5
307
100
AcDbEntity
8
0
100
AcDbPolyline
90
8
70
1
43
0.0
10
-33.464695669653452
20
-37.367804330346559
10
-33.464695669653452
20
-33.514695669653449
42
0.41421356237312101
10
-33.514695669653449
20
-33.464695669653452
10
-37.367804330346544
20
-33.464695669653452
42
0.41421356237309503
10
-37.417804330346549
20
-33.514695669653449
10
-37.417804330346549
20
-37.367804330346559
42
0.41421356237309503
10
-37.367804330346544
20
-37.417804330346556
10
-33.514695669653449
20
-37.417804330346556
42
0.41421356237309503
0
LWPOLYLINE
5
308
100
AcDbEntity
8
0
100
AcDbPolyline
90
8
70
1
43
0.0
10
4.9154846297702859
20
-32.879404116120064
42
0.66752702052942836
10
4.9509036394854089
20
-32.964695669653452
10
9.1557358494260441
20
-32.964695669653452
42
0.19938670556193797
10
9.1911556521226387
20
-32.949986427323608
10
13.437324678810629
20
-28.68829075767016
42
0.66751890005557535
10
13.401904876114026
20
-28.602999999999991
10
9.1972634919566012
20
-28.603000000000002
42
0.19938086482396283
10
9.1618444822414844
20
-28.617708446466608
0
LWPOLYLINE
5
309
100
AcDbEntity
8
0
100
AcDbPolyline
90
8
70
1
43
0.0
10
9.6500958838799455
20
-37.614015370229708
10
13.911791553533384
20
-33.367655517758521
42
0.19938086482392067
10
13.926500000000006
20
-33.332236508043415
10
13.926499999999997
20
-29.127595123885982
42
0.66751890005557502
10
13.841209242329837
20
-29.09217532118938
10
9.5795135726764045
20
-33.338344347877367
42
0.19938670556198435
10
9.5648043303465649
20
-33.373764150573962
10
9.5648043303465524
20
-37.578596360514595
42
0.66752702052952861
0
LWPOLYLINE
5
310
100
AcDbEntity
8
0
100
AcDbPolyline
90
8
70
1
43
0.0
10
-9.5795135726763885
20
-23.36765565212264
42
0.19938670556192042
10
-9.5648043303465524
20
-23.332235849426052
10
-9.5648043303465524
20
-19.127403639485394
42
0.66752702052949264
10
-9.6500958838799349
20
-19.091984629770259
10
-13.9117915535334
20
-23.338344482241475
42
0.19938086482394227
10
-13.926500000000008
20
-23.373763491956595
10
-13.926500000000004
20
-27.578404876114007
42
0.66751890005560532
10
-13.84120924232985
20
-27.613824678810623
0
LWPOLYLINE
5
311
100
AcDbEntity
8
0
100
AcDbPolyline
90
8
70
1
43
0.0
10
4.9509036394854045
20
-23.741304330346559
42
0.66752702052948309
10
4.9154846297702859
20
-23.826595883879929
10
9.1618444822414737
20
-28.088291553533381
42
0.19938086482400633
10
9.1972634919565941
20
-28.103000000000009
10
13.401904876114008
20
-28.102999999999998
42
0.66751890005554881
10
13.437324678810638
20
-28.017709242329829
10
9.1911556521226512
20
-23.756013572676391
42
0.19938670556200058
10
9.1557358494260512
20
-23.741304330346548
0
LWPOLYLINE
5
312
100
AcDbEntity
8
0
100
AcDbPolyline
90
8
70
1
43
0.0
10
28.088291553533399
20
-37.514844482241479
10
23.826595883879939
20
-33.268484629770271
42
0.6675270205294096
10
23.741304330346551
20
-33.303903639485384
10
23.741304330346551
20
-37.508735849426039
42
0.19938670556200058
10
23.756013572676395
20
-37.54415565212264
10
28.017709242329857
20
-41.790324678810613
42
0.66751890005550685
10
28.103000000000009
20
-41.754904876114018
10
28.102999999999998
20
-37.550263491956606
42
0.19938086482395992
0
LWPOLYLINE
5
313
100
AcDbEntity
8
0
100
AcDbPolyline
90
8
70
1
43
0.0
10
5.111695669653451
20
-23.191304330346551
42
0.41421356237309503
10
5.1616956696534499
20
-23.241304330346551
10
9.0148043303465464
20
-23.241304330346551
42
0.41421356237312101
10
9.0648043303465506
20
-23.191304330346551
10
9.0648043303465506
20
-19.338195669653452
42
0.41421356237309503
10
9.0148043303465499
20
-19.288195669653451
10
5.1616956696534499
20
-19.288195669653451
42
0.41421356237312101
10
5.111695669653451
20
-19.338195669653455
0
LWPOLYLINE
5
314
100
AcDbEntity
8
0
100
AcDbPolyline
90
8
70
1
43
0.0
10
4.9853443478773496
20
-18.773486427323597
42
0.19938670556198435
10
5.0207641505739442
20
-18.788195669653437
10
9.2255963605146096
20
-18.788195669653426
42
0.66752702052949653
10
9.2610153702297247
20
-18.702904116120042
10
5.0146555177585572
20
-14.441208446466609
42
0.19938086482395312
10
4.9792365080434298
20
-14.426499999999995
10
0.7745951238859794
20
-14.426499999999995
42
0.66751890005559777
10
0.73917532118938478
20
-14.511790757670164
0
LWPOLYLINE
5
315
100
AcDbEntity
8
0
100
AcDbPolyline
90
6
70
1
43
0.0
10
5.8121374652062086
20
-14.426513809274732
42
0.66817863791928955
10
5.7767821261468955
20
-14.511869148334053
10
13.841130851665948
20
-22.576217873853071
42
0.66817863791933507
10
13.92648619072526
20
-22.540862534793767
10
13.926486190725269
20
-14.47651380927474
42
0.41421356237314705
10
13.87648619072527
20
-14.426513809274732
0
LWPOLYLINE
5
316
100
AcDbEntity
8
0
100
AcDbPolyline
90
6
70
1
43
0.0
10
-5.7767832423682464
20
-14.511869204227281
42
0.66817920959761123
10
-5.8121385255342872
20
-14.426513809274741
10
-13.876513809274746
20
-14.426513809274741
42
0.41421356237310802
10
-13.926513809274748
20
-14.47651380927474
10
-13.926513809274748
20
-22.540863595118349
42
0.66817806624141141
10
-13.841158526108707
20
-22.576218990070878
0
LWPOLYLINE
5
317
100
AcDbEntity
8
0
100
AcDbPolyline
90
8
70
1
43
0.0
10
5.0207641505739486
20
-37.917804330346556
10
9.2255963605145919
20
-37.917804330346556
42
-0.66752702052954715
10
9.2610153702297247
20
-38.003095883879936
10
5.0146555177585208
20
-42.264791553533385
42
-0.19938086482395989
10
4.9792365080433987
20
-42.279499999999999
10
0.77459512388597951
20
-42.279499999999985
42
-0.66751890005563941
10
0.73917532118938034
20
-42.194209242329848
10
4.9853443478773594
20
-37.932513572676392
42
-0.19938670556192858
0
LWPOLYLINE
5
318
100
AcDbEntity
8
0
100
AcDbPolyline
90
8
70
1
43
0.0
10
-9.1972634919565994
20
-28.102999999999998
42
0.19938086482393552
10
-9.1618444822414844
20
-28.088291553533395
10
-4.915484629770277
20
-23.826595883879939
42
0.66752702052962876
10
-4.9509036394853956
20
-23.741304330346541
10
-9.1557358494260477
20
-23.741304330346548
42
0.19938670556203469
10
-9.1911556521226494
20
-23.756013572676391
10
-13.43732467881062
20
-28.017709242329836
42
0.66751890005551373
10
-13.401904876114019
20
-28.102999999999998
0
LWPOLYLINE
5
319
100
AcDbEntity
8
0
100
AcDbPolyline
90
6
70
1
43
0.0
10
13.876486190725279
20
-42.279513809274732
42
0.41421356237304302
10
13.926486190725269
20
-42.229513809274735
10
13.926486190725269
20
-34.165138525534275
42
0.66817920959744292
10
13.841130795772756
20
-34.129783242368241
10
5.7767810099291195
20
-42.194158526108708
42
0.66817806624138865
10
5.8121364048816426
20
-42.279513809274732
0
LWPOLYLINE
5
320
100
AcDbEntity
8
0
100
AcDbPolyline
90
6
70
1
43
0.0
10
-42.279513809274754
20
-14.47651380927474
10
-42.279513809274754
20
-22.540863595118349
42
0.66817806624141141
10
-42.194158526108708
20
-22.576218990070878
10
-34.129783242368248
20
-14.511869204227281
42
0.66817920959761123
10
-34.165138525534289
20
-14.426513809274741
10
-42.229513809274749
20
-14.426513809274741
42
0.41421356237309503
0
LWPOLYLINE
5
321
100
AcDbEntity
8
0
100
AcDbPolyline
90
8
70
1
43
0.0
10
-9.1911556521226441
20
-32.949986427323608
42
0.19938670556203525
10
-9.1557358494260388
20
-32.964695669653452
10
-4.9509036394853911
20
-32.964695669653452
42
0.66752702052946433
10
-4.9154846297702814
20
-32.879404116120064
10
-9.1618444822414773
20
-28.617708446466601
42
0.19938086482392714
10
-9.1972634919566048
20
-28.603000000000002
10
-13.401904876114017
20
-28.603000000000002
42
0.66751890005548642
10
-13.437324678810619
20
-28.688290757670153
0
LWPOLYLINE
5
322
100
AcDbEntity
8
0
100
AcDbPolyline
90
8
70
1
43
0.0
10
-33.338344347877353
20
-18.773486427323597
10
-29.092175321189369
20
-14.511790757670155
42
0.66751890005549785
10
-29.127595123885971
20
-14.426499999999987
10
-33.332236508043408
20
-14.426499999999995
42
0.19938086482398598
10
-33.367655517758521
20
-14.441208446466618
10
-37.614015370229723
20
-18.702904116120045
42
0.66752702052953783
10
-37.578596360514595
20
-18.788195669653426
10
-33.373764150573962
20
-18.788195669653437
42
0.19938670556200727
0
LWPOLYLINE
5
323
100
AcDbEntity
8
0
100
AcDbPolyline
90
6
70
1
43
0.0
10
-34.129782126146864
20
-42.194158470215413
10
-42.194158470215427
20
-34.129782126146864
42
0.66817863791929888
10
-42.279513809274754
20
-34.165137465206193
10
-42.279513809274754
20
-42.229513809274749
42
0.41421356237309503
10
-42.229513809274756
20
-42.279513809274746
10
-34.1651374652062
20
-42.279513809274746
42
0.66817863791933096
0
LWPOLYLINE
5
324
100
AcDbEntity
8
0
100
AcDbPolyline
90
8
70
1
43
0.0
10
-23.36765565212265
20
-18.773486427323597
10
-27.613824678810627
20
-14.511790757670171
42
-0.66751890005559777
10
-27.578404876114021
20
-14.426499999999995
10
-23.373763491956574
20
-14.426499999999994
42
-0.19938086482395317
10
-23.338344482241446
20
-14.441208446466609
10
-19.09198462977028
20
-18.702904116120045
42
-0.66752702052949653
10
-19.127403639485394
20
-18.788195669653426
10
-23.332235849426056
20
-18.788195669653437
42
-0.19938670556198435
0
LWPOLYLINE
5
325
100
AcDbEntity
8
0
100
AcDbPolyline
90
6
70
1
43
0.0
10
22.576217873853142
20
-42.194158470215413
10
14.511841529784579
20
-34.129782126146864
42
0.66817863791929888
10
14.42648619072525
20
-34.165137465206193
10
14.426486190725253
20
-42.229513809274749
42
0.41421356237309503
10
14.47648619072525
20
-42.279513809274746
10
22.540862534793806
20
-42.279513809274746
42
0.66817863791933096
0
LWPOLYLINE
5
326
100
AcDbEntity
8
0
100
AcDbPolyline
90
8
70
1
43
0.0
10
-5.0146555177585217
20
-42.264791553533385
10
-9.26101537022973
20
-38.003095883879944
42
-0.66752702052951041
10
-9.2255963605146025
20
-37.917804330346549
10
-5.0207641505739486
20
-37.917804330346556
42
-0.19938670556197752
10
-4.985344347877354
20
-37.932513572676399
10
-0.73917532118938578
20
-42.194209242329833
42
-0.66751890005565251
10
-0.77459512388598384
20
-42.279499999999999
10
-4.9792365080434022
20
-42.279499999999992
42
-0.19938086482396011
0
LWPOLYLINE
5
327
100
AcDbEntity
8
0
100
AcDbPolyline
90
8
70
1
43
0.0
10
-28.103000000000009
20
-14.951095123885993
10
-28.103000000000009
20
-19.1557365080434
42
0.19938086482397621
10
-28.088291553533395
20
-19.191155517758528
10
-23.826595883879925
20
-23.437515370229733
42
0.66752702052958324
10
-23.741304330346541
20
-23.402096360514616
10
-23.741304330346541
20
-19.197264150573975
42
0.19938670556199092
10
-23.756013572676373
20
-19.16184434787737
10
-28.017709242329843
20
-14.915675321189372
42
0.66751890005557146
0
LWPOLYLINE
5
328
100
AcDbEntity
8
0
100
AcDbPolyline
90
8
70
1
43
0.0
10
-33.367655517758521
20
-42.264791553533385
10
-37.614015370229737
20
-38.003095883879944
42
-0.66752702052951529
10
-37.578596360514602
20
-37.917804330346549
10
-33.373764150573948
20
-37.917804330346556
42
-0.19938670556197752
10
-33.338344347877353
20
-37.932513572676399
10
-29.092175321189387
20
-42.194209242329833
42
-0.66751890005565251
10
-29.127595123885985
20
-42.279499999999999
10
-33.332236508043408
20
-42.279499999999992
42
-0.19938086482396011
0
LWPOLYLINE
5
329
100
AcDbEntity
8
0
100
AcDbPolyline
90
8
70
1
43
0.0
10
29.09217532118938
20
-42.194209242329848
10
33.33834434787736
20
-37.932513572676392
42
-0.19938670556192858
10
33.373764150573948
20
-37.917804330346556
10
37.578596360514595
20
-37.917804330346556
42
-0.66752702052954715
10
37.614015370229723
20
-38.003095883879936
10
33.367655517758521
20
-42.264791553533385
42
-0.19938086482395989
10
33.332236508043401
20
-42.279499999999999
10
29.127595123885982
20
-42.279499999999985
42
-0.66751890005563941
0
LWPOLYLINE
5
330
100
AcDbEntity
8
0
100
AcDbPolyline
90
8
70
1
43
0.0
10
-32.949986427323608
20
-19.161844347877359
10
-28.68829075767016
20
-14.915675321189369
42
-0.66751890005579428
10
-28.602999999999991
20
-14.951095123885976
10
-28.602999999999987
20
-19.155736508043386
42
-0.19938086482404829
10
-28.617708446466608
20
-19.191155517758528
10
-32.879404116120064
20
-23.437515370229718
42
-0.66752702052946034
10
-32.964695669653452
20
-23.402096360514591
10
-32.964695669653452
20
-19.197264150573957
42
-0.19938670556197752
0
LWPOLYLINE
5
331
100
AcDbEntity
8
0
100
AcDbPolyline
90
6
70
1
43
0.0
10
-22.576217873853107
20
-14.511869148334053
10
-14.511869148334053
20
-22.576217873853071
42
0.66817863791933507
10
-14.426513809274741
20
-22.540862534793767
10
-14.426513809274732
20
-14.47651380927474
42
0.41421356237314705
10
-14.476513809274731
20
-14.426513809274732
10
-22.540862534793792
20
-14.426513809274732
42
0.66817863791928955
0
LWPOLYLINE
5
332
100
AcDbEntity
8
0
100
AcDbPolyline
90
6
70
1
43
0.0
10
-22.576218990070881
20
-42.194158526108708
10
-14.511869204227249
20
-34.129783242368234
42
-0.66817920959744292
10
-14.426513809274732
20
-34.165138525534275
10
-14.426513809274732
20
-42.229513809274735
42
-0.41421356237304302
10
-14.476513809274723
20
-42.279513809274732
10
-22.54086359511836
20
-42.279513809274725
42
-0.66817806624138865
0
LWPOLYLINE
5
333
100
AcDbEntity
8
0
100
AcDbPolyline
90
8
70
1
43
0.0
10
-19.091984629770277
20
-38.003095883879936
10
-23.338344482241482
20
-42.264791553533385
42
-0.19938086482395989
10
-23.373763491956602
20
-42.279499999999999
10
-27.578404876114021
20
-42.279499999999985
42
-0.66751890005563941
10
-27.613824678810623
20
-42.194209242329848
10
-23.367655652122643
20
-37.932513572676392
42
-0.19938670556192858
10
-23.332235849426052
20
-37.917804330346556
10
-19.127403639485408
20
-37.917804330346556
42
-0.66752702052954715
0
LWPOLYLINE
5
334
100
AcDbEntity
8
0
100
AcDbPolyline
90
6
70
1
43
0.0
10
-13.926513809274752
20
-34.165137465206193
10
-13.926513809274748
20
-42.229513809274749
42
0.41421356237309503
10
-13.876513809274751
20
-42.279513809274746
10
-5.8121374652061952
20
-42.279513809274746
42
0.66817863791933096
10
-5.7767821261468599
20
-42.194158470215413
10
-13.841158470215422
20
-34.129782126146864
42
0.66817863791929888
0
LWPOLYLINE
5
335
100
AcDbEntity
8
0
100
AcDbPolyline
90
8
70
1
43
0.0
10
29.127595123885982
20
-14.426499999999995
42
0.66751890005559777
10
29.092175321189387
20
-14.511790757670164
10
33.338344347877353
20
-18.773486427323597
42
0.19938670556198435
10
33.373764150573948
20
-18.788195669653437
10
37.578596360514609
20
-18.788195669653426
42
0.66752702052949653
10
37.614015370229723
20
-18.702904116120042
10
33.367655517758557
20
-14.441208446466609
42
0.19938086482395312
10
33.33223650804343
20
-14.426499999999995
0
LWPOLYLINE
5
336
100
AcDbEntity
8
0
100
AcDbPolyline
90
8
70
1
43
0.0
10
19.1557365080434
20
-28.102999999999998
42
0.19938086482393552
10
19.191155517758517
20
-28.088291553533395
10
23.437515370229725
20
-23.826595883879939
42
0.66752702052962876
10
23.402096360514605
20
-23.741304330346541
10
19.197264150573954
20
-23.741304330346548
42
0.19938670556203469
10
19.161844347877352
20
-23.756013572676391
10
14.915675321189381
20
-28.017709242329836
42
0.66751890005551373
10
14.951095123885983
20
-28.102999999999998
0
LWPOLYLINE
5
337
100
AcDbEntity
8
0
100
AcDbPolyline
90
8
70
1
43
0.0
10
28.317567181010126
20
-19.653473713295064
10
24.14564422882599
20
-23.840463652243386
42
0.41421546904049406
10
24.145771915577903
20
-23.911174445230866
10
28.317708447297072
20
-28.068044039048825
42
0.41315616870927085
10
28.388291323792917
20
-28.068043809310595
10
32.560187166689303
20
-23.911160636876904
42
0.41421356237922052
10
32.560314622871786
20
-23.840450073627654
10
28.388405200440374
20
-19.653473713295064
42
0.41526983913192383
0
LWPOLYLINE
5
338
100
AcDbEntity
8
0
100
AcDbPolyline
90
8
70
1
43
0.0
10
42.264791553533399
20
-23.338344482241471
10
38.003095883879951
20
-19.091984629770252
42
0.66752702052954738
10
37.917804330346563
20
-19.127403639485379
10
37.917804330346563
20
-23.332235849426056
42
0.19938670556194496
10
37.932513572676399
20
-23.367655652122647
10
42.194209242329855
20
-27.61382467881063
42
0.6675189000556071
10
42.279499999999999
20
-27.578404876114035
10
42.279500000000006
20
-23.373763491956609
42
0.19938086482399245
0
LWPOLYLINE
5
339
100
AcDbEntity
8
0
100
AcDbPolyline
90
8
70
1
43
0.0
10
19.161844347877356
20
-32.949986427323608
42
0.19938670556203525
10
19.197264150573965
20
-32.964695669653452
10
23.402096360514612
20
-32.964695669653452
42
0.66752702052946433
10
23.437515370229718
20
-32.879404116120064
10
19.191155517758524
20
-28.617708446466601
42
0.19938086482392714
10
19.155736508043397
20
-28.603000000000002
10
14.951095123885985
20
-28.603000000000002
42
0.66751890005548642
10
14.915675321189383
20
-28.688290757670153
0
LWPOLYLINE
5
340
100
AcDbEntity
8
0
100
AcDbPolyline
90
8
70
1
43
0.0
10
28.617708446466608
20
-19.191155517758528
10
32.879404116120078
20
-23.437515370229733
42
0.66752702052958324
10
32.964695669653466
20
-23.402096360514616
10
32.964695669653466
20
-19.197264150573975
42
0.19938670556199092
10
32.94998642732363
20
-19.16184434787737
10
28.68829075767016
20
-14.915675321189372
42
0.66751890005557146
10
28.602999999999994
20
-14.951095123885993
10
28.602999999999994
20
-19.1557365080434
42
0.19938086482397621
0
LWPOLYLINE
5
341
100
AcDbEntity
8
0
100
AcDbPolyline
90
8
70
1
43
0.0
10
23.756013572676391
20
-19.161844347877359
10
28.017709242329843
20
-14.915675321189369
42
-0.66751890005579428
10
28.103000000000012
20
-14.951095123885976
10
28.103000000000016
20
-19.155736508043386
42
-0.19938086482404829
10
28.088291553533395
20
-19.191155517758528
10
23.826595883879939
20
-23.437515370229718
42
-0.66752702052946034
10
23.741304330346548
20
-23.402096360514591
10
23.741304330346548
20
-19.197264150573957
42
-0.19938670556197752
0
LWPOLYLINE
5
342
100
AcDbEntity
8
0
100
AcDbPolyline
90
8
70
1
43
0.0
10
13.841209242329855
20
-27.61382467881063
42
0.6675189000556071
10
13.926499999999997
20
-27.578404876114035
10
13.926500000000006
20
-23.373763491956609
42
0.19938086482399245
10
13.911791553533401
20
-23.338344482241471
10
9.6500958838799491
20
-19.091984629770252
42
0.66752702052954738
10
9.5648043303465613
20
-19.127403639485379
10
9.5648043303465613
20
-23.332235849426056
42
0.19938670556194496
10
9.5795135726763991
20
-23.367655652122647
0
LWPOLYLINE
5
343
100
AcDbEntity
8
0
100
AcDbPolyline
90
8
70
1
43
0.0
10
37.052526286704946
20
-28.388432818989862
10
32.865536347756638
20
-32.560355771174002
42
-0.41421546904051243
10
32.794825554769147
20
-32.560228084422093
10
28.637955960951174
20
-28.388291552702931
42
-0.41315616870927085
10
28.637956190689408
20
-28.317708676207086
10
32.794839363123096
20
-24.145812833310703
42
-0.41421356237931245
10
32.865549926372353
20
-24.145685377128224
10
37.052526286704946
20
-28.317594799559615
42
-0.4152698391319421
0
LWPOLYLINE
5
344
100
AcDbEntity
8
0
100
AcDbPolyline
90
8
70
1
43
0.0
10
37.514844482241479
20
-28.088291553533381
42
0.19938086482400633
10
37.550263491956592
20
-28.103000000000009
10
41.754904876114011
20
-28.102999999999998
42
0.66751890005554881
10
41.790324678810642
20
-28.017709242329829
10
37.544155652122654
20
-23.756013572676391
42
0.19938670556200058
10
37.508735849426053
20
-23.741304330346548
10
33.303903639485405
20
-23.741304330346559
42
0.66752702052948309
10
33.268484629770285
20
-23.826595883879929
0
LWPOLYLINE
5
345
100
AcDbEntity
8
0
100
AcDbPolyline
90
8
70
1
43
0.0
10
14.426499999999997
20
-27.578404876114007
42
0.66751890005560532
10
14.511790757670152
20
-27.613824678810623
10
18.773486427323615
20
-23.36765565212264
42
0.19938670556192042
10
18.788195669653447
20
-23.332235849426052
10
18.788195669653447
20
-19.127403639485394
42
0.66752702052949264
10
18.702904116120067
20
-19.091984629770259
10
14.441208446466602
20
-23.338344482241475
42
0.19938086482394227
10
14.426499999999994
20
-23.373763491956595
0
LWPOLYLINE
5
346
100
AcDbEntity
8
0
100
AcDbPolyline
90
8
70
1
43
0.0
10
23.241304330346551
20
-19.338195669653437
42
0.414213562373069
10
23.191304330346554
20
-19.28819566965344
10
19.338195669653444
20
-19.28819566965344
42
0.41421356237309503
10
19.288195669653444
20
-19.338195669653437
10
19.288195669653451
20
-23.191304330346547
42
0.41421356237312101
10
19.338195669653444
20
-23.241304330346551
10
23.191304330346551
20
-23.241304330346551
42
0.41421356237312101
10
23.241304330346555
20
-23.191304330346547
0
LWPOLYLINE
5
347
100
AcDbEntity
8
0
100
AcDbPolyline
90
8
70
1
43
0.0
10
33.268484629770285
20
-32.879404116120064
10
37.514844482241493
20
-28.617708446466615
42
-0.19938086482396289
10
37.550263491956606
20
-28.603000000000002
10
41.754904876114026
20
-28.602999999999987
42
-0.66751890005557535
10
41.790324678810634
20
-28.68829075767016
10
37.544155652122633
20
-32.949986427323608
42
-0.19938670556193794
10
37.508735849426046
20
-32.964695669653452
10
33.303903639485412
20
-32.964695669653452
42
-0.66752702052942836
0
LWPOLYLINE
5
348
100
AcDbEntity
8
0
100
AcDbPolyline
90
8
70
1
43
0.0
10
23.911160636876915
20
-24.145812833310703
42
0.41421356237933088
10
23.84045007362765
20
-24.145685377128213
10
19.653473713295053
20
-28.317594799559615
42
0.41526983913194232
10
19.65347371329505
20
-28.388432818989855
10
23.840463652243379
20
-32.560355771174009
42
0.41421546904047557
10
23.91117444523087
20
-32.560228084422093
10
28.068044039048829
20
-28.388291552702924
42
0.41315616870917887
10
28.068043809310591
20
-28.31770867620709
0
LWPOLYLINE
5
349
100
AcDbEntity
8
0
100
AcDbPolyline
90
6
70
1
43
0.0
10
22.576216757631755
20
-14.511869204227281
42
0.66817920959761123
10
22.540861474465714
20
-14.426513809274741
10
14.476486190725256
20
-14.426513809274741
42
0.41421356237310802
10
14.426486190725253
20
-14.47651380927474
10
14.426486190725253
20
-22.540863595118349
42
0.66817806624141141
10
14.511841473891295
20
-22.576218990070878
0
LWPOLYLINE
5
350
100
AcDbEntity
8
0
100
AcDbPolyline
90
8
70
1
43
0.0
10
27.578404876114032
20
-14.426499999999987
10
23.373763491956598
20
-14.426499999999995
42
0.19938086482398598
10
23.338344482241482
20
-14.441208446466618
10
19.09198462977028
20
-18.702904116120045
42
0.66752702052956536
10
19.127403639485404
20
-18.788195669653426
10
23.332235849426045
20
-18.788195669653437
42
0.19938670556200727
10
23.36765565212265
20
-18.773486427323597
10
27.613824678810634
20
-14.511790757670155
42
0.66751890005549785
0
LWPOLYLINE
5
351
100
AcDbEntity
8
0
100
AcDbPolyline
90
8
70
1
43
0.0
10
33.514695669653449
20
-19.288195669653451
42
0.41421356237312101
10
33.464695669653452
20
-19.338195669653455
10
33.464695669653452
20
-23.191304330346551
42
0.41421356237309503
10
33.514695669653449
20
-23.241304330346551
10
37.367804330346544
20
-23.241304330346551
42
0.41421356237312101
10
37.417804330346549
20
-23.191304330346551
10
37.417804330346549
20
-19.338195669653452
42
0.41421356237309503
10
37.367804330346551
20
-19.288195669653451
0
LWPOLYLINE
5
352
100
AcDbEntity
8
0
100
AcDbPolyline
90
6
70
1
43
0.0
10
42.279486190725272
20
-14.47651380927474
42
0.41421356237314705
10
42.229486190725268
20
-14.426513809274732
10
34.165137465206207
20
-14.426513809274732
42
0.66817863791928955
10
34.1297821261469
20
-14.511869148334053
10
42.194130851665946
20
-22.576217873853071
42
0.66817863791933507
10
42.279486190725265
20
-22.540862534793767
0
LWPOLYLINE
5
353
100
AcDbEntity
8
0
100
AcDbPolyline
90
8
70
1
43
0.0
10
-19.197264150573957
20
-32.964695669653452
10
-23.402096360514591
20
-32.964695669653452
42
-0.66752702052942836
10
-23.437515370229715
20
-32.879404116120064
10
-19.191155517758514
20
-28.617708446466615
42
-0.19938086482396289
10
-19.1557365080434
20
-28.603000000000002
10
-14.951095123885976
20
-28.602999999999987
42
-0.66751890005557535
10
-14.915675321189372
20
-28.68829075767016
10
-19.161844347877366
20
-32.949986427323608
42
-0.19938670556193794
0
LWPOLYLINE
5
354
100
AcDbEntity
8
0
100
AcDbPolyline
90
8
70
1
43
0.0
10
-14.426499999999995
20
-23.373763491956609
42
0.19938086482399245
10
-14.4412084464666
20
-23.338344482241471
10
-18.702904116120052
20
-19.091984629770252
42
0.66752702052954738
10
-18.78819566965344
20
-19.127403639485379
10
-18.78819566965344
20
-23.332235849426056
42
0.19938670556194496
10
-18.773486427323604
20
-23.367655652122647
10
-14.511790757670147
20
-27.61382467881063
42
0.6675189000556071
10
-14.426500000000004
20
-27.578404876114035
0
LWPOLYLINE
5
355
100
AcDbEntity
8
0
100
AcDbPolyline
90
8
70
1
43
0.0
10
-23.241304330346551
20
-23.191304330346551
42
0.41421356237309503
10
-23.191304330346551
20
-23.241304330346551
10
-19.338195669653455
20
-23.241304330346551
42
0.41421356237312101
10
-19.288195669653451
20
-23.191304330346551
10
-19.288195669653451
20
-19.338195669653452
42
0.41421356237309503
10
-19.338195669653452
20
-19.288195669653451
10
-23.191304330346551
20
-19.288195669653451
42
0.41421356237312101
10
-23.241304330346551
20
-19.338195669653455
0
LWPOLYLINE
5
356
100
AcDbEntity
8
0
100
AcDbPolyline
90
8
70
1
43
0.0
10
-41.754904876114018
20
-28.603000000000002
42
0.66751890005552972
10
-41.79032467881062
20
-28.688290757670153
10
-37.54415565212264
20
-32.949986427323608
42
0.19938670556203053
10
-37.508735849426039
20
-32.964695669653452
10
-33.303903639485391
20
-32.964695669653452
42
0.66752702052946433
10
-33.268484629770285
20
-32.879404116120064
10
-37.514844482241479
20
-28.617708446466601
42
0.19938086482392714
10
-37.550263491956606
20
-28.603000000000002
0
LWPOLYLINE
5
357
100
AcDbEntity
8
0
100
AcDbPolyline
90
8
70
1
43
0.0
10
-23.911174445230859
20
-32.560228084422093
42
0.41421546904051243
10
-23.840463652243361
20
-32.560355771174002
10
-19.653473713295057
20
-28.388432818989862
42
0.4152698391319421
10
-19.653473713295053
20
-28.317594799559608
10
-23.84045007362765
20
-24.145685377128224
42
0.41421356237931245
10
-23.911160636876907
20
-24.145812833310703
10
-28.068043809310595
20
-28.317708676207086
42
0.41315616870927085
10
-28.068044039048825
20
-28.388291552702931
0
LWPOLYLINE
5
358
100
AcDbEntity
8
0
100
AcDbPolyline
90
8
70
1
43
0.0
10
-19.191155517758528
20
-28.088291553533381
42
0.19938086482400633
10
-19.155736508043407
20
-28.103000000000009
10
-14.951095123885993
20
-28.102999999999998
42
0.66751890005554881
10
-14.915675321189363
20
-28.017709242329829
10
-19.161844347877349
20
-23.756013572676391
42
0.19938670556200058
10
-19.19726415057395
20
-23.741304330346548
10
-23.402096360514598
20
-23.741304330346559
42
0.66752702052948309
10
-23.437515370229715
20
-23.826595883879929
0
LWPOLYLINE
5
359
100
AcDbEntity
8
0
100
AcDbPolyline
90
8
70
1
43
0.0
10
-37.514844482241486
20
-28.088291553533395
10
-33.268484629770278
20
-23.826595883879939
42
0.66752702052962876
10
-33.303903639485398
20
-23.741304330346541
10
-37.508735849426046
20
-23.741304330346548
42
0.19938670556204283
10
-37.544155652122654
20
-23.756013572676391
10
-41.79032467881062
20
-28.017709242329836
42
0.66751890005552972
10
-41.754904876114018
20
-28.102999999999998
10
-37.550263491956599
20
-28.102999999999998
42
0.19938086482392733
0
LWPOLYLINE
5
360
100
AcDbEntity
8
0
100
AcDbPolyline
90
8
70
1
43
0.0
10
-33.464695669653452
20
-19.338195669653437
42
0.414213562373069
10
-33.514695669653449
20
-19.28819566965344
10
-37.367804330346559
20
-19.28819566965344
42
0.41421356237309503
10
-37.417804330346556
20
-19.338195669653437
10
-37.417804330346556
20
-23.191304330346547
42
0.41421356237312101
10
-37.367804330346559
20
-23.241304330346551
10
-33.514695669653449
20
-23.241304330346551
42
0.41421356237312101
10
-33.464695669653452
20
-23.191304330346547
0
LWPOLYLINE
5
361
100
AcDbEntity
8
0
100
AcDbPolyline
90
8
70
1
43
0.0
10
-24.145685377128213
20
-23.840450073627654
10
-28.317594799559629
20
-19.653473713295064
42
0.41526983913192383
10
-28.388432818989877
20
-19.653473713295064
10
-32.560355771174009
20
-23.840463652243386
42
0.41421546904049406
10
-32.5602280844221
20
-23.911174445230866
10
-28.388291552702931
20
-28.068044039048825
42
0.41315616870927085
10
-28.317708676207086
20
-28.068043809310595
10
-24.1458128333107
20
-23.911160636876904
42
0.41421356237922052
0
LWPOLYLINE
5
362
100
AcDbEntity
8
0
100
AcDbPolyline
90
8
70
1
43
0.0
10
-42.279500000000006
20
-27.578404876114007
10
-42.279499999999999
20
-23.373763491956595
42
-0.19938086482393402
10
-42.264791553533399
20
-23.338344482241475
10
-38.003095883879936
20
-19.091984629770263
42
-0.66752702052949264
10
-37.917804330346556
20
-19.127403639485394
10
-37.917804330346563
20
-23.332235849426052
42
-0.19938670556192858
10
-37.932513572676392
20
-23.36765565212264
10
-42.194209242329855
20
-27.613824678810616
42
-0.66751890005561676
0
LWPOLYLINE
5
363
100
AcDbEntity
8
0
100
AcDbPolyline
90
6
70
1
43
0.0
10
34.129781009929118
20
-42.194158526108708
10
42.194130795772757
20
-34.129783242368234
42
-0.66817920959744292
10
42.279486190725272
20
-34.165138525534275
10
42.279486190725272
20
-42.229513809274735
42
-0.41421356237304302
10
42.229486190725282
20
-42.279513809274732
10
34.165136404881643
20
-42.279513809274725
42
-0.66817806624138865
0
LWPOLYLINE
5
364
100
AcDbEntity
8
0
100
AcDbPolyline
90
8
70
1
43
0.0
10
-32.865549926372353
20
-24.145685377128213
10
-37.052526286704946
20
-28.317594799559615
42
0.41526983913192389
10
-37.052526286704953
20
-28.388432818989855
10
-32.865536347756624
20
-32.560355771174009
42
0.41421546904047557
10
-32.794825554769133
20
-32.560228084422093
10
-28.637955960951174
20
-28.388291552702924
42
0.41315616870917887
10
-28.637956190689412
20
-28.31770867620709
10
-32.794839363123089
20
-24.145812833310703
42
0.41421356237933088
0
LWPOLYLINE
5
365
100
AcDbEntity
8
0
100
AcDbPolyline
90
8
70
1
43
0.0
10
23.338344482241482
20
-42.264791553533385
42
0.19938086482396006
10
23.373763491956598
20
-42.279499999999999
10
27.578404876114018
20
-42.279499999999999
42
0.66751890005565251
10
27.613824678810612
20
-42.19420924232984
10
23.367655652122647
20
-37.932513572676399
42
0.19938670556197757
10
23.332235849426052
20
-37.917804330346549
10
19.127403639485397
20
-37.917804330346549
42
0.66752702052951041
10
19.091984629770277
20
-38.003095883879936
0
ENDSEC
0
SECTION
2
OBJECTS
0
DICTIONARY
5
C
100
AcDbDictionary
3
ACAD_GROUP
350
D
3
ACAD_MLINESTYLE
350
17
0
DICTIONARY
5
D
100
AcDbDictionary
0
DICTIONARY
5
1A
330
C
100
AcDbDictionary
0
DICTIONARY
5
17
100
AcDbDictionary
0
ENDSEC
0
EOF
