0
SECTION
2
HEADER
9
$INSUNITS
70
4
9
$ACADVER
1
AC1014
9
$HANDSEED
5
FFFF
0
ENDSEC
0
SECTION
2
TABLES
0
TABLE
2
VPORT
5
8
100
AcDbSymbolTable
0
ENDTAB
0
TABLE
2
LTYPE
5
5
100
AcDbSymbolTable
0
LTYPE
5
14
100
AcDbSymbolTableRecord
100
AcDbLinetypeTableRecord
2
BYBLOCK
70
0
0
LTYPE
5
15
100
AcDbSymbolTableRecord
100
AcDbLinetypeTableRecord
2
BYLAYER
70
0
0
LTYPE
5
16
100
AcDbSymbolTableRecord
100
AcDbLinetypeTableRecord
2
DASHED
70
0
3
Dashed __ __ __ __ __ __ __ __ __ __ __ __ __ _
72
65
73
2
40
0.75
49
0.5
74
0
49
-0.25
74
0
0
ENDTAB
0
TABLE
2
LAYER
5
2
100
AcDbSymbolTable
70
2
0
LAYER
5
50
100
AcDbSymbolTableRecord
100
AcDbLayerTableRecord
2
0
70
0
62
7
6
CONTINUOUS
0
ENDTAB
0
TABLE
2
STYLE
5
3
100
AcDbSymbolTable
70
1
0
STYLE
5
11
100
AcDbSymbolTableRecord
100
AcDbTextStyleTableRecord
2
STANDARD
70
0
0
ENDTAB
0
TABLE
2
VIEW
5
6
100
AcDbSymbolTable
70
0
0
ENDTAB
0
TABLE
2
UCS
5
7
100
AcDbSymbolTable
70
0
0
ENDTAB
0
TABLE
2
APPID
5
9
100
AcDbSymbolTable
70
2
0
APPID
5
12
100
AcDbSymbolTableRecord
100
AcDbRegAppTableRecord
2
ACAD
70
0
0
ENDTAB
0
TABLE
2
DIMSTYLE
5
A
100
AcDbSymbolTable
70
1
0
ENDTAB
0
TABLE
2
BLOCK_RECORD
5
1
100
AcDbSymbolTable
70
1
0
BLOCK_RECORD
5
1F
100
AcDbSymbolTableRecord
100
AcDbBlockTableRecord
2
*MODEL_SPACE
0
BLOCK_RECORD
5
1B
100
AcDbSymbolTableRecord
100
AcDbBlockTableRecord
2
*PAPER_SPACE
0
ENDTAB
0
ENDSEC
0
SECTION
2
BLOCKS
0
BLOCK
5
20
100
AcDbEntity
100
AcDbBlockBegin
2
*MODEL_SPACE
0
ENDBLK
5
21
100
AcDbEntity
100
AcDbBlockEnd
0
BLOCK
5
1C
100
AcDbEntity
100
AcDbBlockBegin
2
*PAPER_SPACE
0
ENDBLK
5
1D
100
AcDbEntity
100
AcDbBlockEnd
0
ENDSEC
0
SECTION
2
ENTITIES
0
POINT
5
100
100
AcDbEntity
8
0
100
AcDbPoint
10
0
20
0
30
0
0
POINT
5
101
100
AcDbEntity
8
0
100
AcDbPoint
10
28.353000000000002
20
0
30
0
0
POINT
5
102
100
AcDbEntity
8
0
100
AcDbPoint
10
-28.353000000000002
20
0
30
0
0
POINT
5
103
100
AcDbEntity
8
0
100
AcDbPoint
10
-13.926500000000006
20
-0.65419530347938848
30
0
0
POINT
5
104
100
AcDbEntity
8
0
100
AcDbPoint
10
-13.926500000000006
20
0.65419530347938848
30
0
0
POINT
5
105
100
AcDbEntity
8
0
100
AcDbPoint
10
-13.926500000000006
20
-5.0000000000000009
30
0
0
POINT
5
106
100
AcDbEntity
8
0
100
AcDbPoint
10
-13.926500000000006
20
5.0000000000000009
30
0
0
POINT
5
107
100
AcDbEntity
8
0
100
AcDbPoint
10
-13.926513809274748
20
-5.691426787087547
30
0
0
POINT
5
108
100
AcDbEntity
8
0
100
AcDbPoint
10
-13.926513809274748
20
-13.926513809274743
30
0
0
POINT
5
109
100
AcDbEntity
8
0
100
AcDbPoint
10
-13.926513809274748
20
13.92648619072526
30
0
0
POINT
5
110
100
AcDbEntity
8
0
100
AcDbPoint
10
-13.926513809274748
20
5.6914259966389382
30
0
0
POINT
5
111
100
AcDbEntity
8
0
100
AcDbPoint
10
0
20
-28.353000000000002
30
0
0
POINT
5
112
100
AcDbEntity
8
0
100
AcDbPoint
10
-13.926500000000006
20
-29.007195303479389
30
0
0
POINT
5
113
100
AcDbEntity
8
0
100
AcDbPoint
10
-13.926500000000006
20
-27.698804696520614
30
0
0
POINT
5
114
100
AcDbEntity
8
0
100
AcDbPoint
10
-13.926500000000006
20
-33.353000000000002
30
0
0
POINT
5
115
100
AcDbEntity
8
0
100
AcDbPoint
10
-13.926513809274748
20
-34.044426787087552
30
0
0
POINT
5
116
100
AcDbEntity
8
0
100
AcDbPoint
10
-13.926513809274748
20
-14.426513809274741
30
0
0
POINT
5
117
100
AcDbEntity
8
0
100
AcDbPoint
10
-13.926500000000006
20
-23.353000000000002
30
0
0
POINT
5
118
100
AcDbEntity
8
0
100
AcDbPoint
10
-13.926513809274748
20
-22.661574003361061
30
0
0
POINT
5
119
100
AcDbEntity
8
0
100
AcDbPoint
10
-13.926513809274748
20
-42.279513809274746
30
0
0
POINT
5
120
100
AcDbEntity
8
0
100
AcDbPoint
10
-28.353000000000002
20
-28.353000000000002
30
0
0
POINT
5
121
100
AcDbEntity
8
0
100
AcDbPoint
10
28.353000000000002
20
-28.353000000000002
30
0
0
POINT
5
122
100
AcDbEntity
8
0
100
AcDbPoint
10
0
20
0
30
0
0
POINT
5
123
100
AcDbEntity
8
0
100
AcDbPoint
10
0
20
28.353000000000002
30
0
0
POINT
5
124
100
AcDbEntity
8
0
100
AcDbPoint
10
0
20
28.353000000000002
30
0
0
POINT
5
125
100
AcDbEntity
8
0
100
AcDbPoint
10
-13.926500000000006
20
27.698804696520614
30
0
0
POINT
5
126
100
AcDbEntity
8
0
100
AcDbPoint
10
-13.926500000000006
20
29.007195303479389
30
0
0
POINT
5
127
100
AcDbEntity
8
0
100
AcDbPoint
10
-13.926500000000006
20
23.353000000000002
30
0
0
POINT
5
128
100
AcDbEntity
8
0
100
AcDbPoint
10
-13.926513809274748
20
22.661573212912455
30
0
0
POINT
5
129
100
AcDbEntity
8
0
100
AcDbPoint
10
-13.926513809274748
20
42.279486190725265
30
0
0
POINT
5
130
100
AcDbEntity
8
0
100
AcDbPoint
10
-13.926500000000006
20
33.353000000000002
30
0
0
POINT
5
131
100
AcDbEntity
8
0
100
AcDbPoint
10
-13.926513809274748
20
34.044425996638942
30
0
0
POINT
5
132
100
AcDbEntity
8
0
100
AcDbPoint
10
-13.926513809274748
20
14.426486190725258
30
0
0
POINT
5
133
100
AcDbEntity
8
0
100
AcDbPoint
10
-28.353000000000002
20
28.353000000000002
30
0
0
POINT
5
134
100
AcDbEntity
8
0
100
AcDbPoint
10
42.279486190725265
20
13.92648619072526
30
0
0
POINT
5
135
100
AcDbEntity
8
0
100
AcDbPoint
10
14.426486190725253
20
13.92648619072526
30
0
0
POINT
5
136
100
AcDbEntity
8
0
100
AcDbPoint
10
34.044426787087538
20
13.92648619072526
30
0
0
POINT
5
137
100
AcDbEntity
8
0
100
AcDbPoint
10
13.92648619072526
20
13.92648619072526
30
0
0
POINT
5
138
100
AcDbEntity
8
0
100
AcDbPoint
10
5.691426787087539
20
13.92648619072526
30
0
0
POINT
5
139
100
AcDbEntity
8
0
100
AcDbPoint
10
-13.926513809274748
20
13.92648619072526
30
0
0
POINT
5
140
100
AcDbEntity
8
0
100
AcDbPoint
10
29.007195303479385
20
13.926500000000001
30
0
0
POINT
5
141
100
AcDbEntity
8
0
100
AcDbPoint
10
22.661572422461347
20
13.92648619072526
30
0
0
POINT
5
142
100
AcDbEntity
8
0
100
AcDbPoint
10
23.353000000000002
20
13.926500000000001
30
0
0
POINT
5
143
100
AcDbEntity
8
0
100
AcDbPoint
10
27.698804696520611
20
13.926500000000001
30
0
0
POINT
5
144
100
AcDbEntity
8
0
100
AcDbPoint
10
33.353000000000002
20
13.926500000000001
30
0
0
POINT
5
145
100
AcDbEntity
8
0
100
AcDbPoint
10
28.353000000000002
20
28.353000000000002
30
0
0
POINT
5
146
100
AcDbEntity
8
0
100
AcDbPoint
10
-22.661573212912462
20
13.92648619072526
30
0
0
POINT
5
147
100
AcDbEntity
8
0
100
AcDbPoint
10
-5
20
13.926500000000001
30
0
0
POINT
5
148
100
AcDbEntity
8
0
100
AcDbPoint
10
-5.6914275775386542
20
13.92648619072526
30
0
0
POINT
5
149
100
AcDbEntity
8
0
100
AcDbPoint
10
-42.279513809274754
20
13.92648619072526
30
0
0
POINT
5
150
100
AcDbEntity
8
0
100
AcDbPoint
10
-13.926513809274748
20
13.92648619072526
30
0
0
POINT
5
151
100
AcDbEntity
8
0
100
AcDbPoint
10
0.65419530347938348
20
13.926500000000001
30
0
0
POINT
5
152
100
AcDbEntity
8
0
100
AcDbPoint
10
-0.65419530347939236
20
13.926500000000001
30
0
0
POINT
5
153
100
AcDbEntity
8
0
100
AcDbPoint
10
5
20
13.926500000000001
30
0
0
POINT
5
154
100
AcDbEntity
8
0
100
AcDbPoint
10
-29.007195303479392
20
13.926500000000001
30
0
0
POINT
5
155
100
AcDbEntity
8
0
100
AcDbPoint
10
-23.353000000000002
20
13.926500000000001
30
0
0
POINT
5
156
100
AcDbEntity
8
0
100
AcDbPoint
10
-14.426513809274741
20
13.92648619072526
30
0
0
POINT
5
157
100
AcDbEntity
8
0
100
AcDbPoint
10
-27.698804696520618
20
13.926500000000001
30
0
0
POINT
5
158
100
AcDbEntity
8
0
100
AcDbPoint
10
-34.044427577538656
20
13.92648619072526
30
0
0
POINT
5
159
100
AcDbEntity
8
0
100
AcDbPoint
10
-33.353000000000002
20
13.926500000000001
30
0
0
LWPOLYLINE
5
160
100
AcDbEntity
8
0
100
AcDbPolyline
90
4
70
1
43
0.0
10
4.8304999999999998
20
-4.6116956696534483
10
9.1765000000000008
20
-4.6116956696534475
10
13.522304696520614
20
-0.24999999999999917
10
9.1765000000000008
20
-0.24999999999999967
0
LWPOLYLINE
5
161
100
AcDbEntity
8
0
100
AcDbPolyline
90
4
70
1
43
0.0
10
4.8304999999999998
20
4.6116956696534483
10
9.1765000000000008
20
0.24999999999999944
10
13.522304696520614
20
0.24999999999999917
10
9.1765000000000008
20
4.6116956696534475
0
LWPOLYLINE
5
162
100
AcDbEntity
8
0
100
AcDbPolyline
90
4
70
1
43
0.0
10
9.5648043303465489
20
-9.3460000000000019
10
9.5648043303465506
20
-5
10
13.926500000000001
20
-0.65419530347938848
10
13.926499999999999
20
-5.0000000000000009
0
LWPOLYLINE
5
163
100
AcDbEntity
8
0
100
AcDbPolyline
90
4
70
1
43
0.0
10
9.5648043303465542
20
9.3460000000000036
10
9.5648043303465524
20
5.0000000000000018
10
13.926500000000001
20
0.65419530347938848
10
13.926500000000001
20
5.0000000000000009
0
LWPOLYLINE
5
164
100
AcDbEntity
8
0
100
AcDbPolyline
90
4
70
1
43
0.0
10
4.4771309166564794
20
4.2426061764059124
10
8.7350732129124555
20
-1.380927474148308e-05
10
4.4771171074713116
20
-4.2426475544478679
10
0.24979186359876726
20
-5.5511151231257827e-16
0
LWPOLYLINE
5
165
100
AcDbEntity
8
0
100
AcDbPolyline
90
4
70
1
43
0.0
10
9.0648043303465471
20
9.0648043303465506
10
5.1116956696534501
20
9.0648043303465506
10
5.1116956696534519
20
5.1116956696534483
10
9.0648043303465489
20
5.1116956696534483
0
LWPOLYLINE
5
166
100
AcDbEntity
8
0
100
AcDbPolyline
90
4
70
1
43
0.0
10
9.0648043303465506
20
-9.0648043303465524
10
5.1116956696534537
20
-9.0648043303465506
10
5.111695669653451
20
-5.1116956696534483
10
9.0648043303465471
20
-5.111695669653451
0
LWPOLYLINE
5
167
100
AcDbEntity
8
0
100
AcDbPolyline
90
4
70
1
43
0.0
10
-8.7350732129124609
20
-1.380927474148308e-05
10
-4.4771171074713152
20
-4.2426475544478679
10
-0.2497918635987717
20
-1.1007124275380833e-15
10
-4.4771309166564794
20
4.2426061764059124
0
LWPOLYLINE
5
168
100
AcDbEntity
8
0
100
AcDbPolyline
90
4
70
1
43
0.0
10
-4.8305000000000025
20
-4.6116956696534483
10
-9.1765000000000008
20
-4.6116956696534475
10
-13.522304696520617
20
-0.24999999999999917
10
-9.1765000000000008
20
-0.24999999999999967
0
LWPOLYLINE
5
169
100
AcDbEntity
8
0
100
AcDbPolyline
90
4
70
1
43
0.0
10
-9.5648043303465524
20
-9.3460000000000036
10
-9.5648043303465524
20
-5.0000000000000018
10
-13.926500000000006
20
-0.65419530347938848
10
-13.926500000000006
20
-5.0000000000000009
0
LWPOLYLINE
5
170
100
AcDbEntity
8
0
100
AcDbPolyline
90
4
70
1
43
0.0
10
-9.0648043303465453
20
-9.0648043303465524
10
-5.1116956696534537
20
-9.0648043303465506
10
-5.1116956696534537
20
-5.1116956696534475
10
-9.0648043303465453
20
-5.1116956696534501
0
LWPOLYLINE
5
171
100
AcDbEntity
8
0
100
AcDbPolyline
90
4
70
1
43
0.0
10
-5.1116956696534537
20
5.1116956696534501
10
-9.0648043303465542
20
5.1116956696534501
10
-9.0648043303465542
20
9.0648043303465524
10
-5.1116956696534537
20
9.0648043303465524
0
LWPOLYLINE
5
172
100
AcDbEntity
8
0
100
AcDbPolyline
90
4
70
1
43
0.0
10
-4.8305000000000025
20
4.6116956696534483
10
-9.1765000000000008
20
0.24999999999999944
10
-13.522304696520617
20
0.24999999999999917
10
-9.1765000000000008
20
4.6116956696534475
0
LWPOLYLINE
5
173
100
AcDbEntity
8
0
100
AcDbPolyline
90
4
70
1
43
0.0
10
-13.926500000000006
20
0.65419530347938848
10
-9.5648043303465524
20
5
10
-9.5648043303465524
20
9.3460000000000019
10
-13.926500000000006
20
5.0000000000000009
0
LWPOLYLINE
5
174
100
AcDbEntity
8
0
100
AcDbPolyline
90
4
70
1
43
0.0
10
0.65419530347938348
20
-13.926500000000001
10
5
20
-13.926500000000001
10
9.3459999999999983
20
-9.5648043303465524
10
5
20
-9.5648043303465524
0
LWPOLYLINE
5
175
100
AcDbEntity
8
0
100
AcDbPolyline
90
4
70
1
43
0.0
10
-9.3460000000000054
20
-9.5648043303465524
10
-5
20
-13.926500000000001
10
-0.65419530347939236
20
-13.926500000000001
10
-5
20
-9.5648043303465524
0
LWPOLYLINE
5
176
100
AcDbEntity
8
0
100
AcDbPolyline
90
4
70
1
43
0.0
10
-4.6116956696534483
20
-4.8304999999999962
10
-4.6116956696534483
20
-9.176499999999999
10
-0.25000000000000355
20
-13.522304696520614
10
-0.25000000000000355
20
-9.176499999999999
0
LWPOLYLINE
5
177
100
AcDbEntity
8
0
100
AcDbPolyline
90
4
70
1
43
0.0
10
4.6116956696534483
20
-4.8304999999999989
10
0.24999999999999467
20
-9.176499999999999
10
0.24999999999999467
20
-13.522304696520614
10
4.6116956696534483
20
-9.1765000000000008
0
LWPOLYLINE
5
178
100
AcDbEntity
8
0
100
AcDbPolyline
90
4
70
1
43
0.0
10
4.2426061764059142
20
-4.4771309166564786
10
-1.3809274745923972e-05
20
-8.7350732129124538
10
-4.242647554447867
20
-4.4771171074713081
10
0
20
-0.24979186359876504
0
LWPOLYLINE
5
179
100
AcDbEntity
8
0
100
AcDbPolyline
90
4
70
1
43
0.0
10
-0.65419530347939236
20
13.926500000000001
10
-5
20
13.926500000000001
10
-9.3460000000000054
20
9.5648043303465524
10
-5
20
9.5648043303465524
0
LWPOLYLINE
5
180
100
AcDbEntity
8
0
100
AcDbPolyline
90
4
70
1
43
0.0
10
9.3459999999999983
20
9.5648043303465524
10
5
20
13.926500000000001
10
0.65419530347938348
20
13.926500000000001
10
5
20
9.5648043303465524
0
LWPOLYLINE
5
181
100
AcDbEntity
8
0
100
AcDbPolyline
90
4
70
1
43
0.0
10
4.6116956696534483
20
4.8304999999999954
10
4.6116956696534483
20
9.176499999999999
10
0.24999999999999467
20
13.522304696520614
10
0.24999999999999467
20
9.1765000000000008
0
LWPOLYLINE
5
182
100
AcDbEntity
8
0
100
AcDbPolyline
90
4
70
1
43
0.0
10
-4.6116956696534572
20
4.8304999999999998
10
-0.25000000000000355
20
9.1765000000000008
10
-0.25000000000000355
20
13.522304696520614
10
-4.6116956696534483
20
9.1765000000000008
0
LWPOLYLINE
5
183
100
AcDbEntity
8
0
100
AcDbPolyline
90
4
70
1
43
0.0
10
0
20
0.24979186359876504
10
4.2426061764059142
20
4.4771309166564777
10
-1.3809274745923972e-05
20
8.7350732129124538
10
-4.2426475544478759
20
4.477117107471309
0
LWPOLYLINE
5
184
100
AcDbEntity
8
0
100
AcDbPolyline
90
3
70
1
43
0.0
10
5.691425996638932
20
-13.926513809274743
10
13.926486190725258
20
-5.6914275775386542
10
13.92648619072526
20
-13.926513809274743
0
LWPOLYLINE
5
185
100
AcDbEntity
8
0
100
AcDbPolyline
90
3
70
1
43
0.0
10
5.691426787087539
20
13.92648619072526
10
13.92648619072526
20
5.691426787087547
10
13.92648619072526
20
13.92648619072526
0
LWPOLYLINE
5
186
100
AcDbEntity
8
0
100
AcDbPolyline
90
3
70
1
43
0.0
10
-13.926513809274748
20
5.6914259966389382
10
-13.926513809274748
20
13.92648619072526
10
-5.6914275775386542
20
13.92648619072526
0
LWPOLYLINE
5
187
100
AcDbEntity
8
0
100
AcDbPolyline
90
3
70
1
43
0.0
10
-13.926513809274748
20
-13.926513809274743
10
-13.926513809274748
20
-5.691426787087547
10
-5.6914267870875479
20
-13.926513809274743
0
LWPOLYLINE
5
188
100
AcDbEntity
8
0
100
AcDbPolyline
90
4
70
1
43
0.0
10
28.102999999999998
20
-13.522304696520614
10
23.741304330346551
20
-9.176499999999999
10
23.741304330346551
20
-4.8304999999999962
10
28.102999999999998
20
-9.176499999999999
0
LWPOLYLINE
5
189
100
AcDbEntity
8
0
100
AcDbPolyline
90
4
70
1
43
0.0
10
24.110352445552124
20
4.477117107471309
10
28.353000000000002
20
0.24979186359876504
10
32.595606176405916
20
4.4771309166564777
10
28.352986190725254
20
8.7350732129124538
0
LWPOLYLINE
5
190
100
AcDbEntity
8
0
100
AcDbPolyline
90
4
70
1
43
0.0
10
28.103208136401232
20
-1.1007124275380833e-15
10
23.875869083343524
20
4.2426061764059124
10
19.617926787087541
20
-1.380927474148308e-05
10
23.875882892528686
20
-4.2426475544478679
0
LWPOLYLINE
5
191
100
AcDbEntity
8
0
100
AcDbPolyline
90
4
70
1
43
0.0
10
27.698804696520611
20
-13.926500000000001
10
23.353000000000002
20
-9.5648043303465524
10
19.006999999999998
20
-9.5648043303465524
10
23.353000000000002
20
-13.926500000000001
0
LWPOLYLINE
5
192
100
AcDbEntity
8
0
100
AcDbPolyline
90
4
70
1
43
0.0
10
28.102999999999998
20
13.522304696520614
10
23.741304330346551
20
9.1765000000000008
10
23.741304330346544
20
4.8304999999999998
10
28.102999999999998
20
9.1765000000000008
0
LWPOLYLINE
5
193
100
AcDbEntity
8
0
100
AcDbPolyline
90
4
70
1
43
0.0
10
28.602999999999994
20
13.522304696520614
10
32.964695669653452
20
9.176499999999999
10
32.964695669653452
20
4.8304999999999954
10
28.602999999999994
20
9.1765000000000008
0
LWPOLYLINE
5
194
100
AcDbEntity
8
0
100
AcDbPolyline
90
4
70
1
43
0.0
10
37.698999999999998
20
9.5648043303465524
10
33.353000000000002
20
13.926500000000001
10
29.007195303479385
20
13.926500000000001
10
33.353000000000002
20
9.5648043303465524
0
LWPOLYLINE
5
195
100
AcDbEntity
8
0
100
AcDbPolyline
90
4
70
1
43
0.0
10
32.964695669653452
20
-4.8304999999999989
10
28.602999999999994
20
-9.176499999999999
10
28.602999999999994
20
-13.522304696520614
10
32.964695669653452
20
-9.1765000000000008
0
LWPOLYLINE
5
196
100
AcDbEntity
8
0
100
AcDbPolyline
90
3
70
1
43
0.0
10
34.044426787087538
20
13.92648619072526
10
42.279486190725265
20
5.691426787087547
10
42.279486190725265
20
13.92648619072526
0
LWPOLYLINE
5
197
100
AcDbEntity
8
0
100
AcDbPolyline
90
4
70
1
43
0.0
10
14.426499999999995
20
-0.65419530347938848
10
14.426499999999995
20
-5.0000000000000009
10
18.788195669653447
20
-9.3460000000000036
10
18.788195669653447
20
-5.0000000000000018
0
LWPOLYLINE
5
198
100
AcDbEntity
8
0
100
AcDbPolyline
90
4
70
1
43
0.0
10
37.917804330346549
20
-9.3460000000000019
10
42.279499999999999
20
-5.0000000000000009
10
42.279499999999999
20
-0.65419530347938848
10
37.917804330346556
20
-5
0
LWPOLYLINE
5
199
100
AcDbEntity
8
0
100
AcDbPolyline
90
4
70
1
43
0.0
10
23.522499999999997
20
-4.6116956696534483
10
19.176500000000001
20
-0.24999999999999944
10
14.830695303479384
20
-0.24999999999999917
10
19.176500000000001
20
-4.6116956696534475
0
LWPOLYLINE
5
200
100
AcDbEntity
8
0
100
AcDbPolyline
90
4
70
1
43
0.0
10
33.464695669653459
20
-9.0648043303465506
10
33.464695669653452
20
-5.1116956696534483
10
37.417804330346549
20
-5.111695669653451
10
37.417804330346549
20
-9.0648043303465524
0
LWPOLYLINE
5
201
100
AcDbEntity
8
0
100
AcDbPolyline
90
4
70
1
43
0.0
10
32.595606176405916
20
-4.4771309166564786
10
28.352986190725254
20
-8.7350732129124538
10
24.110352445552135
20
-4.4771171074713081
10
28.353000000000002
20
-0.24979186359876504
0
LWPOLYLINE
5
202
100
AcDbEntity
8
0
100
AcDbPolyline
90
4
70
1
43
0.0
10
37.088073212912455
20
-1.380927474148308e-05
10
32.830117107471317
20
-4.2426475544478679
10
28.602791863598771
20
-5.5511151231257827e-16
10
32.830130916656479
20
4.2426061764059124
0
LWPOLYLINE
5
203
100
AcDbEntity
8
0
100
AcDbPolyline
90
4
70
1
43
0.0
10
19.288195669653454
20
-5.1116956696534501
10
19.288195669653454
20
-9.0648043303465524
10
23.241304330346544
20
-9.0648043303465506
10
23.241304330346544
20
-5.1116956696534475
0
LWPOLYLINE
5
204
100
AcDbEntity
8
0
100
AcDbPolyline
90
4
70
1
43
0.0
10
19.288195669653447
20
5.1116956696534501
10
19.288195669653447
20
9.0648043303465524
10
23.241304330346544
20
9.0648043303465524
10
23.241304330346544
20
5.1116956696534501
0
LWPOLYLINE
5
205
100
AcDbEntity
8
0
100
AcDbPolyline
90
4
70
1
43
0.0
10
37.417804330346549
20
9.0648043303465506
10
33.464695669653452
20
9.0648043303465506
10
33.464695669653452
20
5.1116956696534483
10
37.417804330346549
20
5.1116956696534483
0
LWPOLYLINE
5
206
100
AcDbEntity
8
0
100
AcDbPolyline
90
4
70
1
43
0.0
10
18.788195669653447
20
9.3460000000000019
10
14.426499999999995
20
5.0000000000000009
10
14.426499999999995
20
0.65419530347938848
10
18.788195669653447
20
5
0
LWPOLYLINE
5
207
100
AcDbEntity
8
0
100
AcDbPolyline
90
4
70
1
43
0.0
10
33.183500000000002
20
-4.6116956696534483
10
37.529499999999999
20
-0.24999999999999944
10
41.875304696520615
20
-0.24999999999999917
10
37.529499999999999
20
-4.6116956696534475
0
LWPOLYLINE
5
208
100
AcDbEntity
8
0
100
AcDbPolyline
90
4
70
1
43
0.0
10
33.183500000000002
20
4.6116956696534483
10
37.529499999999999
20
4.6116956696534475
10
41.875304696520615
20
0.24999999999999917
10
37.529499999999999
20
0.24999999999999967
0
LWPOLYLINE
5
209
100
AcDbEntity
8
0
100
AcDbPolyline
90
3
70
1
43
0.0
10
42.279486190725265
20
-13.926513809274743
10
34.044425996638935
20
-13.926513809274743
10
42.279486190725265
20
-5.6914275775386542
0
LWPOLYLINE
5
210
100
AcDbEntity
8
0
100
AcDbPolyline
90
4
70
1
43
0.0
10
29.007195303479385
20
-13.926500000000001
10
33.353000000000002
20
-13.926500000000001
10
37.698999999999998
20
-9.5648043303465524
10
33.353000000000002
20
-9.5648043303465524
0
LWPOLYLINE
5
211
100
AcDbEntity
8
0
100
AcDbPolyline
90
3
70
1
43
0.0
10
14.426486190725253
20
5.6914259966389382
10
22.661572422461347
20
13.92648619072526
10
14.426486190725253
20
13.92648619072526
0
LWPOLYLINE
5
212
100
AcDbEntity
8
0
100
AcDbPolyline
90
4
70
1
43
0.0
10
19.006999999999998
20
9.5648043303465524
10
23.353000000000002
20
13.926500000000001
10
27.698804696520611
20
13.926500000000001
10
23.353000000000002
20
9.5648043303465524
0
LWPOLYLINE
5
213
100
AcDbEntity
8
0
100
AcDbPolyline
90
4
70
1
43
0.0
10
14.830695303479384
20
0.24999999999999917
10
19.176500000000001
20
4.6116956696534475
10
23.522499999999997
20
4.6116956696534483
10
19.176500000000001
20
0.24999999999999944
0
LWPOLYLINE
5
214
100
AcDbEntity
8
0
100
AcDbPolyline
90
3
70
1
43
0.0
10
14.426486190725253
20
-13.926513809274743
10
14.426486190725253
20
-5.691426787087547
10
22.661573212912455
20
-13.926513809274743
0
LWPOLYLINE
5
215
100
AcDbEntity
8
0
100
AcDbPolyline
90
4
70
1
43
0.0
10
37.917804330346556
20
9.3460000000000036
10
37.917804330346556
20
5.0000000000000018
10
42.279499999999999
20
0.65419530347938848
10
42.279499999999999
20
5.0000000000000009
0
LWPOLYLINE
5
216
100
AcDbEntity
8
0
100
AcDbPolyline
90
4
70
1
43
0.0
10
-32.830117107471317
20
-4.2426475544478679
10
-28.602791863598771
20
-1.1007124275380833e-15
10
-32.830130916656479
20
4.2426061764059124
10
-37.088073212912462
20
-1.380927474148308e-05
0
LWPOLYLINE
5
217
100
AcDbEntity
8
0
100
AcDbPolyline
90
4
70
1
43
0.0
10
-28.353013809274749
20
8.7350732129124538
10
-32.595647554447879
20
4.477117107471309
10
-28.353000000000002
20
0.24979186359876504
10
-24.110393823594087
20
4.4771309166564777
0
LWPOLYLINE
5
218
100
AcDbEntity
8
0
100
AcDbPolyline
90
4
70
1
43
0.0
10
-29.007195303479392
20
-13.926500000000001
10
-33.353000000000002
20
-9.5648043303465524
10
-37.699000000000005
20
-9.5648043303465524
10
-33.353000000000002
20
-13.926500000000001
0
LWPOLYLINE
5
219
100
AcDbEntity
8
0
100
AcDbPolyline
90
4
70
1
43
0.0
10
-32.964695669653452
20
-4.8304999999999962
10
-28.603000000000005
20
-9.176499999999999
10
-28.603000000000005
20
-13.522304696520614
10
-32.964695669653452
20
-9.176499999999999
0
LWPOLYLINE
5
220
100
AcDbEntity
8
0
100
AcDbPolyline
90
4
70
1
43
0.0
10
-28.353013809274749
20
-8.7350732129124538
10
-32.595647554447865
20
-4.4771171074713081
10
-28.353000000000002
20
-0.24979186359876504
10
-24.110393823594087
20
-4.4771309166564786
0
LWPOLYLINE
5
221
100
AcDbEntity
8
0
100
AcDbPolyline
90
3
70
1
43
0.0
10
-42.279513809274754
20
-13.926513809274743
10
-42.279513809274754
20
-5.691426787087547
10
-34.044426787087552
20
-13.926513809274743
0
LWPOLYLINE
5
222
100
AcDbEntity
8
0
100
AcDbPolyline
90
4
70
1
43
0.0
10
-23.522500000000001
20
-4.6116956696534483
10
-19.176500000000001
20
-0.24999999999999944
10
-14.830695303479388
20
-0.24999999999999917
10
-19.176500000000001
20
-4.6116956696534475
0
LWPOLYLINE
5
223
100
AcDbEntity
8
0
100
AcDbPolyline
90
4
70
1
43
0.0
10
-23.522500000000001
20
4.6116956696534483
10
-19.176500000000001
20
4.6116956696534475
10
-14.830695303479388
20
0.24999999999999917
10
-19.176500000000001
20
0.24999999999999967
0
LWPOLYLINE
5
224
100
AcDbEntity
8
0
100
AcDbPolyline
90
4
70
1
43
0.0
10
-19.288195669653451
20
-9.0648043303465524
10
-23.241304330346544
20
-9.0648043303465506
10
-23.241304330346551
20
-5.1116956696534483
10
-19.288195669653454
20
-5.111695669653451
0
LWPOLYLINE
5
225
100
AcDbEntity
8
0
100
AcDbPolyline
90
3
70
1
43
0.0
10
-22.661574003361071
20
-13.926513809274743
10
-14.426513809274743
20
-5.6914275775386542
10
-14.426513809274741
20
-13.926513809274743
0
LWPOLYLINE
5
226
100
AcDbEntity
8
0
100
AcDbPolyline
90
4
70
1
43
0.0
10
-19.007000000000001
20
-9.5648043303465524
10
-23.353000000000002
20
-9.5648043303465524
10
-27.698804696520618
20
-13.926500000000001
10
-23.353000000000002
20
-13.926500000000001
0
LWPOLYLINE
5
227
100
AcDbEntity
8
0
100
AcDbPolyline
90
4
70
1
43
0.0
10
-37.417804330346549
20
-5.1116956696534501
10
-37.417804330346549
20
-9.0648043303465524
10
-33.464695669653459
20
-9.0648043303465506
10
-33.464695669653459
20
-5.1116956696534475
0
LWPOLYLINE
5
228
100
AcDbEntity
8
0
100
AcDbPolyline
90
4
70
1
43
0.0
10
-23.741304330346551
20
-4.8304999999999989
10
-23.741304330346551
20
-9.1765000000000008
10
-28.103000000000009
20
-13.522304696520614
10
-28.103000000000009
20
-9.176499999999999
0
LWPOLYLINE
5
229
100
AcDbEntity
8
0
100
AcDbPolyline
90
4
70
1
43
0.0
10
-18.788195669653454
20
-9.3460000000000019
10
-14.426500000000003
20
-5.0000000000000009
10
-14.426500000000001
20
-0.65419530347938848
10
-18.788195669653451
20
-5
0
LWPOLYLINE
5
230
100
AcDbEntity
8
0
100
AcDbPolyline
90
4
70
1
43
0.0
10
-37.917804330346556
20
-9.3460000000000036
10
-37.917804330346556
20
-5.0000000000000018
10
-42.279500000000006
20
-0.65419530347938848
10
-42.279500000000006
20
-5.0000000000000009
0
LWPOLYLINE
5
231
100
AcDbEntity
8
0
100
AcDbPolyline
90
4
70
1
43
0.0
10
-23.241304330346551
20
5.1116956696534483
10
-19.288195669653451
20
5.1116956696534483
10
-19.288195669653454
20
9.0648043303465506
10
-23.241304330346551
20
9.0648043303465506
0
LWPOLYLINE
5
232
100
AcDbEntity
8
0
100
AcDbPolyline
90
4
70
1
43
0.0
10
-19.007000000000001
20
9.5648043303465524
10
-23.353000000000002
20
9.5648043303465524
10
-27.698804696520618
20
13.926500000000001
10
-23.353000000000002
20
13.926500000000001
0
LWPOLYLINE
5
233
100
AcDbEntity
8
0
100
AcDbPolyline
90
3
70
1
43
0.0
10
-14.426513809274741
20
13.92648619072526
10
-22.661573212912462
20
13.92648619072526
10
-14.426513809274741
20
5.691426787087547
0
LWPOLYLINE
5
234
100
AcDbEntity
8
0
100
AcDbPolyline
90
4
70
1
43
0.0
10
-28.103000000000009
20
13.522304696520614
10
-28.103000000000009
20
9.1765000000000008
10
-23.741304330346551
20
4.8304999999999954
10
-23.741304330346551
20
9.176499999999999
0
LWPOLYLINE
5
235
100
AcDbEntity
8
0
100
AcDbPolyline
90
4
70
1
43
0.0
10
-19.617926787087544
20
-1.380927474148308e-05
10
-23.875882892528686
20
-4.2426475544478679
10
-28.103208136401232
20
-5.5511151231257827e-16
10
-23.875869083343524
20
4.2426061764059124
0
LWPOLYLINE
5
236
100
AcDbEntity
8
0
100
AcDbPolyline
90
4
70
1
43
0.0
10
-18.788195669653447
20
9.3460000000000036
10
-14.426500000000001
20
5.0000000000000009
10
-14.426500000000001
20
0.65419530347938848
10
-18.788195669653447
20
5.0000000000000018
0
LWPOLYLINE
5
237
100
AcDbEntity
8
0
100
AcDbPolyline
90
4
70
1
43
0.0
10
-37.699000000000005
20
9.5648043303465524
10
-33.353000000000002
20
9.5648043303465524
10
-29.007195303479392
20
13.926500000000001
10
-33.353000000000002
20
13.926500000000001
0
LWPOLYLINE
5
238
100
AcDbEntity
8
0
100
AcDbPolyline
90
4
70
1
43
0.0
10
-32.964695669653459
20
4.8304999999999998
10
-28.603000000000005
20
9.1765000000000008
10
-28.603000000000005
20
13.522304696520614
10
-32.964695669653452
20
9.1765000000000008
0
LWPOLYLINE
5
239
100
AcDbEntity
8
0
100
AcDbPolyline
90
3
70
1
43
0.0
10
-34.044427577538656
20
13.92648619072526
10
-42.279513809274754
20
13.92648619072526
10
-42.279513809274754
20
5.6914259966389382
0
LWPOLYLINE
5
240
100
AcDbEntity
8
0
100
AcDbPolyline
90
4
70
1
43
0.0
10
-37.417804330346556
20
9.0648043303465524
10
-33.464695669653459
20
9.0648043303465524
10
-33.464695669653459
20
5.1116956696534501
10
-37.417804330346556
20
5.1116956696534501
0
LWPOLYLINE
5
241
100
AcDbEntity
8
0
100
AcDbPolyline
90
4
70
1
43
0.0
10
-41.875304696520615
20
0.24999999999999917
10
-37.529499999999999
20
4.6116956696534475
10
-33.183500000000009
20
4.6116956696534483
10
-37.529499999999999
20
0.24999999999999944
0
LWPOLYLINE
5
242
100
AcDbEntity
8
0
100
AcDbPolyline
90
4
70
1
43
0.0
10
-33.183500000000009
20
-4.6116956696534483
10
-37.529499999999999
20
-0.24999999999999944
10
-41.875304696520615
20
-0.24999999999999917
10
-37.529499999999999
20
-4.6116956696534475
0
LWPOLYLINE
5
243
100
AcDbEntity
8
0
100
AcDbPolyline
90
4
70
1
43
0.0
10
-42.279500000000006
20
0.65419530347938848
10
-37.917804330346556
20
5
10
-37.917804330346556
20
9.3460000000000019
10
-42.279500000000006
20
5.0000000000000009
0
LWPOLYLINE
5
244
100
AcDbEntity
8
0
100
AcDbPolyline
90
4
70
1
43
0.0
10
-0.65419530347939236
20
-42.279499999999999
10
-5
20
-42.279499999999999
10
-9.3460000000000054
20
-37.917804330346556
10
-5
20
-37.917804330346556
0
LWPOLYLINE
5
245
100
AcDbEntity
8
0
100
AcDbPolyline
90
4
70
1
43
0.0
10
-0.65419530347939236
20
-14.426500000000001
10
-5
20
-14.426500000000001
10
-9.3460000000000054
20
-18.788195669653447
10
-5
20
-18.788195669653447
0
LWPOLYLINE
5
246
100
AcDbEntity
8
0
100
AcDbPolyline
90
4
70
1
43
0.0
10
-1.3809274745923972e-05
20
-37.088073212912455
10
-4.242647554447867
20
-32.83011710747131
10
0
20
-28.602791863598767
10
4.2426061764059142
20
-32.830130916656479
0
LWPOLYLINE
5
247
100
AcDbEntity
8
0
100
AcDbPolyline
90
4
70
1
43
0.0
10
-0.2497918635987717
20
-28.353000000000002
10
-4.4771309166564794
20
-24.110393823594087
10
-8.7350732129124609
20
-28.353013809274742
10
-4.4771171074713152
20
-32.595647554447865
0
LWPOLYLINE
5
248
100
AcDbEntity
8
0
100
AcDbPolyline
90
4
70
1
43
0.0
10
-14.830695303479388
20
-28.103000000000002
10
-19.176500000000001
20
-28.103000000000002
10
-23.522500000000001
20
-23.741304330346551
10
-19.176500000000001
20
-23.741304330346551
0
LWPOLYLINE
5
249
100
AcDbEntity
8
0
100
AcDbPolyline
90
4
70
1
43
0.0
10
-14.426500000000001
20
-27.698804696520614
10
-18.788195669653447
20
-23.353000000000002
10
-18.788195669653447
20
-19.006999999999998
10
-14.426500000000001
20
-23.353000000000002
0
LWPOLYLINE
5
250
100
AcDbEntity
8
0
100
AcDbPolyline
90
4
70
1
43
0.0
10
-4.6116956696534483
20
-33.183499999999995
10
-0.25000000000000355
20
-37.529499999999999
10
-0.25000000000000355
20
-41.875304696520615
10
-4.6116956696534483
20
-37.529499999999999
0
LWPOLYLINE
5
251
100
AcDbEntity
8
0
100
AcDbPolyline
90
4
70
1
43
0.0
10
-4.8305000000000025
20
-32.964695669653452
10
-9.1765000000000008
20
-28.603000000000002
10
-13.522304696520617
20
-28.603000000000002
10
-9.1765000000000008
20
-32.964695669653452
0
LWPOLYLINE
5
252
100
AcDbEntity
8
0
100
AcDbPolyline
90
3
70
1
43
0.0
10
34.044426787087538
20
-14.426513809274741
10
42.279486190725265
20
-22.661573212912455
10
42.279486190725265
20
-14.426513809274741
0
LWPOLYLINE
5
253
100
AcDbEntity
8
0
100
AcDbPolyline
90
4
70
1
43
0.0
10
-4.2426475544478759
20
-23.875882892528693
10
0
20
-28.103208136401236
10
4.2426061764059142
20
-23.875869083343524
10
-1.3809274745923972e-05
20
-19.617926787087548
0
LWPOLYLINE
5
254
100
AcDbEntity
8
0
100
AcDbPolyline
90
4
70
1
43
0.0
10
-13.926500000000006
20
-29.007195303479389
10
-13.926500000000006
20
-33.353000000000002
10
-9.5648043303465524
20
-37.699000000000005
10
-9.5648043303465524
20
-33.353000000000002
0
LWPOLYLINE
5
255
100
AcDbEntity
8
0
100
AcDbPolyline
90
4
70
1
43
0.0
10
-4.8305000000000025
20
-23.741304330346551
10
-9.1765000000000008
20
-23.741304330346551
10
-13.522304696520617
20
-28.103000000000002
10
-9.1765000000000008
20
-28.103000000000002
0
LWPOLYLINE
5
256
100
AcDbEntity
8
0
100
AcDbPolyline
90
4
70
1
43
0.0
10
-32.830117107471317
20
-32.595647554447865
10
-28.602791863598771
20
-28.353000000000002
10
-32.830130916656479
20
-24.110393823594087
10
-37.088073212912462
20
-28.353013809274742
0
LWPOLYLINE
5
257
100
AcDbEntity
8
0
100
AcDbPolyline
90
4
70
1
43
0.0
10
-28.353000000000002
20
-28.602791863598767
10
-24.110393823594087
20
-32.830130916656479
10
-28.353013809274749
20
-37.088073212912455
10
-32.595647554447865
20
-32.83011710747131
0
LWPOLYLINE
5
258
100
AcDbEntity
8
0
100
AcDbPolyline
90
4
70
1
43
0.0
10
-5.1116956696534537
20
-23.241304330346551
10
-9.0648043303465542
20
-23.241304330346551
10
-9.0648043303465542
20
-19.288195669653451
10
-5.1116956696534537
20
-19.288195669653451
0
LWPOLYLINE
5
259
100
AcDbEntity
8
0
100
AcDbPolyline
90
4
70
1
43
0.0
10
0.65419530347938348
20
-14.426500000000001
10
5
20
-18.788195669653447
10
9.3459999999999983
20
-18.788195669653447
10
5
20
-14.426500000000001
0
LWPOLYLINE
5
260
100
AcDbEntity
8
0
100
AcDbPolyline
90
4
70
1
43
0.0
10
-4.6116956696534572
20
-23.522500000000001
10
-0.25000000000000355
20
-19.176500000000001
10
-0.25000000000000355
20
-14.830695303479388
10
-4.6116956696534483
20
-19.176500000000001
0
LWPOLYLINE
5
261
100
AcDbEntity
8
0
100
AcDbPolyline
90
4
70
1
43
0.0
10
37.698999999999998
20
-18.788195669653447
10
33.353000000000002
20
-14.426500000000001
10
29.007195303479385
20
-14.426500000000001
10
33.353000000000002
20
-18.788195669653447
0
LWPOLYLINE
5
262
100
AcDbEntity
8
0
100
AcDbPolyline
90
4
70
1
43
0.0
10
28.602999999999994
20
-14.830695303479388
10
32.964695669653452
20
-19.176500000000004
10
32.964695669653452
20
-23.522500000000008
10
28.602999999999994
20
-19.176500000000001
0
LWPOLYLINE
5
263
100
AcDbEntity
8
0
100
AcDbPolyline
90
4
70
1
43
0.0
10
-23.875882892528686
20
-32.595647554447865
10
-28.103208136401232
20
-28.353000000000002
10
-23.875869083343524
20
-24.110393823594087
10
-19.617926787087544
20
-28.353013809274742
0
LWPOLYLINE
5
264
100
AcDbEntity
8
0
100
AcDbPolyline
90
4
70
1
43
0.0
10
-42.279500000000006
20
-29.007195303479389
10
-37.917804330346556
20
-33.353000000000002
10
-37.917804330346556
20
-37.699000000000005
10
-42.279500000000006
20
-33.353000000000002
0
LWPOLYLINE
5
265
100
AcDbEntity
8
0
100
AcDbPolyline
90
4
70
1
43
0.0
10
19.006999999999998
20
-18.788195669653447
10
23.353000000000002
20
-14.426500000000001
10
27.698804696520611
20
-14.426500000000001
10
23.353000000000002
20
-18.788195669653447
0
LWPOLYLINE
5
266
100
AcDbEntity
8
0
100
AcDbPolyline
90
4
70
1
43
0.0
10
-41.875304696520615
20
-28.603000000000002
10
-37.529499999999999
20
-32.964695669653452
10
-33.183500000000009
20
-32.964695669653452
10
-37.529499999999999
20
-28.603000000000002
0
LWPOLYLINE
5
267
100
AcDbEntity
8
0
100
AcDbPolyline
90
4
70
1
43
0.0
10
-13.926500000000006
20
-27.698804696520614
10
-9.5648043303465524
20
-23.353000000000002
10
-9.5648043303465524
20
-19.007000000000001
10
-13.926500000000006
20
-23.353000000000002
0
LWPOLYLINE
5
268
100
AcDbEntity
8
0
100
AcDbPolyline
90
4
70
1
43
0.0
10
-14.426500000000001
20
-29.007195303479389
10
-14.426500000000003
20
-33.353000000000002
10
-18.788195669653454
20
-37.699000000000005
10
-18.788195669653451
20
-33.353000000000002
0
LWPOLYLINE
5
269
100
AcDbEntity
8
0
100
AcDbPolyline
90
3
70
1
43
0.0
10
13.92648619072526
20
-22.661573212912455
10
13.92648619072526
20
-14.426513809274741
10
5.691426787087539
20
-14.426513809274741
0
LWPOLYLINE
5
270
100
AcDbEntity
8
0
100
AcDbPolyline
90
4
70
1
43
0.0
10
28.102999999999998
20
-14.830695303479388
10
23.741304330346551
20
-19.176500000000001
10
23.741304330346544
20
-23.522500000000001
10
28.102999999999998
20
-19.176500000000001
0
LWPOLYLINE
5
271
100
AcDbEntity
8
0
100
AcDbPolyline
90
4
70
1
43
0.0
10
0.24999999999999467
20
-14.830695303479388
10
0.24999999999999467
20
-19.176500000000001
10
4.6116956696534483
20
-23.522500000000008
10
4.6116956696534483
20
-19.176500000000004
0
LWPOLYLINE
5
272
100
AcDbEntity
8
0
100
AcDbPolyline
90
3
70
1
43
0.0
10
14.426486190725253
20
-22.661574003361061
10
14.426486190725253
20
-14.426513809274741
10
22.661572422461347
20
-14.426513809274741
0
LWPOLYLINE
5
273
100
AcDbEntity
8
0
100
AcDbPolyline
90
4
70
1
43
0.0
10
-23.522500000000001
20
-32.964695669653452
10
-19.176500000000001
20
-28.603000000000002
10
-14.830695303479388
20
-28.603000000000002
10
-19.176500000000001
20
-32.964695669653452
0
LWPOLYLINE
5
274
100
AcDbEntity
8
0
100
AcDbPolyline
90
4
70
1
43
0.0
10
-37.917804330346556
20
-19.007000000000001
10
-42.279500000000006
20
-23.353000000000002
10
-42.279500000000006
20
-27.698804696520614
10
-37.917804330346556
20
-23.353000000000002
0
LWPOLYLINE
5
275
100
AcDbEntity
8
0
100
AcDbPolyline
90
3
70
1
43
0.0
10
-42.279513809274754
20
-22.661574003361061
10
-34.044427577538656
20
-14.426513809274741
10
-42.279513809274754
20
-14.426513809274741
0
LWPOLYLINE
5
276
100
AcDbEntity
8
0
100
AcDbPolyline
90
4
70
1
43
0.0
10
-23.741304330346551
20
-33.183500000000002
10
-28.103000000000009
20
-37.529499999999999
10
-28.103000000000009
20
-41.875304696520615
10
-23.741304330346551
20
-37.529499999999999
0
LWPOLYLINE
5
277
100
AcDbEntity
8
0
100
AcDbPolyline
90
4
70
1
43
0.0
10
37.917804330346549
20
-37.699000000000005
10
42.279499999999999
20
-33.353000000000002
10
42.279499999999999
20
-29.007195303479389
10
37.917804330346556
20
-33.353000000000002
0
LWPOLYLINE
5
278
100
AcDbEntity
8
0
100
AcDbPolyline
90
4
70
1
43
0.0
10
18.788195669653447
20
-37.699000000000005
10
14.426499999999995
20
-33.353000000000002
10
14.426499999999995
20
-29.007195303479389
10
18.788195669653447
20
-33.353000000000002
0
LWPOLYLINE
5
279
100
AcDbEntity
8
0
100
AcDbPolyline
90
4
70
1
43
0.0
10
-41.875304696520615
20
-28.103000000000002
10
-37.529499999999999
20
-28.103000000000002
10
-33.183500000000009
20
-23.741304330346551
10
-37.529499999999999
20
-23.741304330346551
0
LWPOLYLINE
5
280
100
AcDbEntity
8
0
100
AcDbPolyline
90
3
70
1
43
0.0
10
-13.926513809274748
20
-22.661574003361061
10
-5.6914275775386542
20
-14.426513809274741
10
-13.926513809274748
20
-14.426513809274741
0
LWPOLYLINE
5
281
100
AcDbEntity
8
0
100
AcDbPolyline
90
4
70
1
43
0.0
10
19.288195669653454
20
-33.464695669653452
10
19.288195669653454
20
-37.417804330346556
10
23.241304330346544
20
-37.417804330346549
10
23.241304330346544
20
-33.464695669653452
0
LWPOLYLINE
5
282
100
AcDbEntity
8
0
100
AcDbPolyline
90
4
70
1
43
0.0
10
9.0648043303465471
20
-33.464695669653452
10
9.0648043303465506
20
-37.417804330346556
10
5.1116956696534537
20
-37.417804330346549
10
5.111695669653451
20
-33.464695669653452
0
LWPOLYLINE
5
283
100
AcDbEntity
8
0
100
AcDbPolyline
90
4
70
1
43
0.0
10
4.6116956696534483
20
-33.183500000000002
10
0.24999999999999467
20
-37.529499999999999
10
0.24999999999999467
20
-41.875304696520615
10
4.6116956696534483
20
-37.529499999999999
0
LWPOLYLINE
5
284
100
AcDbEntity
8
0
100
AcDbPolyline
90
4
70
1
43
0.0
10
9.5648043303465489
20
-37.699000000000005
10
9.5648043303465506
20
-33.353000000000002
10
13.926500000000001
20
-29.007195303479389
10
13.926499999999999
20
-33.353000000000002
0
LWPOLYLINE
5
285
100
AcDbEntity
8
0
100
AcDbPolyline
90
4
70
1
43
0.0
10
28.352986190725254
20
-37.088073212912455
10
24.110352445552135
20
-32.83011710747131
10
28.353000000000002
20
-28.602791863598767
10
32.595606176405916
20
-32.830130916656479
0
LWPOLYLINE
5
286
100
AcDbEntity
8
0
100
AcDbPolyline
90
4
70
1
43
0.0
10
23.741304330346551
20
-33.183499999999995
10
23.741304330346551
20
-37.529499999999999
10
28.102999999999998
20
-41.875304696520615
10
28.102999999999998
20
-37.529499999999999
0
LWPOLYLINE
5
287
100
AcDbEntity
8
0
100
AcDbPolyline
90
4
70
1
43
0.0
10
32.964695669653452
20
-33.183500000000002
10
32.964695669653452
20
-37.529499999999999
10
28.602999999999994
20
-41.875304696520615
10
28.602999999999994
20
-37.529499999999999
0
LWPOLYLINE
5
288
100
AcDbEntity
8
0
100
AcDbPolyline
90
3
70
1
43
0.0
10
-22.661573212912462
20
-14.426513809274741
10
-14.426513809274741
20
-22.661573212912455
10
-14.426513809274741
20
-14.426513809274741
0
LWPOLYLINE
5
289
100
AcDbEntity
8
0
100
AcDbPolyline
90
4
70
1
43
0.0
10
-32.964695669653459
20
-23.522500000000001
10
-28.603000000000005
20
-19.176500000000001
10
-28.603000000000005
20
-14.830695303479388
10
-32.964695669653452
20
-19.176500000000001
0
LWPOLYLINE
5
290
100
AcDbEntity
8
0
100
AcDbPolyline
90
3
70
1
43
0.0
10
-34.044426787087552
20
-42.279513809274746
10
-42.279513809274754
20
-34.044426787087552
10
-42.279513809274754
20
-42.279513809274746
0
LWPOLYLINE
5
291
100
AcDbEntity
8
0
100
AcDbPolyline
90
3
70
1
43
0.0
10
-14.426513809274743
20
-34.044427577538656
10
-14.426513809274741
20
-42.279513809274746
10
-22.661574003361071
20
-42.279513809274746
0
LWPOLYLINE
5
292
100
AcDbEntity
8
0
100
AcDbPolyline
90
4
70
1
43
0.0
10
-28.353000000000002
20
-28.103208136401236
10
-24.110393823594087
20
-23.875869083343524
10
-28.353013809274749
20
-19.617926787087548
10
-32.595647554447879
20
-23.875882892528693
0
LWPOLYLINE
5
293
100
AcDbEntity
8
0
100
AcDbPolyline
90
4
70
1
43
0.0
10
-19.288195669653451
20
-23.241304330346555
10
-19.288195669653454
20
-19.288195669653451
10
-23.241304330346551
20
-19.288195669653451
10
-23.241304330346551
20
-23.241304330346555
0
LWPOLYLINE
5
294
100
AcDbEntity
8
0
100
AcDbPolyline
90
4
70
1
43
0.0
10
-37.417804330346556
20
-23.241304330346551
10
-37.417804330346556
20
-19.288195669653451
10
-33.464695669653459
20
-19.288195669653451
10
-33.464695669653459
20
-23.241304330346551
0
LWPOLYLINE
5
295
100
AcDbEntity
8
0
100
AcDbPolyline
90
4
70
1
43
0.0
10
37.417804330346549
20
-33.464695669653452
10
37.417804330346549
20
-37.417804330346556
10
33.464695669653459
20
-37.417804330346549
10
33.464695669653452
20
-33.464695669653452
0
LWPOLYLINE
5
296
100
AcDbEntity
8
0
100
AcDbPolyline
90
3
70
1
43
0.0
10
-5.6914267870875479
20
-42.279513809274746
10
-13.926513809274748
20
-34.044426787087552
10
-13.926513809274748
20
-42.279513809274746
0
LWPOLYLINE
5
297
100
AcDbEntity
8
0
100
AcDbPolyline
90
4
70
1
43
0.0
10
-5.1116956696534537
20
-33.464695669653452
10
-9.0648043303465453
20
-33.464695669653452
10
-9.0648043303465453
20
-37.417804330346556
10
-5.1116956696534537
20
-37.417804330346549
0
LWPOLYLINE
5
298
100
AcDbEntity
8
0
100
AcDbPolyline
90
4
70
1
43
0.0
10
-28.603000000000005
20
-41.875304696520615
10
-32.964695669653452
20
-37.529499999999999
10
-32.964695669653452
20
-33.183499999999995
10
-28.603000000000005
20
-37.529499999999999
0
LWPOLYLINE
5
299
100
AcDbEntity
8
0
100
AcDbPolyline
90
4
70
1
43
0.0
10
-27.698804696520618
20
-42.279499999999999
10
-23.353000000000002
20
-42.279499999999999
10
-19.007000000000001
20
-37.917804330346556
10
-23.353000000000002
20
-37.917804330346556
0
LWPOLYLINE
5
300
100
AcDbEntity
8
0
100
AcDbPolyline
90
4
70
1
43
0.0
10
-29.007195303479392
20
-42.279499999999999
10
-33.353000000000002
20
-42.279499999999999
10
-37.699000000000005
20
-37.917804330346556
10
-33.353000000000002
20
-37.917804330346556
0
LWPOLYLINE
5
301
100
AcDbEntity
8
0
100
AcDbPolyline
90
4
70
1
43
0.0
10
-23.741304330346551
20
-23.522500000000008
10
-23.741304330346551
20
-19.176500000000004
10
-28.103000000000009
20
-14.830695303479388
10
-28.103000000000009
20
-19.176500000000001
0
LWPOLYLINE
5
302
100
AcDbEntity
8
0
100
AcDbPolyline
90
4
70
1
43
0.0
10
-19.288195669653454
20
-33.464695669653452
10
-19.288195669653451
20
-37.417804330346556
10
-23.241304330346544
20
-37.417804330346549
10
-23.241304330346551
20
-33.464695669653452
0
LWPOLYLINE
5
303
100
AcDbEntity
8
0
100
AcDbPolyline
90
4
70
1
43
0.0
10
23.522499999999997
20
-32.964695669653452
10
19.176500000000001
20
-32.964695669653452
10
14.830695303479384
20
-28.603000000000002
10
19.176500000000001
20
-28.603000000000002
0
LWPOLYLINE
5
304
100
AcDbEntity
8
0
100
AcDbPolyline
90
4
70
1
43
0.0
10
19.288195669653447
20
-19.288195669653451
10
23.241304330346544
20
-19.288195669653451
10
23.241304330346544
20
-23.241304330346551
10
19.288195669653447
20
-23.241304330346551
0
LWPOLYLINE
5
305
100
AcDbEntity
8
0
100
AcDbPolyline
90
4
70
1
43
0.0
10
-33.464695669653459
20
-33.464695669653452
10
-37.417804330346549
20
-33.464695669653452
10
-37.417804330346549
20
-37.417804330346556
10
-33.464695669653459
20
-37.417804330346549
0
LWPOLYLINE
5
306
100
AcDbEntity
8
0
100
AcDbPolyline
90
4
70
1
43
0.0
10
19.006999999999998
20
-37.917804330346556
10
23.353000000000002
20
-37.917804330346556
10
27.698804696520611
20
-42.279499999999999
10
23.353000000000002
20
-42.279499999999999
0
LWPOLYLINE
5
307
100
AcDbEntity
8
0
100
AcDbPolyline
90
4
70
1
43
0.0
10
23.522499999999997
20
-23.741304330346551
10
19.176500000000001
20
-28.103000000000002
10
14.830695303479384
20
-28.103000000000002
10
19.176500000000001
20
-23.741304330346551
0
LWPOLYLINE
5
308
100
AcDbEntity
8
0
100
AcDbPolyline
90
4
70
1
43
0.0
10
23.875869083343524
20
-24.110393823594087
10
19.617926787087541
20
-28.353013809274742
10
23.875882892528686
20
-32.595647554447865
10
28.103208136401232
20
-28.353000000000002
0
LWPOLYLINE
5
309
100
AcDbEntity
8
0
100
AcDbPolyline
90
3
70
1
43
0.0
10
13.92648619072526
20
-42.279513809274746
10
5.691425996638932
20
-42.279513809274746
10
13.926486190725258
20
-34.044427577538656
0
LWPOLYLINE
5
310
100
AcDbEntity
8
0
100
AcDbPolyline
90
4
70
1
43
0.0
10
0.65419530347938348
20
-42.279499999999999
10
5
20
-37.917804330346556
10
9.3459999999999983
20
-37.917804330346556
10
5
20
-42.279499999999999
0
LWPOLYLINE
5
311
100
AcDbEntity
8
0
100
AcDbPolyline
90
3
70
1
43
0.0
10
34.044425996638935
20
-42.279513809274746
10
42.279486190725265
20
-34.044427577538656
10
42.279486190725265
20
-42.279513809274746
0
LWPOLYLINE
5
312
100
AcDbEntity
8
0
100
AcDbPolyline
90
4
70
1
43
0.0
10
37.417804330346549
20
-23.241304330346555
10
37.417804330346549
20
-19.288195669653451
10
33.464695669653452
20
-19.288195669653451
10
33.464695669653452
20
-23.241304330346555
0
LWPOLYLINE
5
313
100
AcDbEntity
8
0
100
AcDbPolyline
90
4
70
1
43
0.0
10
37.698999999999998
20
-37.917804330346556
10
33.353000000000002
20
-42.279499999999999
10
29.007195303479385
20
-42.279499999999999
10
33.353000000000002
20
-37.917804330346556
0
LWPOLYLINE
5
314
100
AcDbEntity
8
0
100
AcDbPolyline
90
4
70
1
43
0.0
10
-19.007000000000001
20
-18.788195669653447
10
-23.353000000000002
20
-18.788195669653447
10
-27.698804696520618
20
-14.426500000000001
10
-23.353000000000002
20
-14.426500000000001
0
LWPOLYLINE
5
315
100
AcDbEntity
8
0
100
AcDbPolyline
90
4
70
1
43
0.0
10
8.7350732129124555
20
-28.353013809274742
10
4.4771171074713116
20
-32.595647554447865
10
0.24979186359876726
20
-28.353000000000002
10
4.4771309166564794
20
-24.110393823594087
0
LWPOLYLINE
5
316
100
AcDbEntity
8
0
100
AcDbPolyline
90
4
70
1
43
0.0
10
4.8304999999999998
20
-23.741304330346551
10
9.1765000000000008
20
-23.741304330346551
10
13.522304696520614
20
-28.103000000000002
10
9.1765000000000008
20
-28.103000000000002
0
LWPOLYLINE
5
317
100
AcDbEntity
8
0
100
AcDbPolyline
90
4
70
1
43
0.0
10
5.1116956696534519
20
-23.241304330346555
10
9.0648043303465489
20
-23.241304330346555
10
9.0648043303465471
20
-19.288195669653451
10
5.1116956696534501
20
-19.288195669653451
0
LWPOLYLINE
5
318
100
AcDbEntity
8
0
100
AcDbPolyline
90
4
70
1
43
0.0
10
4.8304999999999998
20
-32.964695669653452
10
9.1765000000000008
20
-28.603000000000002
10
13.522304696520614
20
-28.603000000000002
10
9.1765000000000008
20
-32.964695669653452
0
LWPOLYLINE
5
319
100
AcDbEntity
8
0
100
AcDbPolyline
90
3
70
1
43
0.0
10
14.426486190725253
20
-42.279513809274746
10
14.426486190725253
20
-34.044426787087552
10
22.661573212912455
20
-42.279513809274746
0
LWPOLYLINE
5
320
100
AcDbEntity
8
0
100
AcDbPolyline
90
4
70
1
43
0.0
10
32.595606176405916
20
-23.875869083343524
10
28.352986190725254
20
-19.617926787087548
10
24.110352445552124
20
-23.875882892528693
10
28.353000000000002
20
-28.103208136401236
0
LWPOLYLINE
5
321
100
AcDbEntity
8
0
100
AcDbPolyline
90
4
70
1
43
0.0
10
37.917804330346556
20
-19.006999999999998
10
42.279499999999999
20
-23.353000000000002
10
42.279499999999999
20
-27.698804696520614
10
37.917804330346556
20
-23.353000000000002
0
LWPOLYLINE
5
322
100
AcDbEntity
8
0
100
AcDbPolyline
90
4
70
1
43
0.0
10
-37.699000000000005
20
-18.788195669653447
10
-33.353000000000002
20
-18.788195669653447
10
-29.007195303479392
20
-14.426500000000001
10
-33.353000000000002
20
-14.426500000000001
0
LWPOLYLINE
5
323
100
AcDbEntity
8
0
100
AcDbPolyline
90
4
70
1
43
0.0
10
33.183500000000002
20
-23.741304330346551
10
37.529499999999999
20
-28.103000000000002
10
41.875304696520615
20
-28.103000000000002
10
37.529499999999999
20
-23.741304330346551
0
LWPOLYLINE
5
324
100
AcDbEntity
8
0
100
AcDbPolyline
90
4
70
1
43
0.0
10
28.602791863598771
20
-28.353000000000002
10
32.830130916656479
20
-24.110393823594087
10
37.088073212912455
20
-28.353013809274742
10
32.830117107471317
20
-32.595647554447865
0
LWPOLYLINE
5
325
100
AcDbEntity
8
0
100
AcDbPolyline
90
4
70
1
43
0.0
10
18.788195669653447
20
-19.007000000000001
10
14.426499999999995
20
-23.353000000000002
10
14.426499999999995
20
-27.698804696520614
10
18.788195669653447
20
-23.353000000000002
0
LWPOLYLINE
5
326
100
AcDbEntity
8
0
100
AcDbPolyline
90
4
70
1
43
0.0
10
41.875304696520615
20
-28.603000000000002
10
37.529499999999999
20
-32.964695669653452
10
33.183500000000002
20
-32.964695669653452
10
37.529499999999999
20
-28.603000000000002
0
LWPOLYLINE
5
327
100
AcDbEntity
8
0
100
AcDbPolyline
90
4
70
1
43
0.0
10
13.926500000000001
20
-27.698804696520614
10
9.5648043303465524
20
-23.353000000000002
10
9.5648043303465542
20
-19.006999999999998
10
13.926500000000001
20
-23.353000000000002
0
LWPOLYLINE
5
328
100
AcDbEntity
8
0
100
AcDbPolyline
90
4
70
1
43
0.0
10
40
20
40
10
-40
20
40
10
-40
20
-40
10
40
20
-40
0
LWPOLYLINE
5
329
100
AcDbEntity
8
0
100
AcDbPolyline
90
4
70
1
43
0.0
10
32.595606176405916
20
32.830130916656479
10
28.352986190725254
20
37.088073212912455
10
24.110352445552124
20
32.83011710747131
10
28.353000000000002
20
28.602791863598767
0
LWPOLYLINE
5
330
100
AcDbEntity
8
0
100
AcDbPolyline
90
4
70
1
43
0.0
10
-23.741304330346551
20
33.183499999999995
10
-28.103000000000009
20
37.529499999999999
10
-28.103000000000009
20
41.875304696520615
10
-23.741304330346551
20
37.529499999999999
0
LWPOLYLINE
5
331
100
AcDbEntity
8
0
100
AcDbPolyline
90
3
70
1
43
0.0
10
13.926486190725258
20
22.661572422461347
10
13.92648619072526
20
14.426486190725258
10
5.691425996638932
20
14.426486190725258
0
LWPOLYLINE
5
332
100
AcDbEntity
8
0
100
AcDbPolyline
90
4
70
1
43
0.0
10
24.110352445552135
20
23.875882892528693
10
28.353000000000002
20
28.103208136401236
10
32.595606176405916
20
23.875869083343524
10
28.352986190725254
20
19.617926787087548
0
LWPOLYLINE
5
333
100
AcDbEntity
8
0
100
AcDbPolyline
90
4
70
1
43
0.0
10
29.007195303479385
20
14.426500000000001
10
33.353000000000002
20
18.788195669653447
10
37.698999999999998
20
18.788195669653447
10
33.353000000000002
20
14.426500000000001
0
LWPOLYLINE
5
334
100
AcDbEntity
8
0
100
AcDbPolyline
90
4
70
1
43
0.0
10
-9.0648043303465542
20
37.417804330346556
10
-5.1116956696534537
20
37.417804330346556
10
-5.1116956696534537
20
33.464695669653452
10
-9.0648043303465542
20
33.464695669653452
0
LWPOLYLINE
5
335
100
AcDbEntity
8
0
100
AcDbPolyline
90
4
70
1
43
0.0
10
42.279499999999999
20
27.698804696520614
10
37.917804330346556
20
23.353000000000002
10
37.917804330346549
20
19.007000000000001
10
42.279499999999999
20
23.353000000000002
0
LWPOLYLINE
5
336
100
AcDbEntity
8
0
100
AcDbPolyline
90
4
70
1
43
0.0
10
27.698804696520611
20
14.426500000000001
10
23.353000000000002
20
14.426500000000001
10
19.006999999999998
20
18.788195669653447
10
23.353000000000002
20
18.788195669653447
0
LWPOLYLINE
5
337
100
AcDbEntity
8
0
100
AcDbPolyline
90
4
70
1
43
0.0
10
-29.007195303479392
20
14.426500000000001
10
-33.353000000000002
20
14.426500000000001
10
-37.699000000000005
20
18.788195669653447
10
-33.353000000000002
20
18.788195669653447
0
LWPOLYLINE
5
338
100
AcDbEntity
8
0
100
AcDbPolyline
90
3
70
1
43
0.0
10
22.661573212912455
20
14.426486190725258
10
14.426486190725253
20
22.661573212912455
10
14.426486190725253
20
14.426486190725258
0
LWPOLYLINE
5
339
100
AcDbEntity
8
0
100
AcDbPolyline
90
4
70
1
43
0.0
10
37.417804330346549
20
33.464695669653452
10
37.417804330346549
20
37.417804330346549
10
33.464695669653452
20
37.417804330346549
10
33.464695669653452
20
33.464695669653452
0
LWPOLYLINE
5
340
100
AcDbEntity
8
0
100
AcDbPolyline
90
4
70
1
43
0.0
10
37.698999999999998
20
37.917804330346556
10
33.353000000000002
20
37.917804330346556
10
29.007195303479385
20
42.279499999999999
10
33.353000000000002
20
42.279499999999999
0
LWPOLYLINE
5
341
100
AcDbEntity
8
0
100
AcDbPolyline
90
3
70
1
43
0.0
10
-14.426513809274741
20
42.279486190725265
10
-22.661573212912462
20
42.279486190725265
10
-14.426513809274741
20
34.044426787087552
0
LWPOLYLINE
5
342
100
AcDbEntity
8
0
100
AcDbPolyline
90
4
70
1
43
0.0
10
28.103208136401232
20
28.353000000000002
10
23.875869083343524
20
32.595606176405916
10
19.617926787087541
20
28.352986190725261
10
23.875882892528686
20
24.110352445552135
0
LWPOLYLINE
5
343
100
AcDbEntity
8
0
100
AcDbPolyline
90
4
70
1
43
0.0
10
32.830117107471317
20
24.110352445552135
10
28.602791863598771
20
28.353000000000002
10
32.830130916656479
20
32.595606176405916
10
37.088073212912455
20
28.352986190725261
0
LWPOLYLINE
5
344
100
AcDbEntity
8
0
100
AcDbPolyline
90
4
70
1
43
0.0
10
37.417804330346549
20
19.288195669653447
10
33.464695669653459
20
19.288195669653451
10
33.464695669653452
20
23.241304330346555
10
37.417804330346549
20
23.241304330346551
0
LWPOLYLINE
5
345
100
AcDbEntity
8
0
100
AcDbPolyline
90
4
70
1
43
0.0
10
-23.522500000000001
20
32.964695669653452
10
-19.176500000000001
20
28.603000000000002
10
-14.830695303479388
20
28.603000000000002
10
-19.176500000000001
20
32.964695669653452
0
LWPOLYLINE
5
346
100
AcDbEntity
8
0
100
AcDbPolyline
90
4
70
1
43
0.0
10
-32.964695669653459
20
33.183500000000002
10
-28.603000000000005
20
37.529499999999999
10
-28.603000000000005
20
41.875304696520615
10
-32.964695669653452
20
37.529499999999999
0
LWPOLYLINE
5
347
100
AcDbEntity
8
0
100
AcDbPolyline
90
4
70
1
43
0.0
10
-19.007000000000001
20
37.917804330346556
10
-23.353000000000002
20
37.917804330346556
10
-27.698804696520618
20
42.279499999999999
10
-23.353000000000002
20
42.279499999999999
0
LWPOLYLINE
5
348
100
AcDbEntity
8
0
100
AcDbPolyline
90
4
70
1
43
0.0
10
23.741304330346544
20
33.183500000000002
10
23.741304330346551
20
37.529499999999999
10
28.102999999999998
20
41.875304696520615
10
28.102999999999998
20
37.529499999999999
0
LWPOLYLINE
5
349
100
AcDbEntity
8
0
100
AcDbPolyline
90
4
70
1
43
0.0
10
-23.875869083343524
20
32.595606176405916
10
-19.617926787087544
20
28.352986190725261
10
-23.875882892528686
20
24.110352445552135
10
-28.103208136401232
20
28.353000000000002
0
LWPOLYLINE
5
350
100
AcDbEntity
8
0
100
AcDbPolyline
90
4
70
1
43
0.0
10
28.602999999999994
20
14.830695303479388
10
32.964695669653452
20
19.176500000000001
10
32.964695669653452
20
23.522500000000001
10
28.602999999999994
20
19.176500000000001
0
LWPOLYLINE
5
351
100
AcDbEntity
8
0
100
AcDbPolyline
90
4
70
1
43
0.0
10
-33.464695669653459
20
19.288195669653451
10
-33.464695669653459
20
23.241304330346555
10
-37.417804330346549
20
23.241304330346551
10
-37.417804330346549
20
19.288195669653451
0
LWPOLYLINE
5
352
100
AcDbEntity
8
0
100
AcDbPolyline
90
4
70
1
43
0.0
10
41.875304696520615
20
28.103000000000002
10
37.529499999999999
20
23.741304330346551
10
33.183500000000002
20
23.741304330346551
10
37.529499999999999
20
28.103000000000002
0
LWPOLYLINE
5
353
100
AcDbEntity
8
0
100
AcDbPolyline
90
4
70
1
43
0.0
10
-28.602791863598771
20
28.353000000000002
10
-32.830130916656479
20
32.595606176405916
10
-37.088073212912462
20
28.352986190725261
10
-32.830117107471317
20
24.110352445552135
0
LWPOLYLINE
5
354
100
AcDbEntity
8
0
100
AcDbPolyline
90
4
70
1
43
0.0
10
-37.699000000000005
20
37.917804330346556
10
-33.353000000000002
20
42.279499999999999
10
-29.007195303479392
20
42.279499999999999
10
-33.353000000000002
20
37.917804330346556
0
LWPOLYLINE
5
355
100
AcDbEntity
8
0
100
AcDbPolyline
90
4
70
1
43
0.0
10
-4.8305000000000025
20
32.964695669653452
10
-9.1765000000000008
20
28.603000000000002
10
-13.522304696520617
20
28.603000000000002
10
-9.1765000000000008
20
32.964695669653452
0
LWPOLYLINE
5
356
100
AcDbEntity
8
0
100
AcDbPolyline
90
4
70
1
43
0.0
10
-33.183500000000009
20
32.964695669653452
10
-37.529499999999999
20
32.964695669653452
10
-41.875304696520615
20
28.603000000000002
10
-37.529499999999999
20
28.603000000000002
0
LWPOLYLINE
5
357
100
AcDbEntity
8
0
100
AcDbPolyline
90
4
70
1
43
0.0
10
-19.288195669653454
20
37.417804330346549
10
-23.241304330346551
20
37.417804330346549
10
-23.241304330346551
20
33.464695669653452
10
-19.288195669653451
20
33.464695669653452
0
LWPOLYLINE
5
358
100
AcDbEntity
8
0
100
AcDbPolyline
90
4
70
1
43
0.0
10
-37.417804330346556
20
37.417804330346556
10
-33.464695669653459
20
37.417804330346556
10
-33.464695669653459
20
33.464695669653452
10
-37.417804330346556
20
33.464695669653452
0
LWPOLYLINE
5
359
100
AcDbEntity
8
0
100
AcDbPolyline
90
4
70
1
43
0.0
10
-28.353000000000002
20
28.602791863598767
10
-24.110393823594087
20
32.830130916656479
10
-28.353013809274749
20
37.088073212912455
10
-32.595647554447879
20
32.83011710747131
0
LWPOLYLINE
5
360
100
AcDbEntity
8
0
100
AcDbPolyline
90
4
70
1
43
0.0
10
-9.3460000000000054
20
37.917804330346556
10
-5
20
37.917804330346556
10
-0.65419530347939236
20
42.279499999999999
10
-5
20
42.279499999999999
0
LWPOLYLINE
5
361
100
AcDbEntity
8
0
100
AcDbPolyline
90
4
70
1
43
0.0
10
33.183500000000002
20
32.964695669653452
10
37.529499999999999
20
28.603000000000002
10
41.875304696520615
20
28.603000000000002
10
37.529499999999999
20
32.964695669653452
0
LWPOLYLINE
5
362
100
AcDbEntity
8
0
100
AcDbPolyline
90
3
70
1
43
0.0
10
-5.6914275775386542
20
42.279486190725265
10
-13.926513809274748
20
42.279486190725265
10
-13.926513809274748
20
34.044425996638942
0
LWPOLYLINE
5
363
100
AcDbEntity
8
0
100
AcDbPolyline
90
4
70
1
43
0.0
10
42.279499999999999
20
29.007195303479389
10
42.279499999999999
20
33.353000000000002
10
37.917804330346556
20
37.699000000000005
10
37.917804330346556
20
33.353000000000002
0
LWPOLYLINE
5
364
100
AcDbEntity
8
0
100
AcDbPolyline
90
4
70
1
43
0.0
10
0.24979186359876726
20
28.353000000000002
10
4.4771309166564794
20
32.595606176405916
10
8.7350732129124555
20
28.352986190725261
10
4.4771171074713116
20
24.110352445552135
0
LWPOLYLINE
5
365
100
AcDbEntity
8
0
100
AcDbPolyline
90
4
70
1
43
0.0
10
-4.6116956696534483
20
23.522500000000008
10
-0.25000000000000355
20
19.176500000000001
10
-0.25000000000000355
20
14.830695303479388
10
-4.6116956696534483
20
19.176500000000004
0
LWPOLYLINE
5
366
100
AcDbEntity
8
0
100
AcDbPolyline
90
4
70
1
43
0.0
10
4.6116956696534483
20
33.183499999999995
10
0.24999999999999467
20
37.529499999999999
10
0.24999999999999467
20
41.875304696520615
10
4.6116956696534483
20
37.529499999999999
0
LWPOLYLINE
5
367
100
AcDbEntity
8
0
100
AcDbPolyline
90
4
70
1
43
0.0
10
5.1116956696534501
20
37.417804330346549
10
5.1116956696534519
20
33.464695669653452
10
9.0648043303465489
20
33.464695669653452
10
9.0648043303465471
20
37.417804330346549
0
LWPOLYLINE
5
368
100
AcDbEntity
8
0
100
AcDbPolyline
90
4
70
1
43
0.0
10
0
20
28.103208136401236
10
4.2426061764059142
20
23.875869083343524
10
-1.3809274745923972e-05
20
19.617926787087548
10
-4.242647554447867
20
23.875882892528693
0
LWPOLYLINE
5
369
100
AcDbEntity
8
0
100
AcDbPolyline
90
4
70
1
43
0.0
10
4.2426061764059142
20
32.830130916656479
10
-1.3809274745923972e-05
20
37.088073212912455
10
-4.2426475544478759
20
32.83011710747131
10
0
20
28.602791863598767
0
LWPOLYLINE
5
370
100
AcDbEntity
8
0
100
AcDbPolyline
90
3
70
1
43
0.0
10
-13.926513809274748
20
14.426486190725258
10
-13.926513809274748
20
22.661573212912455
10
-5.6914267870875479
20
14.426486190725258
0
LWPOLYLINE
5
371
100
AcDbEntity
8
0
100
AcDbPolyline
90
4
70
1
43
0.0
10
-9.0648043303465453
20
23.241304330346551
10
-9.0648043303465453
20
19.288195669653451
10
-5.1116956696534537
20
19.288195669653451
10
-5.1116956696534537
20
23.241304330346555
0
LWPOLYLINE
5
372
100
AcDbEntity
8
0
100
AcDbPolyline
90
4
70
1
43
0.0
10
0.65419530347938348
20
14.426500000000001
10
5
20
14.426500000000001
10
9.3459999999999983
20
18.788195669653447
10
5
20
18.788195669653447
0
LWPOLYLINE
5
373
100
AcDbEntity
8
0
100
AcDbPolyline
90
4
70
1
43
0.0
10
-23.241304330346544
20
19.288195669653451
10
-23.241304330346551
20
23.241304330346555
10
-19.288195669653454
20
23.241304330346551
10
-19.288195669653451
20
19.288195669653447
0
LWPOLYLINE
5
374
100
AcDbEntity
8
0
100
AcDbPolyline
90
4
70
1
43
0.0
10
32.964695669653452
20
33.183499999999995
10
32.964695669653452
20
37.529499999999999
10
28.602999999999994
20
41.875304696520615
10
28.602999999999994
20
37.529499999999999
0
LWPOLYLINE
5
375
100
AcDbEntity
8
0
100
AcDbPolyline
90
4
70
1
43
0.0
10
-9.3460000000000054
20
18.788195669653447
10
-5
20
18.788195669653447
10
-0.65419530347939236
20
14.426500000000001
10
-5
20
14.426500000000001
0
LWPOLYLINE
5
376
100
AcDbEntity
8
0
100
AcDbPolyline
90
4
70
1
43
0.0
10
-13.522304696520617
20
28.103000000000002
10
-9.1765000000000008
20
28.103000000000002
10
-4.8305000000000025
20
23.741304330346551
10
-9.1765000000000008
20
23.741304330346551
0
LWPOLYLINE
5
377
100
AcDbEntity
8
0
100
AcDbPolyline
90
4
70
1
43
0.0
10
9.0648043303465506
20
19.288195669653447
10
5.1116956696534537
20
19.288195669653451
10
5.111695669653451
20
23.241304330346555
10
9.0648043303465471
20
23.241304330346551
0
LWPOLYLINE
5
378
100
AcDbEntity
8
0
100
AcDbPolyline
90
4
70
1
43
0.0
10
-23.741304330346551
20
23.522500000000001
10
-23.741304330346551
20
19.176500000000001
10
-28.103000000000009
20
14.830695303479388
10
-28.103000000000009
20
19.176500000000001
0
LWPOLYLINE
5
379
100
AcDbEntity
8
0
100
AcDbPolyline
90
4
70
1
43
0.0
10
-33.183500000000009
20
23.741304330346551
10
-37.529499999999999
20
23.741304330346551
10
-41.875304696520615
20
28.103000000000002
10
-37.529499999999999
20
28.103000000000002
0
LWPOLYLINE
5
380
100
AcDbEntity
8
0
100
AcDbPolyline
90
3
70
1
43
0.0
10
34.044425996638935
20
14.426486190725258
10
42.279486190725265
20
22.661572422461347
10
42.279486190725265
20
14.426486190725258
0
LWPOLYLINE
5
381
100
AcDbEntity
8
0
100
AcDbPolyline
90
4
70
1
43
0.0
10
-28.353013809274749
20
19.617926787087548
10
-32.595647554447865
20
23.875882892528693
10
-28.353000000000002
20
28.103208136401236
10
-24.110393823594087
20
23.875869083343524
0
LWPOLYLINE
5
382
100
AcDbEntity
8
0
100
AcDbPolyline
90
4
70
1
43
0.0
10
-37.917804330346556
20
37.699000000000005
10
-37.917804330346556
20
33.353000000000002
10
-42.279500000000006
20
29.007195303479389
10
-42.279500000000006
20
33.353000000000002
0
LWPOLYLINE
5
383
100
AcDbEntity
8
0
100
AcDbPolyline
90
4
70
1
43
0.0
10
-27.698804696520618
20
14.426500000000001
10
-23.353000000000002
20
14.426500000000001
10
-19.007000000000001
20
18.788195669653447
10
-23.353000000000002
20
18.788195669653447
0
LWPOLYLINE
5
384
100
AcDbEntity
8
0
100
AcDbPolyline
90
4
70
1
43
0.0
10
-9.5648043303465524
20
19.006999999999998
10
-9.5648043303465524
20
23.353000000000002
10
-13.926500000000006
20
27.698804696520614
10
-13.926500000000006
20
23.353000000000002
0
LWPOLYLINE
5
385
100
AcDbEntity
8
0
100
AcDbPolyline
90
4
70
1
43
0.0
10
-28.603000000000005
20
14.830695303479388
10
-28.603000000000005
20
19.176500000000001
10
-32.964695669653452
20
23.522500000000008
10
-32.964695669653452
20
19.176500000000004
0
LWPOLYLINE
5
386
100
AcDbEntity
8
0
100
AcDbPolyline
90
4
70
1
43
0.0
10
-18.788195669653454
20
19.007000000000001
10
-18.788195669653451
20
23.353000000000002
10
-14.426500000000001
20
27.698804696520614
10
-14.426500000000003
20
23.353000000000002
0
LWPOLYLINE
5
387
100
AcDbEntity
8
0
100
AcDbPolyline
90
4
70
1
43
0.0
10
-18.788195669653447
20
37.699000000000005
10
-14.426500000000001
20
33.353000000000002
10
-14.426500000000001
20
29.007195303479389
10
-18.788195669653447
20
33.353000000000002
0
LWPOLYLINE
5
388
100
AcDbEntity
8
0
100
AcDbPolyline
90
4
70
1
43
0.0
10
-9.5648043303465524
20
37.699000000000005
10
-13.926500000000006
20
33.353000000000002
10
-13.926500000000006
20
29.007195303479389
10
-9.5648043303465524
20
33.353000000000002
0
LWPOLYLINE
5
389
100
AcDbEntity
8
0
100
AcDbPolyline
90
4
70
1
43
0.0
10
0.24999999999999467
20
14.830695303479388
10
0.24999999999999467
20
19.176500000000001
10
4.6116956696534483
20
23.522500000000001
10
4.6116956696534483
20
19.176500000000001
0
LWPOLYLINE
5
390
100
AcDbEntity
8
0
100
AcDbPolyline
90
4
70
1
43
0.0
10
28.102999999999998
20
14.830695303479388
10
28.102999999999998
20
19.176500000000001
10
23.741304330346551
20
23.522500000000008
10
23.741304330346551
20
19.176500000000004
0
LWPOLYLINE
5
391
100
AcDbEntity
8
0
100
AcDbPolyline
90
3
70
1
43
0.0
10
-14.426513809274743
20
22.661572422461347
10
-14.426513809274741
20
14.426486190725258
10
-22.661574003361071
20
14.426486190725258
0
LWPOLYLINE
5
392
100
AcDbEntity
8
0
100
AcDbPolyline
90
4
70
1
43
0.0
10
-37.917804330346556
20
19.006999999999998
10
-37.917804330346556
20
23.353000000000002
10
-42.279500000000006
20
27.698804696520614
10
-42.279500000000006
20
23.353000000000002
0
LWPOLYLINE
5
393
100
AcDbEntity
8
0
100
AcDbPolyline
90
4
70
1
43
0.0
10
19.288195669653454
20
19.288195669653451
10
23.241304330346544
20
19.288195669653451
10
23.241304330346544
20
23.241304330346555
10
19.288195669653454
20
23.241304330346551
0
LWPOLYLINE
5
394
100
AcDbEntity
8
0
100
AcDbPolyline
90
4
70
1
43
0.0
10
4.8304999999999998
20
23.741304330346551
10
9.1765000000000008
20
23.741304330346551
10
13.522304696520614
20
28.103000000000002
10
9.1765000000000008
20
28.103000000000002
0
LWPOLYLINE
5
395
100
AcDbEntity
8
0
100
AcDbPolyline
90
4
70
1
43
0.0
10
-4.4771309166564794
20
32.595606176405916
10
-8.7350732129124609
20
28.352986190725261
10
-4.4771171074713152
20
24.110352445552135
10
-0.2497918635987717
20
28.353000000000002
0
LWPOLYLINE
5
396
100
AcDbEntity
8
0
100
AcDbPolyline
90
4
70
1
43
0.0
10
-14.830695303479388
20
28.103000000000002
10
-19.176500000000001
20
28.103000000000002
10
-23.522500000000001
20
23.741304330346551
10
-19.176500000000001
20
23.741304330346551
0
LWPOLYLINE
5
397
100
AcDbEntity
8
0
100
AcDbPolyline
90
4
70
1
43
0.0
10
4.8304999999999998
20
32.964695669653452
10
9.1765000000000008
20
32.964695669653452
10
13.522304696520614
20
28.603000000000002
10
9.1765000000000008
20
28.603000000000002
0
LWPOLYLINE
5
398
100
AcDbEntity
8
0
100
AcDbPolyline
90
3
70
1
43
0.0
10
-34.044426787087552
20
14.426486190725258
10
-42.279513809274754
20
22.661573212912455
10
-42.279513809274754
20
14.426486190725258
0
LWPOLYLINE
5
399
100
AcDbEntity
8
0
100
AcDbPolyline
90
4
70
1
43
0.0
10
23.241304330346544
20
37.417804330346556
10
23.241304330346544
20
33.464695669653452
10
19.288195669653447
20
33.464695669653452
10
19.288195669653447
20
37.417804330346556
0
LWPOLYLINE
5
400
100
AcDbEntity
8
0
100
AcDbPolyline
90
4
70
1
43
0.0
10
9.3459999999999983
20
37.917804330346556
10
5
20
37.917804330346556
10
0.65419530347938348
20
42.279499999999999
10
5
20
42.279499999999999
0
LWPOLYLINE
5
401
100
AcDbEntity
8
0
100
AcDbPolyline
90
3
70
1
43
0.0
10
42.279486190725265
20
42.279486190725265
10
34.044426787087538
20
42.279486190725265
10
42.279486190725265
20
34.044426787087552
0
LWPOLYLINE
5
402
100
AcDbEntity
8
0
100
AcDbPolyline
90
3
70
1
43
0.0
10
22.661572422461347
20
42.279486190725265
10
14.426486190725253
20
42.279486190725265
10
14.426486190725253
20
34.044425996638942
0
LWPOLYLINE
5
403
100
AcDbEntity
8
0
100
AcDbPolyline
90
4
70
1
43
0.0
10
18.788195669653447
20
37.699000000000005
10
18.788195669653447
20
33.353000000000002
10
14.426499999999995
20
29.007195303479389
10
14.426499999999995
20
33.353000000000002
0
LWPOLYLINE
5
404
100
AcDbEntity
8
0
100
AcDbPolyline
90
4
70
1
43
0.0
10
9.5648043303465489
20
19.007000000000001
10
9.5648043303465506
20
23.353000000000002
10
13.926500000000001
20
27.698804696520614
10
13.926499999999999
20
23.353000000000002
0
LWPOLYLINE
5
405
100
AcDbEntity
8
0
100
AcDbPolyline
90
4
70
1
43
0.0
10
9.5648043303465542
20
37.699000000000005
10
9.5648043303465524
20
33.353000000000002
10
13.926500000000001
20
29.007195303479389
10
13.926500000000001
20
33.353000000000002
0
LWPOLYLINE
5
406
100
AcDbEntity
8
0
100
AcDbPolyline
90
4
70
1
43
0.0
10
18.788195669653447
20
19.006999999999998
10
18.788195669653447
20
23.353000000000002
10
14.426499999999995
20
27.698804696520614
10
14.426499999999995
20
23.353000000000002
0
LWPOLYLINE
5
407
100
AcDbEntity
8
0
100
AcDbPolyline
90
3
70
1
43
0.0
10
-42.279513809274754
20
34.044425996638942
10
-34.044427577538656
20
42.279486190725265
10
-42.279513809274754
20
42.279486190725265
0
LWPOLYLINE
5
408
100
AcDbEntity
8
0
100
AcDbPolyline
90
4
70
1
43
0.0
10
23.522499999999997
20
32.964695669653452
10
19.176500000000001
20
32.964695669653452
10
14.830695303479384
20
28.603000000000002
10
19.176500000000001
20
28.603000000000002
0
LWPOLYLINE
5
409
100
AcDbEntity
8
0
100
AcDbPolyline
90
4
70
1
43
0.0
10
19.006999999999998
20
37.917804330346556
10
23.353000000000002
20
37.917804330346556
10
27.698804696520611
20
42.279499999999999
10
23.353000000000002
20
42.279499999999999
0
LWPOLYLINE
5
410
100
AcDbEntity
8
0
100
AcDbPolyline
90
4
70
1
43
0.0
10
23.522499999999997
20
23.741304330346551
10
19.176500000000001
20
23.741304330346551
10
14.830695303479384
20
28.103000000000002
10
19.176500000000001
20
28.103000000000002
0
LWPOLYLINE
5
411
100
AcDbEntity
8
0
100
AcDbPolyline
90
4
70
1
43
0.0
10
-4.6116956696534572
20
33.183500000000002
10
-4.6116956696534483
20
37.529499999999999
10
-0.25000000000000355
20
41.875304696520615
10
-0.25000000000000355
20
37.529499999999999
0
LWPOLYLINE
5
412
100
AcDbEntity
8
0
100
AcDbPolyline
90
3
70
1
43
0.0
10
5.691426787087539
20
42.279486190725265
10
13.92648619072526
20
34.044426787087552
10
13.92648619072526
20
42.279486190725265
0
ENDSEC
0
SECTION
2
OBJECTS
0
DICTIONARY
5
C
100
AcDbDictionary
3
ACAD_GROUP
350
D
3
ACAD_MLINESTYLE
350
17
0
DICTIONARY
5
D
100
AcDbDictionary
0
DICTIONARY
5
1A
330
C
100
AcDbDictionary
0
DICTIONARY
5
17
100
AcDbDictionary
0
ENDSEC
0
EOF
