0
SECTION
2
HEADER
9
$INSUNITS
70
4
9
$ACADVER
1
AC1014
9
$HANDSEED
5
FFFF
0
ENDSEC
0
SECTION
2
TABLES
0
TABLE
2
VPORT
5
8
100
AcDbSymbolTable
0
ENDTAB
0
TABLE
2
LTYPE
5
5
100
AcDbSymbolTable
0
LTYPE
5
14
100
AcDbSymbolTableRecord
100
AcDbLinetypeTableRecord
2
BYBLOCK
70
0
0
LTYPE
5
15
100
AcDbSymbolTableRecord
100
AcDbLinetypeTableRecord
2
BYLAYER
70
0
0
LTYPE
5
16
100
AcDbSymbolTableRecord
100
AcDbLinetypeTableRecord
2
DASHED
70
0
3
Dashed __ __ __ __ __ __ __ __ __ __ __ __ __ _
72
65
73
2
40
0.75
49
0.5
74
0
49
-0.25
74
0
0
ENDTAB
0
TABLE
2
LAYER
5
2
100
AcDbSymbolTable
70
2
0
LAYER
5
50
100
AcDbSymbolTableRecord
100
AcDbLayerTableRecord
2
0
70
0
62
7
6
CONTINUOUS
0
ENDTAB
0
TABLE
2
STYLE
5
3
100
AcDbSymbolTable
70
1
0
STYLE
5
11
100
AcDbSymbolTableRecord
100
AcDbTextStyleTableRecord
2
STANDARD
70
0
0
ENDTAB
0
TABLE
2
VIEW
5
6
100
AcDbSymbolTable
70
0
0
ENDTAB
0
TABLE
2
UCS
5
7
100
AcDbSymbolTable
70
0
0
ENDTAB
0
TABLE
2
APPID
5
9
100
AcDbSymbolTable
70
2
0
APPID
5
12
100
AcDbSymbolTableRecord
100
AcDbRegAppTableRecord
2
ACAD
70
0
0
ENDTAB
0
TABLE
2
DIMSTYLE
5
A
100
AcDbSymbolTable
70
1
0
ENDTAB
0
TABLE
2
BLOCK_RECORD
5
1
100
AcDbSymbolTable
70
1
0
BLOCK_RECORD
5
1F
100
AcDbSymbolTableRecord
100
AcDbBlockTableRecord
2
*MODEL_SPACE
0
BLOCK_RECORD
5
1B
100
AcDbSymbolTableRecord
100
AcDbBlockTableRecord
2
*PAPER_SPACE
0
ENDTAB
0
ENDSEC
0
SECTION
2
BLOCKS
0
BLOCK
5
20
100
AcDbEntity
100
AcDbBlockBegin
2
*MODEL_SPACE
0
ENDBLK
5
21
100
AcDbEntity
100
AcDbBlockEnd
0
BLOCK
5
1C
100
AcDbEntity
100
AcDbBlockBegin
2
*PAPER_SPACE
0
ENDBLK
5
1D
100
AcDbEntity
100
AcDbBlockEnd
0
ENDSEC
0
SECTION
2
ENTITIES
0
POINT
5
100
100
AcDbEntity
8
0
100
AcDbPoint
10
0
20
0
30
0
0
POINT
5
101
100
AcDbEntity
8
0
100
AcDbPoint
10
0
20
0
30
0
0
LWPOLYLINE
5
102
100
AcDbEntity
8
0
100
AcDbPolyline
90
6
70
1
43
0.0
10
-29.834112827701873
20
-34.132191583896542
10
-31.727474684358473
20
-34.132191583896542
42
-0.41421356237309992
10
-34.390069878818863
20
-31.469596389436166
10
-34.390069878818863
20
31.544568988397565
42
-0.41421356237309265
10
-31.727474684358462
20
34.207164182857937
10
-29.834112827701876
20
34.207164182857937
0
LWPOLYLINE
5
103
100
AcDbEntity
8
0
100
AcDbPolyline
90
10
70
1
43
0.0
10
11.613496972395829
20
-29.576234532779573
10
-11.610331232072017
20
-29.576234532779573
10
-11.610331232072017
20
-2.2404922260777842
10
-16.166282529062752
20
-2.2404922260777842
10
-16.166282529062752
20
-29.576234532779576
10
-20.722245334305939
20
-29.576234532779576
10
-20.722245334305942
20
34.207164182857937
10
-25.278202385422908
20
34.207164182857937
10
-25.278202385422908
20
-34.132191583896564
10
11.613496972395827
20
-34.13219158389655
0
LWPOLYLINE
5
104
100
AcDbEntity
8
0
100
AcDbPolyline
90
6
70
1
43
0.0
10
11.613496972395829
20
6.8714218761561465
10
11.613496972395829
20
2.3154648250391814
10
-16.16628252906278
20
2.3154648250391783
10
-16.166282529062762
20
34.207164182857937
10
-11.610331232072038
20
34.20716418285793
10
-11.610331232072026
20
6.8714218761561465
0
LWPOLYLINE
5
105
100
AcDbEntity
8
0
100
AcDbPolyline
90
13
70
1
43
0.0
10
34.393282227980649
20
2.3154648250391681
10
34.393282227980656
20
25.095250080623991
10
20.725411074629775
20
25.095250080623998
10
20.725411074629775
20
29.651207131740975
10
34.393282227980663
20
29.651207131740954
10
34.39328222798067
20
31.54456898839755
42
0.41421356237309748
10
31.730687033520294
20
34.20716418285793
10
16.169454023512799
20
34.20716418285793
10
16.169454023512785
20
20.539293029507036
10
29.837325176863683
20
20.539293029507036
10
29.837325176863686
20
6.8714218761561385
10
16.169454023512785
20
6.871421876156143
10
16.169454023512788
20
2.3154648250391787
0
LWPOLYLINE
5
106
100
AcDbEntity
8
0
100
AcDbPolyline
90
8
70
1
43
0.0
10
-7.0543741809550582
20
34.20716418285793
10
-7.0543741809550671
20
11.427378927273109
10
24.271102662430991
20
11.427378927273111
10
24.271102662430994
20
15.983335978390071
10
0.0015828701618881801
20
15.983335978390073
10
0.0015828701618875827
20
20.539293029507043
10
11.613496972395829
20
20.539293029507043
10
11.613496972395829
20
34.20716418285793
0
LWPOLYLINE
5
107
100
AcDbEntity
8
0
100
AcDbPolyline
90
4
70
1
43
0.0
10
0.0015828701619044483
20
29.651207131740978
10
4.5575399212788721
20
29.651207131740978
10
4.5575399212788703
20
25.095250080624002
10
0.0015828701619033381
20
25.095250080624002
0
LWPOLYLINE
5
108
100
AcDbEntity
8
0
100
AcDbPolyline
90
4
70
1
43
0.0
10
4.5575399212788739
20
-6.7964492771947471
10
4.5575399212788703
20
-11.352406328311716
10
0.0015828701619030605
20
-11.352406328311716
10
0.0015828701619044483
20
-6.7964492771947356
0
LWPOLYLINE
5
109
100
AcDbEntity
8
0
100
AcDbPolyline
90
8
70
1
43
0.0
10
-7.0543741809550671
20
-25.02027748166261
10
24.271102662430984
20
-25.0202774816626
10
24.271102662430991
20
-20.464320430545651
10
0.0015828701618875827
20
-20.464320430545651
10
0.0015828701618875824
20
-15.908363379428685
10
11.613496972395833
20
-15.908363379428687
10
11.613496972395829
20
-2.2404922260777909
10
-7.05437418095506
20
-2.24049222607779
0
LWPOLYLINE
5
110
100
AcDbEntity
8
0
100
AcDbPolyline
90
13
70
1
43
0.0
10
34.393282227980656
20
-11.352406328311723
10
20.725411074629765
20
-11.352406328311716
10
20.725411074629779
20
-6.7964492771947427
10
34.39328222798067
20
-6.796449277194764
10
34.393282227980649
20
-2.2404922260777953
10
16.169454023512802
20
-2.2404922260777891
10
16.169454023512785
20
-15.908363379428687
10
29.837325176863693
20
-15.908363379428689
10
29.837325176863686
20
-29.576234532779587
10
16.169454023512785
20
-29.576234532779576
10
16.169454023512785
20
-34.132191583896557
10
31.730687033520262
20
-34.132191583896571
42
0.41421356237309553
10
34.393282227980649
20
-31.469596389436198
0
LWPOLYLINE
5
111
100
AcDbEntity
8
0
100
AcDbPolyline
90
6
70
1
43
0.0
10
-31.727474684358473
20
-34.732191583896537
42
-0.41421356237309948
10
-34.990069878818872
20
-31.469596389436166
10
-34.990069878818858
20
31.544568988397572
42
-0.41421356237309148
10
-31.727474684358462
20
34.807164182857939
10
-29.234112827701875
20
34.807164182857939
10
-29.234112827701875
20
-34.732191583896537
0
LWPOLYLINE
5
112
100
AcDbEntity
8
0
100
AcDbPolyline
90
6
70
1
43
0.0
10
-11.010331232072026
20
7.4714218761561426
10
12.213496972395827
20
7.4714218761561471
10
12.213496972395831
20
1.7154648250391804
10
-16.766282529062781
20
1.7154648250391782
10
-16.76628252906276
20
34.807164182857939
10
-11.010331232072037
20
34.807164182857932
0
LWPOLYLINE
5
113
100
AcDbEntity
8
0
100
AcDbPolyline
90
13
70
1
43
0.0
10
15.569454023512787
20
1.7154648250391791
10
34.993282227980657
20
1.7154648250391675
10
34.993282227980657
20
25.695250080623989
10
21.325411074629773
20
25.695250080624
10
21.325411074629777
20
29.051207131740981
10
34.993282227980664
20
29.051207131740959
10
34.993282227980671
20
31.54456898839755
42
0.41421356237309664
10
31.730687033520283
20
34.807164182857925
10
15.569454023512801
20
34.807164182857932
10
15.569454023512785
20
19.939293029507038
10
29.237325176863685
20
19.939293029507034
10
29.237325176863685
20
7.4714218761561382
10
15.569454023512783
20
7.4714218761561408
0
LWPOLYLINE
5
114
100
AcDbEntity
8
0
100
AcDbPolyline
90
8
70
1
43
0.0
10
24.871102662430992
20
-25.620277481662601
10
24.871102662430992
20
-19.864320430545646
10
0.60158287016188772
20
-19.864320430545654
10
0.60158287016188772
20
-16.508363379428687
10
12.213496972395831
20
-16.508363379428687
10
12.213496972395831
20
-1.6404922260777901
10
-7.6543741809550614
20
-1.6404922260777903
10
-7.6543741809550685
20
-25.620277481662601
0
LWPOLYLINE
5
115
100
AcDbEntity
8
0
100
AcDbPolyline
90
10
70
1
43
0.0
10
-20.122245334305941
20
-28.976234532779568
10
-20.122245334305944
20
34.807164182857925
10
-25.878202385422917
20
34.807164182857939
10
-25.878202385422906
20
-34.732191583896537
10
12.213496972395831
20
-34.732191583896537
10
12.213496972395831
20
-28.976234532779568
10
-11.010331232072019
20
-28.976234532779568
10
-11.010331232072017
20
-1.640492226077783
10
-16.766282529062757
20
-1.6404922260777854
10
-16.766282529062757
20
-28.976234532779568
0
LWPOLYLINE
5
116
100
AcDbEntity
8
0
100
AcDbPolyline
90
13
70
1
43
0.0
10
31.730687033520265
20
-34.732191583896558
42
0.41421356237309348
10
34.993282227980657
20
-31.469596389436198
10
34.993282227980657
20
-10.752406328311723
10
21.32541107462977
20
-10.752406328311713
10
21.325411074629777
20
-7.3964492771947432
10
34.993282227980671
20
-7.3964492771947654
10
34.993282227980657
20
-1.6404922260777952
10
15.569454023512803
20
-1.6404922260777894
10
15.569454023512787
20
-16.508363379428687
10
29.237325176863685
20
-16.50836337942869
10
29.237325176863685
20
-28.976234532779586
10
15.569454023512787
20
-28.976234532779571
10
15.569454023512785
20
-34.732191583896544
0
LWPOLYLINE
5
117
100
AcDbEntity
8
0
100
AcDbPolyline
90
8
70
1
43
0.0
10
12.213496972395827
20
19.939293029507038
10
12.213496972395827
20
34.807164182857932
10
-7.6543741809550596
20
34.807164182857932
10
-7.6543741809550685
20
10.827378927273109
10
24.871102662430996
20
10.827378927273113
10
24.871102662430996
20
16.583335978390075
10
0.60158287016188672
20
16.583335978390075
10
0.60158287016188761
20
19.939293029507041
0
LWPOLYLINE
5
118
100
AcDbEntity
8
0
100
AcDbPolyline
90
4
70
1
43
0.0
10
0.60158287016190359
20
25.695250080624007
10
0.60158287016190437
20
29.051207131740973
10
3.957539921278872
20
29.051207131740973
10
3.9575399212788707
20
25.695250080624007
0
LWPOLYLINE
5
119
100
AcDbEntity
8
0
100
AcDbPolyline
90
4
70
1
43
0.0
10
0.60158287016190304
20
-10.752406328311716
10
0.60158287016190437
20
-7.3964492771947405
10
3.9575399212788733
20
-7.3964492771947477
10
3.9575399212788698
20
-10.752406328311716
0
LWPOLYLINE
5
120
100
AcDbEntity
8
0
100
AcDbPolyline
90
4
70
1
43
0.0
10
35
20
35
10
-35
20
35
10
-35
20
-35
10
35
20
-35
0
LINE
5
121
100
AcDbEntity
8
0
100
AcDbLine
10
35
20
35
30
0
11
-35
21
-35
31
0
6
DASHED
0
LINE
5
122
100
AcDbEntity
8
0
100
AcDbLine
10
-35
20
35
30
0
11
35
21
-35
31
0
6
DASHED
0
ENDSEC
0
SECTION
2
OBJECTS
0
DICTIONARY
5
C
100
AcDbDictionary
3
ACAD_GROUP
350
D
3
ACAD_MLINESTYLE
350
17
0
DICTIONARY
5
D
100
AcDbDictionary
0
DICTIONARY
5
1A
330
C
100
AcDbDictionary
0
DICTIONARY
5
17
100
AcDbDictionary
0
ENDSEC
0
EOF
