0
SECTION
2
HEADER
9
$INSUNITS
70
4
9
$ACADVER
1
AC1014
9
$HANDSEED
5
FFFF
0
ENDSEC
0
SECTION
2
TABLES
0
TABLE
2
VPORT
5
8
100
AcDbSymbolTable
0
ENDTAB
0
TABLE
2
LTYPE
5
5
100
AcDbSymbolTable
0
LTYPE
5
14
100
AcDbSymbolTableRecord
100
AcDbLinetypeTableRecord
2
BYBLOCK
70
0
0
LTYPE
5
15
100
AcDbSymbolTableRecord
100
AcDbLinetypeTableRecord
2
BYLAYER
70
0
0
LTYPE
5
16
100
AcDbSymbolTableRecord
100
AcDbLinetypeTableRecord
2
DASHED
70
0
3
Dashed __ __ __ __ __ __ __ __ __ __ __ __ __ _
72
65
73
2
40
0.75
49
0.5
74
0
49
-0.25
74
0
0
ENDTAB
0
TABLE
2
LAYER
5
2
100
AcDbSymbolTable
70
2
0
LAYER
5
50
100
AcDbSymbolTableRecord
100
AcDbLayerTableRecord
2
0
70
0
62
7
6
CONTINUOUS
0
ENDTAB
0
TABLE
2
STYLE
5
3
100
AcDbSymbolTable
70
1
0
STYLE
5
11
100
AcDbSymbolTableRecord
100
AcDbTextStyleTableRecord
2
STANDARD
70
0
0
ENDTAB
0
TABLE
2
VIEW
5
6
100
AcDbSymbolTable
70
0
0
ENDTAB
0
TABLE
2
UCS
5
7
100
AcDbSymbolTable
70
0
0
ENDTAB
0
TABLE
2
APPID
5
9
100
AcDbSymbolTable
70
2
0
APPID
5
12
100
AcDbSymbolTableRecord
100
AcDbRegAppTableRecord
2
ACAD
70
0
0
ENDTAB
0
TABLE
2
DIMSTYLE
5
A
100
AcDbSymbolTable
70
1
0
ENDTAB
0
TABLE
2
BLOCK_RECORD
5
1
100
AcDbSymbolTable
70
1
0
BLOCK_RECORD
5
1F
100
AcDbSymbolTableRecord
100
AcDbBlockTableRecord
2
*MODEL_SPACE
0
BLOCK_RECORD
5
1B
100
AcDbSymbolTableRecord
100
AcDbBlockTableRecord
2
*PAPER_SPACE
0
ENDTAB
0
ENDSEC
0
SECTION
2
BLOCKS
0
BLOCK
5
20
100
AcDbEntity
100
AcDbBlockBegin
2
*MODEL_SPACE
0
ENDBLK
5
21
100
AcDbEntity
100
AcDbBlockEnd
0
BLOCK
5
1C
100
AcDbEntity
100
AcDbBlockBegin
2
*PAPER_SPACE
0
ENDBLK
5
1D
100
AcDbEntity
100
AcDbBlockEnd
0
ENDSEC
0
SECTION
2
ENTITIES
0
LWPOLYLINE
5
100
100
AcDbEntity
8
0
100
AcDbPolyline
90
6
70
1
43
0.0
10
-31.04456898839755
20
31.890116487656851
42
0.41421356237309281
10
-33.707164182857923
20
29.22752129319646
10
-33.707164182857916
20
27.334159436539871
10
34.632191583896535
20
27.334159436539849
10
34.632191583896528
20
29.227521293196453
42
0.41421356237309953
10
31.969596389436163
20
31.89011648765684
0
LWPOLYLINE
5
101
100
AcDbEntity
8
0
100
AcDbPolyline
90
10
70
1
43
0.0
10
-33.707164182857916
20
22.778202385422915
10
34.632191583896542
20
22.778202385422894
10
34.632191583896528
20
-9.1134969723958346
10
30.076234532779562
20
-9.1134969723958328
10
30.076234532779562
20
9.1103312320720082
10
2.7404922260777838
20
9.1103312320720136
10
2.7404922260777846
20
13.666288283188974
10
30.076234532779566
20
13.666288283188967
10
30.076234532779566
20
18.222245334305931
10
-33.707164182857916
20
18.222245334305946
0
LWPOLYLINE
5
102
100
AcDbEntity
8
0
100
AcDbPolyline
90
6
70
1
43
0.0
10
-33.707164182857916
20
13.666288283188987
10
-33.707164182857923
20
9.110331232072042
10
-6.3714218761561439
20
9.110331232072026
10
-6.3714218761561492
20
-9.1134969723958257
10
-1.8154648250391845
20
-9.1134969723958275
10
-1.8154648250391767
20
13.666288283189001
0
LWPOLYLINE
5
103
100
AcDbEntity
8
0
100
AcDbPolyline
90
13
70
1
43
0.0
10
-6.3714218761561465
20
-13.669454023512781
10
-1.8154648250391832
20
-13.669454023512785
10
-1.8154648250391765
20
-31.893282227980635
10
-24.595250080623995
20
-31.893282227980642
10
-24.595250080624002
20
-18.225411074629758
10
-29.151207131740978
20
-18.225411074629761
10
-29.151207131740957
20
-31.893282227980649
10
-31.04456898839755
20
-31.893282227980649
42
-0.4142135623730967
10
-33.707164182857923
20
-29.230687033520276
10
-33.707164182857923
20
-13.66945402351279
10
-20.039293029507036
20
-13.669454023512781
10
-20.039293029507036
20
-27.337325176863672
10
-6.3714218761561439
20
-27.337325176863679
0
LWPOLYLINE
5
104
100
AcDbEntity
8
0
100
AcDbPolyline
90
8
70
1
43
0.0
10
-20.039293029507036
20
-9.1134969723958221
10
-33.707164182857923
20
-9.1134969723958186
10
-33.707164182857923
20
4.5543741809550662
10
-10.927378927273107
20
4.5543741809550689
10
-10.927378927273114
20
-18.717604332150209
10
-15.483335978390077
20
-18.717604332150209
10
-15.483335978390071
20
-0.0015828701618841444
10
-20.039293029507036
20
-0.0015828701618831327
0
LWPOLYLINE
5
105
100
AcDbEntity
8
0
100
AcDbPolyline
90
4
70
1
43
0.0
10
-29.151207131740971
20
-4.557539921278865
10
-24.595250080623998
20
-4.5575399212788632
10
-24.595250080623998
20
-0.0015828701618979281
10
-29.151207131740975
20
-0.0015828701618981807
0
LWPOLYLINE
5
106
100
AcDbEntity
8
0
100
AcDbPolyline
90
4
70
1
43
0.0
10
7.2964492771947427
20
-4.5575399212788739
10
11.85240632831171
20
-4.5575399212788721
10
11.85240632831171
20
-0.0015828701619060213
10
7.2964492771947338
20
-0.0015828701619062739
0
LWPOLYLINE
5
107
100
AcDbEntity
8
0
100
AcDbPolyline
90
8
70
1
43
0.0
10
20.964320430545644
20
-0.0015828701618922371
10
16.408363379428678
20
-0.0015828701618912256
10
16.408363379428678
20
-9.113496972395831
10
2.740492226077786
20
-9.1134969723958275
10
2.7404922260777886
20
4.5543741809550582
10
25.520277481662596
20
4.5543741809550609
10
25.520277481662589
20
-18.717604332150216
10
20.964320430545641
20
-18.717604332150216
0
LWPOLYLINE
5
108
100
AcDbEntity
8
0
100
AcDbPolyline
90
13
70
1
43
0.0
10
7.2964492771947356
20
-18.225411074629775
10
7.2964492771947533
20
-31.893282227980656
10
2.740492226077786
20
-31.893282227980645
10
2.7404922260777842
20
-13.669454023512799
10
16.408363379428678
20
-13.669454023512788
10
16.408363379428675
20
-27.337325176863686
10
30.076234532779573
20
-27.337325176863686
10
30.076234532779562
20
-13.66945402351279
10
34.632191583896528
20
-13.66945402351279
10
34.63219158389655
20
-29.230687033520265
42
-0.41421356237309453
10
31.96959638943617
20
-31.893282227980649
10
11.852406328311712
20
-31.893282227980649
10
11.852406328311705
20
-18.225411074629765
0
LWPOLYLINE
5
109
100
AcDbEntity
8
0
100
AcDbPolyline
90
6
70
1
43
0.0
10
35.232191583896537
20
26.734159436539851
10
35.232191583896537
20
29.227521293196446
42
0.41421356237309903
10
31.969596389436163
20
32.490116487656842
10
-31.04456898839755
20
32.490116487656849
42
0.41421356237309348
10
-34.307164182857917
20
29.22752129319646
10
-34.307164182857917
20
26.734159436539869
0
LWPOLYLINE
5
110
100
AcDbEntity
8
0
100
AcDbPolyline
90
6
70
1
43
0.0
10
-6.9714218761561488
20
-9.7134969723958253
10
-1.2154648250391842
20
-9.7134969723958271
10
-1.2154648250391766
20
14.266288283189002
10
-34.307164182857917
20
14.266288283188988
10
-34.307164182857917
20
8.5103312320720406
10
-6.9714218761561408
20
8.5103312320720246
0
LWPOLYLINE
5
111
100
AcDbEntity
8
0
100
AcDbPolyline
90
13
70
1
43
0.0
10
-28.551207131740981
20
-18.825411074629763
10
-28.551207131740956
20
-32.49328222798065
10
-31.04456898839755
20
-32.49328222798065
42
-0.41421356237309664
10
-34.307164182857917
20
-29.230687033520269
10
-34.307164182857925
20
-13.06945402351279
10
-19.439293029507034
20
-13.069454023512781
10
-19.439293029507034
20
-26.737325176863674
10
-6.9714218761561426
20
-26.737325176863678
10
-6.9714218761561462
20
-13.069454023512781
10
-1.2154648250391831
20
-13.069454023512783
10
-1.2154648250391762
20
-32.493282227980636
10
-25.195250080623993
20
-32.493282227980643
10
-25.195250080624003
20
-18.825411074629759
0
LWPOLYLINE
5
112
100
AcDbEntity
8
0
100
AcDbPolyline
90
8
70
1
43
0.0
10
20.364320430545643
20
-0.60158287016189205
10
17.00836337942868
20
-0.60158287016189127
10
17.008363379428676
20
-9.7134969723958307
10
2.1404922260777859
20
-9.7134969723958271
10
2.1404922260777886
20
5.1543741809550605
10
26.120277481662594
20
5.1543741809550614
10
26.12027748166259
20
-19.317604332150218
10
20.364320430545639
20
-19.317604332150218
0
LWPOLYLINE
5
113
100
AcDbEntity
8
0
100
AcDbPolyline
90
10
70
1
43
0.0
10
29.476234532779561
20
8.5103312320720086
10
2.1404922260777814
20
8.5103312320720157
10
2.140492226077785
20
14.266288283188974
10
29.476234532779564
20
14.266288283188969
10
29.476234532779564
20
17.62224533430593
10
-34.30716418285791
20
17.622245334305944
10
-34.307164182857917
20
23.378202385422917
10
35.232191583896537
20
23.378202385422892
10
35.232191583896523
20
-9.7134969723958342
10
29.476234532779561
20
-9.7134969723958324
0
LWPOLYLINE
5
114
100
AcDbEntity
8
0
100
AcDbPolyline
90
13
70
1
43
0.0
10
29.476234532779561
20
-13.06945402351279
10
35.232191583896523
20
-13.06945402351279
10
35.232191583896551
20
-29.230687033520269
42
-0.41421356237309426
10
31.96959638943617
20
-32.493282227980657
10
11.252406328311713
20
-32.49328222798065
10
11.252406328311704
20
-18.825411074629766
10
7.8964492771947352
20
-18.825411074629773
10
7.8964492771947539
20
-32.493282227980657
10
2.1404922260777859
20
-32.493282227980643
10
2.1404922260777841
20
-13.069454023512799
10
17.008363379428676
20
-13.069454023512787
10
17.008363379428676
20
-26.737325176863685
10
29.476234532779571
20
-26.737325176863685
0
LWPOLYLINE
5
115
100
AcDbEntity
8
0
100
AcDbPolyline
90
8
70
1
43
0.0
10
-10.327378927273108
20
5.1543741809550685
10
-10.327378927273115
20
-19.317604332150211
10
-16.083335978390075
20
-19.317604332150211
10
-16.083335978390071
20
-0.60158287016188305
10
-19.439293029507034
20
-0.60158287016188317
10
-19.439293029507034
20
-9.71349697239582
10
-34.307164182857917
20
-9.7134969723958182
10
-34.307164182857917
20
5.1543741809550658
0
LWPOLYLINE
5
116
100
AcDbEntity
8
0
100
AcDbPolyline
90
4
70
1
43
0.0
10
-28.551207131740973
20
-0.60158287016189815
10
-28.55120713174097
20
-3.9575399212788653
10
-25.195250080624
20
-3.9575399212788636
10
-25.195250080624
20
-0.60158287016189804
0
LWPOLYLINE
5
117
100
AcDbEntity
8
0
100
AcDbPolyline
90
4
70
1
43
0.0
10
7.8964492771947361
20
-0.60158287016190626
10
7.8964492771947423
20
-3.9575399212788738
10
11.252406328311711
20
-3.957539921278872
10
11.252406328311711
20
-0.60158287016190581
0
ENDSEC
0
SECTION
2
OBJECTS
0
DICTIONARY
5
C
100
AcDbDictionary
3
ACAD_GROUP
350
D
3
ACAD_MLINESTYLE
350
17
0
DICTIONARY
5
D
100
AcDbDictionary
0
DICTIONARY
5
1A
330
C
100
AcDbDictionary
0
DICTIONARY
5
17
100
AcDbDictionary
0
ENDSEC
0
EOF
