0
SECTION
2
HEADER
9
$INSUNITS
70
4
9
$ACADVER
1
AC1014
9
$HANDSEED
5
FFFF
0
ENDSEC
0
SECTION
2
TABLES
0
TABLE
2
VPORT
5
8
100
AcDbSymbolTable
0
ENDTAB
0
TABLE
2
LTYPE
5
5
100
AcDbSymbolTable
0
LTYPE
5
14
100
AcDbSymbolTableRecord
100
AcDbLinetypeTableRecord
2
BYBLOCK
70
0
0
LTYPE
5
15
100
AcDbSymbolTableRecord
100
AcDbLinetypeTableRecord
2
BYLAYER
70
0
0
LTYPE
5
16
100
AcDbSymbolTableRecord
100
AcDbLinetypeTableRecord
2
DASHED
70
0
3
Dashed __ __ __ __ __ __ __ __ __ __ __ __ __ _
72
65
73
2
40
0.75
49
0.5
74
0
49
-0.25
74
0
0
ENDTAB
0
TABLE
2
LAYER
5
2
100
AcDbSymbolTable
70
2
0
LAYER
5
50
100
AcDbSymbolTableRecord
100
AcDbLayerTableRecord
2
0
70
0
62
7
6
CONTINUOUS
0
ENDTAB
0
TABLE
2
STYLE
5
3
100
AcDbSymbolTable
70
1
0
STYLE
5
11
100
AcDbSymbolTableRecord
100
AcDbTextStyleTableRecord
2
STANDARD
70
0
0
ENDTAB
0
TABLE
2
VIEW
5
6
100
AcDbSymbolTable
70
0
0
ENDTAB
0
TABLE
2
UCS
5
7
100
AcDbSymbolTable
70
0
0
ENDTAB
0
TABLE
2
APPID
5
9
100
AcDbSymbolTable
70
2
0
APPID
5
12
100
AcDbSymbolTableRecord
100
AcDbRegAppTableRecord
2
ACAD
70
0
0
ENDTAB
0
TABLE
2
DIMSTYLE
5
A
100
AcDbSymbolTable
70
1
0
ENDTAB
0
TABLE
2
BLOCK_RECORD
5
1
100
AcDbSymbolTable
70
1
0
BLOCK_RECORD
5
1F
100
AcDbSymbolTableRecord
100
AcDbBlockTableRecord
2
*MODEL_SPACE
0
BLOCK_RECORD
5
1B
100
AcDbSymbolTableRecord
100
AcDbBlockTableRecord
2
*PAPER_SPACE
0
ENDTAB
0
ENDSEC
0
SECTION
2
BLOCKS
0
BLOCK
5
20
100
AcDbEntity
100
AcDbBlockBegin
2
*MODEL_SPACE
0
ENDBLK
5
21
100
AcDbEntity
100
AcDbBlockEnd
0
BLOCK
5
1C
100
AcDbEntity
100
AcDbBlockBegin
2
*PAPER_SPACE
0
ENDBLK
5
1D
100
AcDbEntity
100
AcDbBlockEnd
0
ENDSEC
0
SECTION
2
ENTITIES
0
POINT
5
100
100
AcDbEntity
8
0
100
AcDbPoint
10
0
20
0
30
0
0
POINT
5
101
100
AcDbEntity
8
0
100
AcDbPoint
10
0
20
0
30
0
0
LWPOLYLINE
5
102
100
AcDbEntity
8
0
100
AcDbPolyline
90
8
70
1
43
0.0
10
34.999999999999993
20
44.999999999999993
10
-34.999999999999993
20
44.999999999999993
42
0.41421356237309398
10
-44.999999999999993
20
34.999999999999993
10
-44.999999999999993
20
-34.999999999999986
42
0.41421356237309398
10
-34.999999999999993
20
-44.999999999999993
10
34.999999999999993
20
-44.999999999999993
42
0.41421356237309398
10
44.999999999999993
20
-34.999999999999993
10
44.999999999999993
20
34.999999999999993
42
0.41421356237309398
0
LWPOLYLINE
5
103
100
AcDbEntity
8
0
100
AcDbPolyline
90
8
70
1
43
0.0
10
34.999999999999986
20
39.999999999999993
10
-34.999999999999993
20
39.999999999999993
42
0.41421356237309348
10
-39.999999999999993
20
34.999999999999986
10
-39.999999999999993
20
-34.999999999999986
42
0.4142135623730937
10
-34.999999999999979
20
-39.999999999999993
10
34.999999999999986
20
-39.999999999999993
42
0.4142135623730937
10
39.999999999999993
20
-34.999999999999986
10
39.999999999999993
20
34.999999999999993
42
0.41421356237309348
0
LWPOLYLINE
5
104
100
AcDbEntity
8
0
100
AcDbPolyline
90
8
70
1
43
0.0
10
-34.999999999999986
20
-42.499999999999993
10
34.999999999999986
20
-42.499999999999993
42
0.41421356237309387
10
42.499999999999993
20
-34.999999999999993
10
42.499999999999993
20
34.999999999999993
42
0.41421356237309387
10
34.999999999999986
20
42.499999999999993
10
-34.999999999999993
20
42.499999999999993
42
0.41421356237309365
10
-42.499999999999993
20
34.999999999999986
10
-42.499999999999993
20
-34.999999999999979
42
0.41421356237309398
0
LINE
5
105
100
AcDbEntity
8
0
100
AcDbLine
10
4.4408920985006262e-15
20
-39.999999999999993
30
0
11
0
21
-44.999999999999993
31
0
0
LINE
5
106
100
AcDbEntity
8
0
100
AcDbLine
10
0
20
-40.624999999999993
30
0
11
4.5779047078554589
21
-40.624999999999993
31
0
6
DASHED
0
LINE
5
107
100
AcDbEntity
8
0
100
AcDbLine
10
0
20
-40.624999999999993
30
0
11
5.3033008588991057
21
-40.624999999999993
31
0
6
DASHED
0
LINE
5
108
100
AcDbEntity
8
0
100
AcDbLine
10
0
20
-40.624999999999993
30
0
11
-3.75
21
-44.374999999999993
31
0
0
LINE
5
109
100
AcDbEntity
8
0
100
AcDbLine
10
0
20
-40.624999999999993
30
0
11
5.3033008588991057
21
-40.624999999999993
31
0
6
DASHED
0
LINE
5
110
100
AcDbEntity
8
0
100
AcDbLine
10
-3.75
20
-44.374999999999993
30
0
11
0
21
-44.374999999999993
31
0
0
LWPOLYLINE
5
111
100
AcDbEntity
8
0
100
AcDbPolyline
90
3
70
1
43
0.0
10
-1.4587966923041316
20
-40.624999999999993
10
-5.2087966923041407
20
-44.374999999999993
10
-8.9587966923041495
20
-40.624999999999993
0
LINE
5
112
100
AcDbEntity
8
0
100
AcDbLine
10
-1.4587966923041316
20
-40.624999999999993
30
0
11
4.2216674292753451
21
-40.624999999999993
31
0
6
DASHED
0
LINE
5
113
100
AcDbEntity
8
0
100
AcDbLine
10
-10.388101040927523
20
-40.624999999999993
30
0
11
-14.138101040927523
21
-44.374999999999993
31
0
0
LINE
5
114
100
AcDbEntity
8
0
100
AcDbLine
10
-10.388101040927516
20
-40.624999999999993
30
0
11
-6.6381010409275234
21
-44.375
31
0
0
LINE
5
115
100
AcDbEntity
8
0
100
AcDbLine
10
-6.6381010409275234
20
-44.375
30
0
11
-14.138101040927523
21
-44.374999999999993
31
0
0
LINE
5
116
100
AcDbEntity
8
0
100
AcDbLine
10
-20.788101040927529
20
-40.624999999999993
30
0
11
-24.538101040927529
21
-44.374999999999993
31
0
0
LINE
5
117
100
AcDbEntity
8
0
100
AcDbLine
10
-20.788101040927522
20
-40.624999999999993
30
0
11
-17.038101040927526
21
-44.375
31
0
0
LINE
5
118
100
AcDbEntity
8
0
100
AcDbLine
10
-17.038101040927526
20
-44.375
30
0
11
-24.538101040927529
21
-44.374999999999993
31
0
0
LWPOLYLINE
5
119
100
AcDbEntity
8
0
100
AcDbPolyline
90
3
70
1
43
0.0
10
-11.858796692304134
20
-40.624999999999993
10
-19.358796692304153
20
-40.624999999999993
10
-15.608796692304143
20
-44.374999999999993
0
LINE
5
120
100
AcDbEntity
8
0
100
AcDbLine
10
-31.130552929185377
20
-40.624999999999993
30
0
11
-34.880552929185377
21
-44.374999999999993
31
0
0
LINE
5
121
100
AcDbEntity
8
0
100
AcDbLine
10
-27.380552929185377
20
-44.375
30
0
11
-34.880552929185377
21
-44.374999999999993
31
0
0
LINE
5
122
100
AcDbEntity
8
0
100
AcDbLine
10
-31.130552929185367
20
-40.624999999999993
30
0
11
-27.380552929185377
21
-44.375
31
0
0
LWPOLYLINE
5
123
100
AcDbEntity
8
0
100
AcDbPolyline
90
3
70
1
43
0.0
10
-22.201248580561984
20
-40.624999999999993
10
-29.701248580562002
20
-40.624999999999993
10
-25.951248580561991
20
-44.374999999999993
0
LWPOLYLINE
5
124
100
AcDbEntity
8
0
100
AcDbPolyline
90
8
70
1
43
0.0
10
44.374999999999993
20
-34.999999999999993
10
44.374999999999993
20
34.999999999999993
42
0.41421356237309392
10
34.999999999999993
20
44.374999999999993
10
-34.999999999999993
20
44.374999999999993
42
0.41421356237309392
10
-44.374999999999993
20
34.999999999999993
10
-44.374999999999993
20
-34.999999999999986
42
0.41421356237309392
10
-34.999999999999993
20
-44.374999999999993
10
34.999999999999993
20
-44.374999999999993
42
0.41421356237309392
0
LWPOLYLINE
5
125
100
AcDbEntity
8
0
100
AcDbPolyline
90
8
70
1
43
0.0
10
34.999999999999986
20
-40.624999999999993
42
0.41421356237309365
10
40.624999999999993
20
-34.999999999999986
10
40.624999999999993
20
34.999999999999993
42
0.4142135623730932
10
34.999999999999986
20
40.624999999999993
10
-34.999999999999993
20
40.624999999999993
42
0.4142135623730932
10
-40.624999999999993
20
34.999999999999986
10
-40.624999999999993
20
-34.999999999999979
42
0.41421356237309387
10
-34.999999999999986
20
-40.624999999999993
0
LINE
5
126
100
AcDbEntity
8
0
100
AcDbLine
10
-38.977475644174319
20
-38.977475644174305
30
0
11
-43.301667815841625
21
-39.355793438102744
31
0
0
LINE
5
127
100
AcDbEntity
8
0
100
AcDbLine
10
-38.977475644174319
20
-38.977475644174305
30
0
11
-38.977475644174319
21
-43.489423567003811
31
0
0
LINE
5
128
100
AcDbEntity
8
0
100
AcDbLine
10
-37.977475644174319
20
-39.772343636867376
30
0
11
-37.977475644174319
21
-43.889615502840854
31
0
0
LINE
5
129
100
AcDbEntity
8
0
100
AcDbLine
10
-32.54476649155847
20
-40.624999999999993
30
0
11
-36.215620026884679
21
-44.295853535326202
31
0
0
LWPOLYLINE
5
130
100
AcDbEntity
8
0
100
AcDbPolyline
90
3
70
1
43
0.0
10
-12.583060761016069
20
-40.924999999999997
10
-18.634532623592218
20
-40.924999999999997
10
-15.608796692304146
20
-43.950735931288058
0
LWPOLYLINE
5
131
100
AcDbEntity
8
0
100
AcDbPolyline
90
3
70
1
43
0.0
10
-22.925512649273916
20
-40.924999999999997
10
-28.97698451185007
20
-40.924999999999997
10
-25.951248580561991
20
-43.950735931288065
0
LWPOLYLINE
5
132
100
AcDbEntity
8
0
100
AcDbPolyline
90
3
70
1
43
0.0
10
-20.788101040927526
20
-41.049264068711921
10
-17.762365109639457
20
-44.074999999999996
10
-23.813836972215597
20
-44.074999999999989
0
LWPOLYLINE
5
133
100
AcDbEntity
8
0
100
AcDbPolyline
90
3
70
1
43
0.0
10
-10.388101040927522
20
-41.049264068711921
10
-7.3623651096394553
20
-44.074999999999996
10
-13.413836972215591
20
-44.074999999999989
0
LWPOLYLINE
5
134
100
AcDbEntity
8
0
100
AcDbPolyline
90
3
70
1
43
0.0
10
-2.1830607610160664
20
-40.924999999999997
10
-8.2345326235922141
20
-40.924999999999997
10
-5.2087966923041416
20
-43.950735931288058
0
LWPOLYLINE
5
135
100
AcDbEntity
8
0
100
AcDbPolyline
90
3
70
1
43
0.0
10
-31.13055292918537
20
-41.049264068711921
10
-34.156288860473445
20
-44.074999999999989
10
-28.104816997897302
20
-44.074999999999996
0
LINE
5
136
100
AcDbEntity
8
0
100
AcDbLine
10
38.977475644174326
20
-38.977475644174376
30
0
11
38.977475644174319
21
-43.489423567003882
31
0
0
LINE
5
137
100
AcDbEntity
8
0
100
AcDbLine
10
37.977475644174326
20
-39.77234363686744
30
0
11
37.977475644174319
21
-43.889615502840925
31
0
0
LINE
5
138
100
AcDbEntity
8
0
100
AcDbLine
10
32.544766491558477
20
-40.625000000000057
30
0
11
36.215620026884679
21
-44.295853535326266
31
0
0
LINE
5
139
100
AcDbEntity
8
0
100
AcDbLine
10
31.130552929185377
20
-40.625000000000043
30
0
11
27.380552929185377
21
-44.375000000000057
31
0
0
LINE
5
140
100
AcDbEntity
8
0
100
AcDbLine
10
27.380552929185377
20
-44.375000000000057
30
0
11
34.880552929185377
21
-44.375000000000057
31
0
0
LINE
5
141
100
AcDbEntity
8
0
100
AcDbLine
10
31.130552929185384
20
-40.625000000000043
30
0
11
34.880552929185377
21
-44.375000000000057
31
0
0
LWPOLYLINE
5
142
100
AcDbEntity
8
0
100
AcDbPolyline
90
3
70
1
43
0.0
10
28.104816997897302
20
-44.075000000000053
10
34.156288860473445
20
-44.075000000000053
10
31.130552929185381
20
-41.04926406871197
0
LWPOLYLINE
5
143
100
AcDbEntity
8
0
100
AcDbPolyline
90
3
70
1
43
0.0
10
22.201248580561991
20
-40.625000000000028
10
29.701248580562009
20
-40.625000000000043
10
25.951248580561991
20
-44.375000000000036
0
LWPOLYLINE
5
144
100
AcDbEntity
8
0
100
AcDbPolyline
90
3
70
1
43
0.0
10
22.925512649273927
20
-40.92500000000004
10
28.976984511850077
20
-40.925000000000047
10
25.951248580561991
20
-43.950735931288108
0
LINE
5
145
100
AcDbEntity
8
0
100
AcDbLine
10
20.788101040927529
20
-40.625000000000028
30
0
11
17.038101040927526
21
-44.375000000000028
31
0
0
LINE
5
146
100
AcDbEntity
8
0
100
AcDbLine
10
17.038101040927526
20
-44.375000000000028
30
0
11
24.538101040927529
21
-44.375000000000036
31
0
0
LINE
5
147
100
AcDbEntity
8
0
100
AcDbLine
10
20.788101040927536
20
-40.625000000000028
30
0
11
24.538101040927529
21
-44.375000000000036
31
0
0
LWPOLYLINE
5
148
100
AcDbEntity
8
0
100
AcDbPolyline
90
3
70
1
43
0.0
10
17.762365109639457
20
-44.075000000000031
10
23.813836972215597
20
-44.075000000000031
10
20.788101040927533
20
-41.049264068711949
0
LWPOLYLINE
5
149
100
AcDbEntity
8
0
100
AcDbPolyline
90
3
70
1
43
0.0
10
11.858796692304143
20
-40.625000000000007
10
19.358796692304161
20
-40.625000000000028
10
15.608796692304143
20
-44.375000000000014
0
LWPOLYLINE
5
150
100
AcDbEntity
8
0
100
AcDbPolyline
90
3
70
1
43
0.0
10
12.583060761016078
20
-40.925000000000018
10
18.634532623592225
20
-40.925000000000026
10
15.608796692304146
20
-43.950735931288079
0
LWPOLYLINE
5
151
100
AcDbEntity
8
0
100
AcDbPolyline
90
3
70
1
43
0.0
10
1.4587966923041393
20
-40.624999999999993
10
8.9587966923041584
20
-40.625000000000007
10
5.2087966923041407
20
-44.375
0
LWPOLYLINE
5
152
100
AcDbEntity
8
0
100
AcDbPolyline
90
3
70
1
43
0.0
10
2.1830607610160739
20
-40.924999999999997
10
8.2345326235922212
20
-40.925000000000011
10
5.2087966923041442
20
-43.950735931288065
0
LINE
5
153
100
AcDbEntity
8
0
100
AcDbLine
10
10.388101040927534
20
-40.625000000000007
30
0
11
14.138101040927523
21
-44.375000000000014
31
0
0
LINE
5
154
100
AcDbEntity
8
0
100
AcDbLine
10
6.6381010409275234
20
-44.375000000000007
30
0
11
14.138101040927523
21
-44.375000000000014
31
0
0
LINE
5
155
100
AcDbEntity
8
0
100
AcDbLine
10
10.388101040927523
20
-40.625000000000007
30
0
11
6.6381010409275234
21
-44.375000000000007
31
0
0
LWPOLYLINE
5
156
100
AcDbEntity
8
0
100
AcDbPolyline
90
3
70
1
43
0.0
10
10.388101040927531
20
-41.049264068711935
10
13.413836972215591
20
-44.075000000000017
10
7.3623651096394571
20
-44.075000000000003
0
LINE
5
157
100
AcDbEntity
8
0
100
AcDbLine
10
3.7500000000000009
20
-44.375
30
0
11
1.1102230246251565e-15
21
-44.374999999999993
31
0
0
LINE
5
158
100
AcDbEntity
8
0
100
AcDbLine
10
7.7715611723760958e-15
20
-40.624999999999993
30
0
11
3.7500000000000009
21
-44.375
31
0
0
LWPOLYLINE
5
159
100
AcDbEntity
8
0
100
AcDbPolyline
90
4
70
1
43
0.0
10
4.1286418728248009e-15
20
-41.049264068711921
10
-3.0257359312880663
20
-44.074999999999989
10
0
20
-44.074999999999989
10
3.0257359312880676
20
-44.074999999999996
0
LINE
5
160
100
AcDbEntity
8
0
100
AcDbLine
10
0
20
0
30
0
11
6.9605914161923099
21
0
31
0
0
LINE
5
161
100
AcDbEntity
8
0
100
AcDbLine
10
38.977475644174326
20
-38.977475644174376
30
0
11
43.301667815841625
21
-39.355793438102822
31
0
0
LINE
5
162
100
AcDbEntity
8
0
100
AcDbLine
10
-38.977475644174319
20
38.977475644174305
30
0
11
-38.977475644174319
21
43.489423567003811
31
0
0
LINE
5
163
100
AcDbEntity
8
0
100
AcDbLine
10
-38.977475644174319
20
38.977475644174305
30
0
11
-43.301667815841625
21
39.355793438102744
31
0
0
LINE
5
164
100
AcDbEntity
8
0
100
AcDbLine
10
-37.977475644174319
20
39.772343636867376
30
0
11
-37.977475644174319
21
43.889615502840854
31
0
0
LINE
5
165
100
AcDbEntity
8
0
100
AcDbLine
10
-32.54476649155847
20
40.624999999999993
30
0
11
-36.215620026884679
21
44.295853535326202
31
0
0
LINE
5
166
100
AcDbEntity
8
0
100
AcDbLine
10
-31.130552929185367
20
40.624999999999993
30
0
11
-27.380552929185377
21
44.375
31
0
0
LINE
5
167
100
AcDbEntity
8
0
100
AcDbLine
10
-27.380552929185377
20
44.375
30
0
11
-34.880552929185377
21
44.374999999999993
31
0
0
LINE
5
168
100
AcDbEntity
8
0
100
AcDbLine
10
-31.130552929185377
20
40.624999999999993
30
0
11
-34.880552929185377
21
44.374999999999993
31
0
0
LWPOLYLINE
5
169
100
AcDbEntity
8
0
100
AcDbPolyline
90
3
70
1
43
0.0
10
-28.104816997897302
20
44.074999999999996
10
-34.156288860473445
20
44.074999999999989
10
-31.13055292918537
20
41.049264068711921
0
LWPOLYLINE
5
170
100
AcDbEntity
8
0
100
AcDbPolyline
90
3
70
1
43
0.0
10
-22.201248580561984
20
40.624999999999993
10
-29.701248580562002
20
40.624999999999993
10
-25.951248580561991
20
44.374999999999993
0
LWPOLYLINE
5
171
100
AcDbEntity
8
0
100
AcDbPolyline
90
3
70
1
43
0.0
10
-22.925512649273916
20
40.924999999999997
10
-28.97698451185007
20
40.924999999999997
10
-25.951248580561991
20
43.950735931288065
0
LINE
5
172
100
AcDbEntity
8
0
100
AcDbLine
10
-20.788101040927529
20
40.624999999999993
30
0
11
-24.538101040927529
21
44.374999999999993
31
0
0
LINE
5
173
100
AcDbEntity
8
0
100
AcDbLine
10
-17.038101040927526
20
44.375
30
0
11
-24.538101040927529
21
44.374999999999993
31
0
0
LINE
5
174
100
AcDbEntity
8
0
100
AcDbLine
10
-20.788101040927522
20
40.624999999999993
30
0
11
-17.038101040927526
21
44.375
31
0
0
LWPOLYLINE
5
175
100
AcDbEntity
8
0
100
AcDbPolyline
90
3
70
1
43
0.0
10
-20.788101040927526
20
41.049264068711921
10
-23.813836972215597
20
44.074999999999989
10
-17.762365109639457
20
44.074999999999996
0
LWPOLYLINE
5
176
100
AcDbEntity
8
0
100
AcDbPolyline
90
3
70
1
43
0.0
10
-12.583060761016069
20
40.924999999999997
10
-18.634532623592218
20
40.924999999999997
10
-15.608796692304146
20
43.950735931288058
0
LWPOLYLINE
5
177
100
AcDbEntity
8
0
100
AcDbPolyline
90
3
70
1
43
0.0
10
-11.858796692304134
20
40.624999999999993
10
-19.358796692304153
20
40.624999999999993
10
-15.608796692304143
20
44.374999999999993
0
LINE
5
178
100
AcDbEntity
8
0
100
AcDbLine
10
-10.388101040927523
20
40.624999999999993
30
0
11
-14.138101040927523
21
44.374999999999993
31
0
0
LINE
5
179
100
AcDbEntity
8
0
100
AcDbLine
10
-6.6381010409275234
20
44.375
30
0
11
-14.138101040927523
21
44.374999999999993
31
0
0
LINE
5
180
100
AcDbEntity
8
0
100
AcDbLine
10
-10.388101040927516
20
40.624999999999993
30
0
11
-6.6381010409275234
21
44.375
31
0
0
LWPOLYLINE
5
181
100
AcDbEntity
8
0
100
AcDbPolyline
90
3
70
1
43
0.0
10
-10.388101040927522
20
41.049264068711921
10
-13.413836972215591
20
44.074999999999989
10
-7.3623651096394553
20
44.074999999999996
0
LWPOLYLINE
5
182
100
AcDbEntity
8
0
100
AcDbPolyline
90
3
70
1
43
0.0
10
-1.4587966923041316
20
40.624999999999993
10
-8.9587966923041495
20
40.624999999999993
10
-5.2087966923041407
20
44.374999999999993
0
LWPOLYLINE
5
183
100
AcDbEntity
8
0
100
AcDbPolyline
90
3
70
1
43
0.0
10
-2.1830607610160664
20
40.924999999999997
10
-8.2345326235922141
20
40.924999999999997
10
-5.2087966923041416
20
43.950735931288058
0
LWPOLYLINE
5
184
100
AcDbEntity
8
0
100
AcDbPolyline
90
4
70
1
43
0.0
10
3.0257359312880676
20
44.074999999999996
10
0
20
44.074999999999989
10
-3.0257359312880663
20
44.074999999999989
10
4.1286418728248009e-15
20
41.049264068711921
0
LINE
5
185
100
AcDbEntity
8
0
100
AcDbLine
10
-3.75
20
44.374999999999993
30
0
11
0
21
44.374999999999993
31
0
0
LINE
5
186
100
AcDbEntity
8
0
100
AcDbLine
10
0
20
40.624999999999993
30
0
11
-3.75
21
44.374999999999993
31
0
0
LINE
5
187
100
AcDbEntity
8
0
100
AcDbLine
10
3.7500000000000009
20
44.375
30
0
11
1.1102230246251565e-15
21
44.374999999999993
31
0
0
LINE
5
188
100
AcDbEntity
8
0
100
AcDbLine
10
7.7715611723760958e-15
20
40.624999999999993
30
0
11
3.7500000000000009
21
44.375
31
0
0
LWPOLYLINE
5
189
100
AcDbEntity
8
0
100
AcDbPolyline
90
3
70
1
43
0.0
10
2.1830607610160739
20
40.924999999999997
10
8.2345326235922212
20
40.925000000000011
10
5.2087966923041442
20
43.950735931288065
0
LWPOLYLINE
5
190
100
AcDbEntity
8
0
100
AcDbPolyline
90
3
70
1
43
0.0
10
1.4587966923041393
20
40.624999999999993
10
8.9587966923041584
20
40.625000000000007
10
5.2087966923041407
20
44.375
0
LINE
5
191
100
AcDbEntity
8
0
100
AcDbLine
10
10.388101040927534
20
40.625000000000007
30
0
11
14.138101040927523
21
44.375000000000014
31
0
0
LINE
5
192
100
AcDbEntity
8
0
100
AcDbLine
10
6.6381010409275234
20
44.375000000000007
30
0
11
14.138101040927523
21
44.375000000000014
31
0
0
LINE
5
193
100
AcDbEntity
8
0
100
AcDbLine
10
10.388101040927523
20
40.625000000000007
30
0
11
6.6381010409275234
21
44.375000000000007
31
0
0
LWPOLYLINE
5
194
100
AcDbEntity
8
0
100
AcDbPolyline
90
3
70
1
43
0.0
10
10.388101040927531
20
41.049264068711935
10
13.413836972215591
20
44.075000000000017
10
7.3623651096394571
20
44.075000000000003
0
LWPOLYLINE
5
195
100
AcDbEntity
8
0
100
AcDbPolyline
90
3
70
1
43
0.0
10
11.858796692304143
20
40.625000000000007
10
19.358796692304161
20
40.625000000000028
10
15.608796692304143
20
44.375000000000014
0
LWPOLYLINE
5
196
100
AcDbEntity
8
0
100
AcDbPolyline
90
3
70
1
43
0.0
10
12.583060761016078
20
40.925000000000018
10
18.634532623592225
20
40.925000000000026
10
15.608796692304146
20
43.950735931288079
0
LINE
5
197
100
AcDbEntity
8
0
100
AcDbLine
10
20.788101040927536
20
40.625000000000028
30
0
11
24.538101040927529
21
44.375000000000036
31
0
0
LINE
5
198
100
AcDbEntity
8
0
100
AcDbLine
10
17.038101040927526
20
44.375000000000028
30
0
11
24.538101040927529
21
44.375000000000036
31
0
0
LINE
5
199
100
AcDbEntity
8
0
100
AcDbLine
10
20.788101040927529
20
40.625000000000028
30
0
11
17.038101040927526
21
44.375000000000028
31
0
0
LWPOLYLINE
5
200
100
AcDbEntity
8
0
100
AcDbPolyline
90
3
70
1
43
0.0
10
20.788101040927533
20
41.049264068711949
10
23.813836972215597
20
44.075000000000031
10
17.762365109639457
20
44.075000000000031
0
LWPOLYLINE
5
201
100
AcDbEntity
8
0
100
AcDbPolyline
90
3
70
1
43
0.0
10
22.201248580561991
20
40.625000000000028
10
29.701248580562009
20
40.625000000000043
10
25.951248580561991
20
44.375000000000036
0
LWPOLYLINE
5
202
100
AcDbEntity
8
0
100
AcDbPolyline
90
3
70
1
43
0.0
10
22.925512649273927
20
40.92500000000004
10
28.976984511850077
20
40.925000000000047
10
25.951248580561991
20
43.950735931288108
0
LINE
5
203
100
AcDbEntity
8
0
100
AcDbLine
10
31.130552929185384
20
40.625000000000043
30
0
11
34.880552929185377
21
44.375000000000057
31
0
0
LINE
5
204
100
AcDbEntity
8
0
100
AcDbLine
10
27.380552929185377
20
44.375000000000057
30
0
11
34.880552929185377
21
44.375000000000057
31
0
0
LINE
5
205
100
AcDbEntity
8
0
100
AcDbLine
10
31.130552929185377
20
40.625000000000043
30
0
11
27.380552929185377
21
44.375000000000057
31
0
0
LWPOLYLINE
5
206
100
AcDbEntity
8
0
100
AcDbPolyline
90
3
70
1
43
0.0
10
28.104816997897302
20
44.075000000000053
10
34.156288860473445
20
44.075000000000053
10
31.130552929185381
20
41.04926406871197
0
LINE
5
207
100
AcDbEntity
8
0
100
AcDbLine
10
32.544766491558477
20
40.625000000000057
30
0
11
36.215620026884679
21
44.295853535326266
31
0
0
LINE
5
208
100
AcDbEntity
8
0
100
AcDbLine
10
37.977475644174326
20
39.77234363686744
30
0
11
37.977475644174319
21
43.889615502840925
31
0
0
LINE
5
209
100
AcDbEntity
8
0
100
AcDbLine
10
38.977475644174326
20
38.977475644174376
30
0
11
38.977475644174319
21
43.489423567003882
31
0
0
LINE
5
210
100
AcDbEntity
8
0
100
AcDbLine
10
38.977475644174326
20
38.977475644174376
30
0
11
43.301667815841625
21
39.355793438102822
31
0
0
LINE
5
211
100
AcDbEntity
8
0
100
AcDbLine
10
-40.624999999999993
20
32.544766491558484
30
0
11
-44.295853535326202
21
36.215620026884693
31
0
0
LINE
5
212
100
AcDbEntity
8
0
100
AcDbLine
10
-39.772343636867376
20
37.977475644174334
30
0
11
-43.889615502840854
21
37.977475644174334
31
0
0
LWPOLYLINE
5
213
100
AcDbEntity
8
0
100
AcDbPolyline
90
3
70
1
43
0.0
10
-44.074999999999996
20
28.104816997897316
10
-44.074999999999989
20
34.15628886047346
10
-41.049264068711921
20
31.130552929185388
0
LINE
5
214
100
AcDbEntity
8
0
100
AcDbLine
10
-44.375
20
27.380552929185388
30
0
11
-44.374999999999993
21
34.880552929185392
31
0
0
LINE
5
215
100
AcDbEntity
8
0
100
AcDbLine
10
-40.624999999999993
20
31.130552929185384
30
0
11
-44.375
21
27.380552929185388
31
0
0
LINE
5
216
100
AcDbEntity
8
0
100
AcDbLine
10
-40.624999999999993
20
31.130552929185392
30
0
11
-44.374999999999993
21
34.880552929185392
31
0
0
LWPOLYLINE
5
217
100
AcDbEntity
8
0
100
AcDbPolyline
90
3
70
1
43
0.0
10
-40.624999999999993
20
22.201248580561995
10
-40.624999999999993
20
29.701248580562016
10
-44.374999999999993
20
25.951248580562005
0
LWPOLYLINE
5
218
100
AcDbEntity
8
0
100
AcDbPolyline
90
3
70
1
43
0.0
10
-40.924999999999997
20
22.92551264927393
10
-40.924999999999997
20
28.97698451185008
10
-43.950735931288065
20
25.951248580562005
0
LINE
5
219
100
AcDbEntity
8
0
100
AcDbLine
10
-40.624999999999993
20
20.788101040927533
30
0
11
-44.375000000000007
21
17.03810104092754
31
0
0
LINE
5
220
100
AcDbEntity
8
0
100
AcDbLine
10
-44.375000000000007
20
17.03810104092754
30
0
11
-44.374999999999993
21
24.538101040927543
31
0
0
LINE
5
221
100
AcDbEntity
8
0
100
AcDbLine
10
-40.624999999999993
20
20.788101040927543
30
0
11
-44.374999999999993
21
24.538101040927543
31
0
0
LWPOLYLINE
5
222
100
AcDbEntity
8
0
100
AcDbPolyline
90
3
70
1
43
0.0
10
-44.075000000000003
20
17.762365109639472
10
-44.074999999999989
20
23.813836972215611
10
-41.049264068711921
20
20.788101040927536
0
LWPOLYLINE
5
223
100
AcDbEntity
8
0
100
AcDbPolyline
90
3
70
1
43
0.0
10
-40.925000000000004
20
12.58306076101608
10
-40.925000000000004
20
18.634532623592229
10
-43.950735931288065
20
15.608796692304159
0
LWPOLYLINE
5
224
100
AcDbEntity
8
0
100
AcDbPolyline
90
3
70
1
43
0.0
10
-40.625
20
11.858796692304146
10
-40.625
20
19.358796692304164
10
-44.375
20
15.608796692304157
0
LINE
5
225
100
AcDbEntity
8
0
100
AcDbLine
10
-40.625
20
10.388101040927536
30
0
11
-44.375
21
14.138101040927536
31
0
0
LINE
5
226
100
AcDbEntity
8
0
100
AcDbLine
10
-44.375000000000007
20
6.6381010409275341
30
0
11
-44.375
21
14.138101040927536
31
0
0
LINE
5
227
100
AcDbEntity
8
0
100
AcDbLine
10
-40.625
20
10.388101040927527
30
0
11
-44.375000000000007
21
6.6381010409275341
31
0
0
LWPOLYLINE
5
228
100
AcDbEntity
8
0
100
AcDbPolyline
90
3
70
1
43
0.0
10
-41.049264068711928
20
10.388101040927534
10
-44.074999999999996
20
13.413836972215602
10
-44.075000000000003
20
7.362365109639466
0
LWPOLYLINE
5
229
100
AcDbEntity
8
0
100
AcDbPolyline
90
3
70
1
43
0.0
10
-40.625
20
1.4587966923041407
10
-40.625
20
8.9587966923041602
10
-44.375
20
5.2087966923041513
0
LWPOLYLINE
5
230
100
AcDbEntity
8
0
100
AcDbPolyline
90
3
70
1
43
0.0
10
-40.925000000000004
20
2.1830607610160762
10
-40.925000000000004
20
8.2345326235922265
10
-43.950735931288065
20
5.2087966923041531
0
LWPOLYLINE
5
231
100
AcDbEntity
8
0
100
AcDbPolyline
90
4
70
1
43
0.0
10
-44.075000000000003
20
-3.0257359312880583
10
-44.074999999999996
20
9.9920072216264089e-15
10
-44.074999999999996
20
3.0257359312880765
10
-41.049264068711928
20
4.9861257497756192e-15
0
LINE
5
232
100
AcDbEntity
8
0
100
AcDbLine
10
-44.375
20
3.7500000000000111
30
0
11
-44.375
21
9.8532293435482627e-15
31
0
0
LINE
5
233
100
AcDbEntity
8
0
100
AcDbLine
10
-40.625
20
9.0205620750793953e-15
30
0
11
-44.375
21
3.7500000000000111
31
0
0
LWPOLYLINE
5
234
100
AcDbEntity
8
0
100
AcDbPolyline
90
3
70
1
43
0.0
10
-40.925000000000004
20
-2.1830607610160651
10
-40.925000000000018
20
-8.2345326235922141
10
-43.950735931288072
20
-5.2087966923041353
0
LWPOLYLINE
5
235
100
AcDbEntity
8
0
100
AcDbPolyline
90
3
70
1
43
0.0
10
-40.625
20
-1.4587966923041307
10
-40.625000000000014
20
-8.9587966923041513
10
-44.375000000000007
20
-5.2087966923041318
0
LWPOLYLINE
5
236
100
AcDbEntity
8
0
100
AcDbPolyline
90
3
70
1
43
0.0
10
-44.075000000000017
20
-7.3623651096394482
10
-44.075000000000024
20
-13.413836972215584
10
-41.049264068711942
20
-10.388101040927523
0
LINE
5
237
100
AcDbEntity
8
0
100
AcDbLine
10
-40.625000000000014
20
-10.388101040927518
30
0
11
-44.375000000000014
21
-6.6381010409275145
31
0
0
LINE
5
238
100
AcDbEntity
8
0
100
AcDbLine
10
-44.375000000000014
20
-6.6381010409275145
30
0
11
-44.375000000000028
21
-14.138101040927518
31
0
0
LINE
5
239
100
AcDbEntity
8
0
100
AcDbLine
10
-40.625000000000014
20
-10.388101040927527
30
0
11
-44.375000000000028
21
-14.138101040927518
31
0
0
LWPOLYLINE
5
240
100
AcDbEntity
8
0
100
AcDbPolyline
90
3
70
1
43
0.0
10
-40.625000000000014
20
-11.858796692304136
10
-40.625000000000036
20
-19.358796692304157
10
-44.375000000000028
20
-15.608796692304139
0
LWPOLYLINE
5
241
100
AcDbEntity
8
0
100
AcDbPolyline
90
3
70
1
43
0.0
10
-40.925000000000026
20
-12.583060761016071
10
-40.92500000000004
20
-18.634532623592222
10
-43.950735931288094
20
-15.608796692304141
0
LWPOLYLINE
5
242
100
AcDbEntity
8
0
100
AcDbPolyline
90
3
70
1
43
0.0
10
-41.04926406871197
20
-20.788101040927529
10
-44.075000000000053
20
-23.81383697221559
10
-44.075000000000045
20
-17.762365109639454
0
LINE
5
243
100
AcDbEntity
8
0
100
AcDbLine
10
-40.625000000000043
20
-20.788101040927533
30
0
11
-44.375000000000057
21
-24.538101040927526
31
0
0
LINE
5
244
100
AcDbEntity
8
0
100
AcDbLine
10
-44.375000000000036
20
-17.038101040927522
30
0
11
-44.375000000000057
21
-24.538101040927526
31
0
0
LINE
5
245
100
AcDbEntity
8
0
100
AcDbLine
10
-40.625000000000043
20
-20.788101040927526
30
0
11
-44.375000000000036
21
-17.038101040927522
31
0
0
LWPOLYLINE
5
246
100
AcDbEntity
8
0
100
AcDbPolyline
90
3
70
1
43
0.0
10
-40.925000000000054
20
-22.925512649273919
10
-40.925000000000068
20
-28.976984511850073
10
-43.950735931288129
20
-25.951248580561987
0
LWPOLYLINE
5
247
100
AcDbEntity
8
0
100
AcDbPolyline
90
3
70
1
43
0.0
10
-40.625000000000043
20
-22.201248580561987
10
-40.625000000000064
20
-29.701248580562005
10
-44.375000000000057
20
-25.951248580561987
0
LINE
5
248
100
AcDbEntity
8
0
100
AcDbLine
10
-40.625000000000064
20
-31.130552929185384
30
0
11
-44.375000000000071
21
-34.880552929185377
31
0
0
LINE
5
249
100
AcDbEntity
8
0
100
AcDbLine
10
-44.375000000000071
20
-27.38055292918537
30
0
11
-44.375000000000071
21
-34.880552929185377
31
0
0
LINE
5
250
100
AcDbEntity
8
0
100
AcDbLine
10
-40.625000000000064
20
-31.130552929185377
30
0
11
-44.375000000000071
21
-27.38055292918537
31
0
0
LWPOLYLINE
5
251
100
AcDbEntity
8
0
100
AcDbPolyline
90
3
70
1
43
0.0
10
-41.049264068711992
20
-31.130552929185381
10
-44.075000000000067
20
-34.156288860473445
10
-44.075000000000067
20
-28.104816997897299
0
LINE
5
252
100
AcDbEntity
8
0
100
AcDbLine
10
-40.625000000000071
20
-32.544766491558477
30
0
11
-44.295853535326287
21
-36.215620026884679
31
0
0
LINE
5
253
100
AcDbEntity
8
0
100
AcDbLine
10
-39.772343636867461
20
-37.977475644174326
30
0
11
-43.88961550284094
21
-37.977475644174319
31
0
0
LINE
5
254
100
AcDbEntity
8
0
100
AcDbLine
10
39.77234363686744
20
-37.977475644174341
30
0
11
43.889615502840925
21
-37.977475644174334
31
0
0
LINE
5
255
100
AcDbEntity
8
0
100
AcDbLine
10
40.625000000000057
20
-32.544766491558491
30
0
11
44.295853535326266
21
-36.215620026884693
31
0
0
LINE
5
256
100
AcDbEntity
8
0
100
AcDbLine
10
40.625000000000043
20
-31.130552929185392
30
0
11
44.375000000000057
21
-27.380552929185388
31
0
0
LINE
5
257
100
AcDbEntity
8
0
100
AcDbLine
10
44.375000000000057
20
-27.380552929185388
30
0
11
44.375000000000057
21
-34.880552929185392
31
0
0
LINE
5
258
100
AcDbEntity
8
0
100
AcDbLine
10
40.625000000000043
20
-31.130552929185402
30
0
11
44.375000000000057
21
-34.880552929185392
31
0
0
LWPOLYLINE
5
259
100
AcDbEntity
8
0
100
AcDbPolyline
90
3
70
1
43
0.0
10
44.075000000000053
20
-28.104816997897316
10
44.075000000000053
20
-34.15628886047346
10
41.04926406871197
20
-31.130552929185399
0
LWPOLYLINE
5
260
100
AcDbEntity
8
0
100
AcDbPolyline
90
3
70
1
43
0.0
10
40.625000000000028
20
-22.201248580562005
10
40.625000000000043
20
-29.701248580562023
10
44.375000000000036
20
-25.951248580562005
0
LWPOLYLINE
5
261
100
AcDbEntity
8
0
100
AcDbPolyline
90
3
70
1
43
0.0
10
40.92500000000004
20
-22.925512649273937
10
40.925000000000047
20
-28.976984511850091
10
43.950735931288108
20
-25.951248580562005
0
LWPOLYLINE
5
262
100
AcDbEntity
8
0
100
AcDbPolyline
90
3
70
1
43
0.0
10
44.075000000000045
20
-17.762365109639472
10
44.075000000000031
20
-23.813836972215611
10
41.049264068711949
20
-20.788101040927547
0
LINE
5
263
100
AcDbEntity
8
0
100
AcDbLine
10
40.625000000000028
20
-20.788101040927543
30
0
11
44.375000000000036
21
-17.03810104092754
31
0
0
LINE
5
264
100
AcDbEntity
8
0
100
AcDbLine
10
44.375000000000036
20
-17.03810104092754
30
0
11
44.375000000000036
21
-24.538101040927543
31
0
0
LINE
5
265
100
AcDbEntity
8
0
100
AcDbLine
10
40.625000000000028
20
-20.78810104092755
30
0
11
44.375000000000036
21
-24.538101040927543
31
0
0
LWPOLYLINE
5
266
100
AcDbEntity
8
0
100
AcDbPolyline
90
3
70
1
43
0.0
10
40.625000000000014
20
-11.858796692304153
10
40.625000000000036
20
-19.358796692304175
10
44.375000000000028
20
-15.608796692304157
0
LWPOLYLINE
5
267
100
AcDbEntity
8
0
100
AcDbPolyline
90
3
70
1
43
0.0
10
40.925000000000026
20
-12.583060761016089
10
40.92500000000004
20
-18.634532623592239
10
43.950735931288094
20
-15.608796692304159
0
LINE
5
268
100
AcDbEntity
8
0
100
AcDbLine
10
40.625000000000014
20
-10.388101040927536
30
0
11
44.375000000000014
21
-6.6381010409275341
31
0
0
LINE
5
269
100
AcDbEntity
8
0
100
AcDbLine
10
44.375000000000014
20
-6.6381010409275341
30
0
11
44.375000000000028
21
-14.138101040927536
31
0
0
LINE
5
270
100
AcDbEntity
8
0
100
AcDbLine
10
40.625000000000014
20
-10.388101040927545
30
0
11
44.375000000000028
21
-14.138101040927536
31
0
0
LWPOLYLINE
5
271
100
AcDbEntity
8
0
100
AcDbPolyline
90
3
70
1
43
0.0
10
44.075000000000017
20
-7.3623651096394678
10
44.075000000000024
20
-13.413836972215602
10
41.049264068711942
20
-10.388101040927541
0
LWPOLYLINE
5
272
100
AcDbEntity
8
0
100
AcDbPolyline
90
3
70
1
43
0.0
10
40.925000000000004
20
-2.1830607610160833
10
40.925000000000018
20
-8.2345326235922318
10
43.950735931288072
20
-5.2087966923041549
0
LWPOLYLINE
5
273
100
AcDbEntity
8
0
100
AcDbPolyline
90
3
70
1
43
0.0
10
40.625
20
-1.4587966923041484
10
40.625000000000014
20
-8.9587966923041691
10
44.375000000000007
20
-5.2087966923041513
0
LINE
5
274
100
AcDbEntity
8
0
100
AcDbLine
10
44.375000000000007
20
-3.7500000000000124
30
0
11
44.375
21
-1.0963452368173419e-14
31
0
0
LINE
5
275
100
AcDbEntity
8
0
100
AcDbLine
10
40.625
20
-1.6792123247455493e-14
30
0
11
44.375000000000007
21
-3.7500000000000124
31
0
0
LWPOLYLINE
5
276
100
AcDbEntity
8
0
100
AcDbPolyline
90
4
70
1
43
0.0
10
44.074999999999996
20
3.0257359312880565
10
44.074999999999996
20
-9.9920072216264089e-15
10
44.075000000000003
20
-3.0257359312880783
10
41.049264068711928
20
-1.3243409495425223e-14
0
LINE
5
277
100
AcDbEntity
8
0
100
AcDbLine
10
44.375
20
3.7499999999999911
30
0
11
44.375
21
-9.8532293435482627e-15
31
0
0
LINE
5
278
100
AcDbEntity
8
0
100
AcDbLine
10
40.625
20
-9.0205620750793953e-15
30
0
11
44.375
21
3.7499999999999911
31
0
0
LWPOLYLINE
5
279
100
AcDbEntity
8
0
100
AcDbPolyline
90
3
70
1
43
0.0
10
40.625
20
1.4587966923041229
10
40.625
20
8.9587966923041424
10
44.375
20
5.2087966923041318
0
LWPOLYLINE
5
280
100
AcDbEntity
8
0
100
AcDbPolyline
90
3
70
1
43
0.0
10
40.925000000000004
20
2.1830607610160579
10
40.925000000000004
20
8.2345326235922087
10
43.950735931288065
20
5.2087966923041327
0
LWPOLYLINE
5
281
100
AcDbEntity
8
0
100
AcDbPolyline
90
3
70
1
43
0.0
10
41.049264068711928
20
10.388101040927516
10
44.074999999999996
20
13.413836972215584
10
44.075000000000003
20
7.3623651096394465
0
LINE
5
282
100
AcDbEntity
8
0
100
AcDbLine
10
40.625
20
10.388101040927518
30
0
11
44.375
21
14.138101040927518
31
0
0
LINE
5
283
100
AcDbEntity
8
0
100
AcDbLine
10
44.375000000000007
20
6.6381010409275145
30
0
11
44.375
21
14.138101040927518
31
0
0
LINE
5
284
100
AcDbEntity
8
0
100
AcDbLine
10
40.625
20
10.388101040927509
30
0
11
44.375000000000007
21
6.6381010409275145
31
0
0
LWPOLYLINE
5
285
100
AcDbEntity
8
0
100
AcDbPolyline
90
3
70
1
43
0.0
10
40.625
20
11.858796692304129
10
40.625
20
19.358796692304146
10
44.375
20
15.608796692304139
0
LWPOLYLINE
5
286
100
AcDbEntity
8
0
100
AcDbPolyline
90
3
70
1
43
0.0
10
40.925000000000004
20
12.583060761016062
10
40.925000000000004
20
18.634532623592214
10
43.950735931288065
20
15.608796692304141
0
LWPOLYLINE
5
287
100
AcDbEntity
8
0
100
AcDbPolyline
90
3
70
1
43
0.0
10
41.049264068711935
20
20.788101040927522
10
44.075000000000003
20
23.81383697221559
10
44.075000000000003
20
17.762365109639454
0
LINE
5
288
100
AcDbEntity
8
0
100
AcDbLine
10
40.625000000000007
20
20.788101040927526
30
0
11
44.375000000000007
21
24.538101040927526
31
0
0
LINE
5
289
100
AcDbEntity
8
0
100
AcDbLine
10
44.375000000000007
20
17.038101040927522
30
0
11
44.375000000000007
21
24.538101040927526
31
0
0
LINE
5
290
100
AcDbEntity
8
0
100
AcDbLine
10
40.625000000000007
20
20.788101040927515
30
0
11
44.375000000000007
21
17.038101040927522
31
0
0
LWPOLYLINE
5
291
100
AcDbEntity
8
0
100
AcDbPolyline
90
3
70
1
43
0.0
10
40.925000000000011
20
22.925512649273912
10
40.925000000000011
20
28.976984511850063
10
43.950735931288079
20
25.951248580561987
0
LWPOLYLINE
5
292
100
AcDbEntity
8
0
100
AcDbPolyline
90
3
70
1
43
0.0
10
40.625000000000007
20
22.20124858056198
10
40.625000000000007
20
29.701248580561995
10
44.375000000000007
20
25.951248580561987
0
LINE
5
293
100
AcDbEntity
8
0
100
AcDbLine
10
40.625000000000007
20
31.130552929185377
30
0
11
44.375000000000007
21
34.880552929185377
31
0
0
LINE
5
294
100
AcDbEntity
8
0
100
AcDbLine
10
44.375000000000014
20
27.38055292918537
30
0
11
44.375000000000007
21
34.880552929185377
31
0
0
LINE
5
295
100
AcDbEntity
8
0
100
AcDbLine
10
40.625000000000007
20
31.130552929185367
30
0
11
44.375000000000014
21
27.38055292918537
31
0
0
LWPOLYLINE
5
296
100
AcDbEntity
8
0
100
AcDbPolyline
90
3
70
1
43
0.0
10
41.049264068711935
20
31.13055292918537
10
44.075000000000003
20
34.156288860473445
10
44.075000000000017
20
28.104816997897299
0
LINE
5
297
100
AcDbEntity
8
0
100
AcDbLine
10
40.625000000000007
20
32.54476649155847
30
0
11
44.295853535326223
21
36.215620026884679
31
0
0
LINE
5
298
100
AcDbEntity
8
0
100
AcDbLine
10
39.77234363686739
20
37.977475644174319
30
0
11
43.889615502840869
21
37.977475644174319
31
0
0
ENDSEC
0
SECTION
2
OBJECTS
0
DICTIONARY
5
C
100
AcDbDictionary
3
ACAD_GROUP
350
D
3
ACAD_MLINESTYLE
350
17
0
DICTIONARY
5
D
100
AcDbDictionary
0
DICTIONARY
5
1A
330
C
100
AcDbDictionary
0
DICTIONARY
5
17
100
AcDbDictionary
0
ENDSEC
0
EOF
