# WaveFront *.obj file (generated by Autodesk ATF)

mtllib fb2d42fa-0ab3-4c5d-bf70-4b7dc37fa268.mtl

g Body2

v 15.557098 1.200000 -164.506673
v 15.763169 1.200000 -164.664797
v 16.003144 1.200000 -164.764198
v 16.260669 1.200000 -164.798102
v 16.518194 1.200000 -164.764198
v 16.758169 1.200000 -164.664797
v 16.964240 1.200000 -164.506673
v 16.964240 0.200000 -164.506673
v 16.758169 0.200000 -164.664797
v 16.518194 0.200000 -164.764198
v 16.260669 0.200000 -164.798102
v 16.003144 0.200000 -164.764198
v 15.763169 0.200000 -164.664797
v 15.557098 0.200000 -164.506673
v 3.838129 0.200000 -152.787705
v 3.838129 1.200000 -152.787705
v 17.321329 0.200000 -164.149584
v 4.518028 0.200000 -151.346283
v 4.476607 0.200000 -151.314500
v 4.428371 0.200000 -151.294520
v 4.376607 0.200000 -151.287705
v -4.398673 0.200000 -151.287705
v -4.450436 0.200000 -151.294520
v -4.498673 0.200000 -151.314500
v -4.540094 0.200000 -151.346283
v -17.343395 0.200000 -164.149584
v -16.986306 0.200000 -164.506673
v -16.780235 0.200000 -164.664797
v -16.540260 0.200000 -164.764198
v -16.282735 0.200000 -164.798102
v -16.025210 0.200000 -164.764198
v -15.785235 0.200000 -164.664797
v -15.579163 0.200000 -164.506673
v -3.860195 0.200000 -152.787705
v -16.986306 1.200000 -164.506673
v -16.780235 1.200000 -164.664797
v -16.540260 1.200000 -164.764198
v -16.282735 1.200000 -164.798102
v -16.025210 1.200000 -164.764198
v -15.785235 1.200000 -164.664797
v -15.579163 1.200000 -164.506673
v -3.860195 1.200000 -152.787705
v -4.540094 1.200000 -151.346283
v -17.343395 1.200000 -164.149584
v 17.321329 1.200000 -164.149584
v 4.518028 1.200000 -151.346283
v 4.476607 1.200000 -151.314500
v 4.428371 1.200000 -151.294520
v 4.376607 1.200000 -151.287705
v -4.398673 1.200000 -151.287705
v -4.450436 1.200000 -151.294520
v -4.498673 1.200000 -151.314500
vt -0.000000 0.781471 0.000000
vt -1.000000 0.781471 0.000000
vt -0.000000 0.520981 0.000000
vt -1.000000 0.520981 0.000000
vt -0.000000 0.260490 0.000000
vt -1.000000 0.260490 0.000000
vt -0.000000 0.000000 0.000000
vt -1.000000 0.000000 0.000000
vt -0.000000 -0.260490 0.000000
vt -1.000000 -0.260490 0.000000
vt -0.000000 -0.520981 0.000000
vt -1.000000 -0.520981 0.000000
vt -0.000000 -0.781471 0.000000
vt -1.000000 -0.781471 0.000000
vt 0.995000 0.000000 0.000000
vt 17.568124 0.000000 0.000000
vt 0.995000 1.000000 0.000000
vt 17.568124 1.000000 0.000000
vt 15.774202 -6.415823 0.000000
vt 16.769202 -6.415823 0.000000
vt 15.568131 -6.257699 0.000000
vt 16.975273 -6.257699 0.000000
vt 17.332362 -5.900610 0.000000
vt 16.529227 -6.515224 0.000000
vt 16.014177 -6.515224 0.000000
vt 16.271702 -6.549127 0.000000
vt 3.849162 5.461270 0.000000
vt 4.529061 6.902691 0.000000
vt 4.387640 6.961270 0.000000
vt 4.487640 6.934475 0.000000
vt 4.439404 6.954455 0.000000
vt -4.387640 6.961270 0.000000
vt -3.849162 5.461270 0.000000
vt -4.529061 6.902691 0.000000
vt -17.332362 -5.900610 0.000000
vt -4.439404 6.954455 0.000000
vt -4.487640 6.934475 0.000000
vt -15.568131 -6.257699 0.000000
vt -16.975273 -6.257699 0.000000
vt -15.774202 -6.415823 0.000000
vt -16.769202 -6.415823 0.000000
vt -16.014177 -6.515224 0.000000
vt -16.529227 -6.515224 0.000000
vt -16.271702 -6.549127 0.000000
vt -0.000000 0.781471 0.000000
vt -1.000000 0.781471 0.000000
vt -0.000000 0.520981 0.000000
vt -1.000000 0.520981 0.000000
vt -0.000000 0.260490 0.000000
vt -1.000000 0.260490 0.000000
vt -0.000000 -0.000000 0.000000
vt -1.000000 -0.000000 0.000000
vt -0.000000 -0.260490 0.000000
vt -1.000000 -0.260490 0.000000
vt -0.000000 -0.520981 0.000000
vt -1.000000 -0.520981 0.000000
vt -0.000000 -0.781471 0.000000
vt -1.000000 -0.781471 0.000000
vt 16.573124 1.000000 0.000000
vt 0.000000 1.000000 0.000000
vt 16.573124 0.000000 0.000000
vt 0.000000 0.000000 0.000000
vt 0.000000 0.000000 0.000000
vt 18.106602 0.000000 0.000000
vt 0.000000 1.000000 0.000000
vt 18.106602 1.000000 0.000000
vt 0.995000 0.000000 0.000000
vt 1.500000 0.000000 0.000000
vt 0.995000 1.000000 0.000000
vt 1.500000 1.000000 0.000000
vt 0.000000 0.000000 0.000000
vt 7.698324 0.000000 0.000000
vt 0.000000 1.000000 0.000000
vt 7.698324 1.000000 0.000000
vt 0.505000 1.000000 0.000000
vt 0.000000 1.000000 0.000000
vt 0.505000 0.000000 0.000000
vt 0.000000 0.000000 0.000000
vt 0.000000 0.000000 0.000000
vt 18.106602 0.000000 0.000000
vt 0.000000 1.000000 0.000000
vt 18.106602 1.000000 0.000000
vt -1.000000 -0.000000 0.000000
vt -0.000000 0.000000 0.000000
vt -1.000000 0.052360 0.000000
vt -0.000000 0.052360 0.000000
vt -1.000000 0.104720 0.000000
vt -0.000000 0.104720 0.000000
vt -1.000000 0.157080 0.000000
vt -0.000000 0.157080 0.000000
vt 0.000000 0.000000 0.000000
vt 8.775279 0.000000 0.000000
vt 0.000000 1.000000 0.000000
vt 8.775279 1.000000 0.000000
vt -1.000000 0.000000 0.000000
vt -0.000000 0.000000 0.000000
vt -1.000000 0.052360 0.000000
vt -0.000000 0.052360 0.000000
vt -1.000000 0.104720 0.000000
vt -0.000000 0.104720 0.000000
vt -1.000000 0.157080 0.000000
vt -0.000000 0.157080 0.000000
vt -16.769202 -6.415823 0.000000
vt -15.774202 -6.415823 0.000000
vt -16.975273 -6.257699 0.000000
vt -15.568131 -6.257699 0.000000
vt -17.332362 -5.900610 0.000000
vt -3.849162 5.461270 0.000000
vt -4.529061 6.902691 0.000000
vt -4.387640 6.961270 0.000000
vt -4.487640 6.934475 0.000000
vt -4.439404 6.954455 0.000000
vt -16.014177 -6.515224 0.000000
vt -16.529227 -6.515224 0.000000
vt -16.271702 -6.549127 0.000000
vt 3.849162 5.461270 0.000000
vt 4.387640 6.961270 0.000000
vt 4.529061 6.902691 0.000000
vt 4.487640 6.934475 0.000000
vt 17.332362 -5.900610 0.000000
vt 15.568131 -6.257699 0.000000
vt 16.975273 -6.257699 0.000000
vt 16.769202 -6.415823 0.000000
vt 15.774202 -6.415823 0.000000
vt 16.529227 -6.515224 0.000000
vt 16.014177 -6.515224 0.000000
vt 16.271702 -6.549127 0.000000
vt 4.439404 6.954455 0.000000
vn -0.707107 0.000000 -0.707107
vn -0.707107 0.000000 -0.707107
vn -0.500000 0.000000 -0.866025
vn -0.500000 0.000000 -0.866025
vn -0.258819 0.000000 -0.965926
vn -0.258819 0.000000 -0.965926
vn -0.000000 0.000000 -1.000000
vn -0.000000 0.000000 -1.000000
vn 0.258819 -0.000000 -0.965926
vn 0.258819 -0.000000 -0.965926
vn 0.500000 -0.000000 -0.866025
vn 0.500000 -0.000000 -0.866025
vn 0.707107 -0.000000 -0.707107
vn 0.707107 -0.000000 -0.707107
vn -0.707107 0.000000 -0.707107
vn -0.707107 0.000000 -0.707107
vn -0.000000 -1.000000 -0.000000
vn -0.000000 -1.000000 -0.000000
vn -0.000000 -1.000000 -0.000000
vn -0.000000 -1.000000 -0.000000
vn -0.000000 -1.000000 -0.000000
vn -0.000000 -1.000000 -0.000000
vn -0.000000 -1.000000 -0.000000
vn -0.000000 -1.000000 -0.000000
vn -0.000000 -1.000000 -0.000000
vn -0.000000 -1.000000 -0.000000
vn -0.000000 -1.000000 -0.000000
vn -0.000000 -1.000000 -0.000000
vn -0.000000 -1.000000 -0.000000
vn -0.000000 -1.000000 -0.000000
vn -0.000000 -1.000000 -0.000000
vn -0.000000 -1.000000 -0.000000
vn -0.000000 -1.000000 -0.000000
vn -0.000000 -1.000000 -0.000000
vn -0.000000 -1.000000 -0.000000
vn -0.000000 -1.000000 -0.000000
vn -0.000000 -1.000000 -0.000000
vn -0.000000 -1.000000 -0.000000
vn -0.000000 -1.000000 -0.000000
vn -0.000000 -1.000000 -0.000000
vn -0.000000 -1.000000 -0.000000
vn -0.000000 -1.000000 -0.000000
vn -0.707107 0.000000 -0.707107
vn -0.707107 0.000000 -0.707107
vn -0.500000 0.000000 -0.866025
vn -0.500000 0.000000 -0.866025
vn -0.258819 0.000000 -0.965926
vn -0.258819 0.000000 -0.965926
vn 0.000000 -0.000000 -1.000000
vn 0.000000 -0.000000 -1.000000
vn 0.258819 -0.000000 -0.965926
vn 0.258819 -0.000000 -0.965926
vn 0.500000 -0.000000 -0.866025
vn 0.500000 -0.000000 -0.866025
vn 0.707107 -0.000000 -0.707107
vn 0.707107 -0.000000 -0.707107
vn 0.707107 0.000000 -0.707107
vn 0.707107 0.000000 -0.707107
vn -0.707107 0.000000 0.707107
vn -0.707107 0.000000 0.707107
vn -0.707107 0.000000 0.707107
vn -0.707107 0.000000 0.707107
vn -0.707107 0.000000 -0.707107
vn -0.707107 0.000000 -0.707107
vn 0.000000 0.000000 -1.000000
vn 0.000000 0.000000 -1.000000
vn 0.000000 0.000000 -1.000000
vn 0.000000 0.000000 -1.000000
vn 0.707107 0.000000 -0.707107
vn 0.707107 0.000000 -0.707107
vn 0.707107 -0.000000 0.707107
vn 0.707107 -0.000000 0.707107
vn 0.707107 -0.000000 0.707107
vn 0.707107 -0.000000 0.707107
vn 0.000000 -0.000000 1.000000
vn 0.000000 -0.000000 1.000000
vn 0.258819 -0.000000 0.965926
vn 0.258819 -0.000000 0.965926
vn 0.500000 -0.000000 0.866025
vn 0.500000 -0.000000 0.866025
vn 0.000000 -0.000000 1.000000
vn 0.000000 -0.000000 1.000000
vn 0.000000 -0.000000 1.000000
vn 0.000000 -0.000000 1.000000
vn -0.500000 -0.000000 0.866025
vn -0.500000 -0.000000 0.866025
vn -0.258819 -0.000000 0.965926
vn -0.258819 -0.000000 0.965926
vn 0.000000 1.000000 0.000000
vn 0.000000 1.000000 0.000000
vn 0.000000 1.000000 0.000000
vn 0.000000 1.000000 0.000000
vn 0.000000 1.000000 0.000000
vn 0.000000 1.000000 0.000000
vn 0.000000 1.000000 0.000000
vn 0.000000 1.000000 0.000000
vn 0.000000 1.000000 0.000000
vn 0.000000 1.000000 0.000000
vn 0.000000 1.000000 0.000000
vn 0.000000 1.000000 0.000000
vn 0.000000 1.000000 0.000000
vn 0.000000 1.000000 0.000000
vn 0.000000 1.000000 0.000000
vn 0.000000 1.000000 0.000000
vn 0.000000 1.000000 0.000000
vn 0.000000 1.000000 0.000000
vn 0.000000 1.000000 0.000000
vn 0.000000 1.000000 0.000000
vn 0.000000 1.000000 0.000000
vn 0.000000 1.000000 0.000000
vn 0.000000 1.000000 0.000000
vn 0.000000 1.000000 0.000000
vn 0.000000 1.000000 0.000000
vn 0.000000 1.000000 0.000000
usemtl Steel_-_Satin
f 14/1/1 1/2/2 13/3/3
f 13/3/3 1/2/2 2/4/4
f 13/3/3 2/4/4 12/5/5
f 12/5/5 2/4/4 3/6/6
f 12/5/5 3/6/6 11/7/7
f 11/7/7 3/6/6 4/8/8
f 11/7/7 4/8/8 10/9/9
f 10/9/9 4/8/8 5/10/10
f 10/9/9 5/10/10 9/11/11
f 9/11/11 5/10/10 6/12/12
f 9/11/11 6/12/12 8/13/13
f 8/13/13 6/12/12 7/14/14
f 14/15/1 15/16/15 1/17/2
f 1/17/2 15/16/15 16/18/16
f 13/19/17 9/20/18 14/21/19
f 14/21/19 9/20/18 8/22/20
f 14/21/19 8/22/20 17/23/21
f 9/20/18 13/19/17 10/24/22
f 10/24/22 13/19/17 12/25/23
f 10/24/22 12/25/23 11/26/24
f 14/21/19 17/23/21 15/27/25
f 15/27/25 17/23/21 18/28/26
f 15/27/25 18/28/26 21/29/27
f 21/29/27 18/28/26 19/30/28
f 21/29/27 19/30/28 20/31/29
f 21/29/27 22/32/30 15/27/25
f 15/27/25 22/32/30 34/33/31
f 34/33/31 22/32/30 25/34/32
f 34/33/31 25/34/32 26/35/33
f 23/36/34 24/37/35 22/32/30
f 22/32/30 24/37/35 25/34/32
f 34/33/31 26/35/33 33/38/36
f 33/38/36 26/35/33 27/39/37
f 33/38/36 27/39/37 32/40/38
f 32/40/38 27/39/37 28/41/39
f 32/40/38 28/41/39 31/42/40
f 31/42/40 28/41/39 29/43/41
f 31/42/40 29/43/41 30/44/42
f 27/45/43 35/46/44 28/47/45
f 28/47/45 35/46/44 36/48/46
f 28/47/45 36/48/46 29/49/47
f 29/49/47 36/48/46 37/50/48
f 29/49/47 37/50/48 30/51/49
f 30/51/49 37/50/48 38/52/50
f 30/51/49 38/52/50 31/53/51
f 31/53/51 38/52/50 39/54/52
f 31/53/51 39/54/52 32/55/53
f 32/55/53 39/54/52 40/56/54
f 32/55/53 40/56/54 33/57/55
f 33/57/55 40/56/54 41/58/56
f 41/59/56 42/60/57 33/61/55
f 33/61/55 42/60/57 34/62/58
f 26/63/59 25/64/60 44/65/61
f 44/65/61 25/64/60 43/66/62
f 27/67/43 26/68/63 35/69/44
f 35/69/44 26/68/63 44/70/64
f 15/71/65 34/72/66 16/73/67
f 16/73/67 34/72/66 42/74/68
f 7/75/14 45/76/69 8/77/13
f 8/77/13 45/76/69 17/78/70
f 18/79/71 17/80/72 46/81/73
f 46/81/73 17/80/72 45/82/74
f 49/83/75 21/84/76 48/85/77
f 48/85/77 21/84/76 20/86/78
f 48/85/77 20/86/78 47/87/79
f 47/87/79 20/86/78 19/88/80
f 47/87/79 19/88/80 46/89/73
f 46/89/73 19/88/80 18/90/71
f 22/91/81 21/92/82 50/93/83
f 50/93/83 21/92/82 49/94/84
f 43/95/62 25/96/60 52/97/85
f 52/97/85 25/96/60 24/98/86
f 52/97/85 24/98/86 51/99/87
f 51/99/87 24/98/86 23/100/88
f 51/99/87 23/100/88 50/101/83
f 50/101/83 23/100/88 22/102/81
f 6/103/89 2/104/90 7/105/91
f 7/105/91 2/104/90 1/106/92
f 7/105/91 1/106/92 45/107/93
f 45/107/93 1/106/92 16/108/94
f 45/107/93 16/108/94 46/109/95
f 46/109/95 16/108/94 49/110/96
f 46/109/95 49/110/96 47/111/97
f 47/111/97 49/110/96 48/112/98
f 2/104/90 6/103/89 3/113/99
f 3/113/99 6/103/89 5/114/100
f 3/113/99 5/114/100 4/115/101
f 16/108/94 42/116/102 49/110/96
f 49/110/96 42/116/102 50/117/103
f 50/117/103 42/116/102 43/118/104
f 50/117/103 43/118/104 52/119/105
f 43/118/104 42/116/102 44/120/106
f 44/120/106 42/116/102 41/121/107
f 44/120/106 41/121/107 35/122/108
f 35/122/108 41/121/107 36/123/109
f 36/123/109 41/121/107 40/124/110
f 36/123/109 40/124/110 37/125/111
f 37/125/111 40/124/110 39/126/112
f 37/125/111 39/126/112 38/127/113
f 52/119/105 51/128/114 50/117/103
# 52 vertices
# 128 texture params
# 114 normals
# 100 facets

# 1 groups
