# WaveFront *.obj file (generated by Autodesk ATF)

mtllib 4bf72286-37fa-4b67-a635-8d2cc0077193.mtl

g Body1

v 5.683000 1.000000 -0.500000
v 5.894455 1.000000 -0.472161
v 6.091500 1.000000 -0.390543
v 6.260706 1.000000 -0.260706
v 6.390543 1.000000 -0.091500
v 6.472161 1.000000 0.105545
v 6.500000 1.000000 0.317000
v 6.500000 0.000000 0.317000
v 6.472161 0.000000 0.105545
v 6.390543 0.000000 -0.091500
v 6.260706 0.000000 -0.260706
v 6.091500 0.000000 -0.390543
v 5.894455 0.000000 -0.472161
v 5.683000 0.000000 -0.500000
v -5.683000 0.000000 -0.500000
v -5.683000 1.000000 -0.500000
v 6.500000 0.000000 0.500000
v -6.500000 0.000000 0.500000
v -6.500000 0.000000 0.317000
v -6.472161 0.000000 0.105545
v -6.390543 0.000000 -0.091500
v -6.260706 0.000000 -0.260706
v -6.091500 0.000000 -0.390543
v -5.894455 0.000000 -0.472161
v -6.500000 1.000000 0.317000
v -6.472161 1.000000 0.105545
v -6.390543 1.000000 -0.091500
v -6.260706 1.000000 -0.260706
v -6.091500 1.000000 -0.390543
v -5.894455 1.000000 -0.472161
v 6.500000 1.000000 0.500000
v -6.500000 1.000000 0.500000
vt -0.000000 0.641670 0.000000
vt -1.000000 0.641670 0.000000
vt -0.000000 0.427780 0.000000
vt -1.000000 0.427780 0.000000
vt -0.000000 0.213890 0.000000
vt -1.000000 0.213890 0.000000
vt -0.000000 0.000000 0.000000
vt -1.000000 0.000000 0.000000
vt -0.000000 -0.213890 0.000000
vt -1.000000 -0.213890 0.000000
vt -0.000000 -0.427780 0.000000
vt -1.000000 -0.427780 0.000000
vt -0.000000 -0.641670 0.000000
vt -1.000000 -0.641670 0.000000
vt 0.817000 0.000000 0.000000
vt 12.183000 0.000000 0.000000
vt 0.817000 1.000000 0.000000
vt 12.183000 1.000000 0.000000
vt -5.894455 0.472161 0.000000
vt -6.091500 0.390543 0.000000
vt -5.683000 0.500000 0.000000
vt 6.091500 0.390543 0.000000
vt 5.683000 0.500000 0.000000
vt 5.894455 0.472161 0.000000
vt 6.260706 0.260706 0.000000
vt -6.260706 0.260706 0.000000
vt 6.390543 0.091500 0.000000
vt -6.390543 0.091500 0.000000
vt 6.472161 -0.105545 0.000000
vt -6.472161 -0.105545 0.000000
vt 6.500000 -0.317000 0.000000
vt -6.500000 -0.317000 0.000000
vt 6.500000 -0.500000 0.000000
vt -6.500000 -0.500000 0.000000
vt -0.000000 0.641670 0.000000
vt -1.000000 0.641670 0.000000
vt -0.000000 0.427780 0.000000
vt -1.000000 0.427780 0.000000
vt -0.000000 0.213890 0.000000
vt -1.000000 0.213890 0.000000
vt -0.000000 -0.000000 0.000000
vt -1.000000 -0.000000 0.000000
vt -0.000000 -0.213890 0.000000
vt -1.000000 -0.213890 0.000000
vt -0.000000 -0.427780 0.000000
vt -1.000000 -0.427780 0.000000
vt -0.000000 -0.641670 0.000000
vt -1.000000 -0.641670 0.000000
vt 0.000000 0.000000 0.000000
vt 13.000000 0.000000 0.000000
vt 0.000000 1.000000 0.000000
vt 13.000000 1.000000 0.000000
vt 0.817000 0.000000 0.000000
vt 1.000000 0.000000 0.000000
vt 0.817000 1.000000 0.000000
vt 1.000000 1.000000 0.000000
vt 0.183000 1.000000 0.000000
vt 0.000000 1.000000 0.000000
vt 0.183000 0.000000 0.000000
vt 0.000000 0.000000 0.000000
vt 0.105545 6.472161 0.000000
vt 0.105545 -6.472161 0.000000
vt 0.317000 6.500000 0.000000
vt 0.317000 -6.500000 0.000000
vt 0.500000 -6.500000 0.000000
vt -0.091500 -6.390543 0.000000
vt -0.091500 6.390543 0.000000
vt -0.260706 -6.260706 0.000000
vt -0.260706 6.260706 0.000000
vt -0.390543 -6.091500 0.000000
vt -0.390543 6.091500 0.000000
vt -0.500000 -5.683000 0.000000
vt -0.500000 5.683000 0.000000
vt -0.472161 5.894455 0.000000
vt -0.472161 -5.894455 0.000000
vt 0.500000 6.500000 0.000000
vn -0.000000 0.000000 -1.000000
vn -0.000000 0.000000 -1.000000
vn 0.258819 -0.000000 -0.965926
vn 0.258819 -0.000000 -0.965926
vn 0.500000 -0.000000 -0.866025
vn 0.500000 -0.000000 -0.866025
vn 0.707107 -0.000000 -0.707107
vn 0.707107 -0.000000 -0.707107
vn 0.866025 -0.000000 -0.500000
vn 0.866025 -0.000000 -0.500000
vn 0.965926 -0.000000 -0.258819
vn 0.965926 -0.000000 -0.258819
vn 1.000000 -0.000000 -0.000000
vn 1.000000 -0.000000 -0.000000
vn 0.000000 0.000000 -1.000000
vn 0.000000 0.000000 -1.000000
vn -0.000000 -1.000000 -0.000000
vn -0.000000 -1.000000 -0.000000
vn -0.000000 -1.000000 -0.000000
vn -0.000000 -1.000000 -0.000000
vn -0.000000 -1.000000 -0.000000
vn -0.000000 -1.000000 -0.000000
vn -0.000000 -1.000000 -0.000000
vn -0.000000 -1.000000 -0.000000
vn -0.000000 -1.000000 -0.000000
vn -0.000000 -1.000000 -0.000000
vn -0.000000 -1.000000 -0.000000
vn -0.000000 -1.000000 -0.000000
vn -0.000000 -1.000000 -0.000000
vn -0.000000 -1.000000 -0.000000
vn -0.000000 -1.000000 -0.000000
vn -0.000000 -1.000000 -0.000000
vn -1.000000 -0.000000 -0.000000
vn -1.000000 -0.000000 -0.000000
vn -0.965926 0.000000 -0.258819
vn -0.965926 0.000000 -0.258819
vn -0.866025 0.000000 -0.500000
vn -0.866025 0.000000 -0.500000
vn -0.707107 0.000000 -0.707107
vn -0.707107 0.000000 -0.707107
vn -0.500000 0.000000 -0.866025
vn -0.500000 0.000000 -0.866025
vn -0.258819 0.000000 -0.965926
vn -0.258819 0.000000 -0.965926
vn 0.000000 0.000000 1.000000
vn 0.000000 0.000000 1.000000
vn 0.000000 0.000000 1.000000
vn 0.000000 0.000000 1.000000
vn -1.000000 0.000000 0.000000
vn -1.000000 0.000000 0.000000
vn 1.000000 -0.000000 0.000000
vn 1.000000 -0.000000 0.000000
vn 0.000000 1.000000 0.000000
vn 0.000000 1.000000 0.000000
vn 0.000000 1.000000 0.000000
vn 0.000000 1.000000 0.000000
vn 0.000000 1.000000 0.000000
vn 0.000000 1.000000 0.000000
vn 0.000000 1.000000 0.000000
vn 0.000000 1.000000 0.000000
vn 0.000000 1.000000 0.000000
vn 0.000000 1.000000 0.000000
vn 0.000000 1.000000 0.000000
vn 0.000000 1.000000 0.000000
vn 0.000000 1.000000 0.000000
vn 0.000000 1.000000 0.000000
vn 0.000000 1.000000 0.000000
vn 0.000000 1.000000 0.000000
usemtl Steel_-_Satin
f 14/1/1 1/2/2 13/3/3
f 13/3/3 1/2/2 2/4/4
f 13/3/3 2/4/4 12/5/5
f 12/5/5 2/4/4 3/6/6
f 12/5/5 3/6/6 11/7/7
f 11/7/7 3/6/6 4/8/8
f 11/7/7 4/8/8 10/9/9
f 10/9/9 4/8/8 5/10/10
f 10/9/9 5/10/10 9/11/11
f 9/11/11 5/10/10 6/12/12
f 9/11/11 6/12/12 8/13/13
f 8/13/13 6/12/12 7/14/14
f 14/15/1 15/16/15 1/17/2
f 1/17/2 15/16/15 16/18/16
f 13/19/17 12/20/18 14/21/19
f 14/21/19 12/20/18 23/22/20
f 14/21/19 23/22/20 15/23/21
f 15/23/21 23/22/20 24/24/22
f 23/22/20 12/20/18 22/25/23
f 22/25/23 12/20/18 11/26/24
f 22/25/23 11/26/24 21/27/25
f 21/27/25 11/26/24 10/28/26
f 21/27/25 10/28/26 20/29/27
f 20/29/27 10/28/26 9/30/28
f 20/29/27 9/30/28 19/31/29
f 19/31/29 9/30/28 8/32/30
f 19/31/29 8/32/30 18/33/31
f 18/33/31 8/32/30 17/34/32
f 19/35/33 25/36/34 20/37/35
f 20/37/35 25/36/34 26/38/36
f 20/37/35 26/38/36 21/39/37
f 21/39/37 26/38/36 27/40/38
f 21/39/37 27/40/38 22/41/39
f 22/41/39 27/40/38 28/42/40
f 22/41/39 28/42/40 23/43/41
f 23/43/41 28/42/40 29/44/42
f 23/43/41 29/44/42 24/45/43
f 24/45/43 29/44/42 30/46/44
f 24/45/43 30/46/44 15/47/15
f 15/47/15 30/46/44 16/48/16
f 18/49/45 17/50/46 32/51/47
f 32/51/47 17/50/46 31/52/48
f 19/53/33 18/54/49 25/55/34
f 25/55/34 18/54/49 32/56/50
f 7/57/14 31/58/51 8/59/13
f 8/59/13 31/58/51 17/60/52
f 6/61/53 26/62/54 7/63/55
f 7/63/55 26/62/54 25/64/56
f 7/63/55 25/64/56 32/65/57
f 26/62/54 6/61/53 27/66/58
f 27/66/58 6/61/53 5/67/59
f 27/66/58 5/67/59 28/68/60
f 28/68/60 5/67/59 4/69/61
f 28/68/60 4/69/61 29/70/62
f 29/70/62 4/69/61 3/71/63
f 29/70/62 3/71/63 16/72/64
f 16/72/64 3/71/63 1/73/65
f 1/73/65 3/71/63 2/74/66
f 16/72/64 30/75/67 29/70/62
f 32/65/57 31/76/68 7/63/55
# 32 vertices
# 76 texture params
# 68 normals
# 60 facets

# 1 groups
