# WaveFront *.obj file (generated by Autodesk ATF)

mtllib 19d94e86-9005-4b0d-9990-e8a01f034901.mtl

g bottom_Bracket

v -6.000000 -0.400533 0.250000
v -6.000000 -0.400533 0.500000
v 6.000000 -0.400533 0.500000
v 6.000000 -0.400533 0.250000
v -6.000000 0.000000 0.500000
v 6.000000 0.000000 0.500000
v -6.000000 0.981000 0.250000
v -6.000000 0.981000 -0.050000
v -6.000000 -0.719000 -0.050000
v -6.000000 -0.719000 1.250000
v -6.000000 0.000000 1.250000
v 5.300000 0.981000 -0.750000
v 5.481173 0.981000 -0.726148
v 5.650000 0.981000 -0.656218
v 5.794975 0.981000 -0.544975
v 5.906218 0.981000 -0.400000
v 5.976148 0.981000 -0.231173
v 6.000000 0.981000 -0.050000
v 6.000000 -0.719000 -0.050000
v 5.976148 -0.719000 -0.231173
v 5.906218 -0.719000 -0.400000
v 5.794975 -0.719000 -0.544975
v 5.650000 -0.719000 -0.656218
v 5.481173 -0.719000 -0.726148
v 5.300000 -0.719000 -0.750000
v -5.300000 0.981000 -0.750000
v -5.481173 0.981000 -0.726148
v -5.650000 0.981000 -0.656218
v -5.794975 0.981000 -0.544975
v -5.906218 0.981000 -0.400000
v -5.976148 0.981000 -0.231173
v 6.000000 0.981000 0.250000
v -5.300000 -0.719000 -0.750000
v -5.481173 -0.719000 -0.726148
v -5.650000 -0.719000 -0.656218
v -5.794975 -0.719000 -0.544975
v -5.906218 -0.719000 -0.400000
v -5.976148 -0.719000 -0.231173
v 6.000000 0.000000 1.250000
v 6.000000 -0.719000 1.250000
vt -0.000000 12.000000 0.000000
vt -0.250000 12.000000 0.000000
vt -0.000000 0.000000 0.000000
vt -0.250000 0.000000 0.000000
vt -0.000000 12.000000 0.000000
vt -0.400533 12.000000 0.000000
vt -0.000000 0.000000 0.000000
vt -0.400533 0.000000 0.000000
vt 0.750000 0.000000 0.000000
vt 0.750000 0.400533 0.000000
vt -0.000000 0.000000 0.000000
vt 0.000000 0.719000 0.000000
vt 1.300000 0.719000 0.000000
vt 1.000000 0.400533 0.000000
vt 1.300000 -0.981000 0.000000
vt 1.000000 -0.981000 0.000000
vt 0.719000 0.549779 0.000000
vt -0.981000 0.549779 0.000000
vt 0.719000 0.366519 0.000000
vt -0.981000 0.366519 0.000000
vt 0.719000 0.183260 0.000000
vt -0.981000 0.183260 0.000000
vt 0.719000 -0.000000 0.000000
vt -0.981000 -0.000000 0.000000
vt 0.719000 -0.183260 0.000000
vt -0.981000 -0.183260 0.000000
vt 0.719000 -0.366519 0.000000
vt -0.981000 -0.366519 0.000000
vt 0.719000 -0.549779 0.000000
vt -0.981000 -0.549779 0.000000
vt 0.018827 5.976148 0.000000
vt 0.018827 -5.976148 0.000000
vt 0.200000 6.000000 0.000000
vt 0.200000 -6.000000 0.000000
vt 0.500000 -6.000000 0.000000
vt -0.150000 -5.906218 0.000000
vt -0.150000 5.906218 0.000000
vt -0.294975 -5.794975 0.000000
vt -0.294975 5.794975 0.000000
vt -0.500000 -5.300000 0.000000
vt -0.500000 5.300000 0.000000
vt -0.406218 5.650000 0.000000
vt -0.476148 5.481173 0.000000
vt -0.476148 -5.481173 0.000000
vt -0.406218 -5.650000 0.000000
vt 0.500000 6.000000 0.000000
vt 11.300000 0.719000 0.000000
vt 0.700000 0.719000 0.000000
vt 11.300000 -0.981000 0.000000
vt 0.700000 -0.981000 0.000000
vt 0.719000 0.549779 0.000000
vt -0.981000 0.549779 0.000000
vt 0.719000 0.366519 0.000000
vt -0.981000 0.366519 0.000000
vt 0.719000 0.183260 0.000000
vt -0.981000 0.183260 0.000000
vt 0.719000 0.000000 0.000000
vt -0.981000 0.000000 0.000000
vt 0.719000 -0.183260 0.000000
vt -0.981000 -0.183260 0.000000
vt 0.719000 -0.366519 0.000000
vt -0.981000 -0.366519 0.000000
vt 0.719000 -0.549779 0.000000
vt -0.981000 -0.549779 0.000000
vt 12.000000 0.981000 0.000000
vt 0.000000 0.981000 0.000000
vt 12.000000 -0.400533 0.000000
vt 0.000000 -0.400533 0.000000
vt -0.000000 0.000000 0.000000
vt 12.000000 0.000000 0.000000
vt 0.000000 0.719000 0.000000
vt 12.000000 0.719000 0.000000
vt 1.250000 0.000000 0.000000
vt 2.000000 0.000000 0.000000
vt 1.250000 0.400533 0.000000
vt 2.000000 0.719000 0.000000
vt 0.700000 0.719000 0.000000
vt 1.000000 0.400533 0.000000
vt 0.700000 -0.981000 0.000000
vt 1.000000 -0.981000 0.000000
vt 6.000000 -0.250000 0.000000
vt -6.000000 -0.250000 0.000000
vt 6.000000 -1.000000 0.000000
vt -6.000000 -1.000000 0.000000
vt 0.976148 5.481173 0.000000
vt 0.906218 5.650000 0.000000
vt 1.000000 5.300000 0.000000
vt 0.794975 5.794975 0.000000
vt 0.650000 5.906218 0.000000
vt 0.481173 5.976148 0.000000
vt 0.650000 -5.906218 0.000000
vt 1.000000 -5.300000 0.000000
vt 0.481173 -5.976148 0.000000
vt 0.300000 6.000000 0.000000
vt 0.300000 -6.000000 0.000000
vt -1.000000 -6.000000 0.000000
vt -1.000000 6.000000 0.000000
vt 0.794975 -5.794975 0.000000
vt 0.906218 -5.650000 0.000000
vt 0.976148 -5.481173 0.000000
vn 0.000000 1.000000 0.000000
vn 0.000000 1.000000 0.000000
vn 0.000000 1.000000 0.000000
vn 0.000000 1.000000 0.000000
vn -0.000000 -0.000000 -1.000000
vn -0.000000 -0.000000 -1.000000
vn -0.000000 -0.000000 -1.000000
vn -0.000000 -0.000000 -1.000000
vn -1.000000 0.000000 0.000000
vn -1.000000 0.000000 0.000000
vn -1.000000 0.000000 0.000000
vn -1.000000 0.000000 0.000000
vn -1.000000 0.000000 0.000000
vn -1.000000 0.000000 0.000000
vn -1.000000 0.000000 0.000000
vn -1.000000 0.000000 0.000000
vn -0.000000 0.000000 -1.000000
vn -0.000000 0.000000 -1.000000
vn 0.258819 -0.000000 -0.965926
vn 0.258819 -0.000000 -0.965926
vn 0.500000 -0.000000 -0.866025
vn 0.500000 -0.000000 -0.866025
vn 0.707107 -0.000000 -0.707107
vn 0.707107 -0.000000 -0.707107
vn 0.866025 -0.000000 -0.500000
vn 0.866025 -0.000000 -0.500000
vn 0.965926 -0.000000 -0.258819
vn 0.965926 -0.000000 -0.258819
vn 1.000000 -0.000000 -0.000000
vn 1.000000 -0.000000 -0.000000
vn 0.000000 1.000000 0.000000
vn 0.000000 1.000000 0.000000
vn 0.000000 1.000000 0.000000
vn 0.000000 1.000000 0.000000
vn 0.000000 1.000000 0.000000
vn 0.000000 1.000000 0.000000
vn 0.000000 1.000000 0.000000
vn 0.000000 1.000000 0.000000
vn 0.000000 1.000000 0.000000
vn 0.000000 1.000000 0.000000
vn 0.000000 1.000000 0.000000
vn 0.000000 1.000000 0.000000
vn 0.000000 1.000000 0.000000
vn 0.000000 1.000000 0.000000
vn 0.000000 1.000000 0.000000
vn 0.000000 1.000000 0.000000
vn -0.000000 -0.000000 -1.000000
vn -0.000000 -0.000000 -1.000000
vn -0.965926 -0.000000 -0.258819
vn -0.965926 -0.000000 -0.258819
vn -0.866025 -0.000000 -0.500000
vn -0.866025 -0.000000 -0.500000
vn -0.707107 -0.000000 -0.707107
vn -0.707107 -0.000000 -0.707107
vn -0.500000 -0.000000 -0.866025
vn -0.500000 -0.000000 -0.866025
vn -0.258819 -0.000000 -0.965926
vn -0.258819 -0.000000 -0.965926
vn 0.000000 -0.000000 1.000000
vn 0.000000 -0.000000 1.000000
vn 0.000000 -0.000000 1.000000
vn 0.000000 -0.000000 1.000000
vn -0.000000 0.000000 1.000000
vn -0.000000 0.000000 1.000000
vn -0.000000 0.000000 1.000000
vn -0.000000 0.000000 1.000000
vn 1.000000 0.000000 0.000000
vn 1.000000 0.000000 0.000000
vn 1.000000 0.000000 0.000000
vn 1.000000 0.000000 0.000000
vn 1.000000 0.000000 0.000000
vn 1.000000 0.000000 0.000000
vn 0.000000 1.000000 0.000000
vn 0.000000 1.000000 0.000000
vn 0.000000 1.000000 0.000000
vn 0.000000 1.000000 0.000000
vn 0.000000 -1.000000 0.000000
vn 0.000000 -1.000000 0.000000
vn 0.000000 -1.000000 0.000000
vn 0.000000 -1.000000 0.000000
vn 0.000000 -1.000000 0.000000
vn 0.000000 -1.000000 0.000000
vn 0.000000 -1.000000 0.000000
vn 0.000000 -1.000000 0.000000
vn 0.000000 -1.000000 0.000000
vn 0.000000 -1.000000 0.000000
vn 0.000000 -1.000000 0.000000
vn 0.000000 -1.000000 0.000000
vn 0.000000 -1.000000 0.000000
vn 0.000000 -1.000000 0.000000
vn 0.000000 -1.000000 0.000000
vn 0.000000 -1.000000 0.000000
usemtl Steel_-_Satin
f 1/1/1 2/2/2 4/3/3
f 4/3/3 2/2/2 3/4/4
f 2/5/5 5/6/6 3/7/7
f 3/7/7 5/6/6 6/8/8
f 5/9/9 2/10/10 11/11/11
f 11/11/11 2/10/10 10/12/12
f 10/12/12 2/10/10 9/13/13
f 9/13/13 2/10/10 1/14/14
f 9/13/13 1/14/14 8/15/15
f 8/15/15 1/14/14 7/16/16
f 25/17/17 12/18/18 24/19/19
f 24/19/19 12/18/18 13/20/20
f 24/19/19 13/20/20 23/21/21
f 23/21/21 13/20/20 14/22/22
f 23/21/21 14/22/22 22/23/23
f 22/23/23 14/22/22 15/24/24
f 22/23/23 15/24/24 21/25/25
f 21/25/25 15/24/24 16/26/26
f 21/25/25 16/26/26 20/27/27
f 20/27/27 16/26/26 17/28/28
f 20/27/27 17/28/28 19/29/29
f 19/29/29 17/28/28 18/30/30
f 17/31/31 31/32/32 18/33/33
f 18/33/33 31/32/32 8/34/34
f 18/33/33 8/34/34 7/35/35
f 31/32/32 17/31/31 30/36/36
f 30/36/36 17/31/31 16/37/37
f 30/36/36 16/37/37 29/38/38
f 29/38/38 16/37/37 15/39/39
f 29/38/38 15/39/39 26/40/40
f 26/40/40 15/39/39 12/41/41
f 12/41/41 15/39/39 14/42/42
f 12/41/41 14/42/42 13/43/43
f 27/44/44 28/45/45 26/40/40
f 26/40/40 28/45/45 29/38/38
f 7/35/35 32/46/46 18/33/33
f 25/47/17 33/48/47 12/49/18
f 12/49/18 33/48/47 26/50/48
f 9/51/13 8/52/15 38/53/49
f 38/53/49 8/52/15 31/54/50
f 38/53/49 31/54/50 37/55/51
f 37/55/51 31/54/50 30/56/52
f 37/55/51 30/56/52 36/57/53
f 36/57/53 30/56/52 29/58/54
f 36/57/53 29/58/54 35/59/55
f 35/59/55 29/58/54 28/60/56
f 35/59/55 28/60/56 34/61/57
f 34/61/57 28/60/56 27/62/58
f 34/61/57 27/62/58 33/63/47
f 33/63/47 27/62/58 26/64/48
f 32/65/59 7/66/60 4/67/61
f 4/67/61 7/66/60 1/68/62
f 39/69/63 11/70/64 40/71/65
f 40/71/65 11/70/64 10/72/66
f 6/73/67 39/74/68 3/75/69
f 3/75/69 39/74/68 40/76/70
f 3/75/69 40/76/70 19/77/29
f 3/75/69 19/77/29 4/78/71
f 4/78/71 19/77/29 18/79/30
f 4/78/71 18/79/30 32/80/72
f 6/81/73 5/82/74 39/83/75
f 39/83/75 5/82/74 11/84/76
f 24/85/77 23/86/78 25/87/79
f 25/87/79 23/86/78 22/88/80
f 25/87/79 22/88/80 21/89/81
f 20/90/82 37/91/83 21/89/81
f 21/89/81 37/91/83 33/92/84
f 21/89/81 33/92/84 25/87/79
f 37/91/83 20/90/82 38/93/85
f 38/93/85 20/90/82 19/94/86
f 38/93/85 19/94/86 9/95/87
f 9/95/87 19/94/86 10/96/88
f 10/96/88 19/94/86 40/97/89
f 37/91/83 36/98/90 33/92/84
f 33/92/84 36/98/90 35/99/91
f 33/92/84 35/99/91 34/100/92

# 40 vertices
# 100 texture params
# 92 normals
# 76 facets

# 1 groups
