# WaveFront *.obj file (generated by Autodesk ATF)

mtllib b22238f1-175b-40f5-85af-e76ebf92b1b1.mtl

g dragChainBraket

v -0.350000 5.000000 -3.500000
v -0.332963 5.000000 -3.629410
v -0.283013 5.000000 -3.750000
v -0.203553 5.000000 -3.853553
v -0.100000 5.000000 -3.933013
v 0.020590 5.000000 -3.982963
v 0.150000 5.000000 -4.000000
v 0.150000 0.000000 -4.000000
v 0.020590 0.000000 -3.982963
v -0.100000 0.000000 -3.933013
v -0.203553 0.000000 -3.853553
v -0.283013 0.000000 -3.750000
v -0.332963 0.000000 -3.629410
v -0.350000 0.000000 -3.500000
v -0.350000 0.000000 3.200000
v -0.350000 5.000000 3.200000
v 6.350000 0.000000 -4.000000
v 6.350000 0.000000 -3.200000
v 0.350000 0.000000 -3.200000
v 0.350000 0.000000 3.500000
v 0.332963 0.000000 3.629410
v 0.283013 0.000000 3.750000
v 0.203553 0.000000 3.853553
v 0.100000 0.000000 3.933013
v -0.020590 0.000000 3.982963
v -0.150000 0.000000 4.000000
v -7.350000 0.000000 4.000000
v -7.350000 0.000000 3.200000
v 0.350000 5.000000 3.500000
v 0.332963 5.000000 3.629410
v 0.283013 5.000000 3.750000
v 0.203553 5.000000 3.853553
v 0.100000 5.000000 3.933013
v -0.020590 5.000000 3.982963
v -0.150000 5.000000 4.000000
v -7.350000 5.000000 4.000000
v -7.350000 5.000000 3.200000
v 6.350000 5.000000 -4.000000
v 6.350000 5.000000 -3.200000
v 0.350000 5.000000 -3.200000
vt -0.000000 0.392699 0.000000
vt -5.000000 0.392699 0.000000
vt -0.000000 0.261799 0.000000
vt -5.000000 0.261799 0.000000
vt -0.000000 0.130900 0.000000
vt -5.000000 0.130900 0.000000
vt -0.000000 -0.000000 0.000000
vt -5.000000 -0.000000 0.000000
vt -0.000000 -0.130900 0.000000
vt -5.000000 -0.130900 0.000000
vt -0.000000 -0.261799 0.000000
vt -5.000000 -0.261799 0.000000
vt -0.000000 -0.392699 0.000000
vt -5.000000 -0.392699 0.000000
vt 0.500000 0.000000 0.000000
vt 7.200000 0.000000 0.000000
vt 0.500000 5.000000 0.000000
vt 7.200000 5.000000 0.000000
vt -0.150000 -3.200000 0.000000
vt -0.150000 3.500000 0.000000
vt -0.850000 3.200000 0.000000
vt -0.167037 3.629410 0.000000
vt -0.216987 3.750000 0.000000
vt -0.650000 4.000000 0.000000
vt -0.296447 3.853553 0.000000
vt -0.400000 3.933013 0.000000
vt -0.520590 3.982963 0.000000
vt -6.850000 4.000000 0.000000
vt -6.850000 3.200000 0.000000
vt -0.850000 -3.500000 0.000000
vt -0.832963 -3.629410 0.000000
vt -0.783013 -3.750000 0.000000
vt -0.350000 -4.000000 0.000000
vt -0.703553 -3.853553 0.000000
vt -0.600000 -3.933013 0.000000
vt -0.479410 -3.982963 0.000000
vt 6.850000 -4.000000 0.000000
vt 6.850000 -3.200000 0.000000
vt -0.000000 0.392699 0.000000
vt -5.000000 0.392699 0.000000
vt -0.000000 0.261799 0.000000
vt -5.000000 0.261799 0.000000
vt -0.000000 0.130900 0.000000
vt -5.000000 0.130900 0.000000
vt -0.000000 0.000000 0.000000
vt -5.000000 0.000000 0.000000
vt -0.000000 -0.130900 0.000000
vt -5.000000 -0.130900 0.000000
vt -0.000000 -0.261799 0.000000
vt -5.000000 -0.261799 0.000000
vt -0.000000 -0.392699 0.000000
vt -5.000000 -0.392699 0.000000
vt 7.200000 5.000000 0.000000
vt 0.000000 5.000000 0.000000
vt 7.200000 0.000000 0.000000
vt 0.000000 0.000000 0.000000
vt 0.000000 0.000000 0.000000
vt 0.800000 0.000000 0.000000
vt 0.000000 5.000000 0.000000
vt 0.800000 5.000000 0.000000
vt -0.000000 0.000000 0.000000
vt 7.000000 0.000000 0.000000
vt -0.000000 5.000000 0.000000
vt 7.000000 5.000000 0.000000
vt 6.200000 5.000000 0.000000
vt 0.000000 5.000000 0.000000
vt 6.200000 0.000000 0.000000
vt -0.000000 0.000000 0.000000
vt -0.000000 0.000000 0.000000
vt 0.800000 0.000000 0.000000
vt -0.000000 5.000000 0.000000
vt 0.800000 5.000000 0.000000
vt 0.000000 0.000000 0.000000
vt 6.000000 0.000000 0.000000
vt 0.000000 5.000000 0.000000
vt 6.000000 5.000000 0.000000
vt 0.500000 0.000000 0.000000
vt 7.200000 0.000000 0.000000
vt 0.500000 5.000000 0.000000
vt 7.200000 5.000000 0.000000
vt -3.982963 0.520590 0.000000
vt -3.933013 0.400000 0.000000
vt -4.000000 0.650000 0.000000
vt -3.853553 0.296447 0.000000
vt -3.750000 0.216987 0.000000
vt -3.200000 0.850000 0.000000
vt -3.629410 0.167037 0.000000
vt -3.500000 0.150000 0.000000
vt 3.200000 0.150000 0.000000
vt 3.500000 0.850000 0.000000
vt 3.629410 0.832963 0.000000
vt 3.750000 0.783013 0.000000
vt 4.000000 0.350000 0.000000
vt 3.853553 0.703553 0.000000
vt 3.933013 0.600000 0.000000
vt 3.982963 0.479410 0.000000
vt 3.200000 -6.850000 0.000000
vt 4.000000 -6.850000 0.000000
vt -3.200000 6.850000 0.000000
vt -4.000000 6.850000 0.000000
vn -1.000000 -0.000000 -0.000000
vn -1.000000 -0.000000 -0.000000
vn -0.965926 0.000000 -0.258819
vn -0.965926 0.000000 -0.258819
vn -0.866025 0.000000 -0.500000
vn -0.866025 0.000000 -0.500000
vn -0.707107 0.000000 -0.707107
vn -0.707107 0.000000 -0.707107
vn -0.500000 0.000000 -0.866025
vn -0.500000 0.000000 -0.866025
vn -0.258819 0.000000 -0.965926
vn -0.258819 0.000000 -0.965926
vn 0.000000 -0.000000 -1.000000
vn 0.000000 -0.000000 -1.000000
vn -1.000000 0.000000 -0.000000
vn -1.000000 0.000000 -0.000000
vn -0.000000 -1.000000 -0.000000
vn -0.000000 -1.000000 -0.000000
vn -0.000000 -1.000000 -0.000000
vn -0.000000 -1.000000 -0.000000
vn -0.000000 -1.000000 -0.000000
vn -0.000000 -1.000000 -0.000000
vn -0.000000 -1.000000 -0.000000
vn -0.000000 -1.000000 -0.000000
vn -0.000000 -1.000000 -0.000000
vn -0.000000 -1.000000 -0.000000
vn -0.000000 -1.000000 -0.000000
vn -0.000000 -1.000000 -0.000000
vn -0.000000 -1.000000 -0.000000
vn -0.000000 -1.000000 -0.000000
vn -0.000000 -1.000000 -0.000000
vn -0.000000 -1.000000 -0.000000
vn -0.000000 -1.000000 -0.000000
vn -0.000000 -1.000000 -0.000000
vn -0.000000 -1.000000 -0.000000
vn -0.000000 -1.000000 -0.000000
vn 1.000000 -0.000000 -0.000000
vn 1.000000 -0.000000 -0.000000
vn 0.965926 -0.000000 0.258819
vn 0.965926 -0.000000 0.258819
vn 0.866025 -0.000000 0.500000
vn 0.866025 -0.000000 0.500000
vn 0.707107 -0.000000 0.707107
vn 0.707107 -0.000000 0.707107
vn 0.500000 -0.000000 0.866025
vn 0.500000 -0.000000 0.866025
vn 0.258819 -0.000000 0.965926
vn 0.258819 -0.000000 0.965926
vn 0.000000 -0.000000 1.000000
vn 0.000000 -0.000000 1.000000
vn 0.000000 -0.000000 1.000000
vn 0.000000 -0.000000 1.000000
vn -1.000000 0.000000 0.000000
vn -1.000000 0.000000 0.000000
vn -1.000000 0.000000 0.000000
vn -1.000000 0.000000 0.000000
vn 0.000000 0.000000 -1.000000
vn 0.000000 0.000000 -1.000000
vn 0.000000 0.000000 -1.000000
vn 0.000000 0.000000 -1.000000
vn 0.000000 0.000000 -1.000000
vn 0.000000 0.000000 -1.000000
vn 1.000000 0.000000 -0.000000
vn 1.000000 0.000000 -0.000000
vn 1.000000 0.000000 -0.000000
vn 1.000000 0.000000 -0.000000
vn 0.000000 -0.000000 1.000000
vn 0.000000 -0.000000 1.000000
vn 0.000000 -0.000000 1.000000
vn 0.000000 -0.000000 1.000000
vn 1.000000 0.000000 -0.000000
vn 1.000000 0.000000 -0.000000
vn 0.000000 1.000000 0.000000
vn 0.000000 1.000000 0.000000
vn 0.000000 1.000000 0.000000
vn 0.000000 1.000000 0.000000
vn 0.000000 1.000000 0.000000
vn 0.000000 1.000000 0.000000
vn 0.000000 1.000000 0.000000
vn 0.000000 1.000000 0.000000
vn 0.000000 1.000000 0.000000
vn 0.000000 1.000000 0.000000
vn 0.000000 1.000000 0.000000
vn 0.000000 1.000000 0.000000
vn 0.000000 1.000000 0.000000
vn 0.000000 1.000000 0.000000
vn 0.000000 1.000000 0.000000
vn 0.000000 1.000000 0.000000
vn 0.000000 1.000000 0.000000
vn 0.000000 1.000000 0.000000
vn 0.000000 1.000000 0.000000
vn 0.000000 1.000000 0.000000
usemtl Steel_-_Satin
f 14/1/1 1/2/2 13/3/3
f 13/3/3 1/2/2 2/4/4
f 13/3/3 2/4/4 12/5/5
f 12/5/5 2/4/4 3/6/6
f 12/5/5 3/6/6 11/7/7
f 11/7/7 3/6/6 4/8/8
f 11/7/7 4/8/8 10/9/9
f 10/9/9 4/8/8 5/10/10
f 10/9/9 5/10/10 9/11/11
f 9/11/11 5/10/10 6/12/12
f 9/11/11 6/12/12 8/13/13
f 8/13/13 6/12/12 7/14/14
f 14/15/1 15/16/15 1/17/2
f 1/17/2 15/16/15 16/18/16
f 15/19/17 14/20/18 19/21/19
f 19/21/19 14/20/18 13/22/20
f 19/21/19 13/22/20 12/23/21
f 19/21/19 12/23/21 8/24/22
f 8/24/22 12/23/21 11/25/23
f 8/24/22 11/25/23 10/26/24
f 10/26/24 9/27/25 8/24/22
f 8/24/22 17/28/26 19/21/19
f 19/21/19 17/28/26 18/29/27
f 19/21/19 20/30/28 15/19/17
f 15/19/17 20/30/28 21/31/29
f 15/19/17 21/31/29 22/32/30
f 15/19/17 22/32/30 26/33/31
f 26/33/31 22/32/30 23/34/32
f 26/33/31 23/34/32 24/35/33
f 24/35/33 25/36/34 26/33/31
f 26/33/31 27/37/35 15/19/17
f 15/19/17 27/37/35 28/38/36
f 20/39/37 29/40/38 21/41/39
f 21/41/39 29/40/38 30/42/40
f 21/41/39 30/42/40 22/43/41
f 22/43/41 30/42/40 31/44/42
f 22/43/41 31/44/42 23/45/43
f 23/45/43 31/44/42 32/46/44
f 23/45/43 32/46/44 24/47/45
f 24/47/45 32/46/44 33/48/46
f 24/47/45 33/48/46 25/49/47
f 25/49/47 33/48/46 34/50/48
f 25/49/47 34/50/48 26/51/49
f 26/51/49 34/50/48 35/52/50
f 35/53/50 36/54/51 26/55/49
f 26/55/49 36/54/51 27/56/52
f 28/57/53 27/58/54 37/59/55
f 37/59/55 27/58/54 36/60/56
f 15/61/57 28/62/58 16/63/59
f 16/63/59 28/62/58 37/64/60
f 7/65/14 38/66/61 8/67/13
f 8/67/13 38/66/61 17/68/62
f 18/69/63 17/70/64 39/71/65
f 39/71/65 17/70/64 38/72/66
f 19/73/67 18/74/68 40/75/69
f 40/75/69 18/74/68 39/76/70
f 20/77/37 19/78/71 29/79/38
f 29/79/38 19/78/71 40/80/72
f 6/81/73 5/82/74 7/83/75
f 7/83/75 5/82/74 4/84/76
f 7/83/75 4/84/76 3/85/77
f 7/83/75 3/85/77 40/86/78
f 40/86/78 3/85/77 2/87/79
f 40/86/78 2/87/79 1/88/80
f 1/88/80 16/89/81 40/86/78
f 40/86/78 16/89/81 29/90/82
f 29/90/82 16/89/81 30/91/83
f 30/91/83 16/89/81 31/92/84
f 31/92/84 16/89/81 35/93/85
f 31/92/84 35/93/85 32/94/86
f 32/94/86 35/93/85 33/95/87
f 33/95/87 35/93/85 34/96/88
f 37/97/89 36/98/90 16/89/81
f 16/89/81 36/98/90 35/93/85
f 39/99/91 38/100/92 40/86/78
f 40/86/78 38/100/92 7/83/75
# 40 vertices
# 100 texture params
# 92 normals
# 76 facets

# 1 groups
