# WaveFront *.obj file (generated by Autodesk ATF)

mtllib bdc88d47-0b10-4484-8a09-9346b6de1746.mtl

g ecuBracket

v -2.900000 2.900000 -1.100000
v -3.158819 2.865926 -1.100000
v -3.400000 2.766025 -1.100000
v -3.607107 2.607107 -1.100000
v -3.766025 2.400000 -1.100000
v -3.865926 2.158819 -1.100000
v -3.900000 1.900000 -1.100000
v -3.900000 0.000000 -1.100000
v -1.600000 0.000000 -1.100000
v -1.600000 2.090000 -1.100000
v 0.000000 2.100000 -1.100000
v 1.600000 2.090000 -1.100000
v 1.600000 0.000000 -1.100000
v 3.900000 0.000000 -1.100000
v 3.900000 1.900000 -1.100000
v 3.865926 2.158819 -1.100000
v 3.766025 2.400000 -1.100000
v 3.607107 2.607107 -1.100000
v 3.400000 2.766025 -1.100000
v 3.158819 2.865926 -1.100000
v 2.900000 2.900000 -1.100000
v -2.900000 2.900000 -2.800000
v -3.158819 2.865926 -2.800000
v -3.400000 2.766025 -2.800000
v -3.607107 2.607107 -2.800000
v -3.766025 2.400000 -2.800000
v -3.865926 2.158819 -2.800000
v -3.900000 1.900000 -2.800000
v 2.900000 2.900000 -2.800000
v 1.583386 2.900000 -2.800000
v 1.583386 2.900000 -3.800000
v -1.604073 2.900000 -3.800000
v -1.604073 2.900000 -2.800000
v 3.900000 1.900000 -2.800000
v 3.865926 2.158819 -2.800000
v 3.766025 2.400000 -2.800000
v 3.607107 2.607107 -2.800000
v 3.400000 2.766025 -2.800000
v 3.158819 2.865926 -2.800000
v -3.900000 0.000000 -2.800000
v 3.900000 0.000000 -2.800000
v 1.583386 2.090104 -2.800000
v 1.583386 2.090104 -3.800000
v -1.600000 2.090000 -2.800000
v -1.600000 2.090000 -3.800000
v 0.000000 2.100000 -3.800000
v -1.600000 0.000000 -2.800000
v 1.600000 0.000000 -2.800000
v 1.600000 2.090000 -2.800000
vt -3.158819 1.415926 0.000000
vt -3.400000 1.316025 0.000000
vt -2.900000 1.450000 0.000000
vt -1.600000 0.640000 0.000000
vt 0.000000 0.650000 0.000000
vt -3.607107 1.157107 0.000000
vt -3.766025 0.950000 0.000000
vt -3.865926 0.708819 0.000000
vt -3.900000 0.450000 0.000000
vt -1.600000 -1.450000 0.000000
vt -3.900000 -1.450000 0.000000
vt 2.900000 1.450000 0.000000
vt 1.600000 0.640000 0.000000
vt 3.400000 1.316025 0.000000
vt 3.607107 1.157107 0.000000
vt 3.766025 0.950000 0.000000
vt 3.865926 0.708819 0.000000
vt 3.900000 0.450000 0.000000
vt 1.600000 -1.450000 0.000000
vt 3.900000 -1.450000 0.000000
vt 3.158819 1.415926 0.000000
vt 1.700000 0.785398 0.000000
vt -0.000000 0.785398 0.000000
vt 1.700000 0.523599 0.000000
vt -0.000000 0.523599 0.000000
vt 1.700000 0.261799 0.000000
vt -0.000000 0.261799 0.000000
vt 1.700000 -0.000000 0.000000
vt -0.000000 -0.000000 0.000000
vt 1.700000 -0.261799 0.000000
vt -0.000000 -0.261799 0.000000
vt 1.700000 -0.523599 0.000000
vt -0.000000 -0.523599 0.000000
vt 1.700000 -0.785398 0.000000
vt -0.000000 -0.785398 0.000000
vt 5.300000 0.000000 0.000000
vt 5.300000 1.700000 0.000000
vt 4.004073 0.000000 0.000000
vt 0.816614 0.000000 0.000000
vt 4.004073 -1.000000 0.000000
vt 0.816614 -1.000000 0.000000
vt -0.500000 1.700000 0.000000
vt -0.500000 0.000000 0.000000
vt -1.700000 -0.785398 0.000000
vt -0.000000 -0.785398 0.000000
vt -1.700000 -0.523599 0.000000
vt -0.000000 -0.523599 0.000000
vt -1.700000 -0.261799 0.000000
vt -0.000000 -0.261799 0.000000
vt -1.700000 0.000000 0.000000
vt -0.000000 -0.000000 0.000000
vt -1.700000 0.261799 0.000000
vt -0.000000 0.261799 0.000000
vt -1.700000 0.523599 0.000000
vt -0.000000 0.523599 0.000000
vt -1.700000 0.785398 0.000000
vt -0.000000 0.785398 0.000000
vt 1.700000 -1.000000 0.000000
vt 0.000000 -1.000000 0.000000
vt 1.700000 -2.900000 0.000000
vt 0.000000 -2.900000 0.000000
vt 0.000000 1.900000 0.000000
vt -1.700000 1.900000 0.000000
vt 0.000000 0.000000 0.000000
vt -1.700000 0.000000 0.000000
vt -0.000000 0.000000 0.000000
vt 0.809896 -0.000000 0.000000
vt -0.000000 1.000000 0.000000
vt 0.809896 1.000000 0.000000
vt 0.000000 0.000000 0.000000
vt 0.810010 -0.000000 0.000000
vt -0.000000 1.000000 0.000000
vt 0.810010 1.000000 0.000000
vt 1.589656 -0.405000 0.000000
vt 1.593730 0.405000 0.000000
vt -0.010344 -0.395000 0.000000
vt -1.593730 0.405000 0.000000
vt -1.593730 -0.404896 0.000000
vt 3.865926 0.708819 0.000000
vt 3.766025 0.950000 0.000000
vt 3.900000 0.450000 0.000000
vt 3.607107 1.157107 0.000000
vt 3.400000 1.316025 0.000000
vt 3.158819 1.415926 0.000000
vt 2.900000 1.450000 0.000000
vt 1.600000 0.640000 0.000000
vt 1.604073 1.450000 0.000000
vt 1.600000 -1.450000 0.000000
vt 3.900000 -1.450000 0.000000
vt -1.500000 -0.000000 0.000000
vt 0.800000 -0.000000 0.000000
vt -1.500000 1.700000 0.000000
vt 0.800000 1.700000 0.000000
vt 0.000000 0.000000 0.000000
vt 2.300000 -0.000000 0.000000
vt 0.000000 1.700000 0.000000
vt 2.300000 1.700000 0.000000
vt -0.000000 0.000000 0.000000
vt 2.090000 0.000000 0.000000
vt 0.000000 1.700000 0.000000
vt 2.090000 1.700000 0.000000
vt 1.600031 0.000000 0.000000
vt 1.600031 1.700000 0.000000
vt 1.583417 0.000000 0.000000
vt -0.000000 1.700000 0.000000
vt -0.000000 -1.000000 0.000000
vt 1.583417 -1.000000 0.000000
vt 0.000000 -1.000000 0.000000
vt 1.600031 -1.000000 0.000000
vt 0.000000 0.000000 0.000000
vt 1.600031 1.700000 0.000000
vt 0.000000 1.700000 0.000000
vt 0.000000 0.000000 0.000000
vt 2.090000 0.000000 0.000000
vt 0.000000 1.700000 0.000000
vt 2.090000 1.700000 0.000000
vt -3.158819 1.415926 0.000000
vt -3.900000 0.450000 0.000000
vt -2.900000 1.450000 0.000000
vt -1.600000 0.640000 0.000000
vt -1.583386 1.450000 0.000000
vt -1.583386 0.640104 0.000000
vt -3.400000 1.316025 0.000000
vt -3.607107 1.157107 0.000000
vt -3.766025 0.950000 0.000000
vt -3.865926 0.708819 0.000000
vt -3.900000 -1.450000 0.000000
vt -1.600000 -1.450000 0.000000
vn -0.000000 0.000000 1.000000
vn -0.000000 0.000000 1.000000
vn -0.000000 0.000000 1.000000
vn -0.000000 0.000000 1.000000
vn -0.000000 0.000000 1.000000
vn -0.000000 0.000000 1.000000
vn -0.000000 0.000000 1.000000
vn -0.000000 0.000000 1.000000
vn -0.000000 0.000000 1.000000
vn -0.000000 0.000000 1.000000
vn -0.000000 0.000000 1.000000
vn -0.000000 0.000000 1.000000
vn -0.000000 0.000000 1.000000
vn -0.000000 0.000000 1.000000
vn -0.000000 0.000000 1.000000
vn -0.000000 0.000000 1.000000
vn -0.000000 0.000000 1.000000
vn -0.000000 0.000000 1.000000
vn -0.000000 0.000000 1.000000
vn -0.000000 0.000000 1.000000
vn -0.000000 0.000000 1.000000
vn -0.000000 1.000000 -0.000000
vn -0.000000 1.000000 -0.000000
vn -0.258819 0.965926 -0.000000
vn -0.258819 0.965926 -0.000000
vn -0.500000 0.866025 -0.000000
vn -0.500000 0.866025 -0.000000
vn -0.707107 0.707107 -0.000000
vn -0.707107 0.707107 -0.000000
vn -0.866025 0.500000 -0.000000
vn -0.866025 0.500000 -0.000000
vn -0.965926 0.258819 -0.000000
vn -0.965926 0.258819 -0.000000
vn -1.000000 0.000000 -0.000000
vn -1.000000 0.000000 -0.000000
vn 0.000000 1.000000 0.000000
vn 0.000000 1.000000 0.000000
vn 0.000000 1.000000 0.000000
vn 0.000000 1.000000 0.000000
vn 0.000000 1.000000 0.000000
vn 0.000000 1.000000 0.000000
vn 1.000000 -0.000000 0.000000
vn 1.000000 -0.000000 0.000000
vn 0.965926 0.258819 0.000000
vn 0.965926 0.258819 0.000000
vn 0.866025 0.500000 0.000000
vn 0.866025 0.500000 0.000000
vn 0.707107 0.707107 0.000000
vn 0.707107 0.707107 0.000000
vn 0.500000 0.866025 0.000000
vn 0.500000 0.866025 0.000000
vn 0.258819 0.965926 0.000000
vn 0.258819 0.965926 0.000000
vn -1.000000 0.000000 -0.000000
vn -1.000000 0.000000 -0.000000
vn 1.000000 0.000000 0.000000
vn 1.000000 0.000000 0.000000
vn 1.000000 -0.000000 0.000000
vn 1.000000 -0.000000 0.000000
vn 1.000000 -0.000000 0.000000
vn 1.000000 -0.000000 0.000000
vn -0.999987 -0.005029 -0.000000
vn -0.999987 -0.005029 -0.000000
vn -0.999987 -0.005029 -0.000000
vn -0.999987 -0.005029 -0.000000
vn 0.000000 0.000000 -1.000000
vn 0.000000 0.000000 -1.000000
vn 0.000000 0.000000 -1.000000
vn 0.000000 0.000000 -1.000000
vn 0.000000 0.000000 -1.000000
vn 0.000000 0.000000 -1.000000
vn 0.000000 0.000000 -1.000000
vn 0.000000 0.000000 -1.000000
vn 0.000000 0.000000 -1.000000
vn 0.000000 0.000000 -1.000000
vn 0.000000 0.000000 -1.000000
vn 0.000000 0.000000 -1.000000
vn 0.000000 0.000000 -1.000000
vn 0.000000 0.000000 -1.000000
vn 0.000000 0.000000 -1.000000
vn 0.000000 0.000000 -1.000000
vn 0.000000 -1.000000 0.000000
vn 0.000000 -1.000000 0.000000
vn 0.000000 -1.000000 0.000000
vn 0.000000 -1.000000 0.000000
vn 0.000000 -1.000000 0.000000
vn 0.000000 -1.000000 0.000000
vn 0.000000 -1.000000 0.000000
vn 0.000000 -1.000000 0.000000
vn -1.000000 0.000000 -0.000000
vn -1.000000 0.000000 -0.000000
vn -1.000000 0.000000 -0.000000
vn -1.000000 0.000000 -0.000000
vn -0.006250 -0.999980 -0.000000
vn -0.006250 -0.999980 -0.000000
vn -0.006250 -0.999980 -0.000000
vn -0.006250 -0.999980 -0.000000
vn -0.006250 -0.999980 -0.000000
vn -0.006250 -0.999980 -0.000000
vn 0.006250 -0.999980 0.000000
vn 0.006250 -0.999980 0.000000
vn 0.006250 -0.999980 0.000000
vn 0.006250 -0.999980 0.000000
vn 0.006250 -0.999980 0.000000
vn 1.000000 0.000000 0.000000
vn 1.000000 0.000000 0.000000
vn 1.000000 0.000000 0.000000
vn 1.000000 0.000000 0.000000
vn 0.000000 0.000000 -1.000000
vn 0.000000 0.000000 -1.000000
vn 0.000000 0.000000 -1.000000
vn 0.000000 0.000000 -1.000000
vn 0.000000 0.000000 -1.000000
vn 0.000000 0.000000 -1.000000
vn 0.000000 0.000000 -1.000000
vn 0.000000 0.000000 -1.000000
vn 0.000000 0.000000 -1.000000
vn 0.000000 0.000000 -1.000000
vn 0.000000 0.000000 -1.000000
vn 0.000000 0.000000 -1.000000
usemtl Steel_-_Satin
f 2/1/1 3/2/2 1/3/3
f 1/3/3 3/2/2 10/4/4
f 1/3/3 10/4/4 11/5/5
f 3/2/2 4/6/6 10/4/4
f 10/4/4 4/6/6 5/7/7
f 10/4/4 5/7/7 6/8/8
f 6/8/8 7/9/9 10/4/4
f 10/4/4 7/9/9 9/10/10
f 9/10/10 7/9/9 8/11/11
f 1/3/3 11/5/5 21/12/12
f 21/12/12 11/5/5 12/13/13
f 21/12/12 12/13/13 19/14/14
f 19/14/14 12/13/13 18/15/15
f 18/15/15 12/13/13 17/16/16
f 17/16/16 12/13/13 16/17/17
f 16/17/17 12/13/13 15/18/18
f 15/18/18 12/13/13 13/19/19
f 15/18/18 13/19/19 14/20/20
f 19/14/14 20/21/21 21/12/12
f 1/22/22 22/23/23 2/24/24
f 2/24/24 22/23/23 23/25/25
f 2/24/24 23/25/25 3/26/26
f 3/26/26 23/25/25 24/27/27
f 3/26/26 24/27/27 4/28/28
f 4/28/28 24/27/27 25/29/29
f 4/28/28 25/29/29 5/30/30
f 5/30/30 25/29/29 26/31/31
f 5/30/30 26/31/31 6/32/32
f 6/32/32 26/31/31 27/33/33
f 6/32/32 27/33/33 7/34/34
f 7/34/34 27/33/33 28/35/35
f 22/36/23 1/37/22 33/38/36
f 33/38/36 1/37/22 30/39/37
f 33/38/36 30/39/37 32/40/38
f 32/40/38 30/39/37 31/41/39
f 1/37/22 21/42/40 30/39/37
f 30/39/37 21/42/40 29/43/41
f 15/44/42 34/45/43 16/46/44
f 16/46/44 34/45/43 35/47/45
f 16/46/44 35/47/45 17/48/46
f 17/48/46 35/47/45 36/49/47
f 17/48/46 36/49/47 18/50/48
f 18/50/48 36/49/47 37/51/49
f 18/50/48 37/51/49 19/52/50
f 19/52/50 37/51/49 38/53/51
f 19/52/50 38/53/51 20/54/52
f 20/54/52 38/53/51 39/55/53
f 20/54/52 39/55/53 21/56/40
f 21/56/40 39/55/53 29/57/41
f 7/58/34 28/59/35 8/60/54
f 8/60/54 28/59/35 40/61/55
f 34/62/43 15/63/42 41/64/56
f 41/64/56 15/63/42 14/65/57
f 30/66/58 42/67/59 31/68/60
f 31/68/60 42/67/59 43/69/61
f 44/70/62 33/71/63 45/72/64
f 45/72/64 33/71/63 32/73/65
f 45/74/66 32/75/67 46/76/68
f 46/76/68 32/75/67 31/77/69
f 46/76/68 31/77/69 43/78/70
f 27/79/71 26/80/72 28/81/73
f 28/81/73 26/80/72 25/82/74
f 28/81/73 25/82/74 24/83/75
f 24/83/75 23/84/76 28/81/73
f 28/81/73 23/84/76 22/85/77
f 28/81/73 22/85/77 44/86/78
f 44/86/78 22/85/77 33/87/79
f 44/86/78 47/88/80 28/81/73
f 28/81/73 47/88/80 40/89/81
f 40/90/82 47/91/83 8/92/84
f 8/92/84 47/91/83 9/93/85
f 48/94/86 41/95/87 13/96/88
f 13/96/88 41/95/87 14/97/89
f 49/98/90 48/99/91 12/100/92
f 12/100/92 48/99/91 13/101/93
f 49/102/94 12/103/95 42/104/96
f 42/104/96 12/103/95 11/105/97
f 42/104/96 11/105/97 46/106/98
f 46/106/98 43/107/99 42/104/96
f 45/108/100 46/109/101 44/110/102
f 44/110/102 46/109/101 11/111/103
f 44/110/102 11/111/103 10/112/104
f 47/113/105 44/114/106 9/115/107
f 9/115/107 44/114/106 10/116/108
f 39/117/109 34/118/110 29/119/111
f 29/119/111 34/118/110 49/120/112
f 29/119/111 49/120/112 30/121/113
f 30/121/113 49/120/112 42/122/114
f 39/117/109 38/123/115 34/118/110
f 34/118/110 38/123/115 37/124/116
f 34/118/110 37/124/116 36/125/117
f 36/125/117 35/126/118 34/118/110
f 41/127/119 48/128/120 34/118/110
f 34/118/110 48/128/120 49/120/112
# 49 vertices
# 128 texture params
# 120 normals
# 94 facets

# 1 groups
