# WaveFront *.obj file (generated by Autodesk ATF)

mtllib e7683e99-e55e-4eb7-a776-cb2eba260e03.mtl

g Body3

v -11.134714 0.000000 0.250000
v 11.135000 0.000000 0.250000
v 11.135000 1.000000 0.250000
v -11.134714 1.000000 0.250000
v -11.500000 0.000000 -0.115286
v -11.487553 0.000000 -0.020743
v -11.451061 0.000000 0.067357
v -11.393010 0.000000 0.143010
v -11.317357 0.000000 0.201061
v -11.229257 0.000000 0.237553
v -11.229257 1.000000 0.237553
v -11.317357 1.000000 0.201061
v -11.393010 1.000000 0.143010
v -11.451061 1.000000 0.067357
v -11.487553 1.000000 -0.020743
v -11.500000 1.000000 -0.115286
v -11.500000 0.000000 -0.250000
v -11.500000 1.000000 -0.250000
v 11.500000 0.000000 -0.250000
v 11.500000 1.000000 -0.250000
v 11.500000 0.000000 -0.115000
v 11.500000 1.000000 -0.115000
v 11.229469 0.000000 0.237563
v 11.317500 0.000000 0.201099
v 11.393094 0.000000 0.143094
v 11.451099 0.000000 0.067500
v 11.487563 0.000000 -0.020531
v 11.487563 1.000000 -0.020531
v 11.451099 1.000000 0.067500
v 11.393094 1.000000 0.143094
v 11.317500 1.000000 0.201099
v 11.229469 1.000000 0.237563
vt -0.000000 0.000000 0.000000
vt 22.269714 0.000000 0.000000
vt -0.000000 1.000000 0.000000
vt 22.269714 1.000000 0.000000
vt -1.000000 0.000000 0.000000
vt -0.000000 0.000000 0.000000
vt -1.000000 0.095632 0.000000
vt -0.000000 0.095632 0.000000
vt -1.000000 0.191263 0.000000
vt -0.000000 0.191263 0.000000
vt -1.000000 0.286895 0.000000
vt -0.000000 0.286895 0.000000
vt -1.000000 0.382526 0.000000
vt -0.000000 0.382526 0.000000
vt -1.000000 0.478158 0.000000
vt -0.000000 0.478158 0.000000
vt -1.000000 0.573789 0.000000
vt -0.000000 0.573789 0.000000
vt 0.000000 0.000000 0.000000
vt 0.134714 0.000000 0.000000
vt 0.000000 1.000000 0.000000
vt 0.134714 1.000000 0.000000
vt 0.000000 0.000000 0.000000
vt 23.000000 0.000000 0.000000
vt 0.000000 1.000000 0.000000
vt 23.000000 1.000000 0.000000
vt 0.000000 0.000000 0.000000
vt 0.135000 0.000000 0.000000
vt -0.000000 1.000000 0.000000
vt 0.135000 1.000000 0.000000
vt -1.000000 0.000000 0.000000
vt -0.000000 0.000000 0.000000
vt -1.000000 0.095557 0.000000
vt -0.000000 0.095557 0.000000
vt -1.000000 0.191114 0.000000
vt -0.000000 0.191114 0.000000
vt -1.000000 0.286670 0.000000
vt -0.000000 0.286670 0.000000
vt -1.000000 0.382227 0.000000
vt -0.000000 0.382227 0.000000
vt -1.000000 0.477784 0.000000
vt -0.000000 0.477784 0.000000
vt -1.000000 0.573341 0.000000
vt -0.000000 0.573341 0.000000
vt 11.229469 -0.237563 0.000000
vt 11.317500 -0.201099 0.000000
vt 11.135000 -0.250000 0.000000
vt -11.317357 -0.201061 0.000000
vt -11.134714 -0.250000 0.000000
vt -11.229257 -0.237553 0.000000
vt -11.393010 -0.143010 0.000000
vt 11.393094 -0.143094 0.000000
vt -11.451061 -0.067357 0.000000
vt 11.451099 -0.067500 0.000000
vt 11.487563 0.020531 0.000000
vt -11.487553 0.020743 0.000000
vt 11.500000 0.115000 0.000000
vt -11.500000 0.115286 0.000000
vt 11.500000 0.250000 0.000000
vt -11.500000 0.250000 0.000000
vt -11.487563 0.020531 0.000000
vt 11.487553 0.020743 0.000000
vt -11.500000 0.115000 0.000000
vt 11.500000 0.115286 0.000000
vt -11.500000 0.250000 0.000000
vt 11.500000 0.250000 0.000000
vt 11.451061 -0.067357 0.000000
vt -11.451099 -0.067500 0.000000
vt -11.393094 -0.143094 0.000000
vt 11.393010 -0.143010 0.000000
vt -11.317500 -0.201099 0.000000
vt 11.317357 -0.201061 0.000000
vt -11.135000 -0.250000 0.000000
vt 11.134714 -0.250000 0.000000
vt -11.229469 -0.237563 0.000000
vt 11.229257 -0.237553 0.000000
vn -0.000000 0.000000 1.000000
vn -0.000000 0.000000 1.000000
vn -0.000000 0.000000 1.000000
vn -0.000000 0.000000 1.000000
vn -1.000000 -0.000000 0.000000
vn -1.000000 -0.000000 0.000000
vn -0.965926 -0.000000 0.258819
vn -0.965926 -0.000000 0.258819
vn -0.866025 -0.000000 0.500000
vn -0.866025 -0.000000 0.500000
vn -0.707107 -0.000000 0.707107
vn -0.707107 -0.000000 0.707107
vn -0.500000 -0.000000 0.866025
vn -0.500000 -0.000000 0.866025
vn -0.258819 -0.000000 0.965926
vn -0.258819 -0.000000 0.965926
vn -1.000000 0.000000 0.000000
vn -1.000000 0.000000 0.000000
vn 0.000000 0.000000 -1.000000
vn 0.000000 0.000000 -1.000000
vn 0.000000 0.000000 -1.000000
vn 0.000000 0.000000 -1.000000
vn 1.000000 -0.000000 0.000000
vn 1.000000 -0.000000 0.000000
vn 1.000000 -0.000000 0.000000
vn 1.000000 -0.000000 0.000000
vn 0.258819 -0.000000 0.965926
vn 0.258819 -0.000000 0.965926
vn 0.500000 -0.000000 0.866025
vn 0.500000 -0.000000 0.866025
vn 0.707107 -0.000000 0.707107
vn 0.707107 -0.000000 0.707107
vn 0.866025 -0.000000 0.500000
vn 0.866025 -0.000000 0.500000
vn 0.965926 -0.000000 0.258819
vn 0.965926 -0.000000 0.258819
vn 0.000000 1.000000 0.000000
vn 0.000000 1.000000 0.000000
vn 0.000000 1.000000 0.000000
vn 0.000000 1.000000 0.000000
vn 0.000000 1.000000 0.000000
vn 0.000000 1.000000 0.000000
vn 0.000000 1.000000 0.000000
vn 0.000000 1.000000 0.000000
vn 0.000000 1.000000 0.000000
vn 0.000000 1.000000 0.000000
vn 0.000000 1.000000 0.000000
vn 0.000000 1.000000 0.000000
vn 0.000000 1.000000 0.000000
vn 0.000000 1.000000 0.000000
vn 0.000000 1.000000 0.000000
vn 0.000000 1.000000 0.000000
vn -0.000000 -1.000000 -0.000000
vn -0.000000 -1.000000 -0.000000
vn -0.000000 -1.000000 -0.000000
vn -0.000000 -1.000000 -0.000000
vn -0.000000 -1.000000 -0.000000
vn -0.000000 -1.000000 -0.000000
vn -0.000000 -1.000000 -0.000000
vn -0.000000 -1.000000 -0.000000
vn -0.000000 -1.000000 -0.000000
vn -0.000000 -1.000000 -0.000000
vn -0.000000 -1.000000 -0.000000
vn -0.000000 -1.000000 -0.000000
vn -0.000000 -1.000000 -0.000000
vn -0.000000 -1.000000 -0.000000
vn -0.000000 -1.000000 -0.000000
vn -0.000000 -1.000000 -0.000000
usemtl Steel_-_Satin
f 1/1/1 2/2/2 4/3/3
f 4/3/3 2/2/2 3/4/4
f 16/5/5 5/6/6 15/7/7
f 15/7/7 5/6/6 6/8/8
f 15/7/7 6/8/8 14/9/9
f 14/9/9 6/8/8 7/10/10
f 14/9/9 7/10/10 13/11/11
f 13/11/11 7/10/10 8/12/12
f 13/11/11 8/12/12 12/13/13
f 12/13/13 8/12/12 9/14/14
f 12/13/13 9/14/14 11/15/15
f 11/15/15 9/14/14 10/16/16
f 11/15/15 10/16/16 4/17/3
f 4/17/3 10/16/16 1/18/1
f 17/19/17 5/20/6 18/21/18
f 18/21/18 5/20/6 16/22/5
f 19/23/19 17/24/20 20/25/21
f 20/25/21 17/24/20 18/26/22
f 21/27/23 19/28/24 22/29/25
f 22/29/25 19/28/24 20/30/26
f 3/31/4 2/32/2 32/33/27
f 32/33/27 2/32/2 23/34/28
f 32/33/27 23/34/28 31/35/29
f 31/35/29 23/34/28 24/36/30
f 31/35/29 24/36/30 30/37/31
f 30/37/31 24/36/30 25/38/32
f 30/37/31 25/38/32 29/39/33
f 29/39/33 25/38/32 26/40/34
f 29/39/33 26/40/34 28/41/35
f 28/41/35 26/40/34 27/42/36
f 28/41/35 27/42/36 22/43/25
f 22/43/25 27/42/36 21/44/23
f 32/45/37 31/46/38 3/47/39
f 3/47/39 31/46/38 12/48/40
f 3/47/39 12/48/40 4/49/41
f 4/49/41 12/48/40 11/50/42
f 12/48/40 31/46/38 13/51/43
f 13/51/43 31/46/38 30/52/44
f 13/51/43 30/52/44 14/53/45
f 14/53/45 30/52/44 29/54/46
f 14/53/45 29/54/46 28/55/47
f 14/53/45 28/55/47 15/56/48
f 15/56/48 28/55/47 22/57/49
f 15/56/48 22/57/49 16/58/50
f 16/58/50 22/57/49 20/59/51
f 16/58/50 20/59/51 18/60/52
f 27/61/53 6/62/54 21/63/55
f 21/63/55 6/62/54 5/64/56
f 21/63/55 5/64/56 19/65/57
f 19/65/57 5/64/56 17/66/58
f 6/62/54 27/61/53 7/67/59
f 7/67/59 27/61/53 26/68/60
f 7/67/59 26/68/60 25/69/61
f 7/67/59 25/69/61 8/70/62
f 8/70/62 25/69/61 24/71/63
f 8/70/62 24/71/63 9/72/64
f 9/72/64 24/71/63 2/73/65
f 9/72/64 2/73/65 1/74/66
f 24/71/63 23/75/67 2/73/65
f 1/74/66 10/76/68 9/72/64
# 32 vertices
# 76 texture params
# 68 normals
# 60 facets

# 1 groups
