# WaveFront *.obj file (generated by Autodesk ATF)

mtllib 2a379895-df7e-4c65-adc8-dfc1bfd5b97e.mtl

g lcdLid

v -16.600000 4.000000 -4.850000
v -16.565926 4.000000 -5.108819
v -16.466025 4.000000 -5.350000
v -16.307107 4.000000 -5.557107
v -16.100000 4.000000 -5.716025
v -15.858819 4.000000 -5.815926
v -15.600000 4.000000 -5.850000
v -15.600000 3.000000 -5.850000
v -15.858819 3.000000 -5.815926
v -16.100000 3.000000 -5.716025
v -16.307107 3.000000 -5.557107
v -16.466025 3.000000 -5.350000
v -16.565926 3.000000 -5.108819
v -16.600000 3.000000 -4.850000
v -16.600000 3.000000 4.850000
v -16.600000 4.000000 4.850000
v 15.600000 3.000000 -5.850000
v 15.858819 3.000000 -5.815926
v 16.100000 3.000000 -5.716025
v 16.307107 3.000000 -5.557107
v 16.466025 3.000000 -5.350000
v 16.565926 3.000000 -5.108819
v 16.600000 3.000000 -4.850000
v 16.600000 3.000000 4.850000
v 16.565926 3.000000 5.108819
v 16.466025 3.000000 5.350000
v 16.307107 3.000000 5.557107
v 16.100000 3.000000 5.716025
v 15.858819 3.000000 5.815926
v 15.600000 3.000000 5.850000
v -15.600000 3.000000 5.850000
v -15.858819 3.000000 5.815926
v -16.100000 3.000000 5.716025
v -16.307107 3.000000 5.557107
v -16.466025 3.000000 5.350000
v -16.565926 3.000000 5.108819
v -15.600000 4.000000 5.850000
v -15.858819 4.000000 5.815926
v -16.100000 4.000000 5.716025
v -16.307107 4.000000 5.557107
v -16.466025 4.000000 5.350000
v -16.565926 4.000000 5.108819
v 15.600000 4.000000 5.850000
v 16.600000 4.000000 4.850000
v 16.565926 4.000000 5.108819
v 16.466025 4.000000 5.350000
v 16.307107 4.000000 5.557107
v 16.100000 4.000000 5.716025
v 15.858819 4.000000 5.815926
v 16.600000 4.000000 -4.850000
v 15.600000 4.000000 -5.850000
v 15.858819 4.000000 -5.815926
v 16.100000 4.000000 -5.716025
v 16.307107 4.000000 -5.557107
v 16.466025 4.000000 -5.350000
v 16.565926 4.000000 -5.108819
vt -0.000000 0.785398 0.000000
vt -1.000000 0.785398 0.000000
vt -0.000000 0.523599 0.000000
vt -1.000000 0.523599 0.000000
vt -0.000000 0.261799 0.000000
vt -1.000000 0.261799 0.000000
vt -0.000000 -0.000000 0.000000
vt -1.000000 -0.000000 0.000000
vt -0.000000 -0.261799 0.000000
vt -1.000000 -0.261799 0.000000
vt -0.000000 -0.523599 0.000000
vt -1.000000 -0.523599 0.000000
vt -0.000000 -0.785398 0.000000
vt -1.000000 -0.785398 0.000000
vt 1.000000 0.000000 0.000000
vt 10.700000 0.000000 0.000000
vt 1.000000 1.000000 0.000000
vt 10.700000 1.000000 0.000000
vt 16.565926 5.108819 0.000000
vt 15.600000 5.850000 0.000000
vt 16.600000 4.850000 0.000000
vt -15.600000 5.850000 0.000000
vt -16.600000 4.850000 0.000000
vt -16.565926 5.108819 0.000000
vt -16.466025 5.350000 0.000000
vt -16.307107 5.557107 0.000000
vt -16.100000 5.716025 0.000000
vt -15.858819 5.815926 0.000000
vt 16.466025 5.350000 0.000000
vt 16.307107 5.557107 0.000000
vt 16.100000 5.716025 0.000000
vt 15.858819 5.815926 0.000000
vt 16.600000 -4.850000 0.000000
vt -16.600000 -4.850000 0.000000
vt 15.600000 -5.850000 0.000000
vt -15.600000 -5.850000 0.000000
vt -16.565926 -5.108819 0.000000
vt -16.466025 -5.350000 0.000000
vt -16.307107 -5.557107 0.000000
vt -16.100000 -5.716025 0.000000
vt -15.858819 -5.815926 0.000000
vt 15.858819 -5.815926 0.000000
vt 16.100000 -5.716025 0.000000
vt 16.307107 -5.557107 0.000000
vt 16.466025 -5.350000 0.000000
vt 16.565926 -5.108819 0.000000
vt -0.000000 0.785398 0.000000
vt -1.000000 0.785398 0.000000
vt -0.000000 0.523599 0.000000
vt -1.000000 0.523599 0.000000
vt -0.000000 0.261799 0.000000
vt -1.000000 0.261799 0.000000
vt -0.000000 0.000000 0.000000
vt -1.000000 0.000000 0.000000
vt -0.000000 -0.261799 0.000000
vt -1.000000 -0.261799 0.000000
vt -0.000000 -0.523599 0.000000
vt -1.000000 -0.523599 0.000000
vt -0.000000 -0.785398 0.000000
vt -1.000000 -0.785398 0.000000
vt 1.000000 0.000000 0.000000
vt 32.200000 0.000000 0.000000
vt 1.000000 1.000000 0.000000
vt 32.200000 1.000000 0.000000
vt -0.000000 0.785398 0.000000
vt -1.000000 0.785398 0.000000
vt -0.000000 0.523599 0.000000
vt -1.000000 0.523599 0.000000
vt -0.000000 0.261799 0.000000
vt -1.000000 0.261799 0.000000
vt -0.000000 -0.000000 0.000000
vt -1.000000 -0.000000 0.000000
vt -0.000000 -0.261799 0.000000
vt -1.000000 -0.261799 0.000000
vt -0.000000 -0.523599 0.000000
vt -1.000000 -0.523599 0.000000
vt -0.000000 -0.785398 0.000000
vt -1.000000 -0.785398 0.000000
vt 1.000000 0.000000 0.000000
vt 10.700000 0.000000 0.000000
vt 1.000000 1.000000 0.000000
vt 10.700000 1.000000 0.000000
vt -0.000000 0.785398 0.000000
vt -1.000000 0.785398 0.000000
vt -0.000000 0.523599 0.000000
vt -1.000000 0.523599 0.000000
vt -0.000000 0.261799 0.000000
vt -1.000000 0.261799 0.000000
vt -0.000000 0.000000 0.000000
vt -1.000000 0.000000 0.000000
vt -0.000000 -0.261799 0.000000
vt -1.000000 -0.261799 0.000000
vt -0.000000 -0.523599 0.000000
vt -1.000000 -0.523599 0.000000
vt -0.000000 -0.785398 0.000000
vt -1.000000 -0.785398 0.000000
vt 32.200000 1.000000 0.000000
vt 1.000000 1.000000 0.000000
vt 32.200000 0.000000 0.000000
vt 1.000000 0.000000 0.000000
vt -5.815926 -15.858819 0.000000
vt -5.716025 -16.100000 0.000000
vt -5.850000 -15.600000 0.000000
vt -5.557107 -16.307107 0.000000
vt -5.350000 -16.466025 0.000000
vt -5.108819 -16.565926 0.000000
vt -4.850000 -16.600000 0.000000
vt -4.850000 16.600000 0.000000
vt 4.850000 -16.600000 0.000000
vt 4.850000 16.600000 0.000000
vt 5.850000 -15.600000 0.000000
vt 5.850000 15.600000 0.000000
vt 5.108819 -16.565926 0.000000
vt 5.350000 -16.466025 0.000000
vt 5.557107 -16.307107 0.000000
vt 5.716025 -16.100000 0.000000
vt 5.815926 -15.858819 0.000000
vt 5.815926 15.858819 0.000000
vt 5.716025 16.100000 0.000000
vt 5.557107 16.307107 0.000000
vt 5.350000 16.466025 0.000000
vt 5.108819 16.565926 0.000000
vt -5.850000 15.600000 0.000000
vt -5.108819 16.565926 0.000000
vt -5.350000 16.466025 0.000000
vt -5.557107 16.307107 0.000000
vt -5.716025 16.100000 0.000000
vt -5.815926 15.858819 0.000000
vn -1.000000 -0.000000 -0.000000
vn -1.000000 -0.000000 -0.000000
vn -0.965926 0.000000 -0.258819
vn -0.965926 0.000000 -0.258819
vn -0.866025 0.000000 -0.500000
vn -0.866025 0.000000 -0.500000
vn -0.707107 0.000000 -0.707107
vn -0.707107 0.000000 -0.707107
vn -0.500000 0.000000 -0.866025
vn -0.500000 0.000000 -0.866025
vn -0.258819 0.000000 -0.965926
vn -0.258819 0.000000 -0.965926
vn -0.000000 0.000000 -1.000000
vn -0.000000 0.000000 -1.000000
vn -1.000000 0.000000 0.000000
vn -1.000000 0.000000 0.000000
vn -0.000000 -1.000000 -0.000000
vn -0.000000 -1.000000 -0.000000
vn -0.000000 -1.000000 -0.000000
vn -0.000000 -1.000000 -0.000000
vn -0.000000 -1.000000 -0.000000
vn -0.000000 -1.000000 -0.000000
vn -0.000000 -1.000000 -0.000000
vn -0.000000 -1.000000 -0.000000
vn -0.000000 -1.000000 -0.000000
vn -0.000000 -1.000000 -0.000000
vn -0.000000 -1.000000 -0.000000
vn -0.000000 -1.000000 -0.000000
vn -0.000000 -1.000000 -0.000000
vn -0.000000 -1.000000 -0.000000
vn -0.000000 -1.000000 -0.000000
vn -0.000000 -1.000000 -0.000000
vn -0.000000 -1.000000 -0.000000
vn -0.000000 -1.000000 -0.000000
vn -0.000000 -1.000000 -0.000000
vn -0.000000 -1.000000 -0.000000
vn -0.000000 -1.000000 -0.000000
vn -0.000000 -1.000000 -0.000000
vn -0.000000 -1.000000 -0.000000
vn -0.000000 -1.000000 -0.000000
vn -0.000000 -1.000000 -0.000000
vn -0.000000 -1.000000 -0.000000
vn -0.000000 -1.000000 -0.000000
vn -0.000000 -1.000000 -0.000000
vn -0.000000 -0.000000 1.000000
vn -0.000000 -0.000000 1.000000
vn -0.258819 -0.000000 0.965926
vn -0.258819 -0.000000 0.965926
vn -0.500000 -0.000000 0.866025
vn -0.500000 -0.000000 0.866025
vn -0.707107 -0.000000 0.707107
vn -0.707107 -0.000000 0.707107
vn -0.866025 -0.000000 0.500000
vn -0.866025 -0.000000 0.500000
vn -0.965926 -0.000000 0.258819
vn -0.965926 -0.000000 0.258819
vn -0.000000 0.000000 1.000000
vn -0.000000 0.000000 1.000000
vn 1.000000 -0.000000 0.000000
vn 1.000000 -0.000000 0.000000
vn 0.965926 -0.000000 0.258819
vn 0.965926 -0.000000 0.258819
vn 0.866025 -0.000000 0.500000
vn 0.866025 -0.000000 0.500000
vn 0.707107 -0.000000 0.707107
vn 0.707107 -0.000000 0.707107
vn 0.500000 -0.000000 0.866025
vn 0.500000 -0.000000 0.866025
vn 0.258819 -0.000000 0.965926
vn 0.258819 -0.000000 0.965926
vn 1.000000 0.000000 0.000000
vn 1.000000 0.000000 0.000000
vn -0.000000 0.000000 -1.000000
vn -0.000000 0.000000 -1.000000
vn 0.258819 -0.000000 -0.965926
vn 0.258819 -0.000000 -0.965926
vn 0.500000 -0.000000 -0.866025
vn 0.500000 -0.000000 -0.866025
vn 0.707107 -0.000000 -0.707107
vn 0.707107 -0.000000 -0.707107
vn 0.866025 -0.000000 -0.500000
vn 0.866025 -0.000000 -0.500000
vn 0.965926 -0.000000 -0.258819
vn 0.965926 -0.000000 -0.258819
vn 0.000000 1.000000 0.000000
vn 0.000000 1.000000 0.000000
vn 0.000000 1.000000 0.000000
vn 0.000000 1.000000 0.000000
vn 0.000000 1.000000 0.000000
vn 0.000000 1.000000 0.000000
vn 0.000000 1.000000 0.000000
vn 0.000000 1.000000 0.000000
vn 0.000000 1.000000 0.000000
vn 0.000000 1.000000 0.000000
vn 0.000000 1.000000 0.000000
vn 0.000000 1.000000 0.000000
vn 0.000000 1.000000 0.000000
vn 0.000000 1.000000 0.000000
vn 0.000000 1.000000 0.000000
vn 0.000000 1.000000 0.000000
vn 0.000000 1.000000 0.000000
vn 0.000000 1.000000 0.000000
vn 0.000000 1.000000 0.000000
vn 0.000000 1.000000 0.000000
vn 0.000000 1.000000 0.000000
vn 0.000000 1.000000 0.000000
vn 0.000000 1.000000 0.000000
vn 0.000000 1.000000 0.000000
vn 0.000000 1.000000 0.000000
vn 0.000000 1.000000 0.000000
vn 0.000000 1.000000 0.000000
vn 0.000000 1.000000 0.000000
usemtl Steel_-_Satin
f 14/1/1 1/2/2 13/3/3
f 13/3/3 1/2/2 2/4/4
f 13/3/3 2/4/4 12/5/5
f 12/5/5 2/4/4 3/6/6
f 12/5/5 3/6/6 11/7/7
f 11/7/7 3/6/6 4/8/8
f 11/7/7 4/8/8 10/9/9
f 10/9/9 4/8/8 5/10/10
f 10/9/9 5/10/10 9/11/11
f 9/11/11 5/10/10 6/12/12
f 9/11/11 6/12/12 8/13/13
f 8/13/13 6/12/12 7/14/14
f 14/15/1 15/16/15 1/17/2
f 1/17/2 15/16/15 16/18/16
f 13/19/17 8/20/18 14/21/19
f 14/21/19 8/20/18 17/22/20
f 14/21/19 17/22/20 23/23/21
f 23/23/21 17/22/20 22/24/22
f 22/24/22 17/22/20 21/25/23
f 21/25/23 17/22/20 20/26/24
f 20/26/24 17/22/20 19/27/25
f 19/27/25 17/22/20 18/28/26
f 13/19/17 12/29/27 8/20/18
f 8/20/18 12/29/27 11/30/28
f 8/20/18 11/30/28 10/31/29
f 10/31/29 9/32/30 8/20/18
f 14/21/19 23/23/21 15/33/31
f 15/33/31 23/23/21 24/34/32
f 15/33/31 24/34/32 31/35/33
f 31/35/33 24/34/32 30/36/34
f 30/36/34 24/34/32 25/37/35
f 30/36/34 25/37/35 26/38/36
f 26/38/36 27/39/37 30/36/34
f 30/36/34 27/39/37 28/40/38
f 30/36/34 28/40/38 29/41/39
f 32/42/40 33/43/41 31/35/33
f 31/35/33 33/43/41 34/44/42
f 31/35/33 34/44/42 35/45/43
f 35/45/43 36/46/44 31/35/33
f 31/35/33 36/46/44 15/33/31
f 31/47/45 37/48/46 32/49/47
f 32/49/47 37/48/46 38/50/48
f 32/49/47 38/50/48 33/51/49
f 33/51/49 38/50/48 39/52/50
f 33/51/49 39/52/50 34/53/51
f 34/53/51 39/52/50 40/54/52
f 34/53/51 40/54/52 35/55/53
f 35/55/53 40/54/52 41/56/54
f 35/55/53 41/56/54 36/57/55
f 36/57/55 41/56/54 42/58/56
f 36/57/55 42/58/56 15/59/15
f 15/59/15 42/58/56 16/60/16
f 31/61/45 30/62/57 37/63/46
f 37/63/46 30/62/57 43/64/58
f 24/65/59 44/66/60 25/67/61
f 25/67/61 44/66/60 45/68/62
f 25/67/61 45/68/62 26/69/63
f 26/69/63 45/68/62 46/70/64
f 26/69/63 46/70/64 27/71/65
f 27/71/65 46/70/64 47/72/66
f 27/71/65 47/72/66 28/73/67
f 28/73/67 47/72/66 48/74/68
f 28/73/67 48/74/68 29/75/69
f 29/75/69 48/74/68 49/76/70
f 29/75/69 49/76/70 30/77/57
f 30/77/57 49/76/70 43/78/58
f 24/79/59 23/80/71 44/81/60
f 44/81/60 23/80/71 50/82/72
f 17/83/73 51/84/74 18/85/75
f 18/85/75 51/84/74 52/86/76
f 18/85/75 52/86/76 19/87/77
f 19/87/77 52/86/76 53/88/78
f 19/87/77 53/88/78 20/89/79
f 20/89/79 53/88/78 54/90/80
f 20/89/79 54/90/80 21/91/81
f 21/91/81 54/90/80 55/92/82
f 21/91/81 55/92/82 22/93/83
f 22/93/83 55/92/82 56/94/84
f 22/93/83 56/94/84 23/95/71
f 23/95/71 56/94/84 50/96/72
f 7/97/14 51/98/74 8/99/13
f 8/99/13 51/98/74 17/100/73
f 6/101/85 5/102/86 7/103/87
f 7/103/87 5/102/86 4/104/88
f 7/103/87 4/104/88 3/105/89
f 3/105/89 2/106/90 7/103/87
f 7/103/87 2/106/90 1/107/91
f 7/103/87 1/107/91 50/108/92
f 50/108/92 1/107/91 16/109/93
f 50/108/92 16/109/93 44/110/94
f 44/110/94 16/109/93 37/111/95
f 44/110/94 37/111/95 43/112/96
f 16/109/93 42/113/97 37/111/95
f 37/111/95 42/113/97 41/114/98
f 37/111/95 41/114/98 40/115/99
f 40/115/99 39/116/100 37/111/95
f 37/111/95 39/116/100 38/117/101
f 49/118/102 48/119/103 43/112/96
f 43/112/96 48/119/103 47/120/104
f 43/112/96 47/120/104 46/121/105
f 46/121/105 45/122/106 43/112/96
f 43/112/96 45/122/106 44/110/94
f 7/103/87 50/108/92 51/123/107
f 51/123/107 50/108/92 56/124/108
f 51/123/107 56/124/108 55/125/109
f 55/125/109 54/126/110 51/123/107
f 51/123/107 54/126/110 53/127/111
f 51/123/107 53/127/111 52/128/112
# 56 vertices
# 128 texture params
# 112 normals
# 108 facets

# 1 groups
