# WaveFront *.obj file (generated by Autodesk ATF)

mtllib 8a50abe6-b6a3-4571-b483-ad6ad9b2ccf9.mtl

g Body3

v -45.500000 1.200000 -150.171000
v -45.488790 1.200000 -150.256151
v -45.455922 1.200000 -150.335500
v -45.403638 1.200000 -150.403638
v -45.335500 1.200000 -150.455922
v -45.256151 1.200000 -150.488790
v -45.171000 1.200000 -150.500000
v -45.171000 0.200000 -150.500000
v -45.256151 0.200000 -150.488790
v -45.335500 0.200000 -150.455922
v -45.403638 0.200000 -150.403638
v -45.455922 0.200000 -150.335500
v -45.488790 0.200000 -150.256151
v -45.500000 0.200000 -150.171000
v -45.500000 0.200000 -136.829000
v -45.500000 1.200000 -136.829000
v -45.000000 0.200000 -150.500000
v -45.000000 0.200000 -136.500000
v -45.171000 0.200000 -136.500000
v -45.256151 0.200000 -136.511210
v -45.335500 0.200000 -136.544078
v -45.403638 0.200000 -136.596362
v -45.455922 0.200000 -136.664500
v -45.488790 0.200000 -136.743849
v -45.171000 1.200000 -136.500000
v -45.256151 1.200000 -136.511210
v -45.335500 1.200000 -136.544078
v -45.403638 1.200000 -136.596362
v -45.455922 1.200000 -136.664500
v -45.488790 1.200000 -136.743849
v -45.000000 1.200000 -136.500000
v -45.000000 1.200000 -150.500000
vt -0.000000 0.258396 0.000000
vt -1.000000 0.258396 0.000000
vt -0.000000 0.172264 0.000000
vt -1.000000 0.172264 0.000000
vt -0.000000 0.086132 0.000000
vt -1.000000 0.086132 0.000000
vt -0.000000 -0.000000 0.000000
vt -1.000000 -0.000000 0.000000
vt -0.000000 -0.086132 0.000000
vt -1.000000 -0.086132 0.000000
vt -0.000000 -0.172264 0.000000
vt -1.000000 -0.172264 0.000000
vt -0.000000 -0.258396 0.000000
vt -1.000000 -0.258396 0.000000
vt 0.329000 0.000000 0.000000
vt 13.671000 0.000000 0.000000
vt 0.329000 1.000000 0.000000
vt 13.671000 1.000000 0.000000
vt -0.238790 -6.756151 0.000000
vt -0.205922 -6.835500 0.000000
vt -0.250000 -6.671000 0.000000
vt -0.205922 6.835500 0.000000
vt -0.250000 6.671000 0.000000
vt -0.238790 6.756151 0.000000
vt -0.153638 6.903638 0.000000
vt -0.153638 -6.903638 0.000000
vt -0.085500 6.955922 0.000000
vt -0.085500 -6.955922 0.000000
vt -0.006151 6.988790 0.000000
vt -0.006151 -6.988790 0.000000
vt 0.079000 7.000000 0.000000
vt 0.079000 -7.000000 0.000000
vt 0.250000 -7.000000 0.000000
vt 0.250000 7.000000 0.000000
vt -0.000000 0.258396 0.000000
vt -1.000000 0.258396 0.000000
vt -0.000000 0.172264 0.000000
vt -1.000000 0.172264 0.000000
vt -0.000000 0.086132 0.000000
vt -1.000000 0.086132 0.000000
vt -0.000000 -0.000000 0.000000
vt -1.000000 -0.000000 0.000000
vt -0.000000 -0.086132 0.000000
vt -1.000000 -0.086132 0.000000
vt -0.000000 -0.172264 0.000000
vt -1.000000 -0.172264 0.000000
vt -0.000000 -0.258396 0.000000
vt -1.000000 -0.258396 0.000000
vt 0.329000 0.000000 0.000000
vt 0.500000 0.000000 0.000000
vt 0.329000 1.000000 0.000000
vt 0.500000 1.000000 0.000000
vt 0.171000 1.000000 0.000000
vt 0.000000 1.000000 0.000000
vt 0.171000 0.000000 0.000000
vt 0.000000 0.000000 0.000000
vt 0.000000 0.000000 0.000000
vt 14.000000 0.000000 0.000000
vt 0.000000 1.000000 0.000000
vt 14.000000 1.000000 0.000000
vt -6.988790 -0.006151 0.000000
vt 6.988790 -0.006151 0.000000
vt -7.000000 0.079000 0.000000
vt 7.000000 0.079000 0.000000
vt -7.000000 0.250000 0.000000
vt 7.000000 0.250000 0.000000
vt 6.955922 -0.085500 0.000000
vt -6.955922 -0.085500 0.000000
vt 6.903638 -0.153638 0.000000
vt -6.903638 -0.153638 0.000000
vt 6.835500 -0.205922 0.000000
vt -6.835500 -0.205922 0.000000
vt 6.671000 -0.250000 0.000000
vt -6.671000 -0.250000 0.000000
vt -6.756151 -0.238790 0.000000
vt 6.756151 -0.238790 0.000000
vn -1.000000 0.000000 -0.000000
vn -1.000000 0.000000 -0.000000
vn -0.965926 0.000000 -0.258819
vn -0.965926 0.000000 -0.258819
vn -0.866025 0.000000 -0.500000
vn -0.866025 0.000000 -0.500000
vn -0.707107 0.000000 -0.707107
vn -0.707107 0.000000 -0.707107
vn -0.500000 0.000000 -0.866025
vn -0.500000 0.000000 -0.866025
vn -0.258819 0.000000 -0.965926
vn -0.258819 0.000000 -0.965926
vn -0.000000 0.000000 -1.000000
vn -0.000000 0.000000 -1.000000
vn -1.000000 0.000000 0.000000
vn -1.000000 0.000000 0.000000
vn -0.000000 -1.000000 -0.000000
vn -0.000000 -1.000000 -0.000000
vn -0.000000 -1.000000 -0.000000
vn -0.000000 -1.000000 -0.000000
vn -0.000000 -1.000000 -0.000000
vn -0.000000 -1.000000 -0.000000
vn -0.000000 -1.000000 -0.000000
vn -0.000000 -1.000000 -0.000000
vn -0.000000 -1.000000 -0.000000
vn -0.000000 -1.000000 -0.000000
vn -0.000000 -1.000000 -0.000000
vn -0.000000 -1.000000 -0.000000
vn -0.000000 -1.000000 -0.000000
vn -0.000000 -1.000000 -0.000000
vn -0.000000 -1.000000 -0.000000
vn -0.000000 -1.000000 -0.000000
vn -0.000000 -0.000000 1.000000
vn -0.000000 -0.000000 1.000000
vn -0.258819 -0.000000 0.965926
vn -0.258819 -0.000000 0.965926
vn -0.500000 -0.000000 0.866025
vn -0.500000 -0.000000 0.866025
vn -0.707107 -0.000000 0.707107
vn -0.707107 -0.000000 0.707107
vn -0.866025 -0.000000 0.500000
vn -0.866025 -0.000000 0.500000
vn -0.965926 -0.000000 0.258819
vn -0.965926 -0.000000 0.258819
vn 0.000000 0.000000 1.000000
vn 0.000000 0.000000 1.000000
vn 0.000000 0.000000 -1.000000
vn 0.000000 0.000000 -1.000000
vn 1.000000 -0.000000 0.000000
vn 1.000000 -0.000000 0.000000
vn 1.000000 -0.000000 0.000000
vn 1.000000 -0.000000 0.000000
vn 0.000000 1.000000 0.000000
vn 0.000000 1.000000 0.000000
vn 0.000000 1.000000 0.000000
vn 0.000000 1.000000 0.000000
vn 0.000000 1.000000 0.000000
vn 0.000000 1.000000 0.000000
vn 0.000000 1.000000 0.000000
vn 0.000000 1.000000 0.000000
vn 0.000000 1.000000 0.000000
vn 0.000000 1.000000 0.000000
vn 0.000000 1.000000 0.000000
vn 0.000000 1.000000 0.000000
vn 0.000000 1.000000 0.000000
vn 0.000000 1.000000 0.000000
vn 0.000000 1.000000 0.000000
vn 0.000000 1.000000 0.000000
usemtl Steel_-_Satin
f 14/1/1 1/2/2 13/3/3
f 13/3/3 1/2/2 2/4/4
f 13/3/3 2/4/4 12/5/5
f 12/5/5 2/4/4 3/6/6
f 12/5/5 3/6/6 11/7/7
f 11/7/7 3/6/6 4/8/8
f 11/7/7 4/8/8 10/9/9
f 10/9/9 4/8/8 5/10/10
f 10/9/9 5/10/10 9/11/11
f 9/11/11 5/10/10 6/12/12
f 9/11/11 6/12/12 8/13/13
f 8/13/13 6/12/12 7/14/14
f 14/15/1 15/16/15 1/17/2
f 1/17/2 15/16/15 16/18/16
f 13/19/17 12/20/18 14/21/19
f 14/21/19 12/20/18 23/22/20
f 14/21/19 23/22/20 15/23/21
f 15/23/21 23/22/20 24/24/22
f 23/22/20 12/20/18 22/25/23
f 22/25/23 12/20/18 11/26/24
f 22/25/23 11/26/24 21/27/25
f 21/27/25 11/26/24 10/28/26
f 21/27/25 10/28/26 20/29/27
f 20/29/27 10/28/26 9/30/28
f 20/29/27 9/30/28 19/31/29
f 19/31/29 9/30/28 8/32/30
f 19/31/29 8/32/30 17/33/31
f 17/33/31 18/34/32 19/31/29
f 19/35/33 25/36/34 20/37/35
f 20/37/35 25/36/34 26/38/36
f 20/37/35 26/38/36 21/39/37
f 21/39/37 26/38/36 27/40/38
f 21/39/37 27/40/38 22/41/39
f 22/41/39 27/40/38 28/42/40
f 22/41/39 28/42/40 23/43/41
f 23/43/41 28/42/40 29/44/42
f 23/43/41 29/44/42 24/45/43
f 24/45/43 29/44/42 30/46/44
f 24/45/43 30/46/44 15/47/15
f 15/47/15 30/46/44 16/48/16
f 19/49/33 18/50/45 25/51/34
f 25/51/34 18/50/45 31/52/46
f 7/53/14 32/54/47 8/55/13
f 8/55/13 32/54/47 17/56/48
f 18/57/49 17/58/50 31/59/51
f 31/59/51 17/58/50 32/60/52
f 6/61/53 26/62/54 7/63/55
f 7/63/55 26/62/54 25/64/56
f 7/63/55 25/64/56 32/65/57
f 32/65/57 25/64/56 31/66/58
f 26/62/54 6/61/53 27/67/59
f 27/67/59 6/61/53 5/68/60
f 27/67/59 5/68/60 28/69/61
f 28/69/61 5/68/60 4/70/62
f 28/69/61 4/70/62 29/71/63
f 29/71/63 4/70/62 3/72/64
f 29/71/63 3/72/64 16/73/65
f 16/73/65 3/72/64 1/74/66
f 1/74/66 3/72/64 2/75/67
f 16/73/65 30/76/68 29/71/63
# 32 vertices
# 76 texture params
# 68 normals
# 60 facets

# 1 groups
