# WaveFront *.obj file (generated by Autodesk ATF)

mtllib 6e1af1de-1b23-4397-a8f4-8cb5a0ce9b1a.mtl

g Body1

v 7.000000 0.000000 3.500000
v 7.000000 0.000000 3.270000
v 7.000000 1.000000 3.270000
v 7.000000 1.000000 3.500000
v -7.000000 0.000000 3.500000
v -7.000000 1.000000 3.500000
v -7.000000 0.000000 3.270000
v -7.000000 1.000000 3.270000
v -6.230000 0.000000 2.500000
v -6.429291 0.000000 2.526237
v -6.615000 0.000000 2.603160
v -6.774472 0.000000 2.725528
v -6.896840 0.000000 2.885000
v -6.973763 0.000000 3.070709
v -6.973763 1.000000 3.070709
v -6.896840 1.000000 2.885000
v -6.774472 1.000000 2.725528
v -6.615000 1.000000 2.603160
v -6.429291 1.000000 2.526237
v -6.230000 1.000000 2.500000
v 6.230000 0.000000 2.500000
v 6.230000 1.000000 2.500000
v 6.973763 0.000000 3.070709
v 6.896840 0.000000 2.885000
v 6.774472 0.000000 2.725528
v 6.615000 0.000000 2.603160
v 6.429291 0.000000 2.526237
v 6.429291 1.000000 2.526237
v 6.615000 1.000000 2.603160
v 6.774472 1.000000 2.725528
v 6.896840 1.000000 2.885000
v 6.973763 1.000000 3.070709
vt 0.000000 0.000000 0.000000
vt 0.230000 0.000000 0.000000
vt 0.000000 1.000000 0.000000
vt 0.230000 1.000000 0.000000
vt 0.000000 0.000000 0.000000
vt 14.000000 0.000000 0.000000
vt 0.000000 1.000000 0.000000
vt 14.000000 1.000000 0.000000
vt 0.000000 0.000000 0.000000
vt 0.230000 0.000000 0.000000
vt 0.000000 1.000000 0.000000
vt 0.230000 1.000000 0.000000
vt -1.000000 0.000000 0.000000
vt -0.000000 0.000000 0.000000
vt -1.000000 0.201586 0.000000
vt -0.000000 0.201586 0.000000
vt -1.000000 0.403171 0.000000
vt -0.000000 0.403171 0.000000
vt -1.000000 0.604757 0.000000
vt -0.000000 0.604757 0.000000
vt -1.000000 0.806342 0.000000
vt -0.000000 0.806342 0.000000
vt -1.000000 1.007928 0.000000
vt -0.000000 1.007928 0.000000
vt -1.000000 1.209513 0.000000
vt -0.000000 1.209513 0.000000
vt 0.000000 0.000000 0.000000
vt 12.460000 0.000000 0.000000
vt 0.000000 1.000000 0.000000
vt 12.460000 1.000000 0.000000
vt -1.000000 0.000000 0.000000
vt -0.000000 0.000000 0.000000
vt -1.000000 0.201586 0.000000
vt -0.000000 0.201586 0.000000
vt -1.000000 0.403171 0.000000
vt -0.000000 0.403171 0.000000
vt -1.000000 0.604757 0.000000
vt -0.000000 0.604757 0.000000
vt -1.000000 0.806342 0.000000
vt -0.000000 0.806342 0.000000
vt -1.000000 1.007928 0.000000
vt -0.000000 1.007928 0.000000
vt -1.000000 1.209513 0.000000
vt -0.000000 1.209513 0.000000
vt 6.973763 -0.070709 0.000000
vt -6.973763 -0.070709 0.000000
vt 7.000000 -0.270000 0.000000
vt -7.000000 -0.270000 0.000000
vt 7.000000 -0.500000 0.000000
vt -7.000000 -0.500000 0.000000
vt -6.896840 0.115000 0.000000
vt 6.896840 0.115000 0.000000
vt -6.774472 0.274472 0.000000
vt 6.774472 0.274472 0.000000
vt -6.615000 0.396840 0.000000
vt 6.615000 0.396840 0.000000
vt -6.230000 0.500000 0.000000
vt 6.230000 0.500000 0.000000
vt 6.429291 0.473763 0.000000
vt -6.429291 0.473763 0.000000
vt -6.429291 0.473763 0.000000
vt -6.615000 0.396840 0.000000
vt -6.230000 0.500000 0.000000
vt 6.615000 0.396840 0.000000
vt 6.230000 0.500000 0.000000
vt 6.429291 0.473763 0.000000
vt 6.774472 0.274472 0.000000
vt -6.774472 0.274472 0.000000
vt 6.896840 0.115000 0.000000
vt -6.896840 0.115000 0.000000
vt 6.973763 -0.070709 0.000000
vt -6.973763 -0.070709 0.000000
vt 7.000000 -0.270000 0.000000
vt -7.000000 -0.270000 0.000000
vt 7.000000 -0.500000 0.000000
vt -7.000000 -0.500000 0.000000
vn 1.000000 -0.000000 0.000000
vn 1.000000 -0.000000 0.000000
vn 1.000000 -0.000000 0.000000
vn 1.000000 -0.000000 0.000000
vn 0.000000 0.000000 1.000000
vn 0.000000 0.000000 1.000000
vn 0.000000 0.000000 1.000000
vn 0.000000 0.000000 1.000000
vn -1.000000 0.000000 0.000000
vn -1.000000 0.000000 0.000000
vn -1.000000 0.000000 0.000000
vn -1.000000 0.000000 0.000000
vn 0.000000 -0.000000 -1.000000
vn 0.000000 -0.000000 -1.000000
vn -0.258819 0.000000 -0.965926
vn -0.258819 0.000000 -0.965926
vn -0.500000 0.000000 -0.866025
vn -0.500000 0.000000 -0.866025
vn -0.707107 0.000000 -0.707107
vn -0.707107 0.000000 -0.707107
vn -0.866025 0.000000 -0.500000
vn -0.866025 0.000000 -0.500000
vn -0.965926 0.000000 -0.258819
vn -0.965926 0.000000 -0.258819
vn -0.000000 0.000000 -1.000000
vn -0.000000 0.000000 -1.000000
vn 0.965926 -0.000000 -0.258819
vn 0.965926 -0.000000 -0.258819
vn 0.866025 -0.000000 -0.500000
vn 0.866025 -0.000000 -0.500000
vn 0.707107 -0.000000 -0.707107
vn 0.707107 -0.000000 -0.707107
vn 0.500000 -0.000000 -0.866025
vn 0.500000 -0.000000 -0.866025
vn 0.258819 -0.000000 -0.965926
vn 0.258819 -0.000000 -0.965926
vn 0.000000 1.000000 0.000000
vn 0.000000 1.000000 0.000000
vn 0.000000 1.000000 0.000000
vn 0.000000 1.000000 0.000000
vn 0.000000 1.000000 0.000000
vn 0.000000 1.000000 0.000000
vn 0.000000 1.000000 0.000000
vn 0.000000 1.000000 0.000000
vn 0.000000 1.000000 0.000000
vn 0.000000 1.000000 0.000000
vn 0.000000 1.000000 0.000000
vn 0.000000 1.000000 0.000000
vn 0.000000 1.000000 0.000000
vn 0.000000 1.000000 0.000000
vn 0.000000 1.000000 0.000000
vn 0.000000 1.000000 0.000000
vn -0.000000 -1.000000 -0.000000
vn -0.000000 -1.000000 -0.000000
vn -0.000000 -1.000000 -0.000000
vn -0.000000 -1.000000 -0.000000
vn -0.000000 -1.000000 -0.000000
vn -0.000000 -1.000000 -0.000000
vn -0.000000 -1.000000 -0.000000
vn -0.000000 -1.000000 -0.000000
vn -0.000000 -1.000000 -0.000000
vn -0.000000 -1.000000 -0.000000
vn -0.000000 -1.000000 -0.000000
vn -0.000000 -1.000000 -0.000000
vn -0.000000 -1.000000 -0.000000
vn -0.000000 -1.000000 -0.000000
vn -0.000000 -1.000000 -0.000000
vn -0.000000 -1.000000 -0.000000
usemtl Steel_-_Satin
f 1/1/1 2/2/2 4/3/3
f 4/3/3 2/2/2 3/4/4
f 5/5/5 1/6/6 6/7/7
f 6/7/7 1/6/6 4/8/8
f 7/9/9 5/10/10 8/11/11
f 8/11/11 5/10/10 6/12/12
f 20/13/13 9/14/14 19/15/15
f 19/15/15 9/14/14 10/16/16
f 19/15/15 10/16/16 18/17/17
f 18/17/17 10/16/16 11/18/18
f 18/17/17 11/18/18 17/19/19
f 17/19/19 11/18/18 12/20/20
f 17/19/19 12/20/20 16/21/21
f 16/21/21 12/20/20 13/22/22
f 16/21/21 13/22/22 15/23/23
f 15/23/23 13/22/22 14/24/24
f 15/23/23 14/24/24 8/25/11
f 8/25/11 14/24/24 7/26/9
f 21/27/25 9/28/14 22/29/26
f 22/29/26 9/28/14 20/30/13
f 3/31/4 2/32/2 32/33/27
f 32/33/27 2/32/2 23/34/28
f 32/33/27 23/34/28 31/35/29
f 31/35/29 23/34/28 24/36/30
f 31/35/29 24/36/30 30/37/31
f 30/37/31 24/36/30 25/38/32
f 30/37/31 25/38/32 29/39/33
f 29/39/33 25/38/32 26/40/34
f 29/39/33 26/40/34 28/41/35
f 28/41/35 26/40/34 27/42/36
f 28/41/35 27/42/36 22/43/26
f 22/43/26 27/42/36 21/44/25
f 32/45/37 15/46/38 3/47/39
f 3/47/39 15/46/38 8/48/40
f 3/47/39 8/48/40 4/49/41
f 4/49/41 8/48/40 6/50/42
f 15/46/38 32/45/37 16/51/43
f 16/51/43 32/45/37 31/52/44
f 16/51/43 31/52/44 17/53/45
f 17/53/45 31/52/44 30/54/46
f 17/53/45 30/54/46 18/55/47
f 18/55/47 30/54/46 29/56/48
f 18/55/47 29/56/48 20/57/49
f 20/57/49 29/56/48 22/58/50
f 22/58/50 29/56/48 28/59/51
f 20/57/49 19/60/52 18/55/47
f 27/61/53 26/62/54 21/63/55
f 21/63/55 26/62/54 11/64/56
f 21/63/55 11/64/56 9/65/57
f 9/65/57 11/64/56 10/66/58
f 11/64/56 26/62/54 12/67/59
f 12/67/59 26/62/54 25/68/60
f 12/67/59 25/68/60 13/69/61
f 13/69/61 25/68/60 24/70/62
f 13/69/61 24/70/62 14/71/63
f 14/71/63 24/70/62 23/72/64
f 14/71/63 23/72/64 7/73/65
f 7/73/65 23/72/64 2/74/66
f 7/73/65 2/74/66 5/75/67
f 5/75/67 2/74/66 1/76/68
# 32 vertices
# 76 texture params
# 68 normals
# 60 facets

# 1 groups
