# This file uses centimeters as units for non-parametric coordinates.

mtllib box_partition_type_4.mtl
g default
v -3.356852 -2.250000 0.100000
v -3.356852 -2.250000 -0.100000
v 1.853382 -2.250000 4.097104
v 1.853382 -2.250000 3.822661
v 1.853382 2.250000 3.822661
v 1.853382 2.250000 4.097104
v -1.853382 -2.250000 -4.097104
v -1.853382 -2.250000 -3.852814
v -1.853382 2.250000 -3.852814
v -1.853382 2.250000 -4.097104
v -1.853377 -2.250000 3.822661
v -1.853377 2.250000 3.822661
v -1.853377 -2.250000 4.097104
v -1.853377 2.250000 4.097104
v 1.853378 -2.250000 -3.852814
v 1.853378 2.250000 -3.852814
v 1.853378 -2.250000 -4.097104
v 1.853378 2.250000 -4.097104
v -3.553492 -2.250000 2.816801
v -3.356852 -2.250000 2.816801
v -3.356852 2.250000 2.816801
v -3.553492 2.250000 2.816801
v -3.356852 2.250000 -2.816801
v -3.553492 2.250000 -2.816801
v -3.356852 -2.250000 -2.816801
v -3.553492 -2.250000 -2.816801
v 3.342008 2.250000 -2.816801
v 3.342008 -2.250000 -2.816801
v 3.553492 2.250000 -2.816801
v 3.553492 -2.250000 -2.816801
v 3.342008 -2.250000 2.816801
v 3.342008 2.250000 2.816800
v 3.553492 -2.250000 2.816801
v 3.553492 2.250000 2.816801
v -3.553492 -2.250000 1.336156
v -3.553492 -2.250000 1.580644
v -3.356852 -2.250000 1.580644
v -3.356852 -2.250000 1.336156
v -3.356852 2.250000 1.580644
v -3.356852 2.250000 1.336156
v -3.553492 2.250000 1.580644
v -3.553492 2.250000 1.336156
v -3.356852 2.250000 -1.336156
v -3.356852 2.250000 -1.580644
v -3.356852 -2.250000 -1.580644
v -3.356852 -2.250000 -1.336156
v -3.553492 -2.250000 -1.580644
v -3.553492 -2.250000 -1.336156
v -3.553492 2.250000 -1.580644
v -3.553492 2.250000 -1.336156
v 3.342008 2.250000 -1.336156
v 3.342008 2.250000 -1.580644
v 3.553492 2.250000 -1.580644
v 3.553492 2.250000 -1.336156
v 3.553492 -2.250000 -1.580644
v 3.553492 -2.250000 -1.336156
v 3.342008 -2.250000 -1.580644
v 3.342008 -2.250000 -1.336156
v 3.342008 -2.250000 1.336156
v 3.342008 -2.250000 1.580644
v 3.553492 -2.250000 1.580644
v 3.553492 -2.250000 1.336156
v 3.553492 2.250000 1.580644
v 3.553492 2.250000 1.336156
v 3.342008 2.250000 1.580644
v 3.342008 2.250000 1.336156
v -0.166785 -2.250000 3.822661
v 0.166790 -2.250000 3.822661
v 0.166790 2.250000 3.822661
v -0.166785 2.250000 3.822661
v 0.166790 2.250000 4.097104
v -0.166785 2.250000 4.097104
v 0.166790 -2.250000 4.097104
v -0.166785 -2.250000 4.097104
v 0.166785 -2.250000 -3.852814
v -0.166790 -2.250000 -3.852814
v -0.166790 2.250000 -3.852814
v 0.166785 2.250000 -3.852814
v -0.166790 2.250000 -4.097104
v 0.166785 2.250000 -4.097104
v -0.166790 -2.250000 -4.097104
v 0.166785 -2.250000 -4.097104
v 0.159366 -2.250000 1.580644
v -0.174209 -2.250000 1.580644
v -0.174209 2.250000 1.580644
v 0.159366 2.250000 1.580644
v -0.174209 2.250000 1.336156
v 0.159366 2.250000 1.336156
v -0.174209 -2.250000 1.336156
v 0.159366 -2.250000 1.336156
v 0.159366 2.250000 -1.580644
v -0.174209 2.250000 -1.580644
v -0.174209 -2.250000 -1.580644
v 0.159366 -2.250000 -1.580644
v -0.174209 -2.250000 -1.336156
v 0.159366 -2.250000 -1.336156
v -0.174209 2.250000 -1.336156
v 0.159366 2.250000 -1.336156
vt 0.375000 0.000000
vt 0.381917 0.000000
vt 0.375000 0.250000
vt 0.381917 0.250000
vt 0.375000 0.000000
vt 0.375000 0.250000
vt 0.375000 0.500000
vt 0.381917 0.500000
vt 0.375000 0.750000
vt 0.381917 0.750000
vt 0.375000 0.500000
vt 0.375000 0.750000
vt 0.617561 0.750000
vt 0.625000 0.500000
vt 0.617561 0.500000
vt 0.625000 0.750000
vt 0.625000 0.500000
vt 0.625000 0.750000
vt 0.617561 0.250000
vt 0.625000 0.000000
vt 0.617561 0.000000
vt 0.625000 0.250000
vt 0.625000 0.000000
vt 0.625000 0.250000
vt 0.381917 0.000000
vt 0.375000 0.000000
vt 0.375000 0.250000
vt 0.381917 0.750000
vt 0.375000 0.750000
vt 0.375000 0.500000
vt 0.625000 0.500000
vt 0.625000 0.750000
vt 0.625000 0.000000
vt 0.625000 0.250000
vt 0.132453 0.250000
vt 0.466253 0.250000
vt 0.511249 0.250000
vt 0.633373 0.250000
vt 0.625000 0.250000
vt 0.511249 0.000000
vt 0.125000 0.250000
vt 0.466253 0.000000
vt 0.625000 0.000000
vt 0.512002 0.000000
vt 0.125000 0.000000
vt 0.466924 0.000000
vt 0.381917 0.000000
vt 0.493872 0.000000
vt 0.381917 0.250000
vt 0.493872 0.000000
vt 0.381917 0.250000
vt 0.493872 0.250000
vt 0.381917 0.000000
vt 0.493872 0.250000
vt 0.381917 0.500000
vt 0.493872 0.500000
vt 0.381917 0.750000
vt 0.493872 0.500000
vt 0.381917 0.750000
vt 0.493872 0.750000
vt 0.381917 0.500000
vt 0.493872 0.750000
vt 0.466924 0.250000
vt 0.132453 0.000000
vt 0.512002 0.250000
vt 0.633373 0.000000
vt 0.366627 0.250000
vt 0.487998 0.000000
vt 0.375000 0.250000
vt 0.487998 0.250000
vt 0.488751 0.250000
vt 0.375000 0.000000
vt 0.488751 0.000000
vt 0.366627 0.000000
vt 0.867547 0.250000
vt 0.533077 0.000000
vt 0.533076 0.250000
vt 0.875000 0.250000
vt 0.533747 0.250000
vt 0.875000 0.000000
vt 0.533747 0.000000
vt 0.867547 0.000000
vt 0.505606 0.000000
vt 0.617561 0.250000
vt 0.505606 0.250000
vt 0.617561 0.250000
vt 0.505606 0.250000
vt 0.617561 0.000000
vt 0.505606 0.000000
vt 0.617561 0.000000
vt 0.505606 0.500000
vt 0.617561 0.750000
vt 0.505606 0.750000
vt 0.617561 0.750000
vt 0.505606 0.750000
vt 0.617561 0.500000
vt 0.505606 0.500000
vt 0.617561 0.500000
vn 0.000000 1.000000 0.000000
vn 0.000000 1.000000 0.000000
vn 0.000000 1.000000 0.000000
vn 0.000000 1.000000 0.000000
vn 1.000000 0.000000 0.000000
vn 1.000000 0.000000 0.000000
vn 1.000000 0.000000 0.000000
vn 1.000000 0.000000 0.000000
vn 0.000000 0.000000 1.000000
vn 0.000000 0.000000 1.000000
vn 0.000000 0.000000 1.000000
vn 0.000000 0.000000 1.000000
vn -1.000000 0.000000 0.000000
vn -1.000000 0.000000 0.000000
vn -1.000000 0.000000 0.000000
vn -1.000000 0.000000 0.000000
vn 0.000000 0.000000 -1.000000
vn 0.000000 0.000000 -1.000000
vn 0.000000 0.000000 -1.000000
vn 0.000000 0.000000 -1.000000
vn 0.000000 0.000000 -1.000000
vn 0.000000 0.000000 -1.000000
vn 0.000000 0.000000 -1.000000
vn 0.000000 0.000000 -1.000000
vn -0.000006 0.000000 1.000000
vn -0.000000 0.000000 1.000000
vn -0.000006 0.000000 1.000000
vn 0.000000 0.000000 1.000000
vn -1.000000 0.000000 0.000000
vn -1.000000 0.000000 0.000000
vn -1.000000 0.000000 0.000000
vn -1.000000 0.000000 0.000000
vn 1.000000 0.000000 0.000000
vn 1.000000 0.000000 0.000000
vn 1.000000 0.000000 0.000000
vn 1.000000 0.000000 0.000000
vn -1.000000 0.000000 0.000000
vn -1.000000 0.000000 0.000000
vn -1.000000 0.000000 0.000000
vn -1.000000 0.000000 0.000000
vn 0.000000 -1.000000 0.000000
vn 0.000000 -1.000000 0.000000
vn 0.000000 -1.000000 0.000000
vn 0.000000 -1.000000 0.000000
vn 0.000000 1.000000 0.000000
vn 0.000000 1.000000 0.000000
vn 0.000000 1.000000 0.000000
vn 0.000000 1.000000 0.000000
vn 0.000000 -1.000000 0.000000
vn 0.000000 -1.000000 0.000000
vn 0.000000 -1.000000 0.000000
vn 0.000000 -1.000000 0.000000
vn -1.000000 0.000000 0.000000
vn -1.000000 0.000000 0.000000
vn -1.000000 0.000000 0.000000
vn -1.000000 0.000000 0.000000
vn 0.000000 1.000000 0.000000
vn 0.000000 1.000000 0.000000
vn 0.000000 1.000000 0.000000
vn 0.000000 1.000000 0.000000
vn 1.000000 0.000000 0.000000
vn 1.000000 0.000000 0.000000
vn 1.000000 0.000000 0.000000
vn 1.000000 0.000000 0.000000
vn 0.000000 -1.000000 0.000000
vn 0.000000 -1.000000 0.000000
vn 0.000000 -1.000000 0.000000
vn 0.000000 -1.000000 0.000000
vn 0.000000 -1.000000 0.000000
vn 0.000000 -1.000000 0.000000
vn 0.000000 -1.000000 0.000000
vn 0.000000 -1.000000 0.000000
vn 1.000000 0.000000 0.000000
vn 1.000000 0.000000 0.000000
vn 1.000000 0.000000 0.000000
vn 1.000000 0.000000 0.000000
vn 0.000000 1.000000 0.000000
vn 0.000000 1.000000 0.000000
vn 0.000000 1.000000 0.000000
vn 0.000000 1.000000 0.000000
vn 0.000000 -1.000000 0.000000
vn 0.000000 -1.000000 0.000000
vn 1.000000 0.000000 0.000000
vn 1.000000 0.000000 0.000000
vn 1.000000 0.000000 0.000000
vn 1.000000 0.000000 0.000000
vn 0.000000 1.000000 0.000000
vn 0.000000 1.000000 0.000000
vn -1.000000 0.000000 0.000000
vn -1.000000 0.000000 0.000000
vn 0.000000 1.000000 0.000000
vn 0.000000 1.000000 0.000000
vn 1.000000 0.000000 0.000000
vn 1.000000 0.000000 0.000000
vn 1.000000 0.000000 0.000000
vn 1.000000 0.000000 0.000000
vn 0.000000 -1.000000 0.000000
vn 0.000000 -1.000000 0.000000
vn -1.000000 0.000000 0.000000
vn -1.000000 0.000000 0.000000
vn -1.000000 0.000000 0.000000
vn -1.000000 0.000000 0.000000
vn -1.000000 0.000000 0.000000
vn -1.000000 0.000000 0.000000
vn 0.000000 1.000000 0.000000
vn 0.000000 1.000000 0.000000
vn 1.000000 0.000000 0.000000
vn 1.000000 0.000000 0.000000
vn 0.000000 -1.000000 0.000000
vn 0.000000 -1.000000 0.000000
vn -1.000000 0.000000 0.000000
vn -1.000000 0.000000 0.000000
vn -1.000000 0.000000 0.000000
vn -1.000000 0.000000 0.000000
vn 0.000000 -1.000000 0.000000
vn 0.000000 -1.000000 0.000000
vn 1.000000 0.000000 0.000000
vn 1.000000 0.000000 0.000000
vn 0.000000 1.000000 0.000000
vn 0.000000 1.000000 0.000000
vn 0.000000 -1.000000 0.000000
vn 0.000000 -1.000000 0.000000
vn 1.000000 0.000000 0.000000
vn 1.000000 0.000000 0.000000
vn 1.000000 0.000000 0.000000
vn 1.000000 0.000000 0.000000
vn 1.000000 0.000000 0.000000
vn 1.000000 0.000000 0.000000
vn -1.000000 0.000000 0.000000
vn -1.000000 -0.000000 0.000000
vn -1.000000 -0.000000 0.000000
vn -1.000000 -0.000000 0.000000
vn 0.000000 -1.000000 0.000000
vn 0.000000 -1.000000 0.000000
vn 0.000000 -1.000000 0.000000
vn 0.000000 -1.000000 0.000000
vn 0.000000 1.000000 0.000000
vn 0.000000 1.000000 0.000000
vn 0.000000 1.000000 0.000000
vn 0.000000 1.000000 0.000000
vn 0.000000 0.000000 1.000000
vn 0.000000 0.000000 1.000000
vn 0.000000 0.000000 1.000000
vn 0.000000 0.000000 1.000000
vn 0.000000 -1.000000 0.000000
vn 0.000000 -1.000000 0.000000
vn 0.000000 -1.000000 0.000000
vn 0.000000 -1.000000 0.000000
vn 0.000000 1.000000 0.000000
vn 0.000000 1.000000 0.000000
vn 0.000000 1.000000 0.000000
vn 0.000000 1.000000 0.000000
vn 0.000000 0.000000 -1.000000
vn 0.000000 0.000000 -1.000000
vn 0.000000 0.000000 -1.000000
vn 0.000000 0.000000 -1.000000
vn 0.000000 -1.000000 0.000000
vn 0.000000 -1.000000 0.000000
vn 0.000000 -1.000000 0.000000
vn 0.000000 -1.000000 0.000000
vn 0.000000 1.000000 0.000000
vn 0.000000 1.000000 0.000000
vn 0.000000 1.000000 0.000000
vn 0.000000 1.000000 0.000000
vn 0.000000 1.000000 0.000000
vn 0.000000 1.000000 0.000000
vn 0.000000 1.000000 0.000000
vn 0.000000 1.000000 0.000000
vn 0.000000 -1.000000 0.000000
vn 0.000000 -1.000000 0.000000
vn 0.000000 -1.000000 0.000000
vn 0.000000 -1.000000 0.000000
vn 0.000000 1.000000 0.000000
vn 0.000000 1.000000 0.000000
vn 0.000000 1.000000 0.000000
vn 0.000000 1.000000 0.000000
vn 0.000000 0.000000 1.000000
vn 0.000000 0.000000 1.000000
vn 0.000000 0.000000 -1.000000
vn 0.000000 0.000000 -1.000000
vn 0.000000 -1.000000 0.000000
vn 0.000000 -1.000000 0.000000
vn 0.000000 -1.000000 0.000000
vn 0.000000 -1.000000 0.000000
vn 0.000000 0.000000 -1.000000
vn -0.000000 -0.000000 -1.000000
vn -0.000000 -0.000000 -1.000000
vn -0.000000 -0.000000 -1.000000
vn 0.000000 0.000000 1.000000
vn 0.000000 0.000000 1.000000
vn 0.000000 0.000000 1.000000
vn 0.000000 0.000000 1.000000
vn 0.000000 0.000000 1.000000
vn 0.000000 0.000000 1.000000
vn 0.000000 0.000000 1.000000
vn 0.000000 0.000000 1.000000
vn 0.000000 0.000000 -1.000000
vn 0.000000 0.000000 -1.000000
vn 0.000000 0.000000 -1.000000
vn 0.000000 0.000000 -1.000000
vn 0.000000 0.000000 1.000000
vn 0.000000 0.000000 1.000000
vn 0.000000 0.000000 1.000000
vn 0.000000 0.000000 1.000000
vn 0.000000 0.000000 -1.000000
vn 0.000000 0.000000 -1.000000
vn 0.000000 0.000000 -1.000000
vn 0.000000 0.000000 -1.000000
vn 0.000000 0.000000 -1.000000
vn 0.000000 0.000000 -1.000000
vn 0.000000 0.000000 -1.000000
vn 0.000000 0.000000 -1.000000
vn 0.000000 1.000000 0.000000
vn 0.000000 1.000000 0.000000
vn 0.000000 0.000000 1.000000
vn 0.000000 0.000000 1.000000
vn 0.000000 -1.000000 0.000000
vn 0.000000 -1.000000 0.000000
vn 0.000000 0.000000 1.000000
vn 0.000000 0.000000 1.000000
vn 0.000000 0.000000 1.000000
vn 0.000000 0.000000 1.000000
vn 0.000000 1.000000 0.000000
vn 0.000000 1.000000 0.000000
vn 0.000000 0.000000 -1.000000
vn 0.000000 0.000000 -1.000000
vn 0.000000 -1.000000 0.000000
vn 0.000000 -1.000000 0.000000
vn 0.000000 0.000000 1.000000
vn 0.000000 0.000000 1.000000
vn 0.000000 0.000000 1.000000
vn 0.000000 0.000000 1.000000
vn 0.000000 -0.000000 -1.000000
vn -0.000000 -0.000000 -1.000000
vn -0.000000 -0.000000 -1.000000
vn -0.000000 -0.000000 -1.000000
vn 0.000000 0.000000 -1.000000
vn 0.000000 0.000000 -1.000000
vn 0.000000 0.000000 -1.000000
vn 0.000000 0.000000 -1.000000
vn 0.000000 0.000000 1.000000
vn 0.000000 0.000000 1.000000
vn 0.000000 0.000000 1.000000
vn 0.000000 0.000000 1.000000
vn 0.000000 -1.000000 0.000000
vn 0.000000 -1.000000 0.000000
vn 0.000000 -1.000000 0.000000
vn 0.000000 -1.000000 0.000000
vn -0.999995 0.000000 0.003311
vn -0.999995 -0.000000 0.003311
vn -0.999995 -0.000000 0.003311
vn -0.999995 -0.000000 0.003311
vn 0.000000 1.000000 0.000000
vn 0.000000 1.000000 0.000000
vn 0.000000 1.000000 0.000000
vn 0.000000 1.000000 0.000000
vn 0.999995 0.000000 -0.003311
vn 0.999995 -0.000000 -0.003311
vn 0.999995 -0.000000 -0.003311
vn 0.999995 -0.000000 -0.003311
vn 0.000000 -1.000000 0.000000
vn 0.000000 -1.000000 0.000000
vn 0.000000 -1.000000 0.000000
vn 0.000000 -1.000000 0.000000
vn -1.000000 0.000000 0.000000
vn -1.000000 0.000000 0.000000
vn -1.000000 0.000000 0.000000
vn -1.000000 0.000000 0.000000
vn 0.000000 1.000000 0.000000
vn 0.000000 1.000000 0.000000
vn 0.000000 1.000000 0.000000
vn 0.000000 1.000000 0.000000
vn 1.000000 0.000000 0.000000
vn 1.000000 0.000000 0.000000
vn 1.000000 0.000000 0.000000
vn 1.000000 0.000000 0.000000
vn 0.000000 -1.000000 -0.000000
vn 0.000000 -1.000000 0.000000
vn 0.000000 -1.000000 -0.000000
vn 0.000000 -1.000000 0.000000
vn 0.999995 0.000000 0.003265
vn 0.999995 0.000000 0.003265
vn 0.999995 0.000000 0.003265
vn 0.999995 0.000000 0.003265
vn 0.000000 1.000000 -0.000000
vn 0.000000 1.000000 -0.000000
vn 0.000000 1.000000 0.000000
vn 0.000000 1.000000 0.000000
vn -0.999995 0.000000 -0.003265
vn -0.999995 0.000000 -0.003265
vn -0.999995 0.000000 -0.003265
vn -0.999995 0.000000 -0.003265
s 1
g box_partition_type_4
usemtl initialShadingGroup
f 42/27/1 40/49/2 50/30/3
f 50/30/3 40/49/2 43/55/4
s 2
f 3/43/5 4/66/6 6/39/7
f 6/39/7 4/66/6 5/38/8
s 3
f 19/1/9 20/2/10 22/6/11
f 22/6/11 20/2/10 21/4/12
s 4
f 7/45/13 8/64/14 10/41/15
f 10/41/15 8/64/14 9/35/16
s 5
f 24/7/17 23/8/18 26/12/19
f 26/12/19 23/8/18 25/10/20
s 6
f 28/13/21 27/15/22 30/18/23
f 30/18/23 27/15/22 29/17/24
s 7
f 32/19/25 31/21/26 34/24/27
f 34/24/27 31/21/26 33/23/28
s 8
f 12/67/29 11/74/30 14/69/31
f 14/69/31 11/74/30 13/72/32
s 9
f 16/75/33 15/82/34 18/78/35
f 18/78/35 15/82/34 17/80/36
s 10
f 35/26/37 36/5/38 42/27/39
f 42/27/39 36/5/38 41/3/40
s 11
f 36/5/41 35/26/42 37/53/43
f 37/53/43 35/26/42 38/47/44
s 1
f 39/51/45 40/49/2 41/3/46
f 41/3/46 40/49/2 42/27/1
f 43/55/4 44/61/47 50/30/3
f 50/30/3 44/61/47 49/11/48
s 11
f 45/59/49 46/57/50 47/9/51
f 47/9/51 46/57/50 48/29/52
s 10
f 47/9/53 48/29/54 49/11/55
f 49/11/55 48/29/54 50/30/56
s 1
f 52/98/57 51/96/58 53/14/59
f 53/14/59 51/96/58 54/31/60
s 16
f 53/14/61 54/31/62 55/16/63
f 55/16/63 54/31/62 56/32/64
s 11
f 55/16/65 56/32/66 57/92/67
f 57/92/67 56/32/66 58/94/68
f 60/90/69 59/88/70 61/20/71
f 61/20/71 59/88/70 62/33/72
s 16
f 61/20/73 62/33/74 63/22/75
f 63/22/75 62/33/74 64/34/76
s 1
f 63/22/77 64/34/78 65/84/79
f 65/84/79 64/34/78 66/86/80
s 11
f 36/5/41 37/53/43 19/1/81
f 19/1/81 37/53/43 20/2/82
s 21
f 37/53/83 39/51/84 20/2/85
f 20/2/85 39/51/84 21/4/86
s 1
f 39/51/45 41/3/46 21/4/87
f 21/4/87 41/3/46 22/6/88
s 10
f 41/3/40 36/5/38 22/6/89
f 22/6/89 36/5/38 19/1/90
s 1
f 49/11/48 44/61/47 24/7/91
f 24/7/91 44/61/47 23/8/92
s 22
f 44/61/93 45/59/94 23/8/95
f 23/8/95 45/59/94 25/10/96
s 11
f 45/59/49 47/9/51 25/10/97
f 25/10/97 47/9/51 26/12/98
s 10
f 47/9/53 49/11/55 26/12/99
f 26/12/99 49/11/55 24/7/100
s 23
f 57/92/101 52/98/102 28/13/103
f 28/13/103 52/98/102 27/15/104
s 1
f 52/98/57 53/14/59 27/15/105
f 27/15/105 53/14/59 29/17/106
s 16
f 53/14/61 55/16/63 29/17/107
f 29/17/107 55/16/63 30/18/108
s 11
f 55/16/65 57/92/67 30/18/109
f 30/18/109 57/92/67 28/13/110
s 24
f 65/84/111 60/90/112 32/19/113
f 32/19/113 60/90/112 31/21/114
s 11
f 60/90/69 61/20/71 31/21/115
f 31/21/115 61/20/71 33/23/116
s 16
f 61/20/73 63/22/75 33/23/117
f 33/23/117 63/22/75 34/24/118
s 1
f 63/22/77 65/84/79 34/24/119
f 34/24/119 65/84/79 32/19/120
s 11
f 35/26/42 48/29/52 38/47/44
f 38/47/44 48/29/52 1/25/121
f 1/25/121 48/29/52 2/28/122
f 48/29/52 46/57/50 2/28/122
s 10
f 42/27/39 50/30/56 35/26/37
f 35/26/37 50/30/56 48/29/54
s 1
f 64/34/78 54/31/60 66/86/80
f 66/86/80 54/31/60 51/96/58
s 11
f 56/32/66 62/33/72 58/94/68
f 58/94/68 62/33/72 59/88/70
s 16
f 64/34/76 62/33/74 54/31/62
f 54/31/62 62/33/74 56/32/64
s 25
f 46/57/123 43/55/124 2/28/125
f 43/55/124 40/49/126 2/28/125
f 2/28/125 40/49/126 1/25/127
f 1/25/127 40/49/126 38/47/128
s 26
f 51/96/129 58/94/130 66/86/131
f 66/86/131 58/94/130 59/88/132
s 27
f 67/68/133 68/44/134 74/73/135
f 74/73/135 68/44/134 73/40/136
s 28
f 69/65/137 70/70/138 71/37/139
f 71/37/139 70/70/138 72/71/140
s 29
f 71/37/141 72/71/142 73/40/143
f 73/40/143 72/71/142 74/73/144
s 30
f 75/76/145 76/46/146 82/81/147
f 82/81/147 76/46/146 81/42/148
s 31
f 77/63/149 78/77/150 79/36/151
f 79/36/151 78/77/150 80/79/152
s 32
f 79/36/153 80/79/154 81/42/155
f 81/42/155 80/79/154 82/81/156
s 11
f 83/83/157 84/48/158 90/89/159
f 90/89/159 84/48/158 89/50/160
s 1
f 85/54/161 86/85/162 87/52/163
f 87/52/163 86/85/162 88/87/164
f 91/91/165 92/56/166 98/97/167
f 98/97/167 92/56/166 97/58/168
s 11
f 93/62/169 94/93/170 95/60/171
f 95/60/171 94/93/170 96/95/172
s 31
f 10/41/173 9/35/174 79/36/151
f 79/36/151 9/35/174 77/63/149
s 28
f 69/65/137 71/37/139 5/38/175
f 5/38/175 71/37/139 6/39/176
s 29
f 3/43/177 6/39/178 73/40/143
f 73/40/143 6/39/178 71/37/141
s 32
f 7/45/179 10/41/180 81/42/155
f 81/42/155 10/41/180 79/36/153
s 27
f 3/43/181 73/40/136 4/66/182
f 4/66/182 73/40/136 68/44/134
s 30
f 7/45/183 81/42/148 8/64/184
f 8/64/184 81/42/148 76/46/146
s 11
f 37/53/43 38/47/44 84/48/158
f 84/48/158 38/47/44 89/50/160
s 37
f 38/47/185 40/49/186 89/50/187
f 89/50/187 40/49/186 87/52/188
s 1
f 40/49/2 39/51/45 87/52/163
f 87/52/163 39/51/45 85/54/161
s 38
f 39/51/189 37/53/190 85/54/191
f 85/54/191 37/53/190 84/48/192
s 1
f 44/61/47 43/55/4 92/56/166
f 92/56/166 43/55/4 97/58/168
s 39
f 43/55/193 46/57/194 97/58/195
f 97/58/195 46/57/194 95/60/196
s 11
f 46/57/50 45/59/49 95/60/171
f 95/60/171 45/59/49 93/62/169
s 40
f 45/59/197 44/61/198 93/62/199
f 93/62/199 44/61/198 92/56/200
s 41
f 76/46/201 77/63/202 8/64/203
f 8/64/203 77/63/202 9/35/204
s 42
f 68/44/205 69/65/206 4/66/207
f 4/66/207 69/65/206 5/38/208
s 43
f 11/74/209 12/67/210 67/68/211
f 67/68/211 12/67/210 70/70/212
s 28
f 14/69/213 72/71/140 12/67/214
f 12/67/214 72/71/140 70/70/138
s 29
f 74/73/144 72/71/142 13/72/215
f 13/72/215 72/71/142 14/69/216
s 27
f 67/68/133 74/73/135 11/74/217
f 11/74/217 74/73/135 13/72/218
s 44
f 15/82/219 16/75/220 75/76/221
f 75/76/221 16/75/220 78/77/222
s 31
f 80/79/152 78/77/150 18/78/223
f 18/78/223 78/77/150 16/75/224
s 32
f 82/81/156 80/79/154 17/80/225
f 17/80/225 80/79/154 18/78/226
s 30
f 75/76/145 82/81/147 15/82/227
f 15/82/227 82/81/147 17/80/228
s 45
f 86/85/229 83/83/230 65/84/231
f 65/84/231 83/83/230 60/90/232
s 1
f 88/87/164 86/85/162 66/86/80
f 66/86/80 86/85/162 65/84/79
s 46
f 90/89/233 88/87/234 59/88/235
f 59/88/235 88/87/234 66/86/236
s 11
f 83/83/157 90/89/159 60/90/69
f 60/90/69 90/89/159 59/88/70
s 47
f 94/93/237 91/91/238 57/92/239
f 57/92/239 91/91/238 52/98/240
s 11
f 96/95/172 94/93/170 58/94/68
f 58/94/68 94/93/170 57/92/67
s 48
f 98/97/241 96/95/242 51/96/243
f 51/96/243 96/95/242 58/94/244
s 1
f 91/91/165 98/97/167 52/98/57
f 52/98/57 98/97/167 51/96/58
s 49
f 68/44/245 67/68/246 83/83/247
f 83/83/247 67/68/246 84/48/248
s 50
f 67/68/249 70/70/250 84/48/251
f 84/48/251 70/70/250 85/54/252
s 51
f 69/65/253 86/85/254 70/70/255
f 70/70/255 86/85/254 85/54/256
s 52
f 69/65/257 68/44/258 86/85/259
f 86/85/259 68/44/258 83/83/260
s 53
f 90/89/261 89/50/262 96/95/263
f 96/95/263 89/50/262 95/60/264
s 54
f 89/50/265 87/52/266 95/60/267
f 95/60/267 87/52/266 97/58/268
s 55
f 87/52/269 88/87/270 97/58/271
f 97/58/271 88/87/270 98/97/272
s 56
f 88/87/273 90/89/274 98/97/275
f 98/97/275 90/89/274 96/95/276
s 57
f 75/76/277 94/93/278 76/46/279
f 76/46/279 94/93/278 93/62/280
s 58
f 75/76/281 78/77/282 94/93/283
f 94/93/283 78/77/282 91/91/284
s 59
f 78/77/285 77/63/286 91/91/287
f 91/91/287 77/63/286 92/56/288
s 60
f 77/63/289 76/46/290 92/56/291
f 92/56/291 76/46/290 93/62/292
