# This file uses centimeters as units for non-parametric coordinates.

mtllib box_partition_type_1.mtl
g default
v -3.500000 2.250000 0.100000
v -0.100000 2.250000 0.100000
v -0.100000 2.250000 -0.100000
v -3.500000 2.250000 -0.100000
v 0.100000 2.250000 -0.100000
v 0.100000 2.250000 -3.312500
v -0.100000 2.250000 -3.312500
v -0.100000 -2.250000 0.100000
v -0.100000 -2.250000 3.312500
v -0.100000 2.250000 3.312500
v 3.500000 2.250000 -0.100000
v 3.500000 -2.250000 -0.100000
v 0.100000 -2.250000 -0.100000
v 0.100000 -2.250000 3.312500
v 0.100000 -2.250000 0.100000
v 0.100000 2.250000 0.100000
v 0.100000 2.250000 3.312500
v 3.500000 -2.250000 0.100000
v 3.500000 2.250000 0.100000
v 0.100000 -2.250000 -3.312500
v -3.500000 -2.250000 0.100000
v -0.100000 -2.250000 -3.312500
v -0.100000 -2.250000 -0.100000
v -3.500000 -2.250000 -0.100000
vt 0.375000 0.250000
vt 0.496429 0.250000
vt 0.496429 0.500000
vt 0.375000 0.500000
vt 0.625000 0.378774
vt 0.625000 0.500000
vt 0.375000 0.500000
vt 0.375000 0.378774
vt 0.253774 0.000000
vt 0.375000 0.000000
vt 0.375000 0.250000
vt 0.253774 0.250000
vt 0.503571 0.500000
vt 0.625000 0.500000
vt 0.625000 0.750000
vt 0.503571 0.750000
vt 0.625000 0.000000
vt 0.746226 0.000000
vt 0.746226 0.250000
vt 0.625000 0.250000
vt 0.503571 0.000000
vt 0.625000 0.000000
vt 0.625000 0.250000
vt 0.503571 0.250000
vt 0.625000 0.371226
vt 0.375000 0.371226
vt 0.875000 0.000000
vt 0.875000 0.250000
vt 0.625000 1.000000
vt 0.503571 1.000000
vt 0.625000 0.878774
vt 0.625000 1.000000
vt 0.375000 1.000000
vt 0.375000 0.878774
vt 0.753774 0.000000
vt 0.875000 0.000000
vt 0.875000 0.250000
vt 0.753774 0.250000
vt 0.375000 0.000000
vt 0.496429 0.000000
vt 0.125000 0.000000
vt 0.246226 0.000000
vt 0.246226 0.250000
vt 0.125000 0.250000
vt 0.496429 0.750000
vt 0.375000 0.750000
vt 0.625000 0.871226
vt 0.375000 0.871226
vt 0.625000 0.750000
vt 0.375000 0.750000
vt 0.125000 0.000000
vt 0.125000 0.250000
vt 0.496429 1.000000
vt 0.375000 1.000000
vn 0.000000 1.000000 0.000000
vn 0.000000 1.000000 0.000000
vn 0.000000 1.000000 0.000000
vn 0.000000 1.000000 0.000000
vn 0.000000 1.000000 0.000000
vn 0.000000 1.000000 0.000000
vn 0.000000 1.000000 0.000000
vn -1.000000 0.000000 0.000000
vn -1.000000 0.000000 0.000000
vn -1.000000 0.000000 0.000000
vn -1.000000 0.000000 0.000000
vn 0.000000 0.000000 -1.000000
vn 0.000000 0.000000 -1.000000
vn 0.000000 0.000000 -1.000000
vn 0.000000 0.000000 -1.000000
vn 1.000000 0.000000 0.000000
vn 1.000000 0.000000 0.000000
vn 1.000000 0.000000 0.000000
vn 1.000000 0.000000 0.000000
vn 0.000000 0.000000 1.000000
vn 0.000000 0.000000 1.000000
vn 0.000000 0.000000 1.000000
vn 0.000000 0.000000 1.000000
vn 0.000000 1.000000 0.000000
vn 0.000000 0.000000 1.000000
vn 0.000000 0.000000 1.000000
vn 0.000000 0.000000 1.000000
vn 0.000000 0.000000 1.000000
vn 1.000000 0.000000 0.000000
vn 1.000000 0.000000 0.000000
vn 1.000000 0.000000 0.000000
vn 1.000000 0.000000 0.000000
vn 0.000000 1.000000 0.000000
vn 0.000000 1.000000 0.000000
vn 0.000000 1.000000 0.000000
vn 0.000000 1.000000 0.000000
vn 0.000000 -1.000000 0.000000
vn 0.000000 -1.000000 0.000000
vn 0.000000 -1.000000 0.000000
vn 0.000000 -1.000000 0.000000
vn 0.000000 -1.000000 0.000000
vn 0.000000 -1.000000 0.000000
vn 0.000000 -1.000000 0.000000
vn 1.000000 0.000000 0.000000
vn 1.000000 0.000000 0.000000
vn 1.000000 0.000000 0.000000
vn 1.000000 0.000000 0.000000
vn 0.000000 0.000000 1.000000
vn 0.000000 0.000000 1.000000
vn 0.000000 0.000000 1.000000
vn 0.000000 0.000000 1.000000
vn -1.000000 0.000000 0.000000
vn -1.000000 0.000000 0.000000
vn -1.000000 0.000000 0.000000
vn -1.000000 0.000000 0.000000
vn 0.000000 0.000000 -1.000000
vn 0.000000 0.000000 -1.000000
vn 0.000000 0.000000 -1.000000
vn 0.000000 0.000000 -1.000000
vn 0.000000 -1.000000 0.000000
vn 0.000000 0.000000 -1.000000
vn 0.000000 0.000000 -1.000000
vn 0.000000 0.000000 -1.000000
vn 0.000000 0.000000 -1.000000
vn -1.000000 0.000000 0.000000
vn -1.000000 0.000000 0.000000
vn -1.000000 0.000000 0.000000
vn -1.000000 0.000000 0.000000
vn 0.000000 -1.000000 0.000000
vn 0.000000 -1.000000 0.000000
vn 0.000000 -1.000000 0.000000
vn 0.000000 -1.000000 0.000000
s 1
g box_partition_type_1
usemtl initialShadingGroup
f 1/1/1 2/2/2 4/4/3
f 4/4/3 2/2/2 3/3/4
f 5/5/5 6/6/6 3/8/4
f 3/8/4 6/6/6 7/7/7
s 3
f 8/9/8 9/10/9 2/12/10
f 2/12/10 9/10/9 10/11/11
s 4
f 5/13/12 11/14/13 13/16/14
f 13/16/14 11/14/13 12/15/15
s 5
f 14/17/16 15/18/17 17/20/18
f 17/20/18 15/18/17 16/19/19
s 6
f 15/21/20 18/22/21 16/24/22
f 16/24/22 18/22/21 19/23/23
s 1
f 16/25/24 5/5/5 2/26/2
f 2/26/2 5/5/5 3/8/4
s 8
f 9/10/25 14/17/26 10/11/27
f 10/11/27 14/17/26 17/20/28
s 9
f 18/22/29 12/27/30 19/23/31
f 19/23/31 12/27/30 11/28/32
s 1
f 10/11/33 17/20/34 2/26/2
f 2/26/2 17/20/34 16/25/24
f 16/24/24 19/23/35 5/13/5
f 5/13/5 19/23/35 11/14/36
s 10
f 13/16/37 12/15/38 15/30/39
f 15/30/39 12/15/38 18/29/40
f 15/31/39 14/32/41 8/34/42
f 8/34/42 14/32/41 9/33/43
s 12
f 13/35/44 20/36/45 5/38/46
f 5/38/46 20/36/45 6/37/47
s 13
f 21/39/48 8/40/49 1/1/50
f 1/1/50 8/40/49 2/2/51
s 14
f 22/41/52 23/42/53 7/44/54
f 7/44/54 23/42/53 3/43/55
s 15
f 4/4/56 3/3/57 24/46/58
f 24/46/58 3/3/57 23/45/59
s 10
f 13/47/37 15/31/39 23/48/60
f 23/48/60 15/31/39 8/34/42
s 16
f 7/7/61 6/6/62 22/50/63
f 22/50/63 6/6/62 20/49/64
s 17
f 24/51/65 21/39/66 4/52/67
f 4/52/67 21/39/66 1/1/68
s 10
f 22/50/69 20/49/70 23/48/60
f 23/48/60 20/49/70 13/47/37
f 24/46/71 23/45/60 21/54/72
f 21/54/72 23/45/60 8/53/42
