# This file uses centimeters as units for non-parametric coordinates.

mtllib box_partition_type_0.mtl
g default
v -3.500000 2.250000 0.100000
v -0.100000 2.250000 0.100000
v -0.100000 2.250000 -0.100000
v -3.500000 2.250000 -0.100000
v 0.100000 2.250000 -0.100000
v 0.100000 2.250000 -3.312500
v -0.100000 2.250000 -3.312500
v -0.100000 -2.250000 0.100000
v -0.100000 -2.250000 3.312500
v -0.100000 2.250000 3.312500
v 3.500000 2.250000 -0.100000
v 3.500000 -2.250000 -0.100000
v 0.100000 -2.250000 -0.100000
v 0.100000 -2.250000 3.312500
v 0.100000 -2.250000 0.100000
v 0.100000 2.250000 0.100000
v 0.100000 2.250000 3.312500
v 3.500000 -2.250000 0.100000
v 3.500000 2.250000 0.100000
v 0.100000 -2.250000 -3.312500
v -3.500000 -2.250000 0.100000
v -0.100000 -2.250000 -3.312500
v -0.100000 -2.250000 -0.100000
v -3.500000 -2.250000 -0.100000
v 3.291700 2.250000 -0.100000
v 3.291700 -2.250000 -0.100000
v 3.291700 -2.250000 0.100000
v 3.291700 2.250000 0.100000
v -3.306320 2.250000 0.100000
v -3.306320 2.250000 -0.100000
v -3.306320 -2.250000 0.100000
v -3.306320 -2.250000 -0.100000
v -0.100000 -2.250000 3.090614
v -0.100000 2.250000 3.090614
v 0.100000 -2.250000 3.090614
v 0.100000 2.250000 3.090614
v 0.100000 2.250000 -3.114993
v -0.100000 2.250000 -3.114993
v 0.100000 -2.250000 -3.114993
v -0.100000 -2.250000 -3.114993
v 1.049314 -2.250000 3.312500
v 1.049314 -2.250000 3.090614
v 1.049314 2.250000 3.090614
v 1.049314 2.250000 3.312500
v -1.049314 -2.250000 -3.312500
v -1.049314 -2.250000 -3.114993
v -1.049314 2.250000 -3.114993
v -1.049314 2.250000 -3.312500
v -1.049311 -2.250000 3.090614
v -1.049311 2.250000 3.090614
v -1.049311 -2.250000 3.312500
v -1.049311 2.250000 3.312500
v 1.049311 -2.250000 -3.114993
v 1.049311 2.250000 -3.114993
v 1.049311 -2.250000 -3.312500
v 1.049311 2.250000 -3.312500
v 1.853382 -2.250000 3.312500
v 1.853382 -2.250000 3.090614
v 1.853382 2.250000 3.090614
v 1.853382 2.250000 3.312500
v -1.853382 -2.250000 -3.312500
v -1.853382 -2.250000 -3.114993
v -1.853382 2.250000 -3.114993
v -1.853382 2.250000 -3.312500
v -1.853377 -2.250000 3.090614
v -1.853377 2.250000 3.090614
v -1.853377 -2.250000 3.312500
v -1.853377 2.250000 3.312500
v 1.853378 -2.250000 -3.114993
v 1.853378 2.250000 -3.114993
v 1.853378 -2.250000 -3.312500
v 1.853378 2.250000 -3.312500
v -3.500000 -2.250000 1.951456
v -3.306320 -2.250000 1.951456
v -3.306320 2.250000 1.951456
v -3.500000 2.250000 1.951456
v -3.306320 2.250000 -1.951456
v -3.500000 2.250000 -1.951456
v -3.306320 -2.250000 -1.951456
v -3.500000 -2.250000 -1.951456
v 3.291700 2.250000 -1.951456
v 3.291700 -2.250000 -1.951456
v 3.500000 2.250000 -1.951456
v 3.500000 -2.250000 -1.951456
v 3.291700 -2.250000 1.951456
v 3.291700 2.250000 1.951455
v 3.500000 -2.250000 1.951456
v 3.500000 2.250000 1.951456
v 3.291700 -2.447333 -0.100000
v 0.100000 -2.447333 -0.100000
v 3.291700 -2.447333 0.100000
v 0.100000 -2.447333 0.100000
v 0.100000 -2.447333 3.090614
v -0.100000 -2.447333 3.090614
v -0.100000 -2.447333 0.100000
v -0.100000 -2.447333 -0.100000
v -3.306320 -2.447333 -0.100000
v -3.306320 -2.447333 0.100000
v 0.100000 -2.447333 -3.114993
v -0.100000 -2.447333 -3.114993
vt 0.375000 0.250000
vt 0.496429 0.250000
vt 0.496429 0.500000
vt 0.375000 0.500000
vt 0.625000 0.378774
vt 0.625000 0.500000
vt 0.375000 0.500000
vt 0.375000 0.378774
vt 0.253774 0.000000
vt 0.375000 0.000000
vt 0.375000 0.250000
vt 0.253774 0.250000
vt 0.503571 0.500000
vt 0.625000 0.500000
vt 0.625000 0.750000
vt 0.503571 0.750000
vt 0.625000 0.000000
vt 0.746226 0.000000
vt 0.746226 0.250000
vt 0.625000 0.250000
vt 0.503571 0.000000
vt 0.625000 0.000000
vt 0.625000 0.250000
vt 0.503571 0.250000
vt 0.625000 0.371226
vt 0.375000 0.371226
vt 0.875000 0.000000
vt 0.875000 0.250000
vt 0.625000 1.000000
vt 0.503571 1.000000
vt 0.625000 0.878774
vt 0.625000 1.000000
vt 0.375000 1.000000
vt 0.375000 0.878774
vt 0.753774 0.000000
vt 0.875000 0.000000
vt 0.875000 0.250000
vt 0.753774 0.250000
vt 0.375000 0.000000
vt 0.496429 0.000000
vt 0.125000 0.000000
vt 0.246226 0.000000
vt 0.246226 0.250000
vt 0.125000 0.250000
vt 0.496429 0.750000
vt 0.375000 0.750000
vt 0.625000 0.871226
vt 0.375000 0.871226
vt 0.625000 0.750000
vt 0.375000 0.750000
vt 0.125000 0.000000
vt 0.125000 0.250000
vt 0.496429 1.000000
vt 0.375000 1.000000
vt 0.617561 0.500000
vt 0.617561 0.750000
vt 0.617561 0.000000
vt 0.617561 1.000000
vt 0.617561 0.250000
vt 0.381917 0.250000
vt 0.381917 0.500000
vt 0.381917 0.000000
vt 0.381917 1.000000
vt 0.381917 0.750000
vt 0.366627 0.000000
vt 0.375000 0.991627
vt 0.366627 0.250000
vt 0.375000 0.258373
vt 0.633373 0.000000
vt 0.625000 0.991627
vt 0.633373 0.250000
vt 0.625000 0.258373
vt 0.625000 0.492547
vt 0.867547 0.250000
vt 0.375000 0.492547
vt 0.132453 0.250000
vt 0.867547 0.000000
vt 0.625000 0.757453
vt 0.132453 0.000000
vt 0.375000 0.757453
vt 0.625000 0.000000
vt 0.633373 0.000000
vt 0.633373 0.250000
vt 0.625000 0.250000
vt 0.125000 0.000000
vt 0.132453 0.000000
vt 0.132453 0.250000
vt 0.125000 0.250000
vt 0.366627 0.250000
vt 0.366627 0.000000
vt 0.375000 0.000000
vt 0.375000 0.250000
vt 0.867547 0.250000
vt 0.867547 0.000000
vt 0.875000 0.000000
vt 0.875000 0.250000
vt 0.625000 0.000000
vt 0.633373 0.000000
vt 0.633373 0.250000
vt 0.625000 0.250000
vt 0.125000 0.000000
vt 0.132453 0.000000
vt 0.132453 0.250000
vt 0.125000 0.250000
vt 0.366627 0.250000
vt 0.366627 0.000000
vt 0.375000 0.000000
vt 0.375000 0.250000
vt 0.867547 0.250000
vt 0.867547 0.000000
vt 0.875000 0.000000
vt 0.875000 0.250000
vt 0.375000 0.000000
vt 0.381917 0.000000
vt 0.381917 0.250000
vt 0.375000 0.250000
vt 0.375000 0.500000
vt 0.381917 0.500000
vt 0.381917 0.750000
vt 0.375000 0.750000
vt 0.617561 0.750000
vt 0.617561 0.500000
vt 0.625000 0.500000
vt 0.625000 0.750000
vt 0.617561 0.250000
vt 0.617561 0.000000
vt 0.625000 0.000000
vt 0.625000 0.250000
vt 0.503571 0.750000
vt 0.617561 0.750000
vt 0.617561 1.000000
vt 0.503571 1.000000
vt 0.625000 0.878774
vt 0.625000 0.991627
vt 0.375000 0.991627
vt 0.375000 0.878774
vt 0.381917 1.000000
vt 0.381917 0.750000
vt 0.496429 0.750000
vt 0.496429 1.000000
vt 0.375000 0.757453
vt 0.625000 0.757453
vt 0.625000 0.871226
vt 0.375000 0.871226
vn 0.000000 1.000000 0.000000
vn 0.000000 1.000000 0.000000
vn 0.000000 1.000000 0.000000
vn 0.000000 1.000000 0.000000
vn 0.000000 1.000000 0.000000
vn 0.000000 1.000000 0.000000
vn 0.000000 1.000000 0.000000
vn 0.000000 1.000000 0.000000
vn -1.000000 0.000000 0.000000
vn -1.000000 0.000000 0.000000
vn -1.000000 0.000000 0.000000
vn -1.000000 0.000000 0.000000
vn 0.000000 0.000000 -1.000000
vn 0.000000 -0.000000 -1.000000
vn 0.000000 -0.000000 -1.000000
vn 0.000000 -0.000000 -1.000000
vn 1.000000 0.000000 0.000000
vn 1.000000 0.000000 0.000000
vn 1.000000 0.000000 0.000000
vn 1.000000 0.000000 0.000000
vn 0.000000 0.000000 1.000000
vn 0.000000 0.000000 1.000000
vn 0.000000 0.000000 1.000000
vn 0.000000 0.000000 1.000000
vn 0.000000 1.000000 0.000000
vn 0.000000 1.000000 0.000000
vn 0.000000 0.000000 1.000000
vn 0.000000 0.000000 1.000000
vn 0.000000 0.000000 1.000000
vn 0.000000 0.000000 1.000000
vn 1.000000 0.000000 0.000000
vn 1.000000 0.000000 0.000000
vn 1.000000 0.000000 0.000000
vn 1.000000 0.000000 0.000000
vn 0.000000 1.000000 0.000000
vn 0.000000 1.000000 0.000000
vn 0.000000 1.000000 0.000000
vn 0.000000 1.000000 0.000000
vn 0.000000 1.000000 0.000000
vn 0.000000 1.000000 0.000000
vn 0.000000 -1.000000 0.000000
vn 0.000000 -1.000000 0.000000
vn 0.000000 -1.000000 0.000000
vn 0.000000 -1.000000 0.000000
vn 0.000000 -1.000000 0.000000
vn 0.000000 -1.000000 0.000000
vn 0.000000 -1.000000 0.000000
vn 1.000000 0.000000 0.000000
vn 1.000000 0.000000 0.000000
vn 1.000000 0.000000 0.000000
vn 1.000000 0.000000 0.000000
vn 0.000000 0.000000 1.000000
vn 0.000000 0.000000 1.000000
vn 0.000000 0.000000 1.000000
vn 0.000000 0.000000 1.000000
vn -1.000000 0.000000 0.000000
vn -1.000000 0.000000 0.000000
vn -1.000000 0.000000 0.000000
vn -1.000000 0.000000 0.000000
vn 0.000000 0.000000 -1.000000
vn 0.000000 0.000000 -1.000000
vn 0.000000 0.000000 -1.000000
vn 0.000000 0.000000 -1.000000
vn 0.000000 -1.000000 0.000000
vn 0.000000 0.000000 -1.000000
vn 0.000000 0.000000 -1.000000
vn 0.000000 0.000000 -1.000000
vn 0.000000 0.000000 -1.000000
vn -1.000000 0.000000 0.000000
vn -1.000000 0.000000 0.000000
vn -1.000000 0.000000 0.000000
vn -1.000000 0.000000 0.000000
vn 0.000000 -1.000000 -0.000001
vn 0.000000 -1.000000 -0.000000
vn 0.000000 -1.000000 -0.000000
vn 0.000000 -1.000000 0.000000
vn 0.000000 -1.000000 0.000000
vn 0.000000 -1.000000 0.000000
vn 0.000000 -1.000000 0.000000
vn 0.000000 -1.000000 0.000000
vn 0.000000 0.000000 -1.000000
vn 0.000000 0.000000 -1.000000
vn 0.000000 0.000000 -1.000000
vn 0.000000 0.000000 -1.000000
vn -0.000002 0.000000 1.000000
vn -0.000000 0.000000 1.000000
vn -0.000002 0.000000 1.000000
vn 0.000000 0.000000 1.000000
vn 0.000000 1.000000 0.000000
vn 0.000000 1.000000 0.000000
vn 0.000000 -1.000000 0.000000
vn 0.000000 -1.000000 0.000000
vn 0.000000 -1.000000 0.000000
vn 0.000000 -1.000000 0.000000
vn 0.000000 0.000000 1.000000
vn 0.000000 0.000000 1.000000
vn 0.000000 0.000000 1.000000
vn 0.000000 0.000000 1.000000
vn 0.000000 0.000000 -1.000000
vn 0.000000 0.000000 -1.000000
vn 0.000000 0.000000 -1.000000
vn 0.000000 0.000000 -1.000000
vn 0.000000 -1.000000 0.000000
vn 0.000000 -1.000000 0.000000
vn -1.000000 0.000000 0.000000
vn -1.000000 0.000000 0.000000
vn -1.000000 0.000000 0.000000
vn -1.000000 0.000000 0.000000
vn 1.000000 0.000000 0.000000
vn 1.000000 0.000000 0.000000
vn 1.000000 0.000000 0.000000
vn 1.000000 0.000000 0.000000
vn 0.000000 -1.000000 0.000000
vn 0.000000 -1.000000 0.000000
vn 0.000000 -1.000000 0.000000
vn 0.000000 -1.000000 0.000000
vn 0.000000 1.000000 -0.000000
vn 0.000000 1.000000 0.000000
vn 1.000000 0.000000 0.000000
vn 1.000000 0.000000 0.000000
vn 1.000000 0.000000 0.000000
vn 1.000000 0.000000 0.000000
vn -1.000000 0.000000 0.000000
vn -1.000000 0.000000 0.000000
vn -1.000000 0.000000 0.000000
vn -1.000000 0.000000 0.000000
vn 0.000000 -1.000000 0.000000
vn 0.000000 -1.000000 0.000000
vn 0.000000 -1.000000 0.000000
vn 0.000000 -1.000000 0.000000
vn 0.000000 -1.000000 0.000000
vn 0.000000 -1.000000 0.000000
vn 0.000000 0.000000 -1.000000
vn 0.000000 0.000000 -1.000000
vn 0.000000 0.000000 -1.000000
vn 0.000000 0.000000 -1.000000
vn 0.000000 1.000000 0.000000
vn 0.000000 1.000000 0.000000
vn 0.000000 1.000000 0.000000
vn 0.000000 1.000000 0.000000
vn 0.000000 0.000000 1.000000
vn 0.000000 0.000000 1.000000
vn 0.000000 0.000000 1.000000
vn 0.000000 0.000000 1.000000
vn 0.000000 -1.000000 0.000000
vn 0.000000 -1.000000 0.000000
vn 0.000000 -1.000000 0.000000
vn 0.000000 -1.000000 0.000000
vn 0.000000 0.000000 1.000000
vn 0.000000 0.000000 1.000000
vn 0.000000 0.000000 1.000000
vn 0.000000 0.000000 1.000000
vn 0.000000 1.000000 0.000000
vn 0.000000 1.000000 0.000000
vn 0.000000 1.000000 0.000000
vn 0.000000 1.000000 0.000000
vn 0.000000 0.000000 -1.000000
vn 0.000000 0.000000 -1.000000
vn 0.000000 0.000000 -1.000000
vn 0.000000 0.000000 -1.000000
vn 0.000000 0.000000 -1.000000
vn 0.000000 0.000000 -1.000000
vn 0.000000 0.000000 -1.000000
vn 0.000000 0.000000 -1.000000
vn 0.000000 -1.000000 0.000000
vn 0.000000 -1.000000 0.000000
vn 0.000000 -1.000000 0.000000
vn 0.000000 -1.000000 0.000000
vn 0.000000 0.000000 1.000000
vn 0.000000 0.000000 1.000000
vn 0.000000 0.000000 1.000000
vn 0.000000 0.000000 1.000000
vn 0.000000 1.000000 0.000000
vn 0.000000 1.000000 0.000000
vn 0.000000 1.000000 0.000000
vn 0.000000 1.000000 0.000000
vn 0.000000 0.000000 1.000000
vn 0.000000 0.000000 1.000000
vn 0.000000 0.000000 1.000000
vn 0.000000 0.000000 1.000000
vn 0.000000 -1.000000 0.000000
vn 0.000000 -1.000000 0.000000
vn 0.000000 -1.000000 0.000000
vn 0.000000 -1.000000 0.000000
vn 0.000000 0.000000 -1.000000
vn 0.000000 0.000000 -1.000000
vn 0.000000 0.000000 -1.000000
vn 0.000000 0.000000 -1.000000
vn 0.000000 1.000000 0.000000
vn 0.000000 1.000000 0.000000
vn 0.000000 1.000000 0.000000
vn 0.000000 1.000000 0.000000
vn 0.000000 -1.000000 0.000000
vn 0.000000 -1.000000 0.000000
vn 0.000000 -1.000000 0.000000
vn 0.000000 -1.000000 0.000000
vn 0.000000 0.000000 -1.000000
vn 0.000000 0.000000 -1.000000
vn 0.000000 0.000000 -1.000000
vn 0.000000 0.000000 -1.000000
vn 0.000000 1.000000 0.000000
vn 0.000000 1.000000 0.000000
vn 0.000000 1.000000 0.000000
vn 0.000000 1.000000 0.000000
vn 0.000000 0.000000 1.000000
vn 0.000000 0.000000 1.000000
vn 0.000000 0.000000 1.000000
vn 0.000000 0.000000 1.000000
vn 0.000000 -1.000000 0.000000
vn 0.000000 -1.000000 0.000000
vn 0.000000 -1.000000 0.000000
vn 0.000000 -1.000000 0.000000
vn 0.000000 0.000000 1.000000
vn 0.000000 0.000000 1.000000
vn 0.000000 0.000000 1.000000
vn 0.000000 0.000000 1.000000
vn 0.000000 1.000000 0.000000
vn 0.000000 1.000000 0.000000
vn 0.000000 1.000000 0.000000
vn 0.000000 1.000000 0.000000
vn 0.000000 0.000000 -1.000000
vn 0.000000 0.000000 -1.000000
vn 0.000000 0.000000 -1.000000
vn 0.000000 0.000000 -1.000000
vn 0.000000 0.000000 -1.000000
vn 0.000000 0.000000 -1.000000
vn 0.000000 0.000000 -1.000000
vn 0.000000 0.000000 -1.000000
vn 0.000000 -1.000000 0.000000
vn 0.000000 -1.000000 0.000000
vn 0.000000 -1.000000 0.000000
vn 0.000000 -1.000000 0.000000
vn 0.000000 0.000000 1.000000
vn 0.000000 0.000000 1.000000
vn 0.000000 0.000000 1.000000
vn 0.000000 0.000000 1.000000
vn 0.000000 1.000000 0.000000
vn 0.000000 1.000000 0.000000
vn 0.000000 1.000000 0.000000
vn 0.000000 1.000000 0.000000
vn 0.000000 0.000000 1.000000
vn 0.000000 0.000000 1.000000
vn 0.000000 0.000000 1.000000
vn 0.000000 0.000000 1.000000
vn 0.000000 -1.000000 0.000000
vn 0.000000 -1.000000 0.000000
vn 0.000000 -1.000000 0.000000
vn 0.000000 -1.000000 0.000000
vn 0.000000 0.000000 -1.000000
vn 0.000000 0.000000 -1.000000
vn 0.000000 0.000000 -1.000000
vn 0.000000 0.000000 -1.000000
vn 0.000000 1.000000 0.000000
vn 0.000000 1.000000 0.000000
vn 0.000000 1.000000 0.000000
vn 0.000000 1.000000 0.000000
vn 0.000000 -1.000000 0.000000
vn 0.000000 -1.000000 0.000000
vn 0.000000 -1.000000 0.000000
vn 0.000000 -1.000000 0.000000
vn 1.000000 0.000000 0.000000
vn 1.000000 0.000000 0.000000
vn 1.000000 0.000000 0.000000
vn 1.000000 0.000000 0.000000
vn 0.000000 1.000000 0.000000
vn 0.000000 1.000000 0.000000
vn 0.000000 1.000000 0.000000
vn 0.000000 1.000000 0.000000
vn -1.000000 0.000000 0.000000
vn -1.000000 0.000000 0.000000
vn -1.000000 0.000000 0.000000
vn -1.000000 0.000000 0.000000
vn 0.000000 1.000000 0.000000
vn 0.000000 1.000000 0.000000
vn 0.000000 1.000000 0.000000
vn 0.000000 1.000000 0.000000
vn 1.000000 0.000000 0.000000
vn 1.000000 0.000000 0.000000
vn 1.000000 0.000000 0.000000
vn 1.000000 0.000000 0.000000
vn 0.000000 -1.000000 0.000000
vn 0.000000 -1.000000 0.000000
vn 0.000000 -1.000000 0.000000
vn 0.000000 -1.000000 0.000000
vn -1.000000 0.000000 0.000000
vn -1.000000 0.000000 0.000000
vn -1.000000 0.000000 0.000000
vn -1.000000 0.000000 0.000000
vn -1.000000 0.000000 0.000000
vn -1.000000 0.000000 0.000000
vn -1.000000 0.000000 0.000000
vn -1.000000 0.000000 0.000000
vn 0.000000 1.000000 0.000000
vn 0.000000 1.000000 0.000000
vn 0.000000 1.000000 0.000000
vn 0.000000 1.000000 0.000000
vn 1.000000 0.000000 0.000000
vn 1.000000 0.000000 0.000000
vn 1.000000 0.000000 0.000000
vn 1.000000 0.000000 0.000000
vn 0.000000 -1.000000 0.000000
vn 0.000000 -1.000000 0.000000
vn 0.000000 -1.000000 0.000000
vn 0.000000 -1.000000 0.000000
vn -1.000000 0.000000 0.000000
vn -1.000000 -0.000000 0.000000
vn -1.000000 -0.000000 0.000000
vn -1.000000 -0.000000 0.000000
vn 0.000000 -1.000000 0.000000
vn 0.000000 -1.000000 0.000000
vn 0.000000 -1.000000 0.000000
vn 0.000000 -1.000000 0.000000
vn 1.000000 0.000000 0.000000
vn 1.000000 0.000000 0.000000
vn 1.000000 0.000000 0.000000
vn 1.000000 0.000000 0.000000
vn 0.000000 1.000000 0.000000
vn 0.000000 1.000000 0.000000
vn 0.000000 1.000000 0.000000
vn 0.000000 1.000000 0.000000
vn 0.000000 0.000000 -1.000000
vn 0.000000 0.000000 -1.000000
vn 0.000000 0.000000 -1.000000
vn 0.000000 0.000000 -1.000000
vn 1.000000 0.000000 0.000000
vn 1.000000 0.000000 0.000000
vn 1.000000 0.000000 0.000000
vn 1.000000 0.000000 0.000000
vn 0.000000 0.000000 1.000000
vn 0.000000 0.000000 1.000000
vn 0.000000 0.000000 1.000000
vn 0.000000 0.000000 1.000000
vn 1.000000 0.000000 0.000000
vn 1.000000 0.000000 0.000000
vn 1.000000 0.000000 0.000000
vn 1.000000 0.000000 0.000000
vn 0.000000 0.000000 1.000000
vn 0.000000 0.000000 1.000000
vn 0.000000 0.000000 1.000000
vn 0.000000 0.000000 1.000000
vn -1.000000 0.000000 0.000000
vn -1.000000 0.000000 0.000000
vn -1.000000 0.000000 0.000000
vn -1.000000 0.000000 0.000000
vn -1.000000 0.000000 0.000000
vn -1.000000 0.000000 0.000000
vn -1.000000 0.000000 0.000000
vn -1.000000 0.000000 0.000000
vn 0.000000 0.000000 -1.000000
vn 0.000000 0.000000 -1.000000
vn 0.000000 0.000000 -1.000000
vn 0.000000 0.000000 -1.000000
vn 0.000000 0.000000 1.000000
vn 0.000000 0.000000 1.000000
vn 0.000000 0.000000 1.000000
vn 0.000000 0.000000 1.000000
vn 0.000000 0.000000 -1.000000
vn 0.000000 0.000000 -1.000000
vn 0.000000 0.000000 -1.000000
vn 0.000000 0.000000 -1.000000
vn 1.000000 0.000000 0.000000
vn 1.000000 0.000000 0.000000
vn 1.000000 0.000000 0.000000
vn 1.000000 0.000000 0.000000
vn -1.000000 0.000000 0.000000
vn -1.000000 0.000000 0.000000
vn -1.000000 0.000000 0.000000
vn -1.000000 0.000000 0.000000
s 1
g box_partition_type_0
usemtl initialShadingGroup
f 1/1/1 29/60/2 4/4/3
f 4/4/3 29/60/2 30/61/4
f 5/5/5 37/73/6 3/8/7
f 3/8/7 37/73/6 38/75/8
s 3
f 8/9/9 33/65/10 2/12/11
f 2/12/11 33/65/10 34/67/12
s 4
f 5/13/13 25/55/14 13/16/15
f 13/16/15 25/55/14 26/56/16
s 5
f 57/97/17 58/98/18 60/100/19
f 60/100/19 58/98/18 59/99/20
s 6
f 15/21/21 27/57/22 16/24/23
f 16/24/23 27/57/22 28/59/24
s 1
f 16/25/25 5/5/5 2/26/26
f 2/26/26 5/5/5 3/8/7
s 8
f 9/10/27 14/17/28 10/11/29
f 10/11/29 14/17/28 17/20/30
s 9
f 18/22/31 12/27/32 19/23/33
f 19/23/33 12/27/32 11/28/34
s 1
f 10/11/35 17/20/36 34/68/37
f 34/68/37 17/20/36 36/72/38
f 16/24/25 28/59/39 5/13/5
f 5/13/5 28/59/39 25/55/40
s 11
f 90/129/41 89/130/42 92/132/43
f 92/132/43 89/130/42 91/131/44
f 92/133/43 93/134/45 95/136/46
f 95/136/46 93/134/45 94/135/47
s 13
f 13/35/48 39/77/49 5/38/50
f 5/38/50 39/77/49 37/74/51
s 14
f 73/113/52 74/114/53 76/116/54
f 76/116/54 74/114/53 75/115/55
s 15
f 61/101/56 62/102/57 64/104/58
f 64/104/58 62/102/57 63/103/59
s 16
f 78/117/60 77/118/61 80/120/62
f 80/120/62 77/118/61 79/119/63
s 11
f 90/143/41 92/133/43 96/144/64
f 96/144/64 92/133/43 95/136/46
s 17
f 7/7/65 6/6/66 22/50/67
f 22/50/67 6/6/66 20/49/68
s 18
f 24/51/69 21/39/70 4/52/71
f 4/52/71 21/39/70 1/1/72
s 19
f 22/50/73 20/49/74 40/80/75
f 40/80/75 20/49/74 39/78/76
s 20
f 24/46/77 32/64/78 21/54/79
f 21/54/79 32/64/78 31/63/80
s 21
f 82/121/81 81/122/82 84/124/83
f 84/124/83 81/122/82 83/123/84
s 22
f 86/125/85 85/126/86 88/128/87
f 88/128/87 85/126/86 87/127/88
s 1
f 25/55/40 28/59/39 11/14/89
f 11/14/89 28/59/39 19/23/90
s 23
f 27/58/91 26/56/92 18/29/93
f 18/29/93 26/56/92 12/15/94
s 1
f 30/61/4 29/60/2 3/3/7
f 3/3/7 29/60/2 2/2/26
s 24
f 29/60/95 31/62/96 2/2/97
f 2/2/97 31/62/96 8/40/98
s 25
f 32/64/99 30/61/100 23/45/101
f 23/45/101 30/61/100 3/3/102
s 11
f 98/137/103 97/138/104 95/140/46
f 95/140/46 97/138/104 96/139/64
s 26
f 66/105/105 65/106/106 68/108/107
f 68/108/107 65/106/106 67/107/108
s 27
f 36/71/109 35/69/110 16/19/111
f 16/19/111 35/69/110 15/18/112
s 1
f 34/68/37 36/72/38 2/26/26
f 2/26/26 36/72/38 16/25/25
s 28
f 33/66/113 35/70/114 9/33/115
f 9/33/115 35/70/114 14/32/116
s 1
f 38/75/8 37/73/6 7/7/117
f 7/7/117 37/73/6 6/6/118
s 29
f 70/109/119 69/110/120 72/112/121
f 72/112/121 69/110/120 71/111/122
s 30
f 38/76/123 40/79/124 3/43/125
f 3/43/125 40/79/124 23/42/126
s 11
f 100/141/127 99/142/128 96/144/64
f 96/144/64 99/142/128 90/143/41
s 31
f 14/17/129 35/69/130 41/81/131
f 41/81/131 35/69/130 42/82/132
s 32
f 35/69/133 36/71/134 42/82/135
f 42/82/135 36/71/134 43/83/136
s 33
f 36/71/137 17/20/138 43/83/139
f 43/83/139 17/20/138 44/84/140
s 34
f 17/20/141 14/17/142 44/84/143
f 44/84/143 14/17/142 41/81/144
s 35
f 22/41/145 40/79/146 45/85/147
f 45/85/147 40/79/146 46/86/148
s 36
f 40/79/149 38/76/150 46/86/151
f 46/86/151 38/76/150 47/87/152
s 37
f 38/76/153 7/44/154 47/87/155
f 47/87/155 7/44/154 48/88/156
s 38
f 7/44/157 22/41/158 48/88/159
f 48/88/159 22/41/158 45/85/160
s 39
f 34/67/161 33/65/162 50/89/163
f 50/89/163 33/65/162 49/90/164
s 40
f 33/65/165 9/10/166 49/90/167
f 49/90/167 9/10/166 51/91/168
s 41
f 9/10/169 10/11/170 51/91/171
f 51/91/171 10/11/170 52/92/172
s 42
f 10/11/173 34/67/174 52/92/175
f 52/92/175 34/67/174 50/89/176
s 43
f 37/74/177 39/77/178 54/93/179
f 54/93/179 39/77/178 53/94/180
s 44
f 39/77/181 20/36/182 53/94/183
f 53/94/183 20/36/182 55/95/184
s 45
f 20/36/185 6/37/186 55/95/187
f 55/95/187 6/37/186 56/96/188
s 46
f 6/37/189 37/74/190 56/96/191
f 56/96/191 37/74/190 54/93/192
s 47
f 41/81/193 42/82/194 57/97/195
f 57/97/195 42/82/194 58/98/196
s 48
f 42/82/197 43/83/198 58/98/199
f 58/98/199 43/83/198 59/99/200
s 49
f 43/83/201 44/84/202 59/99/203
f 59/99/203 44/84/202 60/100/204
s 50
f 44/84/205 41/81/206 60/100/207
f 60/100/207 41/81/206 57/97/208
s 51
f 45/85/209 46/86/210 61/101/211
f 61/101/211 46/86/210 62/102/212
s 52
f 46/86/213 47/87/214 62/102/215
f 62/102/215 47/87/214 63/103/216
s 53
f 47/87/217 48/88/218 63/103/219
f 63/103/219 48/88/218 64/104/220
s 54
f 48/88/221 45/85/222 64/104/223
f 64/104/223 45/85/222 61/101/224
s 55
f 50/89/225 49/90/226 66/105/227
f 66/105/227 49/90/226 65/106/228
s 56
f 49/90/229 51/91/230 65/106/231
f 65/106/231 51/91/230 67/107/232
s 57
f 51/91/233 52/92/234 67/107/235
f 67/107/235 52/92/234 68/108/236
s 58
f 52/92/237 50/89/238 68/108/239
f 68/108/239 50/89/238 66/105/240
s 59
f 54/93/241 53/94/242 70/109/243
f 70/109/243 53/94/242 69/110/244
s 60
f 53/94/245 55/95/246 69/110/247
f 69/110/247 55/95/246 71/111/248
s 61
f 55/95/249 56/96/250 71/111/251
f 71/111/251 56/96/250 72/112/252
s 62
f 56/96/253 54/93/254 72/112/255
f 72/112/255 54/93/254 70/109/256
s 63
f 21/39/257 31/62/258 73/113/259
f 73/113/259 31/62/258 74/114/260
s 64
f 31/62/261 29/60/262 74/114/263
f 74/114/263 29/60/262 75/115/264
s 65
f 29/60/265 1/1/266 75/115/267
f 75/115/267 1/1/266 76/116/268
s 66
f 1/1/269 21/39/270 76/116/271
f 76/116/271 21/39/270 73/113/272
s 67
f 4/4/273 30/61/274 78/117/275
f 78/117/275 30/61/274 77/118/276
s 68
f 30/61/277 32/64/278 77/118/279
f 77/118/279 32/64/278 79/119/280
s 69
f 32/64/281 24/46/282 79/119/283
f 79/119/283 24/46/282 80/120/284
s 70
f 24/46/285 4/4/286 80/120/287
f 80/120/287 4/4/286 78/117/288
s 71
f 26/56/289 25/55/290 82/121/291
f 82/121/291 25/55/290 81/122/292
s 72
f 25/55/293 11/14/294 81/122/295
f 81/122/295 11/14/294 83/123/296
s 73
f 11/14/297 12/15/298 83/123/299
f 83/123/299 12/15/298 84/124/300
s 74
f 12/15/301 26/56/302 84/124/303
f 84/124/303 26/56/302 82/121/304
s 75
f 28/59/305 27/57/306 86/125/307
f 86/125/307 27/57/306 85/126/308
s 76
f 27/57/309 18/22/310 85/126/311
f 85/126/311 18/22/310 87/127/312
s 77
f 18/22/313 19/23/314 87/127/315
f 87/127/315 19/23/314 88/128/316
s 78
f 19/23/317 28/59/318 88/128/319
f 88/128/319 28/59/318 86/125/320
s 79
f 13/16/321 26/56/322 90/129/323
f 90/129/323 26/56/322 89/130/324
s 80
f 26/56/325 27/58/326 89/130/327
f 89/130/327 27/58/326 91/131/328
s 81
f 27/58/329 15/30/330 91/131/331
f 91/131/331 15/30/330 92/132/332
s 82
f 15/31/333 35/70/334 92/133/335
f 92/133/335 35/70/334 93/134/336
s 83
f 35/70/337 33/66/338 93/134/339
f 93/134/339 33/66/338 94/135/340
s 84
f 33/66/341 8/34/342 94/135/343
f 94/135/343 8/34/342 95/136/344
s 85
f 31/63/345 32/64/346 98/137/347
f 98/137/347 32/64/346 97/138/348
s 86
f 32/64/349 23/45/350 97/138/351
f 97/138/351 23/45/350 96/139/352
s 87
f 8/53/353 31/63/354 95/140/355
f 95/140/355 31/63/354 98/137/356
s 88
f 40/80/357 39/78/358 100/141/359
f 100/141/359 39/78/358 99/142/360
s 89
f 39/78/361 13/47/362 99/142/363
f 99/142/363 13/47/362 90/143/364
s 90
f 23/48/365 40/80/366 96/144/367
f 96/144/367 40/80/366 100/141/368
