# This file uses centimeters as units for non-parametric coordinates.

mtllib cncEdgeSaver_0.mtl
g default
v -17.336563 -0.250000 17.780001
v -17.403564 -0.250000 17.773401
v -17.467991 -0.250000 17.753859
v -17.527367 -0.250000 17.722120
v -17.579411 -0.250000 17.679411
v -17.622120 -0.250000 17.627367
v -17.653858 -0.250000 17.567991
v -17.673401 -0.250000 17.503565
v -17.680000 -0.250000 17.436563
v -18.524410 -0.250000 18.967848
v -18.591412 -0.250000 18.961248
v -18.655838 -0.250000 18.941706
v -18.715214 -0.250000 18.909967
v -18.767258 -0.250000 18.867258
v -18.809967 -0.250000 18.815214
v -18.841705 -0.250000 18.755838
v -18.861248 -0.250000 18.691412
v -18.867847 -0.250000 18.624411
v -17.680000 0.250000 17.436562
v -17.673401 0.250000 17.503563
v -17.653858 0.250000 17.567989
v -17.622120 0.250000 17.627367
v -17.579409 0.250000 17.679409
v -17.527367 0.250000 17.722120
v -17.467989 0.250000 17.753859
v -17.403563 0.250000 17.773401
v -17.336561 0.250000 17.780001
v -18.524410 0.250000 18.967848
v -18.591412 0.250000 18.961248
v -18.655838 0.250000 18.941706
v -18.715214 0.250000 18.909967
v -18.767258 0.250000 18.867258
v -18.809967 0.250000 18.815214
v -18.841705 0.250000 18.755838
v -18.861248 0.250000 18.691412
v -18.867847 0.250000 18.624411
v -17.173609 0.250000 16.927307
v -17.167009 0.250000 16.994308
v -17.147467 0.250000 17.058735
v -17.115728 0.250000 17.118111
v -17.073019 0.250000 17.170155
v -17.020975 0.250000 17.212864
v -16.961599 0.250000 17.244602
v -16.897173 0.250000 17.264145
v -16.830172 0.250000 17.270744
v -17.173609 -0.250000 16.927307
v -17.167009 -0.250000 16.994308
v -17.147467 -0.250000 17.058735
v -17.115728 -0.250000 17.118111
v -17.073019 -0.250000 17.170155
v -17.020975 -0.250000 17.212864
v -16.961599 -0.250000 17.244602
v -16.897173 -0.250000 17.264145
v -16.830172 -0.250000 17.270744
v -17.336561 -0.766238 17.780001
v -17.403563 -0.766238 17.773401
v -17.467989 -0.766238 17.753859
v -17.527367 -0.766238 17.722120
v -17.579409 -0.766238 17.679409
v -17.622120 -0.766238 17.627367
v -17.653858 -0.766238 17.567989
v -17.673401 -0.766238 17.503563
v -17.680000 -0.766238 17.436562
v -16.830172 -0.766238 17.270744
v -16.897173 -0.766238 17.264145
v -16.961599 -0.766238 17.244602
v -17.020975 -0.766238 17.212864
v -17.073019 -0.766238 17.170155
v -17.115728 -0.766238 17.118111
v -17.147467 -0.766238 17.058735
v -17.167009 -0.766238 16.994308
v -17.173609 -0.766238 16.927307
v -18.867847 -0.250000 0.000000
v -18.867847 0.250000 0.000000
v -17.680000 0.250000 0.000000
v -17.173609 0.250000 0.000000
v -17.173609 -0.250000 0.000000
v -17.173609 -0.766238 0.000001
v -17.680000 -0.766238 -0.000001
v -17.680000 -0.250000 0.000000
v 0.000000 -0.250000 18.967848
v 0.000000 0.250000 18.967848
v 0.000000 0.250000 17.780001
v 0.000000 0.250000 17.270744
v 0.000000 -0.250000 17.270744
v 0.000000 -0.766238 17.270744
v 0.000000 -0.766238 17.780001
v 0.000000 -0.250000 17.780001
vt 0.377275 -0.000000
vt 0.372737 0.250000
vt 0.377428 0.000000
vt 0.377275 0.250000
vt 0.372737 -0.000000
vt 0.372586 0.250000
vt 0.377428 0.250000
vt 0.375000 0.252486
vt 0.377500 1.000000
vt 0.375000 0.997585
vt 0.375000 0.997514
vt 0.377500 0.250000
vt 0.377428 1.000000
vt 0.377500 1.000000
vt 0.375000 0.997586
vt 0.375000 0.997514
vt 0.377428 1.000000
vt 0.372585 0.000000
vt 0.375000 0.252414
vt 0.376821 -0.000000
vt 0.376821 1.000000
vt 0.376214 -0.000000
vt 0.376214 1.000000
vt 0.375607 -0.000000
vt 0.375607 1.000000
vt 0.375000 0.000000
vt 0.375000 1.000000
vt 0.374396 -0.000000
vt 0.375000 0.999396
vt 0.373793 -0.000000
vt 0.375000 0.998793
vt 0.373189 -0.000000
vt 0.375000 0.998189
vt 0.376746 0.002594
vt 0.376182 0.003663
vt 0.375596 0.002860
vt 0.375000 0.000000
vt 0.374406 0.002908
vt 0.373822 0.003754
vt 0.373261 0.002680
vt 0.375000 0.251811
vt 0.373189 0.250000
vt 0.375000 0.251207
vt 0.373793 0.250000
vt 0.375000 0.250604
vt 0.374396 0.250000
vt 0.375000 0.250000
vt 0.375667 0.249919
vt 0.376310 0.249959
vt 0.376905 0.250078
vt 0.376747 0.247317
vt 0.376182 0.246244
vt 0.375596 0.247092
vt 0.375000 0.250000
vt 0.374407 0.247140
vt 0.373825 0.246337
vt 0.373263 0.247406
vt 0.375000 0.265145
vt 0.375000 0.269795
vt 0.375000 0.265106
vt 0.375000 0.250000
vt 0.375694 0.264879
vt 0.376360 0.269339
vt 0.376970 0.264049
vt 0.375000 0.979618
vt 0.375000 0.974158
vt 0.375000 0.980850
vt 0.375000 1.000000
vt 0.375629 0.981437
vt 0.376256 0.975344
vt 0.376879 0.981430
vt 0.376833 0.999978
vt 0.376224 0.999981
vt 0.375611 0.999993
vt 0.375000 1.000000
vt 0.375000 0.999397
vt 0.375000 0.998790
vt 0.375000 0.998179
vt 0.376967 0.999640
vt 0.376355 0.999470
vt 0.375691 0.999609
vt 0.375000 1.000000
vt 0.375000 0.998911
vt 0.375000 0.998099
vt 0.375000 0.997660
vt 0.250000 -0.000000
vt 0.250000 0.250000
vt 0.250000 0.250000
vt 0.375000 0.375000
vt 0.375000 0.375000
vt 0.375000 0.875000
vt 0.375000 0.875000
vt 0.375000 0.875000
vt 0.250000 0.000000
vt 0.375000 0.875000
vt 0.500000 -0.000000
vt 0.500000 0.250000
vt 0.500000 0.250000
vt 0.500000 0.250000
vt 0.500000 1.000000
vt 0.500000 1.000000
vt 0.500000 1.000000
vt 0.500000 0.000000
vt 0.500000 1.000000
vn 0.000000 1.000000 0.000000
vn 0.000000 1.000000 0.000000
vn 0.000000 1.000000 0.000000
vn 0.000000 1.000000 0.000000
vn 0.000000 1.000000 0.000000
vn 0.000000 1.000000 0.000000
vn 0.000000 1.000000 0.000000
vn 0.000000 1.000000 0.000000
vn 0.000000 1.000000 0.000000
vn 0.000000 1.000000 0.000000
vn 0.000000 1.000000 0.000000
vn 0.000000 1.000000 0.000000
vn 0.000000 1.000000 0.000000
vn 0.000000 1.000000 0.000000
vn 0.000000 1.000000 0.000000
vn 0.000000 1.000000 0.000000
vn 0.000000 1.000000 0.000000
vn 0.000000 1.000000 0.000000
vn -0.000355 0.000000 1.000000
vn 0.000000 0.000000 1.000000
vn -0.000355 0.000000 1.000000
vn 0.000000 0.000000 1.000000
vn 0.000000 -1.000000 0.000000
vn 0.000000 -1.000000 0.000000
vn 0.000000 -1.000000 0.000000
vn 0.000000 -1.000000 0.000000
vn 0.000000 1.000000 0.000000
vn 0.000000 1.000000 0.000000
vn 0.000000 1.000000 0.000000
vn 0.000000 1.000000 0.000000
vn 0.000000 -1.000000 0.000000
vn 0.000000 -1.000000 0.000000
vn 0.000000 -1.000000 0.000000
vn 0.000000 -1.000000 0.000000
vn 0.000391 0.000000 -1.000000
vn 0.000000 0.000000 -1.000000
vn 0.000391 0.000000 -1.000000
vn 0.000000 0.000000 -1.000000
vn 0.000000 0.000000 1.000000
vn 0.000000 0.000000 1.000000
vn -0.000379 -0.000000 1.000000
vn -0.000379 0.000000 1.000000
vn 0.000391 0.000000 -1.000000
vn 0.000000 0.000000 -1.000000
vn -0.980784 0.000000 0.195096
vn -1.000000 0.000001 0.000377
vn -0.980787 -0.000004 0.195081
vn -1.000000 0.000001 0.000377
vn -0.923871 0.000002 0.382704
vn -0.923890 -0.000003 0.382659
vn -0.831466 -0.000001 0.555575
vn -0.831476 0.000000 0.555561
vn -0.707112 -0.000001 0.707102
vn -0.707112 -0.000004 0.707102
vn -0.555570 -0.000002 0.831470
vn -0.555570 -0.000003 0.831470
vn -0.382675 -0.000003 0.923883
vn -0.382691 -0.000000 0.923876
vn -0.195072 -0.000002 0.980789
vn -0.195096 -0.000001 0.980784
vn 0.000000 -1.000000 0.000000
vn 0.000000 -1.000000 0.000000
vn 0.000000 -1.000000 0.000000
vn 0.000000 -1.000000 0.000000
vn 0.000000 -1.000000 0.000000
vn 0.000000 -1.000000 0.000000
vn 0.000000 -1.000000 0.000000
vn 0.000000 -1.000000 0.000000
vn 0.000000 -1.000000 0.000000
vn 0.000000 -1.000000 0.000000
vn 0.000000 -1.000000 0.000000
vn 0.000000 -1.000000 0.000000
vn 0.000000 -1.000000 0.000000
vn 0.000000 -1.000000 0.000000
vn 0.000000 -1.000000 0.000000
vn 0.000000 -1.000000 0.000000
vn 0.000000 1.000000 0.000000
vn 0.000000 1.000000 0.000000
vn 0.000000 1.000000 0.000000
vn 0.000000 1.000000 0.000000
vn 0.000000 1.000000 0.000000
vn 0.000000 1.000000 0.000000
vn 0.000000 1.000000 0.000000
vn 0.000000 1.000000 0.000000
vn -1.000000 0.000000 0.000353
vn -0.980786 0.000000 0.195087
vn -1.000000 0.000000 0.000353
vn -0.980786 0.000000 0.195087
vn -0.923878 0.000000 0.382686
vn -0.923878 0.000000 0.382686
vn -0.831472 0.000000 0.555567
vn -0.831472 0.000000 0.555567
vn -0.707107 0.000000 0.707107
vn -0.707107 0.000000 0.707107
vn -0.555567 0.000000 0.831472
vn -0.555567 0.000000 0.831472
vn -0.382686 0.000000 0.923878
vn -0.382686 0.000000 0.923878
vn -0.195087 0.000000 0.980786
vn -0.195087 0.000000 0.980786
vn 0.195087 0.000000 -0.980786
vn 0.195080 0.000000 -0.980787
vn 0.382686 0.000000 -0.923878
vn 0.382679 0.000000 -0.923881
vn 0.555567 0.000000 -0.831472
vn 0.555569 0.000000 -0.831471
vn 0.707107 0.000000 -0.707107
vn 0.707109 0.000000 -0.707105
vn 0.831472 0.000000 -0.555567
vn 0.831473 0.000000 -0.555565
vn 0.923878 0.000000 -0.382686
vn 0.923880 0.000000 -0.382682
vn 1.000000 0.000000 -0.000388
vn 0.980786 0.000000 -0.195087
vn 1.000000 0.000000 -0.000388
vn 0.980787 0.000000 -0.195084
vn 0.000000 -1.000000 -0.000000
vn 0.000000 -1.000000 -0.000000
vn 0.000000 -1.000000 0.000001
vn 0.000000 -1.000000 0.000000
vn 0.000000 -1.000000 0.000000
vn 0.000000 -1.000000 0.000000
vn 0.000000 -1.000000 0.000000
vn 0.000000 -1.000000 0.000001
vn 0.000000 -1.000000 0.000000
vn 0.000000 -1.000000 0.000000
vn 0.000000 -1.000000 -0.000000
vn 0.000000 -1.000000 0.000000
vn 0.000000 -1.000000 -0.000000
vn 0.000000 -1.000000 0.000001
vn 0.000000 -1.000000 -0.000001
vn 0.000000 -1.000000 0.000001
vn 1.000000 -0.000000 -0.000388
vn 0.980785 0.000000 -0.195091
vn 0.923875 0.000000 -0.382695
vn 0.831467 0.000000 -0.555574
vn 0.707111 0.000000 -0.707103
vn 0.555571 0.000000 -0.831469
vn 0.382694 0.000000 -0.923875
vn 0.195098 0.000000 -0.980784
vn -1.000000 0.000000 0.000000
vn -1.000000 0.000000 0.000000
vn 0.000000 1.000000 0.000000
vn 0.000000 1.000000 0.000000
vn 0.000000 1.000000 0.000000
vn 1.000000 -0.000003 0.000000
vn 1.000000 0.000000 0.000000
vn 1.000000 -0.000007 0.000000
vn 0.000000 -1.000000 0.000000
vn 0.000000 -1.000000 0.000000
vn -1.000000 -0.000007 0.000000
vn -1.000000 -0.000007 0.000000
vn 0.000000 -1.000000 0.000000
vn 0.000000 -1.000000 0.000000
vn 1.000000 0.000000 0.000000
vn 1.000000 0.000000 0.000000
vn 1.000000 0.000000 0.000000
vn 1.000000 0.000000 0.000000
vn 1.000000 0.000000 0.000000
vn 1.000000 0.000000 0.000000
vn 1.000000 0.000000 0.000000
vn 1.000000 0.000000 0.000000
vn 0.000000 0.000000 -1.000000
vn 0.000000 0.000000 -1.000000
vn 0.000000 0.000000 -1.000000
vn 0.000000 -0.000000 -1.000000
vn 0.000000 0.000000 -1.000000
vn 0.000000 -0.000001 -1.000000
vn 0.000002 0.000000 -1.000000
vn 0.000004 0.000002 -1.000000
s 1
g pCube1
usemtl initialShadingGroup
f 27/7/1 26/50/2 28/4/3
f 28/4/3 26/50/2 29/51/4
f 26/50/2 25/49/5 29/51/4
f 29/51/4 25/49/5 30/52/6
f 25/49/5 24/48/7 30/52/6
f 30/52/6 24/48/7 31/53/8
f 24/48/7 23/47/9 31/53/8
f 31/53/8 23/47/9 32/54/10
f 22/46/11 33/55/12 23/47/9
f 23/47/9 33/55/12 32/54/10
f 21/44/13 34/56/14 22/46/11
f 22/46/11 34/56/14 33/55/12
f 20/42/15 35/57/16 21/44/13
f 21/44/13 35/57/16 34/56/14
f 19/6/17 36/2/18 20/42/15
f 20/42/15 36/2/18 35/57/16
s 6
f 10/1/19 81/96/20 28/4/21
f 28/4/21 81/96/20 82/97/22
s 7
f 88/103/23 81/96/24 1/3/25
f 1/3/25 81/96/24 10/1/26
s 1
f 83/98/27 27/7/1 82/97/28
f 82/97/28 27/7/1 28/4/3
f 27/7/1 83/98/27 45/12/29
f 45/12/29 83/98/27 84/99/30
s 9
f 86/101/31 87/102/32 64/9/33
f 64/9/33 87/102/32 55/13/34
s 10
f 45/12/35 84/99/36 54/14/37
f 54/14/37 84/99/36 85/100/38
s 11
f 87/102/39 88/104/40 55/13/41
f 55/13/41 88/104/40 1/17/42
s 10
f 54/14/37 85/100/38 64/9/43
f 64/9/43 85/100/38 86/101/44
s 11
f 8/33/45 9/15/46 62/78/47
f 62/78/47 9/15/46 63/10/48
f 7/31/49 8/33/45 61/77/50
f 61/77/50 8/33/45 62/78/47
f 6/29/51 7/31/49 60/76/52
f 60/76/52 7/31/49 61/77/50
f 5/27/53 6/29/51 59/75/54
f 59/75/54 6/29/51 60/76/52
f 4/25/55 5/27/53 58/74/56
f 58/74/56 5/27/53 59/75/54
f 3/23/57 4/25/55 57/73/58
f 57/73/58 4/25/55 58/74/56
f 1/17/42 2/21/59 55/13/41
f 55/13/41 2/21/59 56/72/60
f 2/21/59 3/23/57 56/72/60
f 56/72/60 3/23/57 57/73/58
s 7
f 9/18/61 8/32/62 18/5/63
f 18/5/63 8/32/62 17/40/64
f 8/32/62 7/30/65 17/40/64
f 17/40/64 7/30/65 16/39/66
f 7/30/65 6/28/67 16/39/66
f 16/39/66 6/28/67 15/38/68
f 6/28/67 5/26/69 15/38/68
f 15/38/68 5/26/69 14/37/70
f 4/24/71 13/36/72 5/26/69
f 5/26/69 13/36/72 14/37/70
f 3/22/73 12/35/74 4/24/71
f 4/24/71 12/35/74 13/36/72
f 2/20/75 11/34/76 3/22/73
f 3/22/73 11/34/76 12/35/74
f 1/3/25 10/1/26 2/20/75
f 2/20/75 10/1/26 11/34/76
s 1
f 26/50/2 27/7/1 44/64/77
f 44/64/77 27/7/1 45/12/29
f 25/49/5 26/50/2 43/63/78
f 43/63/78 26/50/2 44/64/77
f 24/48/7 25/49/5 42/62/79
f 42/62/79 25/49/5 43/63/78
f 23/47/9 24/48/7 41/61/80
f 41/61/80 24/48/7 42/62/79
f 23/47/9 41/61/80 22/45/11
f 22/45/11 41/61/80 40/60/81
f 22/45/11 40/60/81 21/43/13
f 21/43/13 40/60/81 39/59/82
f 20/41/15 38/58/83 19/19/17
f 19/19/17 38/58/83 37/8/84
f 21/43/13 39/59/82 20/41/15
f 20/41/15 39/59/82 38/58/83
s 6
f 18/5/85 17/40/86 36/2/87
f 36/2/87 17/40/86 35/57/88
f 17/40/86 16/39/89 35/57/88
f 35/57/88 16/39/89 34/56/90
f 16/39/89 15/38/91 34/56/90
f 34/56/90 15/38/91 33/55/92
f 15/38/91 14/37/93 33/55/92
f 33/55/92 14/37/93 32/54/94
f 14/37/93 13/36/95 32/54/94
f 32/54/94 13/36/95 31/53/96
f 13/36/95 12/35/97 31/53/96
f 31/53/96 12/35/97 30/52/98
f 12/35/97 11/34/99 30/52/98
f 30/52/98 11/34/99 29/51/100
f 11/34/99 10/1/19 29/51/100
f 29/51/100 10/1/19 28/4/21
s 10
f 44/64/101 45/12/35 53/71/102
f 53/71/102 45/12/35 54/14/37
f 43/63/103 44/64/101 52/70/104
f 52/70/104 44/64/101 53/71/102
f 42/62/105 43/63/103 51/69/106
f 51/69/106 43/63/103 52/70/104
f 41/61/107 42/62/105 50/68/108
f 50/68/108 42/62/105 51/69/106
f 40/60/109 41/61/107 49/67/110
f 49/67/110 41/61/107 50/68/108
f 39/59/111 40/60/109 48/66/112
f 48/66/112 40/60/109 49/67/110
f 37/8/113 38/58/114 46/11/115
f 46/11/115 38/58/114 47/65/116
f 38/58/114 39/59/111 47/65/116
f 47/65/116 39/59/111 48/66/112
s 9
f 62/78/117 63/10/118 71/85/119
f 71/85/119 63/10/118 72/16/120
f 61/77/121 62/78/117 70/84/122
f 70/84/122 62/78/117 71/85/119
f 60/76/123 61/77/121 69/83/124
f 69/83/124 61/77/121 70/84/122
f 59/75/125 60/76/123 68/82/126
f 68/82/126 60/76/123 69/83/124
f 59/75/125 68/82/126 58/74/127
f 58/74/127 68/82/126 67/81/128
f 58/74/127 67/81/128 57/73/129
f 57/73/129 67/81/128 66/80/130
f 56/72/131 65/79/132 55/13/34
f 55/13/34 65/79/132 64/9/33
f 57/73/129 66/80/130 56/72/131
f 56/72/131 66/80/130 65/79/132
s 10
f 46/11/115 47/65/116 72/16/133
f 72/16/133 47/65/116 71/85/134
f 47/65/116 48/66/112 71/85/134
f 71/85/134 48/66/112 70/84/135
f 48/66/112 49/67/110 70/84/135
f 70/84/135 49/67/110 69/83/136
f 49/67/110 50/68/108 69/83/136
f 69/83/136 50/68/108 68/82/137
f 50/68/108 51/69/106 68/82/137
f 68/82/137 51/69/106 67/81/138
f 51/69/106 52/70/104 67/81/138
f 67/81/138 52/70/104 66/80/139
f 52/70/104 53/71/102 66/80/139
f 66/80/139 53/71/102 65/79/140
f 53/71/102 54/14/37 65/79/140
f 65/79/140 54/14/37 64/9/43
s 6
f 74/87/141 73/86/142 36/2/87
f 36/2/87 73/86/142 18/5/85
s 1
f 75/88/143 74/87/144 19/6/17
f 19/6/17 74/87/144 36/2/18
f 76/90/145 75/89/143 37/8/84
f 37/8/84 75/89/143 19/19/17
s 10
f 77/91/146 76/90/147 46/11/115
f 46/11/115 76/90/147 37/8/113
f 78/92/148 77/91/146 72/16/133
f 72/16/133 77/91/146 46/11/115
s 9
f 63/10/118 79/93/149 72/16/120
f 72/16/120 79/93/149 78/92/150
s 11
f 9/15/46 80/95/151 63/10/48
f 63/10/48 80/95/151 79/93/152
s 7
f 80/94/153 9/18/61 73/86/154
f 73/86/154 9/18/61 18/5/63
s 21
f 82/97/155 81/96/156 83/98/157
f 81/96/156 88/104/158 83/98/157
f 87/102/159 86/101/160 88/104/158
f 86/101/160 85/100/161 88/104/158
f 88/104/158 85/100/161 83/98/157
f 85/100/161 84/99/162 83/98/157
s 23
f 74/87/163 75/89/164 73/86/165
f 73/86/165 75/89/164 80/94/166
f 75/89/164 76/90/167 80/94/166
f 76/90/167 77/91/168 80/94/166
f 77/91/168 78/92/169 80/94/166
f 78/92/169 79/93/170 80/94/166
