# This file uses centimeters as units for non-parametric coordinates.

mtllib switchBox.mtl
g default
v -1.500000 -1.500000 1.100000
v 1.500000 -1.500000 1.100000
v -1.500000 1.500000 1.100000
v 1.500000 1.500000 1.100000
v -1.500000 1.500000 -1.100000
v 1.500000 1.500000 -1.100000
v -1.500000 -1.500000 -1.100000
v 1.500000 -1.500000 -1.100000
v -1.607735 -1.500000 1.207735
v 1.607735 -1.500000 1.207735
v 1.607735 1.615470 1.207735
v -1.607735 1.615470 1.207735
v 1.607735 1.615470 -1.207735
v -1.607735 1.615470 -1.207735
v 1.607735 -1.500000 -1.207735
v -1.607735 -1.500000 -1.207735
v -1.500000 1.500000 0.956030
v -1.500000 -1.500000 0.956030
v -1.607735 -1.500000 0.956031
v -1.607735 1.615470 0.956031
v 1.607735 1.615470 0.956031
v 1.607735 -1.500000 0.956031
v 1.500000 -1.500000 0.956030
v 1.500000 1.500000 0.956030
v -1.500000 -1.500000 -0.040844
v -1.500000 1.500000 -0.040844
v 1.500000 1.500000 -0.040844
v 1.500000 -1.500000 -0.040844
v 1.607735 -1.500000 -0.040844
v 1.607735 1.615470 -0.040844
v -1.607735 1.615470 -0.040844
v -1.607735 -1.500000 -0.040844
v 1.607735 1.034758 1.207735
v 1.607735 1.034758 0.956031
v 1.607735 1.034758 -0.040844
v 1.607735 1.034758 -1.207735
v -1.607735 1.034758 -1.207735
v -1.607735 1.034758 -0.040844
v -1.607735 1.034758 0.956031
v -1.607735 1.034758 1.207735
v -1.500000 1.034757 1.100000
v -1.500000 1.034757 0.956030
v -1.500000 1.034757 -0.040844
v -1.500000 1.034757 -1.100000
v 1.500000 1.034757 -1.100000
v 1.500000 1.034757 -0.040844
v 1.500000 1.034757 0.956030
v 1.500000 1.034757 1.100000
v -1.500000 -1.355096 -0.040844
v -1.500000 -1.355096 -1.100000
v 1.500000 -1.355096 -1.100000
v 1.500000 -1.355096 -0.040844
v 1.607735 -1.355096 -0.040844
v 1.607735 -1.355096 -1.207735
v -1.607735 -1.355096 -1.207735
v -1.607735 -1.355096 -0.040844
v -1.500000 -1.355097 1.100000
v -1.500000 -1.355097 0.956030
v -1.607735 -1.355097 0.956031
v -1.607735 -1.355097 1.207735
v 1.607735 -1.355097 1.207735
v 1.607735 -1.355097 0.956031
v 1.500000 -1.355097 0.956030
v 1.500000 -1.355097 1.100000
vt 0.375000 0.000000
vt 0.625000 0.000000
vt 0.375000 0.250000
vt 0.625000 0.250000
vt 0.375000 0.500000
vt 0.625000 0.500000
vt 0.375000 0.750000
vt 0.625000 0.750000
vt 0.875000 0.000000
vt 0.875000 0.250000
vt 0.125000 0.000000
vt 0.125000 0.250000
vt 0.375000 0.000000
vt 0.625000 0.000000
vt 0.625000 0.250000
vt 0.375000 0.250000
vt 0.625000 0.500000
vt 0.375000 0.500000
vt 0.625000 0.750000
vt 0.375000 0.750000
vt 0.875000 0.000000
vt 0.875000 0.250000
vt 0.125000 0.000000
vt 0.125000 0.250000
vt 0.375000 0.000000
vt 0.625000 0.000000
vt 0.625000 0.750000
vt 0.375000 0.750000
vt 0.875000 0.000000
vt 0.125000 0.000000
vt 0.375000 0.283985
vt 0.341015 0.250000
vt 0.341015 0.000000
vt 0.341015 0.000000
vt 0.341015 0.250000
vt 0.375000 0.283985
vt 0.625000 0.283985
vt 0.658985 0.250000
vt 0.658985 0.000000
vt 0.658985 0.000000
vt 0.658985 0.250000
vt 0.625000 0.283985
vt 0.259805 0.000000
vt 0.375000 0.365195
vt 0.259805 0.250000
vt 0.740195 0.250000
vt 0.625000 0.365195
vt 0.740195 0.000000
vt 0.740195 0.000000
vt 0.625000 0.365195
vt 0.740195 0.250000
vt 0.259805 0.250000
vt 0.375000 0.365195
vt 0.259805 0.000000
vt 0.625000 0.207913
vt 0.658985 0.207913
vt 0.740195 0.207913
vt 0.625000 0.542087
vt 0.875000 0.207913
vt 0.125000 0.207913
vt 0.375000 0.542087
vt 0.259805 0.207913
vt 0.341015 0.207913
vt 0.375000 0.207913
vt 0.375000 0.206544
vt 0.341015 0.206544
vt 0.259805 0.206544
vt 0.375000 0.543456
vt 0.125000 0.206544
vt 0.875000 0.206544
vt 0.625000 0.543456
vt 0.740195 0.206544
vt 0.658985 0.206544
vt 0.625000 0.206544
vt 0.259805 0.009703
vt 0.375000 0.740297
vt 0.125000 0.009703
vt 0.875000 0.009703
vt 0.625000 0.740297
vt 0.740195 0.009703
vt 0.740195 0.009767
vt 0.625000 0.740232
vt 0.875000 0.009768
vt 0.125000 0.009768
vt 0.375000 0.740232
vt 0.259805 0.009768
vt 0.375000 0.006954
vt 0.341015 0.006954
vt 0.341015 0.007000
vt 0.375000 0.007000
vt 0.625000 0.007000
vt 0.658985 0.007000
vt 0.658985 0.006954
vt 0.625000 0.006954
vn 0.000000 -0.000000 1.000000
vn 0.000000 -0.000000 1.000000
vn 0.000000 0.000000 1.000000
vn 0.000000 0.000000 1.000000
vn 0.000000 1.000000 -0.000000
vn 0.000000 1.000000 -0.000000
vn 0.000000 1.000000 -0.000000
vn 0.000000 1.000000 0.000000
vn 0.000000 0.000000 -1.000000
vn 0.000000 0.000000 -1.000000
vn 0.000000 0.000000 -1.000000
vn 0.000000 0.000000 -1.000000
vn 1.000000 0.000000 -0.000000
vn 1.000000 0.000000 -0.000000
vn 1.000000 0.000000 0.000000
vn 1.000000 0.000000 0.000000
vn -1.000000 0.000000 0.000000
vn -1.000000 -0.000000 0.000000
vn -1.000000 0.000000 0.000000
vn -1.000000 0.000000 0.000000
vn 0.000000 0.000000 -1.000000
vn 0.000000 0.000000 -1.000000
vn 0.000000 0.000000 -1.000000
vn 0.000000 0.000000 -1.000000
vn 0.000000 -1.000000 0.000000
vn 0.000000 -1.000000 0.000000
vn 0.000000 -1.000000 0.000000
vn 0.000000 -1.000000 0.000000
vn 0.000000 0.000000 1.000000
vn 0.000000 0.000000 1.000000
vn 0.000000 0.000000 1.000000
vn 0.000000 0.000000 1.000000
vn -1.000000 0.000000 0.000000
vn -1.000000 -0.000000 0.000000
vn -1.000000 0.000000 0.000000
vn -1.000000 0.000000 0.000000
vn 1.000000 0.000000 0.000000
vn 1.000000 0.000000 0.000000
vn 1.000000 0.000000 0.000000
vn 1.000000 0.000000 0.000000
vn 0.000000 -1.000000 -0.000001
vn 0.000000 -1.000000 -0.000000
vn 0.000000 -1.000000 -0.000001
vn 0.000000 -1.000000 0.000000
vn 0.000000 -1.000000 0.000002
vn 0.000000 -1.000000 -0.000002
vn 0.000000 -1.000000 0.000002
vn 0.000000 -1.000000 -0.000002
vn 1.000000 0.000000 0.000000
vn 1.000000 0.000000 0.000000
vn 0.000000 -1.000000 0.000000
vn 0.000000 -1.000000 0.000000
vn -1.000000 0.000000 0.000000
vn -1.000000 0.000000 0.000000
vn 0.000000 1.000000 0.000000
vn 0.000000 1.000000 -0.000001
vn 1.000000 0.000000 -0.000000
vn 1.000000 0.000000 -0.000000
vn 0.000000 -1.000000 0.000000
vn 0.000000 -1.000000 0.000000
vn -1.000000 0.000000 0.000000
vn -1.000000 0.000000 0.000000
vn 0.000000 -1.000000 0.000000
vn 0.000000 -1.000000 0.000000
vn 1.000000 0.000000 0.000000
vn 1.000000 0.000000 0.000000
vn 0.000000 -1.000000 0.000000
vn 0.000000 -1.000000 0.000000
vn -1.000000 0.000000 0.000000
vn -1.000000 0.000000 0.000000
vn 0.000000 -1.000000 0.000000
vn 0.000000 -1.000000 0.000000
vn 1.000000 0.000000 0.000000
vn 1.000000 0.000000 0.000000
vn 0.000000 1.000000 0.000000
vn 0.000000 1.000000 0.000001
vn -1.000000 -0.000000 0.000000
vn -1.000000 0.000000 0.000000
vn 0.000000 -1.000000 0.000000
vn 0.000000 -1.000000 0.000000
vn 1.000000 0.000000 -0.000000
vn 1.000000 0.000000 -0.000000
vn 1.000000 0.000000 0.000000
vn 1.000000 0.000000 -0.000000
vn 0.000000 0.000000 -1.000000
vn 0.000000 0.000000 -1.000000
vn -1.000000 -0.000000 0.000000
vn -1.000000 -0.000000 0.000000
vn -1.000000 -0.000000 0.000000
vn -1.000000 -0.000000 0.000000
vn 0.000000 -0.000000 1.000000
vn 0.000000 -0.000000 1.000000
vn 1.000000 0.000000 0.000001
vn 1.000000 0.000000 0.000001
vn 1.000000 0.000000 0.000000
vn 1.000000 0.000000 0.000000
vn 0.000000 0.000000 1.000000
vn 0.000000 0.000000 1.000000
vn -1.000000 0.000000 0.000000
vn -1.000000 0.000000 0.000000
vn -1.000000 0.000000 0.000000
vn -1.000000 -0.000000 0.000000
vn 0.000000 0.000000 -1.000000
vn 0.000000 0.000000 -1.000000
vn 0.000009 0.000000 -1.000000
vn 0.000009 0.000000 -1.000000
vn 0.000008 0.000000 -1.000000
vn 0.000008 0.000000 -1.000000
vn 0.000011 -1.000000 0.000000
vn 0.000011 -1.000000 0.000000
vn 0.000011 -1.000000 0.000000
vn 0.000011 -1.000000 0.000000
vn -0.000001 0.000000 1.000000
vn -0.000001 -0.000000 1.000000
vn -0.000001 -0.000000 1.000000
vn -0.000001 -0.000000 1.000000
vn -0.000009 0.000000 -1.000000
vn -0.000009 -0.000000 -1.000000
vn -0.000008 0.000000 -1.000000
vn -0.000008 0.000000 -1.000000
vn -0.000011 -1.000000 0.000000
vn -0.000011 -1.000000 0.000000
vn -0.000011 -1.000000 0.000000
vn -0.000011 -1.000000 0.000000
vn 0.000001 0.000000 1.000000
vn 0.000001 0.000000 1.000000
vn 0.000001 0.000000 1.000000
vn 0.000001 0.000000 1.000000
vn 1.000000 0.000000 0.000000
vn 1.000000 0.000000 0.000000
vn 0.000000 0.000000 1.000000
vn 0.000000 0.000000 1.000000
vn -1.000000 0.000000 0.000000
vn -1.000000 0.000000 0.000000
vn -0.000001 0.000000 1.000000
vn -0.000001 0.000000 1.000000
vn 1.000000 0.000000 0.000000
vn 1.000000 0.000000 0.000000
vn 0.000000 0.000000 -1.000000
vn 0.000000 0.000000 -1.000000
vn -1.000000 0.000000 0.000000
vn -1.000000 0.000000 0.000000
vn 0.000001 0.000000 1.000000
vn 0.000001 0.000000 1.000000
vn 1.000000 0.000000 0.000000
vn 1.000000 0.000000 0.000000
vn -0.000008 -0.000000 -1.000000
vn -0.000008 -0.000000 -1.000000
vn -1.000000 -0.000002 0.000000
vn -1.000000 0.000000 0.000000
vn 0.000000 -0.000001 1.000000
vn 0.000000 -0.000001 1.000000
vn 1.000000 -0.000003 0.000000
vn 1.000000 -0.000001 -0.000000
vn 0.000008 0.000000 -1.000000
vn 0.000008 0.000000 -1.000000
vn -1.000000 0.000000 0.000000
vn -1.000000 0.000001 0.000000
vn 0.000000 0.000000 -1.000000
vn 0.000000 0.000000 -1.000000
s 1
g pCube1
usemtl initialShadingGroup
f 40/64/1 33/55/2 12/3/3
f 12/3/3 33/55/2 11/4/4
s 2
f 20/36/5 21/37/6 31/53/7
f 31/53/7 21/37/6 30/50/8
s 3
f 14/5/9 13/6/10 37/61/11
f 37/61/11 13/6/10 36/58/12
s 4
f 21/38/13 34/56/14 30/51/15
f 30/51/15 34/56/14 35/57/16
s 5
f 31/52/17 38/62/18 20/35/19
f 20/35/19 38/62/18 39/63/20
s 6
f 48/74/21 41/65/22 4/15/23
f 4/15/23 41/65/22 3/16/24
s 7
f 24/42/25 17/31/26 27/47/27
f 27/47/27 17/31/26 26/44/28
s 8
f 5/18/29 44/68/30 6/17/31
f 6/17/31 44/68/30 45/71/32
s 9
f 46/72/33 47/73/34 27/46/35
f 27/46/35 47/73/34 24/41/36
s 10
f 42/66/37 43/67/38 17/32/39
f 17/32/39 43/67/38 26/45/40
s 11
f 1/1/41 2/2/42 9/25/43
f 9/25/43 2/2/42 10/26/44
s 12
f 8/8/45 7/7/46 15/27/47
f 15/27/47 7/7/46 16/28/48
s 10
f 41/65/49 42/66/37 3/16/50
f 3/16/50 42/66/37 17/32/39
s 11
f 18/33/51 1/1/41 19/34/52
f 19/34/52 1/1/41 9/25/43
s 5
f 20/35/19 39/63/20 12/3/53
f 12/3/53 39/63/20 40/64/54
s 2
f 12/3/55 11/4/56 20/36/5
f 20/36/5 11/4/56 21/37/6
s 4
f 33/55/57 34/56/14 11/4/58
f 11/4/58 34/56/14 21/38/13
s 11
f 23/40/59 22/39/60 2/2/42
f 2/2/42 22/39/60 10/26/44
s 9
f 47/73/34 48/74/61 24/41/36
f 24/41/36 48/74/61 4/15/62
s 7
f 3/16/63 17/31/26 4/15/64
f 4/15/64 17/31/26 24/42/25
s 10
f 43/67/38 44/69/65 26/45/40
f 26/45/40 44/69/65 5/24/66
s 7
f 27/47/27 26/44/28 6/17/67
f 6/17/67 26/44/28 5/18/68
s 9
f 45/70/69 46/72/33 6/22/70
f 6/22/70 46/72/33 27/46/35
s 12
f 28/48/71 8/9/45 29/49/72
f 29/49/72 8/9/45 15/29/47
s 4
f 30/51/15 35/57/16 13/10/73
f 13/10/73 35/57/16 36/59/74
s 2
f 31/53/7 30/50/8 14/5/75
f 14/5/75 30/50/8 13/6/76
s 5
f 37/60/77 38/62/18 14/12/78
f 14/12/78 38/62/18 31/52/17
s 12
f 25/43/79 32/54/80 7/11/46
f 7/11/46 32/54/80 16/30/48
s 4
f 61/91/81 62/92/82 33/55/57
f 33/55/57 62/92/82 34/56/14
f 36/59/74 35/57/16 54/83/83
f 54/83/83 35/57/16 53/81/84
s 3
f 37/61/11 36/58/12 55/85/85
f 55/85/85 36/58/12 54/82/86
s 5
f 55/84/87 56/86/88 37/60/77
f 37/60/77 56/86/88 38/62/18
f 40/64/54 39/63/20 60/90/89
f 60/90/89 39/63/20 59/89/90
s 1
f 60/90/91 61/91/92 40/64/1
f 40/64/1 61/91/92 33/55/2
s 10
f 57/87/93 58/88/94 41/65/49
f 41/65/49 58/88/94 42/66/37
f 49/75/95 50/77/96 43/67/38
f 43/67/38 50/77/96 44/69/65
s 8
f 45/71/32 44/68/30 51/79/97
f 51/79/97 44/68/30 50/76/98
s 9
f 51/78/99 52/80/100 45/70/69
f 45/70/69 52/80/100 46/72/33
f 63/93/101 64/94/102 47/73/34
f 47/73/34 64/94/102 48/74/61
s 6
f 64/94/103 57/87/104 48/74/21
f 48/74/21 57/87/104 41/65/22
s 25
f 62/92/105 63/93/106 34/56/107
f 34/56/107 63/93/106 47/73/108
s 26
f 47/73/109 46/72/110 34/56/111
f 34/56/111 46/72/110 35/57/112
s 27
f 46/72/113 52/80/114 35/57/115
f 35/57/115 52/80/114 53/81/116
s 28
f 58/88/117 59/89/118 42/66/119
f 42/66/119 59/89/118 39/63/120
s 29
f 39/63/121 38/62/122 42/66/123
f 42/66/123 38/62/122 43/67/124
s 30
f 38/62/125 56/86/126 43/67/127
f 43/67/127 56/86/126 49/75/128
s 10
f 7/23/129 50/77/96 25/43/130
f 25/43/130 50/77/96 49/75/95
s 8
f 51/79/97 50/76/98 8/19/131
f 8/19/131 50/76/98 7/20/132
s 9
f 28/48/133 52/80/100 8/21/134
f 8/21/134 52/80/100 51/78/99
s 27
f 53/81/116 52/80/114 29/49/135
f 29/49/135 52/80/114 28/48/136
s 4
f 54/83/83 53/81/84 15/29/137
f 15/29/137 53/81/84 29/49/138
s 3
f 55/85/85 54/82/86 16/28/139
f 16/28/139 54/82/86 15/27/140
s 5
f 16/30/141 32/54/142 55/84/87
f 55/84/87 32/54/142 56/86/88
s 30
f 49/75/128 56/86/126 25/43/143
f 25/43/143 56/86/126 32/54/144
s 10
f 18/33/145 58/88/94 1/13/146
f 1/13/146 58/88/94 57/87/93
s 28
f 19/34/147 59/89/118 18/33/148
f 18/33/148 59/89/118 58/88/117
s 5
f 60/90/89 59/89/90 9/25/149
f 9/25/149 59/89/90 19/34/150
s 1
f 9/25/151 10/26/152 60/90/91
f 60/90/91 10/26/152 61/91/92
s 4
f 10/26/153 22/39/154 61/91/81
f 61/91/81 22/39/154 62/92/82
s 25
f 23/40/155 63/93/106 22/39/156
f 22/39/156 63/93/106 62/92/105
s 9
f 2/14/157 64/94/102 23/40/158
f 23/40/158 64/94/102 63/93/101
s 6
f 1/13/159 57/87/104 2/14/160
f 2/14/160 57/87/104 64/94/103
