# This file uses centimeters as units for non-parametric coordinates.

mtllib zack_backLid.mtl
g default
v -3.238187 1.092004 -8.499998
v -3.238187 1.092004 8.500000
v -3.585498 -0.946617 -8.499998
v -3.585498 -0.946617 8.500000
v -3.686848 -0.719820 -8.499998
v -3.686847 -0.719820 8.500000
v -4.298191 -0.719820 -8.499998
v -4.298191 -0.719820 8.500000
v -3.053637 1.092004 8.500000
v -3.053637 1.092004 -8.499998
v -3.436179 1.324350 8.500000
v -3.436179 1.324350 -8.499998
v -3.757788 1.324350 8.500000
v -3.757788 1.324350 -8.499998
v -3.053637 1.324350 -8.499998
v -3.053637 1.324350 8.500000
v -4.062895 -1.213633 8.500000
v -3.711503 -1.213633 8.500000
v -3.711503 -1.213633 -8.499998
v -4.062895 -1.213633 -8.499998
v -3.051863 -1.213633 -8.499998
v -3.051863 -0.946617 -8.499998
v -3.051863 -0.946617 8.500000
v -3.051863 -1.213633 8.500000
vt 0.394998 0.312500
vt 0.394998 0.688440
vt 0.465474 0.688440
vt 0.465474 0.312500
vt 0.478331 0.688440
vt 0.452399 0.688440
vt 0.467168 0.688440
vt 0.478331 0.688440
vt 0.486624 0.688440
vt 0.486624 0.312500
vt 0.478331 0.312500
vt 0.394416 0.688440
vt 0.394275 0.688440
vt 0.394998 0.688440
vt 0.452399 0.312500
vt 0.467168 0.312500
vt 0.478332 0.312500
vt 0.487971 0.312500
vt 0.394420 0.312500
vt 0.487976 0.688440
vt 0.402287 0.688440
vt 0.402287 0.312500
vt 0.394998 0.312500
vt 0.394280 0.312500
vn 0.970682 -0.240369 0.000000
vn 0.970682 -0.240369 -0.000000
vn 0.970682 -0.240369 -0.000000
vn 0.970682 -0.240369 -0.000000
vn 0.000000 0.000000 1.000000
vn -0.000000 0.000000 1.000000
vn 0.000001 0.000000 1.000000
vn 0.000000 0.000000 1.000000
vn -0.000002 0.000000 1.000000
vn 0.000000 1.000000 0.000000
vn 0.000000 1.000000 0.000000
vn 0.000000 1.000000 0.000000
vn 0.000000 1.000000 0.000000
vn 0.000003 0.000000 1.000000
vn 0.000001 0.000000 1.000000
vn 0.000001 0.000000 1.000000
vn 0.000000 0.000000 1.000000
vn 0.912987 0.407989 -0.000000
vn 0.912988 0.407986 -0.000000
vn 0.912987 0.407989 -0.000000
vn 0.912988 0.407986 0.000000
vn -0.902757 -0.430151 0.000000
vn -0.902757 -0.430152 0.000000
vn -0.902757 -0.430151 0.000000
vn -0.902757 -0.430152 0.000000
vn 0.000000 0.000000 -1.000000
vn 0.000000 0.000000 -1.000000
vn 0.000000 0.000000 -1.000000
vn 0.000000 0.000000 -1.000000
vn 0.000000 0.000000 -1.000000
vn 0.000000 0.000000 -1.000000
vn 0.000000 0.000000 -1.000000
vn 0.000001 -1.000000 0.000000
vn 0.000001 -1.000000 0.000000
vn 0.000001 -1.000000 0.000000
vn 0.000001 -1.000000 0.000000
vn 0.000000 0.000000 1.000000
vn 0.000000 0.000000 1.000000
vn -0.966787 0.255583 0.000000
vn -0.966787 0.255582 0.000000
vn -0.966787 0.255583 0.000000
vn -0.966787 0.255582 0.000000
vn 0.000000 0.000000 -1.000000
vn 0.000004 0.000000 -1.000000
vn 0.000000 0.000000 -1.000000
vn 0.000004 0.000000 -1.000000
vn 0.000000 0.000000 -1.000000
vn 0.000000 0.000000 1.000000
vn 0.000000 0.000000 1.000000
vn 0.000002 0.000000 1.000000
vn 0.000002 0.000000 1.000000
vn 0.000000 0.000000 1.000000
vn 0.000000 0.000000 -1.000000
vn 0.000001 0.000000 -1.000000
vn 0.000001 0.000000 -1.000000
vn 0.000003 0.000000 -1.000000
vn 1.000000 0.000000 0.000000
vn 1.000000 0.000000 0.000000
vn 1.000000 0.000000 0.000000
vn 1.000000 0.000000 0.000000
vn 0.000000 1.000000 0.000000
vn 0.000000 1.000000 0.000000
vn 0.000000 1.000000 0.000000
vn 0.000000 1.000000 0.000000
vn -0.000000 1.000000 0.000000
vn -0.000000 1.000000 0.000000
vn -0.000000 1.000000 0.000000
vn -0.000000 1.000000 0.000000
vn 1.000000 0.000000 0.000000
vn 1.000000 -0.000000 0.000000
vn 1.000000 -0.000002 0.000000
vn 1.000000 -0.000002 0.000000
vn 0.000000 -1.000000 0.000000
vn 0.000000 -1.000000 0.000000
vn 0.000000 -1.000000 0.000000
vn 0.000000 -1.000000 0.000000
vn -0.000000 -1.000000 0.000000
vn -0.000000 -1.000000 0.000000
vn -0.000000 -1.000000 0.000000
vn 0.000000 -1.000000 0.000000
s 1
g zack_backLid tri
usemtl initialShadingGroup
f 1/1/1 2/2/2 5/4/3
f 5/4/3 2/2/2 6/3/4
s 2
f 8/6/5 17/7/6 6/3/7
f 6/3/7 17/7/6 4/5/8
f 4/5/8 17/7/6 18/8/9
s 3
f 4/5/10 23/9/11 3/11/12
f 3/11/12 23/9/11 22/10/13
s 4
f 9/12/14 16/13/15 2/2/16
f 2/2/16 16/13/15 11/14/17
s 5
f 5/4/18 6/3/19 3/11/20
f 3/11/20 6/3/19 4/5/21
s 6
f 8/6/22 7/15/23 17/7/24
f 17/7/24 7/15/23 20/16/25
s 7
f 7/15/26 5/4/27 20/16/28
f 5/4/27 3/11/29 20/16/28
f 3/11/29 19/17/30 20/16/28
f 22/10/31 21/18/32 3/11/29
f 3/11/29 21/18/32 19/17/30
s 8
f 10/19/33 9/12/34 1/1/35
f 1/1/35 9/12/34 2/2/36
s 2
f 18/8/9 24/20/37 4/5/8
f 4/5/8 24/20/37 23/9/38
s 9
f 13/21/39 14/22/40 8/6/41
f 8/6/41 14/22/40 7/15/42
s 10
f 7/15/43 14/22/44 5/4/45
f 14/22/44 12/23/46 5/4/45
f 12/23/46 1/1/47 5/4/45
s 11
f 8/6/48 6/3/49 13/21/50
f 13/21/50 6/3/49 11/14/51
f 11/14/51 6/3/49 2/2/52
s 12
f 12/23/53 15/24/54 1/1/55
f 1/1/55 15/24/54 10/19/56
s 13
f 10/19/57 15/24/58 9/12/59
f 9/12/59 15/24/58 16/13/60
s 14
f 15/24/61 12/23/62 16/13/63
f 16/13/63 12/23/62 11/14/64
s 15
f 12/23/65 14/22/66 11/14/67
f 11/14/67 14/22/66 13/21/68
s 16
f 23/9/69 24/20/70 22/10/71
f 22/10/71 24/20/70 21/18/72
s 17
f 24/20/73 18/8/74 21/18/75
f 21/18/75 18/8/74 19/17/76
s 18
f 18/8/77 17/7/78 19/17/79
f 19/17/79 17/7/78 20/16/80
