# This file uses centimeters as units for non-parametric coordinates.

mtllib zack_platform_v2.mtl
g default
v 1.570598 -1.605678 0.000000
v 1.570598 -2.591195 0.000000
v 2.809142 -2.591195 0.000000
v 2.217885 -1.605678 0.000000
v 2.809139 -2.196929 0.000000
v -0.291128 -2.591195 -8.500000
v 2.809142 -2.591195 -5.505348
v -0.291128 -2.591195 -5.505348
v -0.291128 -1.605678 -5.505348
v 1.570598 -2.591195 -4.434470
v 2.809142 -2.591195 -4.434470
v 1.570598 -1.605678 -4.434470
v 2.217885 -1.605678 -4.434470
v 2.809140 -2.196929 -4.434470
v 2.809142 -2.591195 -8.123683
v 2.432825 -2.591195 -8.500000
v -0.291128 -1.605678 -7.761220
v 2.809142 -2.591195 -7.761220
v -0.291128 -2.591195 -7.761220
v -4.015067 -2.591195 -1.007488
v -4.015067 -2.591195 -3.205260
v -4.015067 -1.605678 -1.007488
v -4.015067 -1.605678 -3.205260
v 2.809142 -2.591195 -7.150323
v -0.291128 -2.591195 -7.150323
v -0.291128 -1.605678 -7.150323
v -1.765496 -1.605678 -4.594707
v -1.765496 -2.591196 -4.594707
v -1.422958 -2.591195 -6.332141
v -1.422958 -1.605678 -6.332142
v -0.291128 -1.605678 -8.346290
v -0.291128 -1.759388 -8.500000
v 2.369150 -1.605678 -8.346290
v 2.432820 -1.759388 -8.500000
v 2.655427 -1.605678 -5.505348
v 2.809137 -1.759388 -5.505348
v 2.809137 -1.759388 -4.743859
v 2.655427 -1.605678 -4.743859
v 2.655426 -1.605678 -8.060014
v 2.809137 -1.759388 -8.123683
v 2.809137 -1.759388 -7.761220
v 2.655426 -1.605678 -7.761220
v 2.655427 -1.605678 -7.150323
v 2.809137 -1.759388 -7.150323
v -1.626948 -1.605678 -2.472674
v -1.601556 -2.591195 -2.488254
v 1.570598 -2.591195 -1.961261
v 2.809142 -2.591195 -1.961261
v 2.809139 -2.196929 -1.961261
v 2.217885 -1.605678 -1.961261
v 1.570598 -1.605678 -1.961261
v 0.374127 -2.062790 -0.752090
v 0.374127 -2.591195 -0.752090
v 0.374127 -2.062790 0.000000
v 0.374127 -2.591195 0.000000
v -0.291128 -2.591195 8.500000
v 2.809142 -2.591195 5.505348
v -0.291128 -2.591195 5.505348
v -0.291128 -1.605678 5.505348
v 1.570598 -2.591195 4.434470
v 2.809142 -2.591195 4.434470
v 1.570598 -1.605678 4.434470
v 2.217885 -1.605678 4.434470
v 2.809140 -2.196929 4.434470
v 2.809142 -2.591195 8.123683
v 2.432825 -2.591195 8.500000
v -0.291128 -1.605678 7.761220
v 2.809142 -2.591195 7.761220
v -0.291128 -2.591195 7.761220
v -4.015067 -2.591195 1.007488
v -4.015067 -2.591195 3.205260
v -4.015067 -1.605678 1.007488
v -4.015067 -1.605678 3.205260
v 2.809142 -2.591195 7.150323
v -0.291128 -2.591195 7.150323
v -0.291128 -1.605678 7.150323
v -1.765496 -1.605678 4.594707
v -1.765496 -2.591196 4.594707
v -1.422958 -2.591195 6.332141
v -1.422958 -1.605678 6.332142
v -0.291128 -1.605678 8.346290
v -0.291128 -1.759388 8.500000
v 2.369150 -1.605678 8.346290
v 2.432820 -1.759388 8.500000
v 2.655427 -1.605678 5.505348
v 2.809137 -1.759388 5.505348
v 2.809137 -1.759388 4.743859
v 2.655427 -1.605678 4.743859
v 2.655426 -1.605678 8.060014
v 2.809137 -1.759388 8.123683
v 2.809137 -1.759388 7.761220
v 2.655426 -1.605678 7.761220
v 2.655427 -1.605678 7.150323
v 2.809137 -1.759388 7.150323
v -1.626948 -1.605678 2.472674
v -1.601556 -2.591195 2.488254
v 1.570598 -2.591195 1.961261
v 2.809142 -2.591195 1.961261
v 2.809139 -2.196929 1.961261
v 2.217885 -1.605678 1.961261
v 1.570598 -1.605678 1.961261
v 0.374127 -2.062790 0.752090
v 0.374127 -2.591195 0.752090
vt 0.375000 0.940213
vt 0.375000 0.955961
vt 0.625000 0.955961
vt 0.625000 0.940213
vt 0.330961 0.000000
vt 0.315213 0.000000
vt 0.315213 0.250000
vt 0.330961 0.250000
vt 0.625000 0.980152
vt 0.375000 0.980152
vt 0.375000 0.989136
vt 0.625000 0.989136
vt 0.375000 0.875000
vt 0.625000 0.875000
vt 0.750000 0.000000
vt 0.684787 0.000000
vt 0.643591 0.123934
vt 0.682714 0.150022
vt 0.508559 0.309787
vt 0.375000 0.309787
vt 0.375000 0.375000
vt 0.508559 0.375000
vt 0.315213 0.000000
vt 0.250000 0.000000
vt 0.250000 0.250000
vt 0.315213 0.250000
vt 0.597872 0.256920
vt 0.562768 0.305237
vt 0.375000 1.000000
vt 0.592503 1.000000
vt 0.625000 0.994466
vt 0.364136 0.000000
vt 0.355152 0.000000
vt 0.355152 0.250000
vt 0.364136 0.250000
vt 0.330957 0.000004
vt 0.330961 0.250000
vt 0.352980 0.272020
vt 0.330961 0.000000
vt 0.000000 0.000000
vt 1.000000 0.000000
vt 1.136332 1.065508
vt 0.000000 1.000000
vt 0.187500 0.134924
vt 1.000000 0.000000
vt 1.000000 1.000000
vt 0.000000 1.000000
vt 0.375000 0.252260
vt 0.375000 0.366977
vt 0.375000 0.260864
vt 0.375000 0.211008
vt 0.548762 0.252260
vt 0.560789 0.211008
vt 0.569526 0.256470
vt 0.589410 0.215679
vt 0.568218 0.292731
vt 0.595416 0.248178
vt 0.591643 0.227760
vt 0.558388 0.261833
vt 0.569526 0.260864
vt 0.590242 0.220178
vt 0.375000 0.000000
vt 0.592503 -0.000000
vt 0.669039 0.000000
vt 0.644848 0.000000
vt 0.635864 0.000000
vt 0.630534 0.000000
vt 0.315213 0.250000
vt 0.315213 0.000000
vt 0.270168 0.000000
vt 0.375000 0.895168
vt 0.625000 0.895168
vt 0.729832 0.000000
vt 0.670615 0.141954
vt 0.508559 0.354832
vt 0.270168 0.250000
vt 0.375000 0.354832
vt 0.270168 0.000000
vt 0.270168 0.250000
vt 0.250000 0.250000
vt 0.250000 0.000000
vt 0.375000 0.940213
vt 0.625000 0.940213
vt 0.625000 0.955961
vt 0.375000 0.955961
vt 0.330961 0.000000
vt 0.330961 0.250000
vt 0.315213 0.250000
vt 0.315213 0.000000
vt 0.625000 0.980152
vt 0.625000 0.989136
vt 0.375000 0.989136
vt 0.375000 0.980152
vt 0.375000 0.895168
vt 0.625000 0.895168
vt 0.729832 0.000000
vt 0.670615 0.141954
vt 0.643591 0.123934
vt 0.684787 0.000000
vt 0.508559 0.309787
vt 0.508559 0.354832
vt 0.375000 0.354832
vt 0.375000 0.309787
vt 0.315213 0.000000
vt 0.315213 0.250000
vt 0.270168 0.250000
vt 0.270168 0.000000
vt 0.562768 0.305237
vt 0.597872 0.256920
vt 0.625000 0.994466
vt 0.592503 1.000000
vt 0.375000 1.000000
vt 0.364136 0.000000
vt 0.364136 0.250000
vt 0.355152 0.250000
vt 0.355152 0.000000
vt 0.330957 0.000004
vt 0.330961 0.250000
vt 0.315213 0.250000
vt 0.315213 0.000000
vt 0.000000 1.000000
vt 1.136332 1.065508
vt 1.000000 0.000000
vt 0.000000 0.000000
vt 0.000000 1.000000
vt 1.000000 1.000000
vt 1.000000 0.000000
vt 0.187500 0.134924
vt 0.352980 0.272020
vt 0.375000 0.252260
vt 0.375000 0.260864
vt 0.375000 0.366977
vt 0.375000 0.211008
vt 0.560789 0.211008
vt 0.548762 0.252260
vt 0.589410 0.215679
vt 0.569526 0.256470
vt 0.568218 0.292731
vt 0.558388 0.261833
vt 0.591643 0.227760
vt 0.595416 0.248178
vt 0.590242 0.220178
vt 0.569526 0.260864
vt 0.375000 0.000000
vt 0.592503 -0.000000
vt 0.669039 0.000000
vt 0.635864 0.000000
vt 0.644848 0.000000
vt 0.630534 0.000000
vt 0.330961 0.000000
vt 0.375000 0.875000
vt 0.625000 0.875000
vt 0.750000 0.000000
vt 0.682714 0.150022
vt 0.508559 0.375000
vt 0.375000 0.375000
vt 0.270168 0.000000
vt 0.270168 0.250000
vt 0.250000 0.250000
vt 0.250000 0.000000
vt 0.250000 0.250000
vt 0.250000 0.000000
vn 0.000000 -1.000000 0.000000
vn 0.000000 -1.000000 -0.000000
vn 0.000000 -1.000000 0.000000
vn 0.000000 -1.000000 0.000000
vn -1.000000 0.000000 0.000000
vn -1.000000 0.000000 0.000000
vn -1.000000 0.000000 0.000000
vn -1.000000 0.000000 0.000000
vn 0.000000 -1.000000 -0.000000
vn 0.000000 -1.000000 -0.000000
vn 0.000000 -1.000000 0.000000
vn 0.000000 -1.000000 0.000000
vn 0.000000 -1.000000 0.000000
vn 0.000000 -1.000000 0.000000
vn 1.000000 0.000005 0.000000
vn 1.000000 0.000005 0.000000
vn 1.000000 0.000005 0.000000
vn 1.000000 0.000005 0.000000
vn 0.000000 1.000000 -0.000000
vn 0.000000 1.000000 0.000000
vn 0.000000 1.000000 0.000000
vn 0.000000 1.000000 0.000000
vn -1.000000 0.000000 0.000000
vn -1.000000 0.000000 0.000000
vn -1.000000 0.000000 0.000000
vn -1.000000 0.000000 0.000000
vn 0.707105 0.707109 0.000000
vn 0.707105 0.707109 0.000000
vn 0.707105 0.707109 0.000000
vn 0.707105 0.707109 -0.000000
vn 0.500000 0.500003 0.707105
vn 0.500000 0.500003 0.707105
vn 0.500000 0.500003 0.707105
vn 0.499999 0.500003 0.707105
vn 0.000000 -1.000000 0.000000
vn 0.000000 -1.000000 0.000000
vn 0.000000 -1.000000 0.000000
vn -1.000000 0.000000 0.000000
vn -1.000000 0.000000 0.000000
vn -1.000000 0.000000 0.000000
vn -1.000000 0.000000 0.000000
vn -0.525494 0.000000 -0.850797
vn -0.525495 0.000000 -0.850797
vn -0.525494 0.000000 -0.850797
vn -0.525495 0.000000 -0.850797
vn 0.522951 0.000000 0.852362
vn 0.522951 -0.000000 0.852362
vn 0.522952 -0.000000 0.852362
vn 0.522952 -0.000000 0.852363
vn 0.000000 1.000000 0.000000
vn 0.000000 1.000000 0.000000
vn 0.000000 1.000000 0.000000
vn 0.000000 1.000000 0.000000
vn 0.000000 -1.000000 0.000000
vn -0.000000 -1.000000 0.000000
vn 0.000000 -1.000000 0.000000
vn 0.000000 -1.000000 0.000000
vn 0.000000 -1.000000 0.000000
vn 0.000000 -1.000000 -0.000000
vn 0.000000 -1.000000 -0.000000
vn 0.000000 -1.000000 -0.000000
vn -0.585843 -0.000000 -0.810425
vn -0.585843 -0.000000 -0.810425
vn -0.585843 -0.000000 -0.810425
vn -0.585843 -0.000000 -0.810425
vn 0.000000 1.000000 -0.000000
vn 0.000000 1.000000 -0.000000
vn 0.000000 1.000000 -0.000000
vn 0.000000 1.000000 0.000000
vn -0.981114 0.000000 -0.193429
vn -0.981114 -0.000000 -0.193428
vn -0.981114 -0.000000 -0.193428
vn -0.981114 -0.000000 -0.193428
vn -1.000000 0.000000 0.000000
vn -1.000000 0.000000 0.000000
vn -1.000000 0.000000 0.000000
vn -1.000000 0.000000 0.000000
vn -1.000000 0.000000 0.000000
vn 0.000000 0.707107 -0.707107
vn 0.000000 0.707107 -0.707107
vn 0.000000 0.707107 -0.707107
vn 0.000000 0.707107 -0.707107
vn 0.499999 0.707109 -0.499999
vn 0.499999 0.707109 -0.499999
vn 0.499999 0.707108 -0.499999
vn 0.499999 0.707108 -0.499999
vn 0.707105 0.707109 0.000000
vn 0.707105 0.707109 0.000000
vn 0.707105 0.707108 -0.000000
vn 0.707105 0.707109 -0.000000
vn 0.707106 0.707108 0.000000
vn 0.707106 0.707107 0.000000
vn 0.707105 0.707108 -0.000001
vn 0.707105 0.707108 -0.000001
vn 0.707104 0.707110 -0.000000
vn 0.707104 0.707109 -0.000000
vn 0.000000 0.000000 -1.000000
vn 0.000000 0.000000 -1.000000
vn 0.000000 0.000000 -1.000000
vn 0.000000 0.000000 -1.000000
vn 1.000000 0.000005 -0.000000
vn 1.000000 0.000005 -0.000000
vn 1.000000 0.000007 0.000000
vn 1.000000 0.000005 -0.000000
vn 1.000000 0.000005 -0.000000
vn 1.000000 0.000005 -0.000000
vn 1.000000 0.000006 0.000000
vn 0.000000 1.000000 0.000000
vn 0.000000 1.000000 0.000000
vn 0.000000 1.000000 0.000000
vn 0.000000 1.000000 0.000000
vn 0.000000 1.000000 -0.000000
vn 0.707106 0.000004 -0.707108
vn 0.707107 0.000004 -0.707107
vn 0.707106 0.000004 -0.707107
vn 0.707107 0.000004 -0.707107
vn 1.000000 0.000006 0.000000
vn 1.000000 0.000005 0.000000
vn 0.000000 1.000000 0.000000
vn 0.000000 1.000000 0.000000
vn 0.000000 1.000000 0.000000
vn 0.522951 0.000000 0.852363
vn 0.522951 -0.000000 0.852363
vn 0.000000 -1.000000 0.000000
vn 0.000000 -1.000000 0.000000
vn 0.000000 -1.000000 0.000000
vn 0.000000 -1.000000 0.000000
vn 1.000000 0.000005 0.000000
vn 1.000000 0.000005 0.000000
vn 0.707105 0.707108 0.000000
vn 0.707105 0.707109 0.000000
vn 0.000000 1.000000 0.000000
vn 0.000000 1.000000 0.000000
vn -1.000000 0.000000 0.000000
vn -1.000000 0.000000 0.000000
vn -1.000000 0.000000 0.000000
vn -1.000000 0.000000 0.000000
vn -0.710830 0.000000 -0.703364
vn -0.710830 0.000000 -0.703364
vn -0.710830 0.000000 -0.703364
vn -0.710830 0.000000 -0.703364
vn -0.356891 0.934146 0.000000
vn -0.356891 0.934146 0.000000
vn -0.356891 0.934146 0.000000
vn -0.356891 0.934146 0.000000
vn 0.000000 -1.000000 0.000000
vn 0.000000 -1.000000 0.000000
vn 0.000000 -1.000000 0.000000
vn 0.000000 -1.000000 0.000000
vn 0.000000 -1.000000 0.000000
vn 0.000000 -1.000000 -0.000000
vn 0.000000 -1.000000 -0.000000
vn 0.000000 -1.000000 -0.000000
vn -1.000000 0.000000 0.000000
vn -1.000000 0.000000 0.000000
vn -1.000000 0.000000 0.000000
vn -1.000000 0.000000 0.000000
vn 0.000000 -1.000000 0.000000
vn 0.000000 -1.000000 0.000000
vn 0.000000 -1.000000 0.000000
vn 0.000000 -1.000000 0.000000
vn 0.000000 -1.000000 0.000000
vn 0.000000 -1.000000 0.000000
vn 1.000000 0.000005 -0.000000
vn 1.000000 0.000005 -0.000000
vn 1.000000 0.000005 -0.000000
vn 1.000000 0.000005 -0.000000
vn 0.000000 1.000000 0.000000
vn 0.000000 1.000000 0.000000
vn 0.000000 1.000000 0.000000
vn 0.000000 1.000000 0.000000
vn -1.000000 0.000000 0.000000
vn -1.000000 0.000000 0.000000
vn -1.000000 0.000000 0.000000
vn -1.000000 0.000000 0.000000
vn 0.707105 0.707109 -0.000000
vn 0.707105 0.707109 -0.000000
vn 0.707105 0.707109 -0.000000
vn 0.707105 0.707109 0.000000
vn 0.500000 0.500003 -0.707105
vn 0.500000 0.500003 -0.707105
vn 0.500000 0.500003 -0.707105
vn 0.499999 0.500003 -0.707105
vn 0.000000 -1.000000 0.000000
vn 0.000000 -1.000000 0.000000
vn 0.000000 -1.000000 0.000000
vn -1.000000 0.000000 0.000000
vn -1.000000 0.000000 0.000000
vn -1.000000 0.000000 0.000000
vn -1.000000 0.000000 0.000000
vn -0.525494 0.000000 0.850797
vn -0.525494 0.000000 0.850797
vn -0.525495 0.000000 0.850797
vn -0.525495 0.000000 0.850797
vn 0.522951 -0.000000 -0.852363
vn 0.522951 -0.000000 -0.852363
vn 0.522951 -0.000000 -0.852363
vn 0.522951 0.000000 -0.852363
vn 0.000000 1.000000 -0.000000
vn 0.000000 1.000000 -0.000000
vn 0.000000 1.000000 -0.000000
vn 0.000000 1.000000 0.000000
vn 0.000000 -1.000000 -0.000000
vn -0.000000 -1.000000 -0.000000
vn 0.000000 -1.000000 -0.000000
vn 0.000000 -1.000000 0.000000
vn 0.000000 -1.000000 0.000000
vn 0.000000 -1.000000 0.000000
vn 0.000000 -1.000000 0.000000
vn 0.000000 -1.000000 0.000000
vn -0.585843 -0.000000 0.810425
vn -0.585843 -0.000000 0.810425
vn -0.585843 -0.000000 0.810425
vn -0.585843 -0.000000 0.810425
vn 0.000000 1.000000 0.000000
vn 0.000000 1.000000 0.000000
vn 0.000000 1.000000 0.000000
vn 0.000000 1.000000 0.000000
vn -0.981114 0.000000 0.193428
vn -0.981114 0.000000 0.193428
vn -0.981114 0.000000 0.193428
vn -0.981114 0.000000 0.193428
vn -1.000000 0.000000 0.000000
vn -1.000000 0.000000 0.000000
vn -1.000000 0.000000 0.000000
vn -1.000000 0.000000 0.000000
vn -1.000000 0.000000 0.000000
vn 0.000000 0.707107 0.707107
vn 0.000000 0.707107 0.707107
vn 0.000000 0.707107 0.707107
vn 0.000000 0.707107 0.707107
vn 0.499998 0.707109 0.500000
vn 0.499999 0.707108 0.500000
vn 0.499998 0.707108 0.500000
vn 0.499999 0.707108 0.499999
vn 0.707105 0.707109 0.000000
vn 0.707105 0.707108 0.000000
vn 0.707105 0.707109 0.000000
vn 0.707105 0.707109 0.000000
vn 0.707106 0.707108 0.000000
vn 0.707106 0.707107 0.000000
vn 0.707106 0.707108 0.000001
vn 0.707104 0.707110 0.000000
vn 0.707105 0.707108 0.000001
vn 0.707104 0.707109 0.000000
vn 0.000000 0.000000 1.000000
vn 0.000000 0.000000 1.000000
vn 0.000000 0.000000 1.000000
vn 0.000000 0.000000 1.000000
vn 1.000000 0.000005 0.000000
vn 1.000000 0.000005 0.000000
vn 1.000000 0.000007 0.000000
vn 1.000000 0.000005 0.000000
vn 1.000000 0.000005 0.000000
vn 1.000000 0.000005 0.000000
vn 1.000000 0.000006 0.000000
vn 0.000000 1.000000 -0.000000
vn 0.000000 1.000000 -0.000000
vn 0.000000 1.000000 -0.000000
vn 0.000000 1.000000 0.000000
vn 0.000000 1.000000 0.000000
vn 0.707106 0.000004 0.707108
vn 0.707106 0.000004 0.707107
vn 0.707107 0.000004 0.707107
vn 0.707107 0.000004 0.707106
vn 1.000000 0.000006 0.000000
vn 1.000000 0.000005 0.000000
vn 0.000000 1.000000 0.000000
vn 0.000000 1.000000 0.000000
vn 0.000000 1.000000 0.000000
vn 0.522951 0.000000 -0.852363
vn 0.522951 -0.000000 -0.852363
vn 0.000000 -1.000000 -0.000000
vn 0.000000 -1.000000 0.000000
vn 0.000000 -1.000000 0.000000
vn 0.000000 -1.000000 0.000000
vn 1.000000 0.000005 0.000000
vn 1.000000 0.000005 -0.000000
vn 0.707105 0.707108 0.000000
vn 0.707105 0.707109 0.000000
vn 0.000000 1.000000 0.000000
vn 0.000000 1.000000 0.000000
vn -1.000000 0.000000 0.000000
vn -1.000000 0.000000 0.000000
vn -1.000000 0.000000 0.000000
vn -1.000000 0.000000 0.000000
vn -0.710830 0.000000 0.703364
vn -0.710830 0.000000 0.703364
vn -0.710830 0.000000 0.703364
vn -0.710830 0.000000 0.703364
vn -0.356891 0.934146 0.000000
vn -0.356891 0.934146 0.000000
vn -0.356891 0.934146 0.000000
vn -0.356891 0.934146 0.000000
vn 0.000000 -1.000000 0.000000
vn 0.000000 -1.000000 0.000000
vn 0.000000 -1.000000 0.000000
vn 0.000000 -1.000000 0.000000
s 1
g zack_platform_v2
usemtl initialShadingGroup
f 8/2/1 7/3/2 10/1/3
f 10/1/3 7/3/2 11/4/4
s 2
f 21/5/5 20/6/6 23/8/7
f 23/8/7 20/6/6 22/7/8
s 1
f 24/9/9 25/10/10 18/12/11
f 18/12/11 25/10/10 19/11/12
f 47/71/13 10/1/3 48/72/14
f 48/72/14 10/1/3 11/4/4
s 4
f 48/73/15 11/16/16 49/74/17
f 49/74/17 11/16/16 14/17/18
s 5
f 13/19/19 12/20/20 50/75/21
f 50/75/21 12/20/20 51/77/22
s 6
f 10/23/23 47/70/24 12/26/25
f 12/26/25 47/70/24 51/76/26
s 7
f 49/74/27 14/17/28 50/75/29
f 50/75/29 14/17/28 13/19/30
s 8
f 13/19/31 14/17/32 38/28/33
f 38/28/33 14/17/32 37/27/34
s 1
f 19/11/12 6/29/35 18/12/11
f 18/12/11 6/29/35 15/31/36
f 6/29/35 16/30/37 15/31/36
s 9
f 19/32/38 25/33/39 17/35/40
f 17/35/40 25/33/39 26/34/41
s 10
f 28/36/42 21/5/43 27/37/44
f 27/37/44 21/5/43 23/8/45
s 1
f 8/2/1 25/10/10 7/3/2
f 7/3/2 25/10/10 24/9/9
s 11
f 22/7/46 20/6/47 45/68/48
f 45/68/48 20/6/47 46/69/49
s 5
f 22/7/50 45/68/51 23/8/52
f 23/8/52 45/68/51 27/37/53
s 13
f 20/6/54 21/5/55 46/69/56
f 46/69/56 21/5/55 28/36/57
s 14
f 25/40/58 8/41/59 29/43/60
f 29/43/60 8/41/59 28/42/61
s 15
f 30/47/62 26/44/63 29/46/64
f 29/46/64 26/44/63 25/45/65
s 5
f 27/37/66 9/38/67 30/47/68
f 30/47/68 9/38/67 26/44/69
s 17
f 28/36/70 27/37/71 29/43/72
f 29/43/72 27/37/71 30/47/73
s 18
f 6/29/74 19/32/75 32/49/76
f 17/50/77 31/48/78 19/32/75
f 31/48/78 32/49/76 19/32/75
s 19
f 31/48/79 33/52/80 32/51/81
f 32/51/81 33/52/80 34/53/82
s 20
f 34/53/83 33/52/84 40/55/85
f 40/55/85 33/52/84 39/54/86
s 21
f 35/56/87 36/57/88 43/59/89
f 43/59/89 36/57/88 44/58/90
f 36/57/88 35/56/87 37/27/91
f 37/27/91 35/56/87 38/28/92
f 40/55/93 39/54/94 41/61/95
f 41/61/95 39/54/94 42/60/96
f 41/61/95 42/60/96 44/58/90
f 44/58/90 42/60/96 43/59/89
s 23
f 6/62/97 32/51/98 16/63/99
f 16/63/99 32/51/98 34/53/100
s 4
f 11/16/16 7/64/101 14/17/18
f 7/64/101 36/57/102 14/17/18
f 36/57/102 37/27/103 14/17/18
f 44/58/104 24/65/105 41/61/106
f 41/61/106 24/65/105 18/66/107
s 5
f 26/44/69 43/59/108 17/50/109
f 17/50/109 43/59/108 42/60/110
f 35/56/111 9/38/67 38/28/112
f 38/28/112 9/38/67 13/19/19
f 9/38/67 12/20/20 13/19/19
s 26
f 16/63/113 34/53/114 15/67/115
f 15/67/115 34/53/114 40/55/116
s 4
f 18/66/107 15/67/117 41/61/106
f 41/61/106 15/67/117 40/55/118
s 5
f 42/60/110 39/54/119 17/50/109
f 39/54/119 33/52/120 17/50/109
f 33/52/120 31/48/121 17/50/109
f 35/56/111 43/59/108 9/38/67
f 9/38/67 43/59/108 26/44/69
s 4
f 7/64/101 24/65/105 36/57/102
f 36/57/102 24/65/105 44/58/104
s 5
f 12/26/20 9/38/67 45/68/51
f 45/68/51 9/38/67 27/37/53
s 11
f 10/23/122 12/26/123 46/69/49
f 46/69/49 12/26/123 45/68/48
s 13
f 28/36/57 8/39/124 46/69/56
f 46/69/56 8/39/124 10/23/125
s 1
f 2/13/126 47/71/13 3/14/127
f 3/14/127 47/71/13 48/72/14
s 4
f 3/15/128 48/73/15 5/18/129
f 5/18/129 48/73/15 49/74/17
s 7
f 5/18/130 49/74/27 4/22/131
f 4/22/131 49/74/27 50/75/29
s 5
f 51/77/22 1/21/132 50/75/21
f 50/75/21 1/21/132 4/22/133
s 27
f 53/78/134 55/81/135 52/79/136
f 52/79/136 55/81/135 54/80/137
s 28
f 53/78/138 52/79/139 47/70/140
f 47/70/140 52/79/139 51/76/141
s 29
f 51/76/142 52/79/143 1/25/144
f 1/25/144 52/79/143 54/80/145
s 30
f 55/81/146 53/78/147 2/24/148
f 2/24/148 53/78/147 47/70/149
s 31
f 61/83/150 57/84/151 60/82/152
f 60/82/152 57/84/151 58/85/153
s 32
f 71/86/154 73/87/155 70/89/156
f 70/89/156 73/87/155 72/88/157
s 31
f 74/90/158 68/91/159 75/93/160
f 75/93/160 68/91/159 69/92/161
f 97/94/162 98/95/163 60/82/152
f 60/82/152 98/95/163 61/83/150
s 35
f 98/96/164 99/97/165 61/99/166
f 61/99/166 99/97/165 64/98/167
s 36
f 63/100/168 100/101/169 62/103/170
f 62/103/170 100/101/169 101/102/171
s 37
f 60/104/172 62/105/173 97/107/174
f 97/107/174 62/105/173 101/106/175
s 38
f 99/97/176 100/101/177 64/98/178
f 64/98/178 100/101/177 63/100/179
s 39
f 63/100/180 88/108/181 64/98/182
f 64/98/182 88/108/181 87/109/183
s 31
f 69/92/161 68/91/159 56/112/184
f 68/91/159 65/110/185 56/112/184
f 65/110/185 66/111/186 56/112/184
s 40
f 69/113/187 67/114/188 75/116/189
f 75/116/189 67/114/188 76/115/190
s 41
f 78/117/191 77/118/192 71/86/193
f 71/86/193 77/118/192 73/87/194
s 31
f 58/85/153 57/84/151 75/93/160
f 75/93/160 57/84/151 74/90/158
s 42
f 96/120/195 70/89/196 95/119/197
f 95/119/197 70/89/196 72/88/198
s 36
f 77/118/199 95/119/200 73/87/201
f 73/87/201 95/119/200 72/88/202
s 44
f 78/117/203 71/86/204 96/120/205
f 96/120/205 71/86/204 70/89/206
s 45
f 78/122/207 58/123/208 79/121/209
f 79/121/209 58/123/208 75/124/210
s 46
f 80/125/211 79/126/212 76/128/213
f 76/128/213 79/126/212 75/127/214
s 36
f 77/118/215 80/125/216 59/129/217
f 59/129/217 80/125/216 76/128/218
s 48
f 78/117/219 79/121/220 77/118/221
f 77/118/221 79/121/220 80/125/222
s 49
f 67/131/223 69/113/224 81/130/225
f 81/130/225 69/113/224 82/132/226
f 69/113/224 56/112/227 82/132/226
s 50
f 84/134/228 83/135/229 82/133/230
f 82/133/230 83/135/229 81/130/231
s 51
f 84/134/232 90/136/233 83/135/234
f 83/135/234 90/136/233 89/137/235
s 52
f 85/138/236 93/139/237 86/141/238
f 86/141/238 93/139/237 94/140/239
f 86/141/238 87/109/240 85/138/236
f 85/138/236 87/109/240 88/108/241
f 90/136/242 91/142/243 89/137/244
f 89/137/244 91/142/243 92/143/245
f 91/142/243 94/140/239 92/143/245
f 92/143/245 94/140/239 93/139/237
s 54
f 56/144/246 66/145/247 82/133/248
f 82/133/248 66/145/247 84/134/249
s 35
f 61/99/166 64/98/167 57/146/250
f 57/146/250 64/98/167 86/141/251
f 64/98/167 87/109/252 86/141/251
f 94/140/253 91/142/254 74/148/255
f 74/148/255 91/142/254 68/147/256
s 36
f 76/128/218 67/131/257 93/139/258
f 93/139/258 67/131/257 92/143/259
f 85/138/260 88/108/261 59/129/217
f 88/108/261 63/100/168 59/129/217
f 63/100/168 62/103/170 59/129/217
s 58
f 66/145/262 65/149/263 84/134/264
f 84/134/264 65/149/263 90/136/265
s 35
f 68/147/256 91/142/254 65/149/266
f 65/149/266 91/142/254 90/136/267
s 36
f 92/143/259 67/131/257 89/137/268
f 89/137/268 67/131/257 83/135/269
f 67/131/257 81/130/270 83/135/269
f 85/138/260 59/129/217 93/139/258
f 93/139/258 59/129/217 76/128/218
s 35
f 57/146/250 86/141/251 74/148/255
f 74/148/255 86/141/251 94/140/253
s 36
f 77/118/199 59/129/217 95/119/200
f 95/119/200 59/129/217 62/105/170
s 42
f 60/104/271 96/120/195 62/105/272
f 62/105/272 96/120/195 95/119/197
s 44
f 78/117/203 96/120/205 58/150/273
f 58/150/273 96/120/205 60/104/274
s 31
f 2/151/275 3/152/276 97/94/162
f 97/94/162 3/152/276 98/95/163
s 35
f 3/153/277 5/154/278 98/96/164
f 98/96/164 5/154/278 99/97/165
s 38
f 5/154/279 4/155/280 99/97/176
f 99/97/176 4/155/280 100/101/177
s 36
f 101/102/171 100/101/169 1/156/281
f 1/156/281 100/101/169 4/155/282
s 59
f 103/157/283 102/158/284 55/160/285
f 55/160/285 102/158/284 54/159/286
s 60
f 101/106/287 102/158/288 97/107/289
f 97/107/289 102/158/288 103/157/290
s 61
f 101/106/291 1/161/292 102/158/293
f 102/158/293 1/161/292 54/159/294
s 62
f 97/107/295 103/157/296 2/162/297
f 2/162/297 103/157/296 55/160/298
